G04*
G04 #@! TF.GenerationSoftware,Altium Limited,Altium Designer,20.1.11 (218)*
G04*
G04 Layer_Color=65535*
%FSLAX25Y25*%
%MOIN*%
G70*
G04*
G04 #@! TF.SameCoordinates,3044359D-6A74-43E1-AAAF-26A8050CFDDE*
G04*
G04*
G04 #@! TF.FilePolarity,Positive*
G04*
G01*
G75*
%ADD10C,0.01575*%
D10*
X369027Y39630D02*
X367715Y40942D01*
X365091D01*
X363779Y39630D01*
Y34383D01*
X365091Y33071D01*
X367715D01*
X369027Y34383D01*
X371651Y40942D02*
Y33071D01*
Y37007D01*
X372963Y38318D01*
X375587D01*
X376899Y37007D01*
Y33071D01*
X392642D02*
X387394D01*
X392642Y38318D01*
Y39630D01*
X391330Y40942D01*
X388706D01*
X387394Y39630D01*
X211547D02*
X210235Y40942D01*
X207611D01*
X206299Y39630D01*
Y34383D01*
X207611Y33071D01*
X210235D01*
X211547Y34383D01*
X214171Y40942D02*
Y33071D01*
Y37007D01*
X215483Y38318D01*
X218106D01*
X219418Y37007D01*
Y33071D01*
X229914D02*
X232538D01*
X231226D01*
Y40942D01*
X229914Y39630D01*
X72441Y162992D02*
Y170864D01*
X75065Y168240D01*
X77689Y170864D01*
Y162992D01*
X84248D02*
X81624D01*
X80312Y164304D01*
Y166928D01*
X81624Y168240D01*
X84248D01*
X85560Y166928D01*
Y165616D01*
X80312D01*
X88184Y162992D02*
Y168240D01*
X92120D01*
X93432Y166928D01*
Y162992D01*
X96055Y168240D02*
Y164304D01*
X97367Y162992D01*
X101303D01*
Y168240D01*
M02*
