G04*
G04 #@! TF.GenerationSoftware,Altium Limited,Altium Designer,20.1.11 (218)*
G04*
G04 Layer_Physical_Order=2*
G04 Layer_Color=16711680*
%FSLAX25Y25*%
%MOIN*%
G70*
G04*
G04 #@! TF.SameCoordinates,3044359D-6A74-43E1-AAAF-26A8050CFDDE*
G04*
G04*
G04 #@! TF.FilePolarity,Positive*
G04*
G01*
G75*
%ADD15C,0.25591*%
%ADD16C,0.09843*%
%ADD17C,0.27559*%
%ADD18C,0.11811*%
G36*
X551732Y-14725D02*
X-16299Y-14725D01*
X-16299Y306063D01*
X551732Y306063D01*
Y-14725D01*
D02*
G37*
%LPC*%
G36*
X536417Y296698D02*
X535256Y296584D01*
X534140Y296245D01*
X533112Y295695D01*
X532210Y294955D01*
X531470Y294054D01*
X530920Y293025D01*
X530582Y291909D01*
X530467Y290748D01*
X530582Y289587D01*
X530920Y288471D01*
X531470Y287442D01*
X532210Y286541D01*
X533112Y285801D01*
X534140Y285251D01*
X535256Y284912D01*
X536417Y284798D01*
X537578Y284912D01*
X538694Y285251D01*
X539723Y285801D01*
X540624Y286541D01*
X541364Y287442D01*
X541914Y288471D01*
X542253Y289587D01*
X542367Y290748D01*
X542253Y291909D01*
X541914Y293025D01*
X541364Y294054D01*
X540624Y294955D01*
X539723Y295695D01*
X538694Y296245D01*
X537578Y296584D01*
X536417Y296698D01*
D02*
G37*
G36*
X-984Y296698D02*
X-2145Y296584D01*
X-3261Y296245D01*
X-4290Y295695D01*
X-5192Y294955D01*
X-5932Y294054D01*
X-6481Y293025D01*
X-6820Y291909D01*
X-6934Y290748D01*
X-6820Y289587D01*
X-6481Y288471D01*
X-5932Y287442D01*
X-5192Y286541D01*
X-4290Y285801D01*
X-3261Y285251D01*
X-2145Y284912D01*
X-984Y284798D01*
X176Y284912D01*
X1292Y285251D01*
X2321Y285801D01*
X3223Y286541D01*
X3963Y287442D01*
X4513Y288471D01*
X4851Y289587D01*
X4966Y290748D01*
X4851Y291909D01*
X4513Y293025D01*
X3963Y294054D01*
X3223Y294955D01*
X2321Y295695D01*
X1292Y296245D01*
X176Y296584D01*
X-984Y296698D01*
D02*
G37*
G36*
X464567Y285871D02*
X463406Y285757D01*
X462290Y285418D01*
X461261Y284868D01*
X460360Y284128D01*
X459620Y283227D01*
X459070Y282198D01*
X458731Y281082D01*
X458617Y279921D01*
X458731Y278761D01*
X459070Y277644D01*
X459620Y276616D01*
X460360Y275714D01*
X461261Y274974D01*
X462290Y274424D01*
X463406Y274086D01*
X464567Y273971D01*
X465728Y274086D01*
X466844Y274424D01*
X467872Y274974D01*
X468774Y275714D01*
X469514Y276616D01*
X470064Y277644D01*
X470402Y278761D01*
X470517Y279921D01*
X470402Y281082D01*
X470064Y282198D01*
X469514Y283227D01*
X468774Y284128D01*
X467872Y284868D01*
X466844Y285418D01*
X465728Y285757D01*
X464567Y285871D01*
D02*
G37*
G36*
X70866Y285871D02*
X69705Y285757D01*
X68589Y285418D01*
X67560Y284868D01*
X66659Y284128D01*
X65919Y283227D01*
X65369Y282198D01*
X65030Y281082D01*
X64916Y279921D01*
X65030Y278760D01*
X65369Y277644D01*
X65919Y276616D01*
X66659Y275714D01*
X67560Y274974D01*
X68589Y274424D01*
X69705Y274086D01*
X70866Y273971D01*
X72027Y274086D01*
X73143Y274424D01*
X74172Y274974D01*
X75073Y275714D01*
X75813Y276616D01*
X76363Y277644D01*
X76702Y278760D01*
X76816Y279921D01*
X76702Y281082D01*
X76363Y282198D01*
X75813Y283227D01*
X75073Y284128D01*
X74172Y284868D01*
X73143Y285418D01*
X72027Y285757D01*
X70866Y285871D01*
D02*
G37*
G36*
X384055Y246303D02*
Y246299D01*
X151378Y246299D01*
Y246303D01*
X150834Y246195D01*
X150373Y245887D01*
X150065Y245426D01*
X149957Y244882D01*
X149961D01*
X149961Y120905D01*
X149957D01*
X150065Y120362D01*
X150373Y119901D01*
X150834Y119592D01*
X151378Y119484D01*
Y119488D01*
X384055Y119488D01*
Y119484D01*
X384599Y119593D01*
X385060Y119901D01*
X385368Y120362D01*
X385476Y120905D01*
X385472D01*
X385472Y244882D01*
X385476D01*
X385368Y245426D01*
X385060Y245887D01*
X384599Y246195D01*
X384055Y246303D01*
D02*
G37*
G36*
X527559Y199257D02*
X526398Y199143D01*
X525282Y198804D01*
X524253Y198254D01*
X523352Y197514D01*
X522612Y196613D01*
X522062Y195584D01*
X521723Y194468D01*
X521609Y193307D01*
X521723Y192146D01*
X522062Y191030D01*
X522612Y190001D01*
X523352Y189100D01*
X524253Y188360D01*
X525282Y187810D01*
X526398Y187471D01*
X527559Y187357D01*
X528720Y187471D01*
X529836Y187810D01*
X530864Y188360D01*
X531766Y189100D01*
X532506Y190001D01*
X533056Y191030D01*
X533394Y192146D01*
X533509Y193307D01*
X533394Y194468D01*
X533056Y195584D01*
X532506Y196613D01*
X531766Y197514D01*
X530864Y198254D01*
X529836Y198804D01*
X528720Y199143D01*
X527559Y199257D01*
D02*
G37*
G36*
X7874Y199257D02*
X6713Y199143D01*
X5597Y198804D01*
X4568Y198254D01*
X3667Y197514D01*
X2927Y196613D01*
X2377Y195584D01*
X2038Y194468D01*
X1924Y193307D01*
X2038Y192146D01*
X2377Y191030D01*
X2927Y190001D01*
X3667Y189100D01*
X4568Y188360D01*
X5597Y187810D01*
X6713Y187471D01*
X7874Y187357D01*
X9035Y187471D01*
X10151Y187810D01*
X11180Y188360D01*
X12081Y189100D01*
X12821Y190001D01*
X13371Y191030D01*
X13710Y192146D01*
X13824Y193307D01*
X13710Y194468D01*
X13371Y195584D01*
X12821Y196613D01*
X12081Y197514D01*
X11180Y198254D01*
X10151Y198804D01*
X9035Y199143D01*
X7874Y199257D01*
D02*
G37*
G36*
X86614Y207145D02*
X84449Y206975D01*
X82338Y206468D01*
X80332Y205637D01*
X78480Y204502D01*
X76829Y203092D01*
X75419Y201441D01*
X74284Y199589D01*
X73453Y197583D01*
X72947Y195472D01*
X72776Y193307D01*
X72947Y191142D01*
X73453Y189031D01*
X74284Y187025D01*
X75419Y185173D01*
X76829Y183522D01*
X78480Y182112D01*
X80332Y180977D01*
X82338Y180146D01*
X84449Y179639D01*
X86614Y179469D01*
X88779Y179639D01*
X90890Y180146D01*
X92896Y180977D01*
X94748Y182112D01*
X96399Y183522D01*
X97809Y185173D01*
X98944Y187025D01*
X99775Y189031D01*
X100282Y191142D01*
X100452Y193307D01*
X100282Y195472D01*
X99775Y197583D01*
X98944Y199589D01*
X97809Y201441D01*
X96399Y203092D01*
X94748Y204502D01*
X92896Y205637D01*
X90890Y206468D01*
X88779Y206975D01*
X86614Y207145D01*
D02*
G37*
G36*
X448819Y208132D02*
X446500Y207950D01*
X444238Y207407D01*
X442088Y206517D01*
X440105Y205301D01*
X438336Y203790D01*
X436825Y202021D01*
X435609Y200038D01*
X434719Y197888D01*
X434176Y195626D01*
X433994Y193307D01*
X434176Y190988D01*
X434719Y188726D01*
X435609Y186577D01*
X436825Y184593D01*
X438336Y182824D01*
X440105Y181313D01*
X442088Y180098D01*
X444238Y179207D01*
X446500Y178664D01*
X448819Y178482D01*
X451138Y178664D01*
X453400Y179207D01*
X455549Y180098D01*
X457533Y181313D01*
X459302Y182824D01*
X460813Y184593D01*
X462028Y186577D01*
X462918Y188726D01*
X463461Y190988D01*
X463644Y193307D01*
X463461Y195626D01*
X462918Y197888D01*
X462028Y200038D01*
X460813Y202021D01*
X459302Y203790D01*
X457533Y205301D01*
X455549Y206517D01*
X453400Y207407D01*
X451138Y207950D01*
X448819Y208132D01*
D02*
G37*
G36*
X444882Y83311D02*
X444831Y83301D01*
X444803Y83305D01*
X440967Y83094D01*
X440965Y83094D01*
X440963Y83094D01*
X440962Y83094D01*
X440888Y83074D01*
X440811Y83077D01*
X437019Y82447D01*
X436950Y82421D01*
X436878Y82416D01*
X436878Y82416D01*
X436876Y82415D01*
X436874Y82415D01*
X436873Y82415D01*
X436870Y82413D01*
X436867Y82413D01*
X433482Y81460D01*
X433167Y81371D01*
X433013Y81321D01*
X432550Y81131D01*
X429919Y80067D01*
X429455Y79882D01*
X429443Y79879D01*
X429425Y79867D01*
X429322Y79818D01*
X429322Y79818D01*
X429321Y79818D01*
X429320Y79817D01*
X429314Y79814D01*
X429027Y79659D01*
X425931Y77992D01*
X425930Y77991D01*
X425929Y77991D01*
X425928Y77991D01*
X425868Y77941D01*
X425840Y77928D01*
X425796Y77910D01*
X422634Y75729D01*
X422633Y75728D01*
X422633Y75728D01*
X422632Y75727D01*
X422577Y75671D01*
X422510Y75633D01*
X419603Y73117D01*
X419579Y73086D01*
X419526Y73050D01*
X419505Y73018D01*
X419491Y73009D01*
X416878Y70190D01*
X416840Y70127D01*
X416785Y70079D01*
X416785Y70079D01*
X416783Y70073D01*
X416778Y70070D01*
X414490Y66982D01*
X414489Y66979D01*
X414487Y66977D01*
X414486Y66977D01*
X414454Y66908D01*
X414404Y66852D01*
X412467Y63531D01*
X412442Y63457D01*
X412397Y63393D01*
X412396Y63392D01*
X412396Y63392D01*
X412396Y63392D01*
X410836Y59882D01*
X410836Y59882D01*
X410836Y59881D01*
X410834Y59873D01*
X410817Y59848D01*
X410803Y59776D01*
X410780Y59734D01*
X409613Y56073D01*
X409613Y56072D01*
X409613Y56071D01*
X409612Y56069D01*
X409603Y55992D01*
X409594Y55970D01*
X409574Y55920D01*
X408815Y52154D01*
Y52153D01*
X408815Y52152D01*
X408815Y52151D01*
X408814Y52078D01*
X408793Y52008D01*
X408793Y52007D01*
X408794Y52003D01*
X408793Y51998D01*
X408451Y48170D01*
X408452Y48166D01*
X408450Y48162D01*
X408450Y48161D01*
X408456Y48115D01*
X408442Y48044D01*
X408447Y48019D01*
X408446Y48014D01*
X408526Y44171D01*
X408543Y44095D01*
X408537Y44017D01*
X408538Y44016D01*
X408538Y44015D01*
X408538Y44015D01*
X409038Y40205D01*
X409063Y40130D01*
X409067Y40052D01*
X409982Y36318D01*
X410015Y36247D01*
X410027Y36169D01*
X411346Y32558D01*
X411356Y32541D01*
X411364Y32500D01*
X411393Y32457D01*
X411400Y32429D01*
X411401Y32429D01*
X411405Y32422D01*
X411407Y32415D01*
X413113Y28971D01*
X413115Y28969D01*
X413115Y28967D01*
X413115Y28966D01*
X413162Y28906D01*
X413190Y28835D01*
X413191Y28834D01*
X413191Y28834D01*
X415263Y25598D01*
X415263Y25598D01*
X415263Y25598D01*
X415264Y25597D01*
X415318Y25541D01*
X415354Y25472D01*
X417563Y22736D01*
X417769Y22481D01*
X417861Y22376D01*
X417867Y22367D01*
X417872Y22364D01*
X418228Y22014D01*
X420602Y19658D01*
X420600Y19656D01*
X420718Y19555D01*
X420974Y19351D01*
X420975Y19350D01*
X420976Y19350D01*
X423727Y17162D01*
X423794Y17127D01*
X423848Y17076D01*
X423849Y17075D01*
X423852Y17074D01*
X423854Y17071D01*
X427106Y15023D01*
X427107Y15023D01*
X427108Y15022D01*
X427109Y15022D01*
X427179Y14995D01*
X427239Y14949D01*
X427241Y14948D01*
X427242Y14948D01*
X427244Y14947D01*
X430699Y13268D01*
X430730Y13260D01*
X430776Y13229D01*
X430822Y13220D01*
X430844Y13207D01*
X434465Y11916D01*
X434542Y11904D01*
X434614Y11872D01*
X437264Y11243D01*
Y8268D01*
X437260D01*
X437368Y7724D01*
X437676Y7263D01*
X438137Y6955D01*
X438681Y6847D01*
Y6850D01*
X451083D01*
Y6847D01*
X451626Y6955D01*
X452087Y7263D01*
X452395Y7724D01*
X452504Y8268D01*
X452500D01*
Y11243D01*
X455150Y11872D01*
X455222Y11904D01*
X455299Y11916D01*
X458920Y13207D01*
X458941Y13220D01*
X458988Y13229D01*
X459034Y13260D01*
X459064Y13268D01*
X459065Y13268D01*
X459065Y13268D01*
X459067Y13269D01*
X459067Y13269D01*
X462520Y14947D01*
X462521Y14948D01*
X462523Y14948D01*
X462524Y14949D01*
X462584Y14995D01*
X462655Y15022D01*
X462655Y15022D01*
X462656Y15023D01*
X462657Y15023D01*
X465909Y17071D01*
X465912Y17074D01*
X465915Y17075D01*
X465916Y17076D01*
X465970Y17127D01*
X466037Y17162D01*
X468788Y19350D01*
X468788Y19350D01*
X468789Y19351D01*
X469045Y19555D01*
X469164Y19656D01*
X469162Y19658D01*
X471535Y22014D01*
X471892Y22364D01*
X471897Y22367D01*
X471903Y22376D01*
X471994Y22481D01*
X472200Y22736D01*
X474410Y25472D01*
X474446Y25541D01*
X474500Y25597D01*
X474500Y25598D01*
X474501Y25598D01*
X474501Y25598D01*
X476574Y28835D01*
X476602Y28906D01*
X476648Y28966D01*
X476649Y28967D01*
X476649Y28969D01*
X476651Y28971D01*
X478357Y32415D01*
X478359Y32423D01*
X478363Y32429D01*
X478363Y32429D01*
X478370Y32457D01*
X478400Y32500D01*
X478408Y32541D01*
X478418Y32558D01*
X479737Y36169D01*
X479748Y36247D01*
X479782Y36318D01*
X480697Y40052D01*
X480700Y40129D01*
X480725Y40203D01*
X480725Y40205D01*
X480725Y40205D01*
X480726Y40205D01*
X481187Y43722D01*
X481226Y44015D01*
X481226Y44015D01*
X481226Y44016D01*
X481242Y44201D01*
X481249Y44698D01*
X481318Y48014D01*
X481317Y48019D01*
X481322Y48044D01*
X481308Y48115D01*
X481313Y48161D01*
X481313Y48162D01*
X481312Y48166D01*
X481312Y48170D01*
X480971Y51998D01*
X480970Y52003D01*
X480970Y52007D01*
X480970Y52008D01*
X480949Y52078D01*
X480949Y52151D01*
X480949Y52152D01*
X480948Y52153D01*
Y52154D01*
X480190Y55920D01*
X480169Y55970D01*
X480160Y55992D01*
X480152Y56069D01*
X480151Y56071D01*
X480151Y56072D01*
X480151Y56073D01*
X478984Y59734D01*
X478982Y59737D01*
X478961Y59776D01*
X478946Y59848D01*
X478930Y59873D01*
X478928Y59881D01*
X478928Y59882D01*
X478927Y59882D01*
X477367Y63392D01*
X477367Y63392D01*
X477367Y63392D01*
X477367Y63393D01*
X477322Y63457D01*
X477296Y63531D01*
X475359Y66852D01*
X475309Y66908D01*
X475277Y66977D01*
X475277Y66977D01*
X475275Y66979D01*
X475273Y66982D01*
X472985Y70070D01*
X472981Y70073D01*
X472978Y70079D01*
X472978Y70079D01*
X472924Y70127D01*
X472886Y70190D01*
X470272Y73009D01*
X470259Y73018D01*
X470238Y73050D01*
X470185Y73086D01*
X470160Y73117D01*
X467254Y75633D01*
X467185Y75672D01*
X467131Y75728D01*
X463966Y77910D01*
X463895Y77941D01*
X463835Y77991D01*
X463835Y77991D01*
X463834Y77991D01*
X463833Y77992D01*
X460731Y79662D01*
X460449Y79814D01*
X460443Y79817D01*
X460442Y79818D01*
X460442Y79818D01*
X460442Y79818D01*
X460345Y79863D01*
X460321Y79879D01*
X460302Y79883D01*
X459840Y80069D01*
X456752Y81318D01*
X456751Y81321D01*
X456596Y81371D01*
X456287Y81458D01*
X452897Y82413D01*
X452893Y82413D01*
X452890Y82415D01*
X452890Y82415D01*
X452888Y82415D01*
X452886Y82416D01*
X452885Y82416D01*
X452813Y82421D01*
X452745Y82447D01*
X448952Y83077D01*
X448876Y83074D01*
X448802Y83094D01*
X448801Y83094D01*
X448799Y83094D01*
X448797Y83094D01*
X444961Y83305D01*
X444933Y83301D01*
X444882Y83311D01*
D02*
G37*
G36*
X287402Y83311D02*
X287351Y83301D01*
X287322Y83305D01*
X283487Y83094D01*
X283484Y83093D01*
X283482Y83094D01*
X283481Y83094D01*
X283407Y83074D01*
X283331Y83077D01*
X279538Y82447D01*
X279470Y82421D01*
X279398Y82416D01*
X279398Y82416D01*
X279396Y82415D01*
X279394Y82415D01*
X279393Y82415D01*
X279390Y82413D01*
X279386Y82413D01*
X276002Y81460D01*
X275687Y81371D01*
X275532Y81321D01*
X275070Y81131D01*
X272439Y80067D01*
X271975Y79882D01*
X271963Y79879D01*
X271944Y79867D01*
X271834Y79814D01*
X271546Y79659D01*
X268450Y77991D01*
X268389Y77942D01*
X268317Y77910D01*
X265153Y75728D01*
X265098Y75672D01*
X265030Y75633D01*
X262123Y73117D01*
X262099Y73086D01*
X262046Y73050D01*
X262024Y73018D01*
X262011Y73009D01*
X259398Y70190D01*
X259393Y70182D01*
X259386Y70176D01*
X259385Y70176D01*
X259385Y70175D01*
X259383Y70174D01*
X259383Y70174D01*
X259352Y70121D01*
X259305Y70079D01*
X259305Y70079D01*
X259302Y70073D01*
X259298Y70070D01*
X257010Y66982D01*
X257009Y66979D01*
X257006Y66977D01*
X257006Y66977D01*
X256974Y66908D01*
X256924Y66852D01*
X254987Y63531D01*
X254962Y63457D01*
X254917Y63393D01*
X254916Y63392D01*
X254916Y63392D01*
X254916Y63391D01*
X253356Y59881D01*
X253355Y59880D01*
X253354Y59878D01*
X253354Y59877D01*
X253352Y59871D01*
X253337Y59848D01*
X253323Y59776D01*
X253299Y59734D01*
X252133Y56072D01*
X252133Y56072D01*
X252132Y56071D01*
X252132Y56069D01*
X252123Y55992D01*
X252114Y55970D01*
X252093Y55920D01*
X251335Y52154D01*
Y52153D01*
X251335Y52152D01*
X251334Y52151D01*
X251334Y52078D01*
X251313Y52008D01*
X251313Y52007D01*
X251314Y52003D01*
X251312Y51998D01*
X250971Y48170D01*
X250971Y48166D01*
X250970Y48162D01*
X250970Y48161D01*
X250975Y48115D01*
X250961Y48044D01*
X250966Y48019D01*
X250965Y48014D01*
X251045Y44171D01*
X251062Y44094D01*
X251057Y44016D01*
X251558Y40205D01*
X251558Y40205D01*
X251558Y40205D01*
X251558Y40203D01*
X251583Y40129D01*
X251587Y40052D01*
X252502Y36318D01*
X252535Y36247D01*
X252547Y36169D01*
X253865Y32558D01*
X253876Y32541D01*
X253884Y32500D01*
X253917Y32450D01*
X253927Y32415D01*
X255633Y28970D01*
X255681Y28908D01*
X255710Y28835D01*
X257782Y25598D01*
X257783Y25598D01*
X257783Y25598D01*
X257784Y25597D01*
X257838Y25541D01*
X257874Y25472D01*
X260083Y22736D01*
X260289Y22481D01*
X260381Y22376D01*
X260387Y22367D01*
X260391Y22364D01*
X260748Y22014D01*
X263122Y19658D01*
X263120Y19656D01*
X263238Y19555D01*
X263494Y19351D01*
X263495Y19350D01*
X263495Y19350D01*
X266247Y17162D01*
X266314Y17127D01*
X266368Y17075D01*
X266368Y17075D01*
X266372Y17074D01*
X266374Y17071D01*
X269626Y15023D01*
X269627Y15023D01*
X269628Y15022D01*
X269628Y15022D01*
X269699Y14995D01*
X269759Y14949D01*
X269761Y14948D01*
X269762Y14948D01*
X269763Y14947D01*
X273219Y13268D01*
X273250Y13260D01*
X273295Y13229D01*
X273342Y13220D01*
X273363Y13207D01*
X276984Y11916D01*
X277062Y11904D01*
X277133Y11872D01*
X279784Y11243D01*
Y8268D01*
X279780D01*
X279888Y7724D01*
X280196Y7263D01*
X280657Y6955D01*
X281201Y6847D01*
Y6850D01*
X293602D01*
Y6847D01*
X294146Y6955D01*
X294607Y7263D01*
X294915Y7724D01*
X295023Y8268D01*
X295020D01*
Y11243D01*
X297670Y11872D01*
X297741Y11904D01*
X297819Y11916D01*
X301440Y13207D01*
X301461Y13220D01*
X301507Y13229D01*
X301553Y13260D01*
X301584Y13268D01*
X305040Y14947D01*
X305041Y14948D01*
X305042Y14948D01*
X305044Y14949D01*
X305104Y14995D01*
X305175Y15022D01*
X305175Y15022D01*
X305176Y15023D01*
X305177Y15023D01*
X308429Y17071D01*
X308431Y17074D01*
X308435Y17075D01*
X308435Y17075D01*
X308489Y17127D01*
X308556Y17162D01*
X311308Y19350D01*
X311308Y19350D01*
X311309Y19351D01*
X311565Y19555D01*
X311683Y19656D01*
X311681Y19658D01*
X314055Y22014D01*
X314412Y22364D01*
X314416Y22367D01*
X314422Y22376D01*
X314514Y22481D01*
X314720Y22736D01*
X316929Y25472D01*
X316965Y25541D01*
X317019Y25597D01*
X317020Y25598D01*
X317020Y25598D01*
X317021Y25598D01*
X319093Y28835D01*
X319121Y28906D01*
X319168Y28966D01*
X319168Y28967D01*
X319169Y28969D01*
X319170Y28971D01*
X320876Y32415D01*
X320878Y32422D01*
X320883Y32429D01*
X320883Y32429D01*
X320890Y32457D01*
X320919Y32500D01*
X320928Y32542D01*
X320938Y32559D01*
X320938Y32560D01*
X322256Y36168D01*
X322256Y36169D01*
X322256Y36169D01*
X322256Y36170D01*
X322268Y36247D01*
X322301Y36318D01*
X323217Y40052D01*
X323220Y40129D01*
X323245Y40203D01*
X323245Y40205D01*
X323245Y40205D01*
X323245Y40205D01*
X323707Y43722D01*
X323746Y44015D01*
X323746Y44015D01*
X323746Y44016D01*
X323762Y44201D01*
X323768Y44698D01*
X323837Y48014D01*
X323837Y48019D01*
X323842Y48044D01*
X323828Y48115D01*
X323833Y48161D01*
X323833Y48162D01*
X323832Y48166D01*
X323832Y48170D01*
X323491Y51998D01*
X323489Y52003D01*
X323490Y52007D01*
X323490Y52008D01*
X323469Y52078D01*
X323469Y52151D01*
X323468Y52152D01*
X323468Y52153D01*
Y52154D01*
X322710Y55920D01*
X322691Y55966D01*
X322680Y55992D01*
X322671Y56069D01*
X322671Y56071D01*
X322670Y56072D01*
X322670Y56072D01*
X321504Y59734D01*
X321502Y59737D01*
X321480Y59776D01*
X321466Y59848D01*
X321449Y59873D01*
X321448Y59881D01*
X319887Y63391D01*
X319887Y63392D01*
X319887Y63392D01*
X319886Y63393D01*
X319841Y63457D01*
X319816Y63531D01*
X317879Y66852D01*
X317829Y66908D01*
X317797Y66977D01*
X317797Y66977D01*
X317795Y66978D01*
X317795Y66980D01*
X317794Y66980D01*
X317794Y66981D01*
X317793Y66982D01*
X315506Y70068D01*
X315506Y70069D01*
X315506Y70069D01*
X315505Y70070D01*
X315454Y70116D01*
X315420Y70174D01*
X315420Y70174D01*
X315418Y70175D01*
X315418Y70176D01*
X315417Y70176D01*
X315410Y70182D01*
X315405Y70190D01*
X312792Y73009D01*
X312779Y73018D01*
X312757Y73050D01*
X312704Y73086D01*
X312680Y73117D01*
X309773Y75633D01*
X309705Y75672D01*
X309650Y75728D01*
X306486Y77910D01*
X306414Y77942D01*
X306353Y77991D01*
X303257Y79659D01*
X302968Y79814D01*
X302859Y79867D01*
X302840Y79879D01*
X302828Y79882D01*
X302364Y80067D01*
X299272Y81318D01*
X299271Y81321D01*
X299116Y81371D01*
X298801Y81460D01*
X295417Y82413D01*
X295413Y82413D01*
X295411Y82415D01*
X295410Y82415D01*
X295407Y82415D01*
X295405Y82416D01*
X295404Y82416D01*
X295332Y82421D01*
X295264Y82447D01*
X291472Y83077D01*
X291396Y83074D01*
X291322Y83094D01*
X291321Y83094D01*
X291319Y83093D01*
X291317Y83094D01*
X287480Y83305D01*
X287452Y83301D01*
X287402Y83311D01*
D02*
G37*
G36*
X375984Y108720D02*
X373819Y108549D01*
X371708Y108043D01*
X369702Y107212D01*
X367850Y106077D01*
X366199Y104667D01*
X364789Y103016D01*
X363654Y101164D01*
X362824Y99158D01*
X362317Y97047D01*
X362146Y94882D01*
X362317Y92717D01*
X362824Y90606D01*
X363654Y88600D01*
X364789Y86748D01*
X366199Y85097D01*
X367850Y83687D01*
X369702Y82552D01*
X371708Y81721D01*
X373819Y81214D01*
X375984Y81044D01*
X378149Y81214D01*
X380260Y81721D01*
X382266Y82552D01*
X384118Y83687D01*
X385769Y85097D01*
X387179Y86748D01*
X388314Y88600D01*
X389145Y90606D01*
X389652Y92717D01*
X389822Y94882D01*
X389652Y97047D01*
X389145Y99158D01*
X388314Y101164D01*
X387179Y103016D01*
X385769Y104667D01*
X384118Y106077D01*
X382266Y107212D01*
X380260Y108043D01*
X378149Y108549D01*
X375984Y108720D01*
D02*
G37*
G36*
X218504Y108720D02*
X216339Y108549D01*
X214228Y108043D01*
X212222Y107211D01*
X210370Y106077D01*
X208719Y104667D01*
X207309Y103016D01*
X206174Y101164D01*
X205343Y99158D01*
X204836Y97047D01*
X204666Y94882D01*
X204836Y92717D01*
X205343Y90606D01*
X206174Y88599D01*
X207309Y86748D01*
X208719Y85097D01*
X210370Y83687D01*
X212222Y82552D01*
X214228Y81721D01*
X216339Y81214D01*
X218504Y81044D01*
X220669Y81214D01*
X222780Y81721D01*
X224786Y82552D01*
X226638Y83687D01*
X228289Y85097D01*
X229699Y86748D01*
X230834Y88599D01*
X231664Y90606D01*
X232171Y92717D01*
X232342Y94882D01*
X232171Y97047D01*
X231664Y99158D01*
X230834Y101164D01*
X229699Y103016D01*
X228289Y104667D01*
X226638Y106077D01*
X224786Y107211D01*
X222780Y108043D01*
X220669Y108549D01*
X218504Y108720D01*
D02*
G37*
G36*
X120866Y75437D02*
Y75433D01*
X44488Y75433D01*
Y75437D01*
X43944Y75329D01*
X43483Y75020D01*
X43175Y74559D01*
X43067Y74016D01*
X43071D01*
X43071Y23228D01*
X43067D01*
X43175Y22684D01*
X43483Y22223D01*
X43944Y21915D01*
X44488Y21807D01*
Y21811D01*
X120866Y21811D01*
Y21807D01*
X121410Y21915D01*
X121871Y22223D01*
X122179Y22684D01*
X122287Y23228D01*
X122283D01*
X122283Y74016D01*
X122287D01*
X122179Y74559D01*
X121871Y75021D01*
X121410Y75329D01*
X120866Y75437D01*
D02*
G37*
G36*
X385827Y68356D02*
X384473Y68223D01*
X383171Y67828D01*
X381972Y67187D01*
X380920Y66324D01*
X380057Y65272D01*
X379416Y64073D01*
X379021Y62771D01*
X378888Y61417D01*
X379021Y60064D01*
X379416Y58762D01*
X380057Y57562D01*
X380920Y56511D01*
X381972Y55648D01*
X383171Y55007D01*
X384473Y54612D01*
X385827Y54478D01*
X387180Y54612D01*
X388482Y55007D01*
X389682Y55648D01*
X390733Y56511D01*
X391596Y57562D01*
X392237Y58762D01*
X392632Y60064D01*
X392766Y61417D01*
X392632Y62771D01*
X392237Y64073D01*
X391596Y65272D01*
X390733Y66324D01*
X389682Y67187D01*
X388482Y67828D01*
X387180Y68223D01*
X385827Y68356D01*
D02*
G37*
G36*
X366142Y68356D02*
X364788Y68223D01*
X363486Y67828D01*
X362287Y67187D01*
X361235Y66324D01*
X360372Y65272D01*
X359731Y64073D01*
X359336Y62771D01*
X359203Y61417D01*
X359336Y60064D01*
X359731Y58762D01*
X360372Y57562D01*
X361235Y56511D01*
X362287Y55648D01*
X363486Y55007D01*
X364788Y54612D01*
X366142Y54478D01*
X367495Y54612D01*
X368797Y55007D01*
X369997Y55648D01*
X371048Y56511D01*
X371911Y57562D01*
X372552Y58762D01*
X372947Y60064D01*
X373081Y61417D01*
X372947Y62771D01*
X372552Y64073D01*
X371911Y65272D01*
X371048Y66324D01*
X369997Y67187D01*
X368797Y67828D01*
X367495Y68223D01*
X366142Y68356D01*
D02*
G37*
G36*
X228346Y68356D02*
X226993Y68223D01*
X225691Y67828D01*
X224491Y67187D01*
X223440Y66324D01*
X222577Y65272D01*
X221936Y64073D01*
X221541Y62771D01*
X221407Y61417D01*
X221541Y60063D01*
X221936Y58762D01*
X222577Y57562D01*
X223440Y56511D01*
X224491Y55648D01*
X225691Y55006D01*
X226993Y54612D01*
X228346Y54478D01*
X229700Y54612D01*
X231002Y55006D01*
X232201Y55648D01*
X233253Y56511D01*
X234116Y57562D01*
X234757Y58762D01*
X235152Y60063D01*
X235285Y61417D01*
X235152Y62771D01*
X234757Y64073D01*
X234116Y65272D01*
X233253Y66324D01*
X232201Y67187D01*
X231002Y67828D01*
X229700Y68223D01*
X228346Y68356D01*
D02*
G37*
G36*
X208661D02*
X207308Y68223D01*
X206006Y67828D01*
X204806Y67187D01*
X203755Y66324D01*
X202892Y65272D01*
X202251Y64073D01*
X201856Y62771D01*
X201722Y61417D01*
X201856Y60063D01*
X202251Y58762D01*
X202892Y57562D01*
X203755Y56511D01*
X204806Y55648D01*
X206006Y55006D01*
X207308Y54612D01*
X208661Y54478D01*
X210015Y54612D01*
X211317Y55006D01*
X212516Y55648D01*
X213568Y56511D01*
X214431Y57562D01*
X215072Y58762D01*
X215467Y60063D01*
X215600Y61417D01*
X215467Y62771D01*
X215072Y64073D01*
X214431Y65272D01*
X213568Y66324D01*
X212516Y67187D01*
X211317Y67828D01*
X210015Y68223D01*
X208661Y68356D01*
D02*
G37*
G36*
X536417Y6540D02*
X535256Y6426D01*
X534140Y6088D01*
X533112Y5538D01*
X532210Y4798D01*
X531470Y3896D01*
X530920Y2867D01*
X530582Y1751D01*
X530467Y591D01*
X530582Y-570D01*
X530920Y-1686D01*
X531470Y-2715D01*
X532210Y-3617D01*
X533112Y-4357D01*
X534140Y-4907D01*
X535256Y-5245D01*
X536417Y-5359D01*
X537578Y-5245D01*
X538694Y-4907D01*
X539723Y-4357D01*
X540625Y-3617D01*
X541364Y-2715D01*
X541914Y-1686D01*
X542253Y-570D01*
X542367Y591D01*
X542253Y1751D01*
X541914Y2867D01*
X541364Y3896D01*
X540625Y4798D01*
X539723Y5538D01*
X538694Y6088D01*
X537578Y6426D01*
X536417Y6540D01*
D02*
G37*
G36*
X-984Y6540D02*
X-2145Y6426D01*
X-3261Y6087D01*
X-4290Y5538D01*
X-5192Y4798D01*
X-5931Y3896D01*
X-6481Y2867D01*
X-6820Y1751D01*
X-6934Y590D01*
X-6820Y-570D01*
X-6481Y-1687D01*
X-5931Y-2715D01*
X-5192Y-3617D01*
X-4290Y-4357D01*
X-3261Y-4907D01*
X-2145Y-5245D01*
X-984Y-5359D01*
X176Y-5245D01*
X1293Y-4907D01*
X2321Y-4357D01*
X3223Y-3617D01*
X3963Y-2715D01*
X4513Y-1687D01*
X4851Y-570D01*
X4966Y590D01*
X4851Y1751D01*
X4513Y2867D01*
X3963Y3896D01*
X3223Y4798D01*
X2321Y5538D01*
X1293Y6087D01*
X176Y6426D01*
X-984Y6540D01*
D02*
G37*
%LPD*%
D15*
X375984Y94882D02*
D03*
X218504Y94882D02*
D03*
X86614Y193307D02*
D03*
D16*
X464567Y279921D02*
D03*
X527559Y193307D02*
D03*
X536417Y591D02*
D03*
X-984Y590D02*
D03*
X-984Y290748D02*
D03*
X536417Y290748D02*
D03*
X7874Y193307D02*
D03*
X70866Y279921D02*
D03*
D17*
X448819Y193307D02*
D03*
D18*
X366142Y61417D02*
D03*
X208661Y61417D02*
D03*
X228346D02*
D03*
X385827Y61417D02*
D03*
M02*
