G04*
G04 #@! TF.GenerationSoftware,Altium Limited,Altium Designer,20.1.11 (218)*
G04*
G04 Layer_Color=16711935*
%FSLAX25Y25*%
%MOIN*%
G70*
G04*
G04 #@! TF.SameCoordinates,3044359D-6A74-43E1-AAAF-26A8050CFDDE*
G04*
G04*
G04 #@! TF.FilePolarity,Positive*
G04*
G01*
G75*
%ADD19C,0.00394*%
D19*
X553346Y307480D02*
X553150Y307677D01*
X553346Y307480D02*
X553150Y307677D01*
X459870Y78740D02*
X459851Y78749D01*
X459871Y78739D02*
X459870Y78740D01*
X456286Y80190D02*
X456266Y80197D01*
X456287Y80189D02*
X456286Y80190D01*
X459852Y78749D02*
X459850Y78749D01*
X459870Y78740D02*
X459852Y78749D01*
X466455Y74710D02*
X466438Y74723D01*
X466455Y74710D02*
X466438Y74723D01*
X463255Y76917D02*
X463254Y76917D01*
X463273Y76906D02*
X463255Y76917D01*
X463273Y76906D02*
X463255Y76917D01*
X448752Y81873D02*
X448730Y81876D01*
X448752Y81873D02*
X448731Y81875D01*
X444894Y82086D02*
X444871Y82086D01*
X444893D02*
X444870Y82086D01*
X452565Y81239D02*
X452545Y81243D01*
X452566Y81238D02*
X452565Y81239D01*
X456267Y80196D02*
X456266Y80197D01*
X456287Y80190D02*
X456267Y80196D01*
X452566Y81238D02*
X452545Y81243D01*
X477821Y59365D02*
X477813Y59384D01*
X477821Y59363D02*
X477821Y59365D01*
X478994Y55679D02*
X478988Y55701D01*
X478988Y55700D02*
X478988Y55702D01*
X478994Y55680D02*
X478988Y55700D01*
X476252Y62896D02*
X476242Y62916D01*
X477821Y59364D02*
X477813Y59385D01*
X479755Y51891D02*
X479752Y51912D01*
X479756Y51890D02*
X479755Y51891D01*
X480097Y48061D02*
X480097Y48062D01*
X480098Y48044D02*
X480097Y48061D01*
X480098Y48040D02*
X480098Y48044D01*
X480097Y48061D01*
X479755Y51890D02*
X479752Y51913D01*
X472004Y69344D02*
X471991Y69360D01*
X472004Y69344D02*
X471991Y69360D01*
X472005Y69343D02*
X472004Y69344D01*
X469377Y72179D02*
X469362Y72194D01*
X469377Y72179D02*
X469362Y72194D01*
X474305Y66237D02*
X474293Y66255D01*
X476252Y62897D02*
X476242Y62916D01*
X474294Y66255D02*
X474293Y66255D01*
X474305Y66237D02*
X474294Y66255D01*
X441034Y81876D02*
X441011Y81873D01*
X441033Y81875D02*
X441011Y81873D01*
X437219Y81243D02*
X437198Y81238D01*
X437198Y81239D02*
X437197Y81238D01*
X437219Y81243D02*
X437198Y81239D01*
X433497Y80196D02*
X433477Y80190D01*
X433498Y80197D02*
X433497Y80196D01*
X433478Y80190D02*
X433476Y80189D01*
X433497Y80197D02*
X433478Y80190D01*
X429912Y78749D02*
X429893Y78740D01*
X429914Y78749D02*
X429912Y78749D01*
X429894Y78740D02*
X429893Y78739D01*
X429913Y78749D02*
X429894Y78740D01*
X384055Y120709D02*
X384252Y120905D01*
X426508Y76917D02*
X426490Y76906D01*
X426509Y76917D02*
X426508Y76917D01*
X426509Y76917D02*
X426489Y76905D01*
X384252Y244882D02*
X384055Y245079D01*
X384252Y244882D02*
X384055Y245079D01*
X384055Y120709D02*
X384252Y120905D01*
X423327Y74724D02*
X423309Y74710D01*
X423326Y74723D02*
X423309Y74710D01*
X420402Y72194D02*
X420386Y72179D01*
X420402Y72194D02*
X420386Y72179D01*
X417773Y69360D02*
X417759Y69344D01*
X417760Y69344D02*
X417759Y69343D01*
X417773Y69360D02*
X417760Y69344D01*
X415470Y66255D02*
X415458Y66237D01*
X415471Y66255D02*
X415470Y66255D01*
X415470Y66255D02*
X415458Y66237D01*
X413522Y62916D02*
X413512Y62897D01*
X413522Y62916D02*
X413511Y62896D01*
X411951Y59385D02*
X411943Y59364D01*
X411943Y59365D02*
X411942Y59363D01*
X411950Y59384D02*
X411943Y59365D01*
X410775Y55700D02*
X410770Y55680D01*
X410776Y55702D02*
X410775Y55700D01*
X410776Y55701D02*
X410770Y55679D01*
X410011Y51913D02*
X410008Y51890D01*
X322275Y51891D02*
X322272Y51912D01*
X322275Y51890D02*
X322275Y51891D01*
X410008Y51891D02*
X410008Y51890D01*
X410011Y51912D02*
X410008Y51891D01*
X409666Y48061D02*
X409666Y48040D01*
X409667Y48062D02*
X409666Y48061D01*
X322617Y48061D02*
X322617Y48062D01*
X322618Y48044D02*
X322617Y48061D01*
X322617Y48040D02*
X322618Y48044D01*
X322617Y48061D01*
X480098Y48040D02*
X480098Y48044D01*
X480018Y44196D02*
X480018Y44201D01*
X480016Y44175D02*
X480018Y44196D01*
X480016Y44174D02*
X480018Y44196D01*
X479512Y40342D02*
X479516Y40363D01*
X479515Y40362D02*
X479516Y40364D01*
X479512Y40342D02*
X479515Y40362D01*
X478590Y36588D02*
X478596Y36608D01*
X478590Y36588D02*
X478596Y36608D01*
X477263Y32957D02*
X477272Y32977D01*
X477263Y32957D02*
X477263Y32957D01*
X477263Y32957D02*
X477272Y32977D01*
X475557Y29512D02*
X475557Y29512D01*
X475546Y29493D02*
X475557Y29512D01*
X475547Y29494D02*
X475557Y29512D01*
X475546Y29493D02*
X475547Y29494D01*
X473460Y26239D02*
X473473Y26256D01*
X473473Y26256D02*
X473473Y26257D01*
X473460Y26239D02*
X473473Y26256D01*
X471030Y23232D02*
X471045Y23248D01*
X471030Y23232D02*
X471045Y23248D01*
X468286Y20510D02*
X468302Y20524D01*
X468286Y20510D02*
X468302Y20524D01*
X465259Y18104D02*
X465277Y18117D01*
X465260Y18105D02*
X465277Y18117D01*
X465259Y18104D02*
X465260Y18105D01*
X553150Y-16339D02*
X553346Y-16142D01*
X553150Y-16339D02*
X553346Y-16142D01*
X462006Y16055D02*
X462007Y16056D01*
X461988Y16045D02*
X462006Y16055D01*
X461989Y16046D02*
X462007Y16056D01*
X461987Y16045D02*
X461989Y16046D01*
X458529Y14365D02*
X458531Y14365D01*
X458510Y14357D02*
X458529Y14365D01*
X458510Y14357D02*
X458530Y14365D01*
X454869Y13059D02*
X454889Y13065D01*
X454869Y13059D02*
X454889Y13065D01*
X451037Y12556D02*
X450886Y12364D01*
X451083Y8071D02*
X451280Y8268D01*
X451083Y8071D02*
X451280Y8268D01*
X451037Y12556D02*
X450886Y12364D01*
X412492Y32977D02*
X412500Y32957D01*
X412500Y32957D02*
X412501Y32957D01*
X412492Y32977D02*
X412500Y32957D01*
X411167Y36608D02*
X411173Y36588D01*
X411167Y36608D02*
X411173Y36588D01*
X416291Y26256D02*
X416303Y26239D01*
X416290Y26257D02*
X416291Y26256D01*
X416291Y26256D02*
X416303Y26239D01*
X414207Y29512D02*
X414217Y29493D01*
X414207Y29512D02*
X414207Y29512D01*
X414217Y29494D02*
X414218Y29493D01*
X414207Y29512D02*
X414217Y29494D01*
X409667Y48061D02*
X409666Y48040D01*
X409746Y44196D02*
X409748Y44175D01*
X322617Y48040D02*
X322618Y48044D01*
X410248Y40365D02*
X410252Y40342D01*
X410248Y40363D02*
X410252Y40342D01*
X409746Y44196D02*
X409748Y44174D01*
X322536Y44174D02*
X322537Y44196D01*
X322537Y44201D01*
X322536Y44175D02*
X322537Y44196D01*
X434874Y13065D02*
X434895Y13059D01*
X434874Y13065D02*
X434895Y13059D01*
X431234Y14365D02*
X431253Y14357D01*
X431233Y14365D02*
X431234Y14365D01*
X431234Y14365D02*
X431253Y14357D01*
X438878Y12364D02*
X438727Y12556D01*
X438878Y12364D02*
X438727Y12556D01*
X438484Y8268D02*
X438681Y8071D01*
X438484Y8268D02*
X438681Y8071D01*
X421462Y20524D02*
X421478Y20510D01*
X421462Y20524D02*
X421478Y20510D01*
X418719Y23248D02*
X418733Y23232D01*
X418719Y23248D02*
X418733Y23232D01*
X427758Y16055D02*
X427776Y16045D01*
X427757Y16056D02*
X427758Y16055D01*
X427775Y16046D02*
X427777Y16045D01*
X427757Y16056D02*
X427775Y16046D01*
X424487Y18117D02*
X424504Y18104D01*
X424504Y18105D02*
X424505Y18104D01*
X424487Y18117D02*
X424504Y18105D01*
X298786Y80196D02*
X298785Y80197D01*
X298806Y80190D02*
X298786Y80196D01*
X298805Y80190D02*
X298786Y80197D01*
X298807Y80189D02*
X298805Y80190D01*
X295086Y81238D02*
X295064Y81243D01*
X291272Y81873D02*
X291251Y81875D01*
X295085Y81239D02*
X295064Y81243D01*
X295086Y81238D02*
X295085Y81239D01*
X305793Y76906D02*
X305775Y76917D01*
X305793Y76906D02*
X305775Y76917D01*
X302371Y78749D02*
X302369Y78749D01*
X302390Y78740D02*
X302371Y78749D01*
X302390Y78740D02*
X302370Y78749D01*
X287414Y82086D02*
X287391Y82086D01*
X287412D02*
X287389Y82086D01*
X291272Y81873D02*
X291249Y81876D01*
X283554D02*
X283531Y81873D01*
X318772Y62896D02*
X318762Y62916D01*
X320340Y59365D02*
X320333Y59384D01*
X320341Y59363D02*
X320340Y59365D01*
X320341Y59364D02*
X320332Y59385D01*
X316825Y66237D02*
X316813Y66255D01*
X318772Y62897D02*
X318762Y62916D01*
X321513Y55679D02*
X321508Y55701D01*
X322275Y51890D02*
X322272Y51913D01*
X321508Y55700D02*
X321508Y55702D01*
X321513Y55680D02*
X321508Y55700D01*
X311897Y72179D02*
X311881Y72194D01*
X311897Y72179D02*
X311881Y72194D01*
X311897Y72179D02*
X311897Y72179D01*
X308975Y74710D02*
X308958Y74723D01*
X308975Y74710D02*
X308958Y74723D01*
X314524Y69344D02*
X314510Y69360D01*
X314525Y69343D02*
X314524Y69344D01*
X316813Y66255D02*
X316813Y66255D01*
X316825Y66237D02*
X316813Y66255D01*
X314510Y69360D02*
X314510Y69360D01*
X314524Y69343D02*
X314510Y69360D01*
X283552Y81875D02*
X283531Y81873D01*
X279739Y81243D02*
X279717Y81238D01*
X279718Y81239D02*
X279717Y81238D01*
X279739Y81243D02*
X279718Y81239D01*
X276016Y80196D02*
X275997Y80190D01*
X276018Y80197D02*
X276016Y80196D01*
X275997Y80190D02*
X275996Y80189D01*
X276017Y80197D02*
X275997Y80190D01*
X272432Y78749D02*
X272413Y78740D01*
X272433Y78749D02*
X272432Y78749D01*
X272433Y78749D02*
X272413Y78740D01*
X269028Y76917D02*
X269010Y76906D01*
X269028Y76917D02*
X269010Y76906D01*
X151181Y120905D02*
X151378Y120709D01*
X151378Y245079D02*
X151181Y244882D01*
X265845Y74723D02*
X265828Y74710D01*
X-17717Y307677D02*
X-17914Y307480D01*
X151378Y245079D02*
X151181Y244882D01*
X-17717Y307677D02*
X-17914Y307480D01*
X151181Y120905D02*
X151378Y120709D01*
X265845Y74723D02*
X265828Y74710D01*
X121063Y74016D02*
X120866Y74213D01*
X121063Y74016D02*
X120866Y74213D01*
X44488Y74213D02*
X44291Y74016D01*
X262922Y72194D02*
X262906Y72179D01*
X262906Y72179D02*
X262906Y72179D01*
X262922Y72194D02*
X262906Y72179D01*
X260293Y69360D02*
X260279Y69343D01*
X260293Y69360D02*
X260293Y69360D01*
X260279Y69344D02*
X260279Y69343D01*
X260293Y69360D02*
X260279Y69344D01*
X257990Y66255D02*
X257978Y66237D01*
X257990Y66255D02*
X257990Y66255D01*
X257990Y66255D02*
X257978Y66237D01*
X256041Y62916D02*
X256031Y62897D01*
X256041Y62916D02*
X256031Y62896D01*
X254471Y59385D02*
X254462Y59364D01*
X254463Y59365D02*
X254462Y59363D01*
X254470Y59384D02*
X254463Y59365D01*
X44488Y74213D02*
X44291Y74016D01*
X253295Y55700D02*
X253290Y55680D01*
X253295Y55702D02*
X253295Y55700D01*
X253295Y55701D02*
X253290Y55679D01*
X252531Y51913D02*
X252528Y51890D01*
X252528Y51891D02*
X252528Y51890D01*
X252531Y51912D02*
X252528Y51891D01*
X252186Y48061D02*
X252186Y48040D01*
X252186Y48062D02*
X252186Y48061D01*
X322035Y40362D02*
X322035Y40364D01*
X322031Y40342D02*
X322035Y40362D01*
X322031Y40342D02*
X322035Y40363D01*
X321110Y36588D02*
X321116Y36608D01*
X321110Y36587D02*
X321116Y36608D01*
X319783Y32957D02*
X319792Y32978D01*
X319783Y32957D02*
X319791Y32977D01*
X319783Y32957D02*
X319783Y32957D01*
X318076Y29512D02*
X318077Y29512D01*
X318066Y29493D02*
X318076Y29512D01*
X318066Y29494D02*
X318077Y29512D01*
X318066Y29493D02*
X318066Y29494D01*
X315992Y26256D02*
X315993Y26257D01*
X315980Y26239D02*
X315992Y26256D01*
X315980Y26239D02*
X315993Y26256D01*
X313550Y23232D02*
X313564Y23248D01*
X313550Y23232D02*
X313564Y23248D01*
X310805Y20510D02*
X310822Y20524D01*
X310805Y20510D02*
X310822Y20524D01*
X307779Y18104D02*
X307797Y18117D01*
X307780Y18105D02*
X307797Y18117D01*
X307779Y18104D02*
X307780Y18105D01*
X304526Y16055D02*
X304527Y16056D01*
X304507Y16045D02*
X304526Y16055D01*
X304508Y16046D02*
X304526Y16056D01*
X304506Y16045D02*
X304508Y16046D01*
X301049Y14365D02*
X301051Y14365D01*
X301030Y14357D02*
X301049Y14365D01*
X301030Y14357D02*
X301050Y14365D01*
X297388Y13059D02*
X297409Y13065D01*
X297388Y13059D02*
X297409Y13065D01*
X293557Y12556D02*
X293405Y12364D01*
X281398D02*
X281246Y12556D01*
X293557D02*
X293405Y12364D01*
X281398D02*
X281246Y12556D01*
X293602Y8071D02*
X293799Y8268D01*
X293602Y8071D02*
X293799Y8268D01*
X281004D02*
X281201Y8071D01*
X281004Y8268D02*
X281201Y8071D01*
X255012Y32977D02*
X255020Y32957D01*
X255012Y32977D02*
X255020Y32957D01*
X253687Y36608D02*
X253693Y36588D01*
X253687Y36608D02*
X253693Y36588D01*
X258811Y26256D02*
X258823Y26239D01*
X258810Y26257D02*
X258811Y26256D01*
X258810Y26256D02*
X258823Y26239D01*
X256726Y29512D02*
X256737Y29493D01*
X256737Y29494D02*
X256737Y29493D01*
X256726Y29512D02*
X256737Y29494D01*
X252768Y40362D02*
X252772Y40342D01*
X252768Y40364D02*
X252768Y40362D01*
X252186Y48061D02*
X252186Y48040D01*
X252266Y44196D02*
X252267Y44174D01*
X252266Y44196D02*
X252267Y44175D01*
X252768Y40363D02*
X252772Y40342D01*
X270277Y16055D02*
X270296Y16045D01*
X270276Y16056D02*
X270277Y16055D01*
X270295Y16046D02*
X270297Y16045D01*
X270277Y16056D02*
X270295Y16046D01*
X267006Y18117D02*
X267024Y18104D01*
X267023Y18105D02*
X267025Y18104D01*
X267006Y18117D02*
X267023Y18105D01*
X277394Y13065D02*
X277415Y13059D01*
X277394Y13065D02*
X277415Y13059D01*
X273754Y14365D02*
X273773Y14356D01*
X273752Y14365D02*
X273754Y14365D01*
X273753Y14365D02*
X273773Y14356D01*
X261239Y23248D02*
X261253Y23232D01*
X261239Y23248D02*
X261253Y23232D01*
X120866Y23031D02*
X121063Y23228D01*
X120866Y23031D02*
X121063Y23228D01*
X44291Y23228D02*
X44488Y23031D01*
X263982Y20524D02*
X263998Y20510D01*
X263982Y20524D02*
X263998Y20510D01*
X44291Y23228D02*
X44488Y23031D01*
X-17914Y-16142D02*
X-17717Y-16339D01*
X-17914Y-16142D02*
X-17717Y-16339D01*
X459851Y78749D02*
X459852Y78749D01*
X459850Y78749D02*
X459851Y78749D01*
X456287Y80189D02*
X459850Y78749D01*
X456287Y80190D02*
X456287Y80189D01*
X456286Y80190D02*
X456287Y80190D01*
X456149Y79820D02*
X459693Y78388D01*
X463273Y76906D02*
X466438Y74723D01*
X463059Y76575D02*
X466206Y74405D01*
X466455Y74710D02*
X469362Y72194D01*
X463255Y76917D02*
X463255Y76917D01*
X463254Y76917D02*
X463255Y76917D01*
X459871Y78739D02*
X463254Y76917D01*
X459870Y78740D02*
X459871Y78739D01*
X459870Y78740D02*
X459870Y78740D01*
X459693Y78388D02*
X463059Y76575D01*
X448730Y81876D02*
X448731Y81875D01*
X444894Y82086D02*
X448730Y81876D01*
X444893Y82086D02*
X444894Y82086D01*
X444882Y81692D02*
X448699Y81483D01*
X444870Y82086D02*
X444871Y82086D01*
X441034Y81876D02*
X444870Y82086D01*
X441033Y81875D02*
X441034Y81876D01*
X441065Y81483D02*
X444882Y81692D01*
X456266Y80197D02*
X456267Y80196D01*
X456266Y80197D02*
X456266Y80197D01*
X452566Y81238D02*
X456266Y80197D01*
X452566Y81238D02*
X452566Y81238D01*
X452565Y81239D02*
X452566Y81238D01*
X452469Y80856D02*
X456149Y79820D01*
X448752Y81873D02*
X452545Y81243D01*
X448699Y81483D02*
X452469Y80856D01*
X477821Y59365D02*
X477821Y59364D01*
X477821Y59363D01*
X478988Y55702D01*
X478988Y55701D01*
X478988Y55700D01*
X477449Y59234D02*
X478610Y55592D01*
X476252Y62897D02*
X476252Y62896D01*
X477813Y59385D01*
X477813Y59384D01*
X479755Y51891D02*
X479755Y51890D01*
X479756Y51890D01*
X480097Y48062D01*
X480097Y48061D01*
X480097Y48061D01*
X478994Y55680D02*
X478994Y55679D01*
X479752Y51913D01*
X479752Y51912D01*
X478610Y55592D02*
X479364Y51845D01*
X469377Y72179D02*
X471991Y69360D01*
X469096Y71904D02*
X471694Y69100D01*
X466206Y74405D02*
X469096Y71904D01*
X474305Y66237D02*
X476242Y62916D01*
X473970Y66029D02*
X475896Y62727D01*
X477449Y59234D01*
X472004Y69344D02*
X472004Y69344D01*
X472005Y69343D01*
X474293Y66255D01*
X474293Y66255D01*
X474294Y66255D01*
X471694Y69100D02*
X473970Y66029D01*
X437219Y81243D02*
X441011Y81873D01*
X437294Y80856D02*
X441065Y81483D01*
X437198Y81238D02*
X437198Y81239D01*
X437197Y81238D02*
X437198Y81238D01*
X433498Y80197D02*
X437197Y81238D01*
X433497Y80197D02*
X433498Y80197D01*
X433497Y80196D02*
X433497Y80197D01*
X433615Y79820D02*
X437294Y80856D01*
X433477Y80190D02*
X433478Y80190D01*
X433476Y80189D02*
X433477Y80190D01*
X429914Y78749D02*
X433476Y80189D01*
X429913Y78749D02*
X429914Y78749D01*
X429912Y78749D02*
X429913Y78749D01*
X430071Y78388D02*
X433615Y79820D01*
X429893Y78740D02*
X429894Y78740D01*
X429893Y78739D02*
X429893Y78740D01*
X426509Y76917D02*
X429893Y78739D01*
X426509Y76917D02*
X426509Y76917D01*
X426508Y76917D02*
X426509Y76917D01*
X426705Y76575D02*
X430071Y78388D01*
X384252Y244882D02*
X384252Y120905D01*
X383858Y244685D02*
X383858Y121102D01*
X426489Y76905D02*
X426490Y76906D01*
X423327Y74724D02*
X426489Y76905D01*
X423326Y74723D02*
X423327Y74724D01*
X423558Y74405D02*
X426705Y76575D01*
X420668Y71904D02*
X423558Y74405D01*
X420402Y72194D02*
X423309Y74710D01*
X418069Y69100D02*
X420668Y71904D01*
X417773Y69360D02*
X420386Y72179D01*
X415793Y66029D02*
X418069Y69100D01*
X417759Y69344D02*
X417760Y69344D01*
X417759Y69343D02*
X417759Y69344D01*
X415471Y66255D02*
X417759Y69343D01*
X415470Y66255D02*
X415471Y66255D01*
X415470Y66255D02*
X415470Y66255D01*
X413867Y62727D02*
X415793Y66029D01*
X413522Y62916D02*
X415458Y66237D01*
X413511Y62896D02*
X413512Y62897D01*
X411951Y59385D02*
X413511Y62896D01*
X411950Y59384D02*
X411951Y59385D01*
X412315Y59234D02*
X413867Y62727D01*
X411943Y59364D02*
X411943Y59365D01*
X411942Y59363D02*
X411943Y59364D01*
X410776Y55702D02*
X411942Y59363D01*
X410776Y55701D02*
X410776Y55702D01*
X410775Y55700D02*
X410776Y55701D01*
X411154Y55592D02*
X412315Y59234D01*
X410770Y55679D02*
X410770Y55680D01*
X410011Y51913D02*
X410770Y55679D01*
X410011Y51912D02*
X410011Y51913D01*
X410399Y51845D02*
X411154Y55592D01*
X410008Y51890D02*
X410008Y51891D01*
X410008Y51890D02*
X410008Y51890D01*
X409667Y48062D02*
X410008Y51890D01*
X409667Y48061D02*
X409667Y48062D01*
X409666Y48061D02*
X409667Y48061D01*
X322275Y51891D02*
X322275Y51890D01*
X322275Y51890D01*
X322617Y48062D01*
X322617Y48061D01*
X322617Y48061D01*
X480018Y44196D02*
X480098Y48040D01*
X479364Y51845D02*
X479704Y48037D01*
X479624Y44215D02*
X479704Y48037D01*
X479126Y40425D02*
X479624Y44215D01*
X480016Y44174D02*
X480016Y44175D01*
X479516Y40364D02*
X480016Y44174D01*
X479516Y40363D02*
X479516Y40364D01*
X479515Y40362D02*
X479516Y40363D01*
X552953Y-15945D02*
Y307283D01*
X553346Y-16142D02*
Y307480D01*
X478596Y36608D02*
X479512Y40342D01*
X478217Y36713D02*
X479126Y40425D01*
X477272Y32977D02*
X478590Y36588D01*
X476905Y33122D02*
X478217Y36713D01*
X477263Y32957D02*
X477263Y32957D01*
X477263Y32957D02*
X477263Y32957D01*
X475557Y29512D02*
X477263Y32957D01*
X475557Y29512D02*
X475557Y29512D01*
X475557Y29512D02*
X475557Y29512D01*
X475209Y29697D02*
X476905Y33122D01*
X473147Y26478D02*
X475209Y29697D01*
X475546Y29493D02*
X475547Y29494D01*
X475546Y29493D02*
X475546Y29493D01*
X473473Y26257D02*
X475546Y29493D01*
X473473Y26256D02*
X473473Y26257D01*
X473473Y26256D02*
X473473Y26256D01*
X471045Y23248D02*
X473460Y26239D01*
X470745Y23504D02*
X473147Y26478D01*
X468032Y20811D02*
X470745Y23504D01*
X468302Y20524D02*
X471030Y23232D01*
X465277Y18117D02*
X468286Y20510D01*
X465040Y18432D02*
X468032Y20811D01*
X465259Y18104D02*
X465260Y18105D01*
X465259Y18104D02*
X465259Y18104D01*
X462007Y16056D02*
X465259Y18104D01*
X462007Y16056D02*
X462007Y16056D01*
X462006Y16055D02*
X462007Y16056D01*
X461806Y16395D02*
X465040Y18432D01*
X461988Y16045D02*
X461989Y16046D01*
X461987Y16045D02*
X461988Y16045D01*
X458531Y14365D02*
X461987Y16045D01*
X458530Y14365D02*
X458531Y14365D01*
X458529Y14365D02*
X458530Y14365D01*
X458368Y14724D02*
X461806Y16395D01*
X454767Y13440D02*
X458368Y14724D01*
X454889Y13065D02*
X458510Y14357D01*
X451037Y12556D02*
X454767Y13440D01*
X451280Y12208D02*
X454869Y13059D01*
X451280Y8268D02*
Y12208D01*
X450886Y8465D02*
Y12364D01*
X438681Y8071D02*
X451083D01*
X438878Y8465D02*
X450886D01*
X412858Y33122D02*
X414555Y29697D01*
X411547Y36713D02*
X412858Y33122D01*
X411173Y36588D02*
X412492Y32977D01*
X416616Y26478D02*
X419018Y23504D01*
X414555Y29697D02*
X416616Y26478D01*
X412500Y32957D02*
X412500Y32957D01*
X412501Y32957D01*
X414207Y29512D01*
X414207Y29512D01*
X414207Y29512D01*
X414217Y29494D02*
X414217Y29493D01*
X414218Y29493D01*
X416290Y26257D01*
X416291Y26256D01*
X416291Y26256D01*
X410060Y48037D02*
X410399Y51845D01*
X410060Y48037D02*
X410140Y44215D01*
X409666Y48040D02*
X409746Y44196D01*
X322144Y44215D02*
X322223Y48037D01*
X322537Y44196D02*
X322617Y48040D01*
X410637Y40425D02*
X411547Y36713D01*
X410140Y44215D02*
X410637Y40425D01*
X410252Y40342D02*
X411167Y36608D01*
X409748Y44175D02*
X409748Y44174D01*
X410248Y40365D01*
X410248Y40363D01*
X431396Y14724D02*
X434997Y13440D01*
X431253Y14357D02*
X434874Y13065D01*
X427958Y16395D02*
X431396Y14724D01*
X438878Y8465D02*
Y12364D01*
X434997Y13440D02*
X438727Y12556D01*
X434895Y13059D02*
X438484Y12208D01*
Y8268D02*
Y12208D01*
X421732Y20811D02*
X424723Y18432D01*
X419018Y23504D02*
X421732Y20811D01*
X416303Y26239D02*
X418719Y23248D01*
X418733Y23232D02*
X421462Y20524D01*
X424723Y18432D02*
X427958Y16395D01*
X427757Y16056D02*
X427758Y16055D01*
X427757Y16056D02*
X427757Y16056D01*
X424505Y18104D02*
X427757Y16056D01*
X424504Y18104D02*
X424505Y18104D01*
X424504Y18105D02*
X424504Y18104D01*
X431234Y14365D02*
X431234Y14365D01*
X431233Y14365D02*
X431234Y14365D01*
X427777Y16045D02*
X431233Y14365D01*
X427776Y16045D02*
X427777Y16045D01*
X427775Y16046D02*
X427776Y16045D01*
X421478Y20510D02*
X424487Y18117D01*
X298786Y80197D02*
X298786Y80196D01*
X298785Y80197D02*
X298786Y80197D01*
X295086Y81238D02*
X298785Y80197D01*
X295086Y81238D02*
X295086Y81238D01*
X295085Y81239D02*
X295086Y81238D01*
X294989Y80856D02*
X298669Y79820D01*
X291272Y81873D02*
X295064Y81243D01*
X302390Y78740D02*
X305775Y76917D01*
X302213Y78388D02*
X305578Y76575D01*
X305793Y76906D02*
X308958Y74723D01*
X302370Y78749D02*
X302371Y78749D01*
X302369Y78749D02*
X302370Y78749D01*
X298807Y80189D02*
X302369Y78749D01*
X298806Y80190D02*
X298807Y80189D01*
X298805Y80190D02*
X298806Y80190D01*
X298669Y79820D02*
X302213Y78388D01*
X-17520Y307283D02*
X552953Y307283D01*
X151575Y244685D02*
X383858Y244685D01*
X-17717Y307677D02*
X553150Y307677D01*
X151378Y120709D02*
X384055Y120709D01*
X151575Y121102D02*
X383858Y121102D01*
X151378Y245079D02*
X384055Y245079D01*
X291249Y81876D02*
X291251Y81875D01*
X287414Y82086D02*
X291249Y81876D01*
X287412Y82086D02*
X287414Y82086D01*
X287389D02*
X287391Y82086D01*
X283554Y81876D02*
X287389Y82086D01*
X283552Y81875D02*
X283554Y81876D01*
X287402Y81692D02*
X291218Y81483D01*
X294989Y80856D01*
X283585Y81483D02*
X287402Y81692D01*
X279814Y80856D02*
X283585Y81483D01*
X318772Y62897D02*
X318772Y62896D01*
X320332Y59385D01*
X320333Y59384D01*
X318416Y62727D02*
X319969Y59234D01*
X316825Y66237D02*
X318762Y62916D01*
X321513Y55680D02*
X321513Y55679D01*
X322272Y51913D01*
X322272Y51912D01*
X321129Y55592D02*
X321884Y51845D01*
X320340Y59365D02*
X320341Y59364D01*
X320341Y59363D01*
X321508Y55702D01*
X321508Y55701D01*
X321508Y55700D01*
X319969Y59234D02*
X321129Y55592D01*
X308975Y74710D02*
X311881Y72194D01*
X308725Y74405D02*
X311615Y71904D01*
X305578Y76575D02*
X308725Y74405D01*
X314524Y69344D02*
X314524Y69343D01*
X314525Y69343D01*
X316813Y66255D01*
X316813Y66255D01*
X316813Y66255D01*
X314214Y69100D02*
X316490Y66029D01*
X318416Y62727D01*
X311897Y72179D02*
X311897Y72179D01*
X311897Y72179D01*
X314510Y69360D01*
X314510Y69360D01*
X314510Y69360D01*
X311615Y71904D02*
X314214Y69100D01*
X279739Y81243D02*
X283531Y81873D01*
X276134Y79820D02*
X279814Y80856D01*
X279717Y81238D02*
X279718Y81239D01*
X279717Y81238D02*
X279717Y81238D01*
X276018Y80197D02*
X279717Y81238D01*
X276017Y80197D02*
X276018Y80197D01*
X276016Y80196D02*
X276017Y80197D01*
X275997Y80190D02*
X275997Y80190D01*
X275996Y80189D02*
X275997Y80190D01*
X272433Y78749D02*
X275996Y80189D01*
X272433Y78749D02*
X272433Y78749D01*
X272432Y78749D02*
X272433Y78749D01*
X272590Y78388D02*
X276134Y79820D01*
X269225Y76575D02*
X272590Y78388D01*
X269028Y76917D02*
X272413Y78740D01*
X151575Y244685D02*
X151575Y121102D01*
X265845Y74723D02*
X269010Y76906D01*
X151181Y244882D02*
X151181Y120905D01*
X266078Y74405D02*
X269225Y76575D01*
X262922Y72194D02*
X265828Y74710D01*
X263188Y71904D02*
X266078Y74405D01*
X44488Y74213D02*
X120866Y74213D01*
X262906Y72179D02*
X262906Y72179D01*
X262906Y72179D02*
X262906Y72179D01*
X260293Y69360D02*
X262906Y72179D01*
X260293Y69360D02*
X260293Y69360D01*
X260293Y69360D02*
X260293Y69360D01*
X260589Y69100D02*
X263188Y71904D01*
X260279Y69343D02*
X260279Y69344D01*
X260279Y69343D02*
X260279Y69343D01*
X257990Y66255D02*
X260279Y69343D01*
X257990Y66255D02*
X257990Y66255D01*
X257990Y66255D02*
X257990Y66255D01*
X258313Y66029D02*
X260589Y69100D01*
X256041Y62916D02*
X257978Y66237D01*
X256387Y62727D02*
X258313Y66029D01*
X256031Y62896D02*
X256031Y62897D01*
X254471Y59385D02*
X256031Y62896D01*
X254470Y59384D02*
X254471Y59385D01*
X254834Y59234D02*
X256387Y62727D01*
X254462Y59364D02*
X254463Y59365D01*
X254462Y59363D02*
X254462Y59364D01*
X253295Y55702D02*
X254462Y59363D01*
X253295Y55701D02*
X253295Y55702D01*
X253295Y55700D02*
X253295Y55701D01*
X44685Y73819D02*
X120669Y73819D01*
X253674Y55592D02*
X254834Y59234D01*
X253290Y55679D02*
X253290Y55680D01*
X252531Y51913D02*
X253290Y55679D01*
X252531Y51912D02*
X252531Y51913D01*
X252919Y51845D02*
X253674Y55592D01*
X252528Y51890D02*
X252528Y51891D01*
X252528Y51890D02*
X252528Y51890D01*
X252186Y48062D02*
X252528Y51890D01*
X252186Y48061D02*
X252186Y48062D01*
X252186Y48061D02*
X252186Y48061D01*
X321884Y51845D02*
X322223Y48037D01*
X322536Y44174D02*
X322536Y44175D01*
X322035Y40364D02*
X322536Y44174D01*
X322035Y40363D02*
X322035Y40364D01*
X322035Y40362D02*
X322035Y40363D01*
X321646Y40425D02*
X322144Y44215D01*
X321116Y36608D02*
X322031Y40342D01*
X320736Y36713D02*
X321646Y40425D01*
X321110Y36587D02*
X321110Y36588D01*
X319792Y32978D02*
X321110Y36587D01*
X319791Y32977D02*
X319792Y32978D01*
X319425Y33122D02*
X320736Y36713D01*
X319783Y32957D02*
X319783Y32957D01*
X319783Y32957D02*
X319783Y32957D01*
X318077Y29512D02*
X319783Y32957D01*
X318077Y29512D02*
X318077Y29512D01*
X318076Y29512D02*
X318077Y29512D01*
X317728Y29697D02*
X319425Y33122D01*
X318066Y29493D02*
X318066Y29494D01*
X318066Y29493D02*
X318066Y29493D01*
X315993Y26257D02*
X318066Y29493D01*
X315993Y26256D02*
X315993Y26257D01*
X315992Y26256D02*
X315993Y26256D01*
X315667Y26478D02*
X317728Y29697D01*
X313564Y23248D02*
X315980Y26239D01*
X313265Y23504D02*
X315667Y26478D01*
X310822Y20524D02*
X313550Y23232D01*
X310552Y20811D02*
X313265Y23504D01*
X307560Y18432D02*
X310552Y20811D01*
X307797Y18117D02*
X310805Y20510D01*
X304326Y16395D02*
X307560Y18432D01*
X307779Y18104D02*
X307780Y18105D01*
X307779Y18104D02*
X307779Y18104D01*
X304527Y16056D02*
X307779Y18104D01*
X304526Y16056D02*
X304527Y16056D01*
X304526Y16055D02*
X304526Y16056D01*
X300887Y14724D02*
X304326Y16395D01*
X304507Y16045D02*
X304508Y16046D01*
X304506Y16045D02*
X304507Y16045D01*
X301051Y14365D02*
X304506Y16045D01*
X301050Y14365D02*
X301051Y14365D01*
X301049Y14365D02*
X301050Y14365D01*
X297287Y13440D02*
X300887Y14724D01*
X297409Y13065D02*
X301030Y14357D01*
X293799Y12208D02*
X297388Y13059D01*
X293799Y8268D02*
Y12208D01*
X293557Y12556D02*
X297287Y13440D01*
X281398Y8465D02*
X293405D01*
X277516Y13440D02*
X281246Y12556D01*
X277415Y13059D02*
X281004Y12208D01*
X281398Y8465D02*
Y12364D01*
X281201Y8071D02*
X293602D01*
X-17717Y-16339D02*
X553150Y-16339D01*
X-17520Y-15945D02*
X552953Y-15945D01*
X293405Y8465D02*
Y12364D01*
X281004Y8268D02*
Y12208D01*
X255378Y33122D02*
X257075Y29697D01*
X254067Y36713D02*
X255378Y33122D01*
X253693Y36588D02*
X255012Y32977D01*
X259136Y26478D02*
X261538Y23504D01*
X257075Y29697D02*
X259136Y26478D01*
X255020Y32957D02*
X256726Y29512D01*
X256737Y29494D02*
X256737Y29493D01*
X256737Y29493D01*
X258810Y26257D01*
X258810Y26256D01*
X258811Y26256D01*
X252659Y44215D02*
X253157Y40425D01*
X252580Y48037D02*
X252919Y51845D01*
X252267Y44175D02*
X252267Y44174D01*
X252768Y40364D01*
X252768Y40363D01*
X252768Y40362D01*
X252580Y48037D02*
X252659Y44215D01*
X252186Y48040D02*
X252266Y44196D01*
X253157Y40425D02*
X254067Y36713D01*
X121063Y74016D02*
X121063Y23228D01*
X120669Y73819D02*
X120669Y23425D01*
X252772Y40342D02*
X253687Y36608D01*
X-17520Y307283D02*
X-17520Y-15945D01*
X-17914Y307480D02*
X-17914Y-16142D01*
X44685Y73819D02*
X44685Y23425D01*
X44291Y74016D02*
X44291Y23228D01*
X270478Y16395D02*
X273916Y14724D01*
X267243Y18432D02*
X270478Y16395D01*
X270277Y16056D02*
X270277Y16055D01*
X270276Y16056D02*
X270277Y16056D01*
X267025Y18104D02*
X270276Y16056D01*
X267024Y18104D02*
X267025Y18104D01*
X267023Y18105D02*
X267024Y18104D01*
X273916Y14724D02*
X277516Y13440D01*
X273773Y14356D02*
X277394Y13065D01*
X273753Y14365D02*
X273754Y14365D01*
X273752Y14365D02*
X273753Y14365D01*
X270297Y16045D02*
X273752Y14365D01*
X270296Y16045D02*
X270297Y16045D01*
X270295Y16046D02*
X270296Y16045D01*
X258823Y26239D02*
X261239Y23248D01*
X44685Y23425D02*
X120669Y23425D01*
X44488Y23031D02*
X120866Y23031D01*
X264251Y20811D02*
X267243Y18432D01*
X261538Y23504D02*
X264251Y20811D01*
X263998Y20510D02*
X267006Y18117D01*
X261253Y23232D02*
X263982Y20524D01*
M02*
