G04*
G04 #@! TF.GenerationSoftware,Altium Limited,Altium Designer,21.6.1 (37)*
G04*
G04 Layer_Physical_Order=2*
G04 Layer_Color=16711680*
%FSLAX25Y25*%
%MOIN*%
G70*
G04*
G04 #@! TF.SameCoordinates,7BDA6066-75DE-4F1A-8C0A-B5BF4F492E69*
G04*
G04*
G04 #@! TF.FilePolarity,Positive*
G04*
G01*
G75*
%ADD16C,0.01968*%
%ADD22C,0.01181*%
%ADD23C,0.02000*%
%ADD46C,0.03937*%
%ADD104C,0.07874*%
%ADD107C,0.05512*%
%ADD108C,0.06000*%
%ADD109C,0.06200*%
%ADD110C,0.07874*%
%ADD111C,0.03780*%
%ADD112R,0.03780X0.03780*%
%ADD113C,0.04724*%
%ADD114C,0.05906*%
%ADD115C,0.03150*%
%ADD116R,0.10000X0.10000*%
%ADD117C,0.10000*%
%ADD118O,0.03150X0.02441*%
%ADD119O,0.09843X0.03937*%
%ADD120O,0.07087X0.03937*%
%ADD121C,0.07087*%
%ADD122R,0.05906X0.05906*%
%ADD123C,0.01968*%
%ADD124C,0.02953*%
%ADD125C,0.02362*%
%ADD126C,0.02500*%
%ADD127C,0.11811*%
%ADD128R,0.18811X0.07874*%
%ADD129R,0.55500X0.24714*%
%ADD130R,0.50000X0.33200*%
G36*
X481846Y244401D02*
X481298Y244066D01*
X479919Y242888D01*
X478741Y241509D01*
X477794Y239962D01*
X477099Y238286D01*
X476676Y236522D01*
X476534Y234714D01*
X476676Y232906D01*
X477099Y231142D01*
X477794Y229466D01*
X478741Y227920D01*
X479919Y226540D01*
X481298Y225362D01*
X482845Y224415D01*
X484521Y223721D01*
X486285Y223297D01*
X488093Y223155D01*
X489901Y223297D01*
X491665Y223721D01*
X493341Y224415D01*
X494887Y225362D01*
X496267Y226540D01*
X497444Y227920D01*
X497612Y228193D01*
X498093Y228057D01*
X498093Y160714D01*
X547148Y160714D01*
X547148Y158942D01*
X545837Y158399D01*
X544291Y157452D01*
X542911Y156274D01*
X541733Y154894D01*
X540786Y153348D01*
X540092Y151672D01*
X539668Y149908D01*
X539526Y148100D01*
X539668Y146292D01*
X540092Y144528D01*
X540786Y142852D01*
X541733Y141306D01*
X542911Y139926D01*
X544291Y138748D01*
X545837Y137801D01*
X547148Y137258D01*
X547148Y134712D01*
X546362Y133926D01*
X546121Y133565D01*
X546036Y133139D01*
X546121Y132714D01*
X546237Y132540D01*
X546237Y45738D01*
X546238Y45734D01*
X546104Y44032D01*
X545704Y42369D01*
X545050Y40789D01*
X544156Y39330D01*
X543045Y38030D01*
X541744Y36919D01*
X540286Y36025D01*
X538706Y35370D01*
X537042Y34971D01*
X535341Y34837D01*
X535337Y34838D01*
X377857Y34838D01*
X377857Y34860D01*
X375863Y34703D01*
X373919Y34236D01*
X372071Y33471D01*
X370366Y32426D01*
X368845Y31127D01*
X367547Y29607D01*
X366502Y27901D01*
X365736Y26054D01*
X365270Y24109D01*
X365113Y22116D01*
X365135Y22116D01*
X365135Y18675D01*
X365135Y18672D01*
X365134Y18179D01*
X365097Y17694D01*
X365001Y16474D01*
X364602Y14810D01*
X363947Y13230D01*
X363054Y11771D01*
X361943Y10471D01*
X360642Y9360D01*
X359184Y8466D01*
X357603Y7811D01*
X355940Y7412D01*
X354239Y7278D01*
X354235Y7279D01*
X326676Y7279D01*
X326672Y7278D01*
X324970Y7412D01*
X323307Y7811D01*
X321727Y8466D01*
X320268Y9360D01*
X318968Y10471D01*
X317857Y11771D01*
X316963Y13230D01*
X316308Y14810D01*
X315909Y16474D01*
X315813Y17690D01*
X315776Y18179D01*
X315776Y18179D01*
X315776Y18670D01*
X315776Y30914D01*
X315798Y30914D01*
X315641Y32908D01*
X315174Y34852D01*
X314409Y36700D01*
X313364Y38405D01*
X312065Y39926D01*
X310544Y41224D01*
X308839Y42269D01*
X306992Y43034D01*
X305047Y43501D01*
X303053Y43658D01*
X303053Y43636D01*
X220876Y43636D01*
X220376Y43658D01*
X220376Y43658D01*
X218383Y43501D01*
X216438Y43034D01*
X214591Y42269D01*
X212886Y41224D01*
X211365Y39926D01*
X210066Y38405D01*
X209021Y36700D01*
X208256Y34852D01*
X207789Y32908D01*
X207632Y30914D01*
X207654Y30914D01*
X207654Y18675D01*
X207654Y18672D01*
X207654Y18179D01*
X207617Y17694D01*
X207521Y16474D01*
X207122Y14810D01*
X206467Y13230D01*
X205573Y11771D01*
X204462Y10471D01*
X203162Y9360D01*
X201703Y8466D01*
X200123Y7811D01*
X198460Y7412D01*
X196758Y7278D01*
X196754Y7279D01*
X169195Y7279D01*
X169191Y7278D01*
X167490Y7412D01*
X165827Y7811D01*
X164246Y8466D01*
X162788Y9360D01*
X161487Y10471D01*
X160376Y11771D01*
X159483Y13230D01*
X158828Y14810D01*
X158429Y16474D01*
X158333Y17690D01*
X158296Y18179D01*
X158296Y18179D01*
X158296Y18670D01*
X158296Y30914D01*
X158317Y30914D01*
X158160Y32908D01*
X157694Y34852D01*
X156928Y36700D01*
X155883Y38405D01*
X154585Y39926D01*
X153064Y41224D01*
X151359Y42269D01*
X149511Y43034D01*
X147567Y43501D01*
X145573Y43658D01*
X145573Y43636D01*
X94698Y43636D01*
X94202Y43675D01*
X94202Y43675D01*
X92838Y43495D01*
X91567Y42969D01*
X90476Y42131D01*
X89639Y41040D01*
X89112Y39769D01*
X88933Y38405D01*
X88933Y38405D01*
X88955Y38380D01*
X88837Y37482D01*
X88481Y36623D01*
X87914Y35884D01*
X87176Y35318D01*
X86316Y34962D01*
X85393Y34840D01*
X85393Y34838D01*
X47646Y34838D01*
X47640Y34838D01*
X47148Y34838D01*
X46665Y34875D01*
X45443Y34971D01*
X43780Y35370D01*
X42199Y36025D01*
X40741Y36919D01*
X39440Y38030D01*
X38329Y39330D01*
X37435Y40789D01*
X36781Y42369D01*
X36381Y44032D01*
X36247Y45734D01*
X36248Y45738D01*
X36248Y132540D01*
X36364Y132714D01*
X36449Y133139D01*
X36364Y133565D01*
X36123Y133926D01*
X35337Y134712D01*
X35337Y137258D01*
X36648Y137801D01*
X38194Y138748D01*
X39574Y139926D01*
X40752Y141306D01*
X41699Y142852D01*
X42393Y144528D01*
X42817Y146292D01*
X42959Y148100D01*
X42817Y149908D01*
X42393Y151672D01*
X41699Y153348D01*
X40752Y154894D01*
X39574Y156274D01*
X38194Y157452D01*
X36648Y158399D01*
X35337Y158942D01*
X35337Y161488D01*
X36123Y162274D01*
X36364Y162635D01*
X36449Y163061D01*
X36364Y163486D01*
X36248Y163660D01*
X36248Y218966D01*
X36247Y218970D01*
X36381Y220671D01*
X36781Y222335D01*
X37435Y223915D01*
X38329Y225374D01*
X39440Y226674D01*
X40741Y227785D01*
X42199Y228679D01*
X43780Y229333D01*
X45443Y229733D01*
X46668Y229829D01*
X47148Y229866D01*
X47293Y229866D01*
X47642Y229866D01*
X79431Y229866D01*
X79780Y229935D01*
X80076Y230133D01*
X82536Y232593D01*
X83088Y232437D01*
X83399Y231142D01*
X84093Y229466D01*
X85040Y227920D01*
X86219Y226540D01*
X87598Y225362D01*
X89144Y224415D01*
X90820Y223721D01*
X92584Y223297D01*
X94392Y223155D01*
X96200Y223297D01*
X97964Y223721D01*
X99640Y224415D01*
X101187Y225362D01*
X102566Y226540D01*
X103744Y227920D01*
X104692Y229466D01*
X105386Y231142D01*
X105809Y232906D01*
X105951Y234714D01*
X105809Y236522D01*
X105386Y238286D01*
X104692Y239962D01*
X103744Y241509D01*
X102566Y242888D01*
X101187Y244066D01*
X100735Y244342D01*
X100871Y244824D01*
X481710Y244883D01*
X481846Y244401D01*
X481846Y244401D02*
G37*
G36*
X560090Y226622D02*
X561201Y225322D01*
X562095Y223863D01*
X562749Y222283D01*
X563149Y220620D01*
X563283Y218915D01*
X563282Y218914D01*
X563282Y218914D01*
X563322Y218712D01*
X563322Y211184D01*
X562822Y211014D01*
X562572Y211340D01*
X561952Y211816D01*
X561230Y212115D01*
X560455Y212217D01*
X559380Y212217D01*
X559380Y209223D01*
X559380Y206228D01*
X560455Y206228D01*
X561230Y206330D01*
X561952Y206629D01*
X562572Y207105D01*
X562822Y207431D01*
X563322Y207261D01*
X563322Y177128D01*
X562822Y176958D01*
X562572Y177284D01*
X561952Y177760D01*
X561230Y178059D01*
X560455Y178161D01*
X559380Y178161D01*
X559380Y175166D01*
X559380Y172172D01*
X560455Y172172D01*
X561230Y172274D01*
X561952Y172573D01*
X562572Y173049D01*
X562822Y173375D01*
X563322Y173205D01*
X563322Y162214D01*
X500093Y162214D01*
X500093Y226714D01*
X559982Y226714D01*
X560090Y226622D01*
X560090Y226622D02*
G37*
%LPC*%
G36*
X385100Y243663D02*
X384521Y243548D01*
X384030Y243220D01*
X383702Y242729D01*
X383587Y242150D01*
X383702Y241570D01*
X383839Y241366D01*
X383868Y240949D01*
X383868Y240855D01*
X383888Y240807D01*
X383888Y237110D01*
X383868Y237064D01*
X383867Y236962D01*
X383860Y236794D01*
X383848Y236675D01*
X383844Y236648D01*
X383841Y236636D01*
X383834Y236616D01*
X383835Y236609D01*
X383602Y236260D01*
X383487Y235681D01*
X383602Y235102D01*
X383930Y234611D01*
X384421Y234283D01*
X385000Y234168D01*
X385579Y234283D01*
X386070Y234611D01*
X386398Y235102D01*
X386513Y235681D01*
X386398Y236260D01*
X386165Y236609D01*
X386166Y236616D01*
X386159Y236636D01*
X386156Y236648D01*
X386153Y236666D01*
X386133Y236969D01*
X386132Y237064D01*
X386112Y237110D01*
X386112Y240610D01*
X386127Y240637D01*
X386301Y240935D01*
X386485Y241047D01*
X386567Y241084D01*
X386602Y241102D01*
X416423Y241102D01*
X416630Y240602D01*
X414123Y238095D01*
X413662Y238341D01*
X413713Y238600D01*
X413598Y239179D01*
X413270Y239670D01*
X412779Y239998D01*
X412200Y240113D01*
X411621Y239998D01*
X411130Y239670D01*
X410802Y239179D01*
X410687Y238600D01*
X410802Y238021D01*
X411035Y237673D01*
X411034Y237665D01*
X411041Y237645D01*
X411044Y237633D01*
X411047Y237615D01*
X411067Y237312D01*
X411068Y237217D01*
X411088Y237171D01*
X411088Y231300D01*
X411088Y231300D01*
X411173Y230874D01*
X411414Y230514D01*
X412903Y229025D01*
X412922Y228977D01*
X412994Y228905D01*
X413107Y228781D01*
X413183Y228688D01*
X413199Y228666D01*
X413205Y228656D01*
X413214Y228637D01*
X413220Y228632D01*
X413302Y228221D01*
X413630Y227730D01*
X414121Y227402D01*
X414700Y227287D01*
X415279Y227402D01*
X415770Y227730D01*
X416098Y228221D01*
X416213Y228800D01*
X416098Y229379D01*
X416057Y229441D01*
X416445Y229760D01*
X420595Y225609D01*
X420601Y225586D01*
X420634Y225565D01*
X420648Y225529D01*
X420782Y225389D01*
X420870Y225283D01*
X420891Y225254D01*
X420896Y225246D01*
X420887Y225200D01*
X421002Y224621D01*
X421330Y224130D01*
X421821Y223802D01*
X422400Y223687D01*
X422979Y223802D01*
X423470Y224130D01*
X423798Y224621D01*
X423913Y225200D01*
X423798Y225779D01*
X423470Y226270D01*
X422979Y226598D01*
X422776Y226639D01*
X422761Y226652D01*
X422761Y226652D01*
X422761Y226652D01*
X422461Y226918D01*
X422392Y226986D01*
X422344Y227005D01*
X418112Y231238D01*
X418291Y231766D01*
X418717Y231822D01*
X419440Y232121D01*
X420053Y232592D01*
X420086Y232587D01*
X420553Y232418D01*
X420553Y229824D01*
X425332Y229824D01*
X425332Y230048D01*
X425832Y230217D01*
X425881Y230153D01*
X426485Y229690D01*
X427188Y229399D01*
X427443Y229365D01*
X427443Y232214D01*
X428442Y232214D01*
X428442Y229365D01*
X428697Y229399D01*
X429400Y229690D01*
X430003Y230153D01*
X430193Y230399D01*
X430692Y230399D01*
X430882Y230153D01*
X431485Y229690D01*
X432188Y229399D01*
X432443Y229365D01*
X432443Y232214D01*
X432942Y232214D01*
X432942Y232714D01*
X435791Y232714D01*
X435758Y232969D01*
X435467Y233671D01*
X435004Y234275D01*
X434400Y234738D01*
X434368Y235293D01*
X434665Y235491D01*
X435184Y236268D01*
X435269Y236282D01*
X435616Y236282D01*
X435701Y236268D01*
X436220Y235491D01*
X437010Y234963D01*
X437943Y234778D01*
X438875Y234963D01*
X439665Y235491D01*
X440184Y236268D01*
X440269Y236282D01*
X440616Y236282D01*
X440701Y236268D01*
X441220Y235491D01*
X441517Y235293D01*
X441485Y234738D01*
X440881Y234275D01*
X440418Y233671D01*
X440127Y232969D01*
X440094Y232714D01*
X442942Y232714D01*
X442942Y232214D01*
X443442Y232214D01*
X443442Y229365D01*
X443697Y229399D01*
X444400Y229690D01*
X445004Y230153D01*
X445467Y230757D01*
X445758Y231460D01*
X445825Y231967D01*
X446338Y232203D01*
X446446Y232121D01*
X447168Y231822D01*
X447442Y231786D01*
X447442Y234714D01*
X447442Y237643D01*
X447168Y237606D01*
X446446Y237307D01*
X445825Y236831D01*
X445808Y236809D01*
X445341Y237021D01*
X445379Y237214D01*
X445194Y238147D01*
X444665Y238937D01*
X443875Y239465D01*
X442942Y239651D01*
X442915Y239645D01*
X442752Y239649D01*
X442595Y239662D01*
X442450Y239685D01*
X442314Y239717D01*
X442189Y239757D01*
X442072Y239806D01*
X441963Y239862D01*
X441860Y239928D01*
X441764Y240002D01*
X441655Y240102D01*
X441612Y240117D01*
X438729Y243000D01*
X438368Y243241D01*
X437943Y243326D01*
X437943Y243326D01*
X386482Y243326D01*
X386438Y243346D01*
X386149Y243353D01*
X386027Y243362D01*
X385995Y243367D01*
X385978Y243370D01*
X385956Y243376D01*
X385939Y243374D01*
X385679Y243548D01*
X385100Y243663D01*
X385100Y243663D02*
G37*
G36*
X448443Y237643D02*
X448443Y235214D01*
X450871Y235214D01*
X450835Y235489D01*
X450535Y236211D01*
X450060Y236831D01*
X449440Y237307D01*
X448717Y237606D01*
X448443Y237643D01*
X448443Y237643D02*
G37*
G36*
X303857Y239936D02*
X303857Y239936D01*
X270424Y239936D01*
X269999Y239852D01*
X269638Y239611D01*
X269638Y239611D01*
X264045Y234017D01*
X253095Y234017D01*
X253095Y234017D01*
X252670Y233933D01*
X252309Y233692D01*
X252309Y233692D01*
X244735Y226117D01*
X177291Y226117D01*
X177291Y226117D01*
X176865Y226033D01*
X176505Y225792D01*
X148080Y197367D01*
X143418Y197367D01*
X143418Y197367D01*
X142993Y197283D01*
X142632Y197042D01*
X134208Y188617D01*
X61546Y188617D01*
X61120Y188533D01*
X60759Y188292D01*
X60759Y188292D01*
X54270Y181802D01*
X54223Y181783D01*
X54150Y181712D01*
X54027Y181598D01*
X53934Y181522D01*
X53912Y181507D01*
X53901Y181500D01*
X53882Y181491D01*
X53877Y181485D01*
X53466Y181404D01*
X52976Y181076D01*
X52648Y180585D01*
X52532Y180006D01*
X52648Y179426D01*
X52976Y178935D01*
X53466Y178607D01*
X54046Y178492D01*
X54625Y178607D01*
X55116Y178935D01*
X55444Y179426D01*
X55525Y179837D01*
X55531Y179842D01*
X55541Y179861D01*
X55547Y179872D01*
X55557Y179886D01*
X55757Y180115D01*
X55824Y180183D01*
X55843Y180230D01*
X56434Y180821D01*
X56934Y180614D01*
X56934Y167466D01*
X55259Y165792D01*
X55018Y165431D01*
X54934Y165006D01*
X54934Y165006D01*
X54934Y155506D01*
X54934Y155506D01*
X55018Y155080D01*
X55259Y154719D01*
X56749Y153230D01*
X56768Y153183D01*
X56839Y153110D01*
X56953Y152987D01*
X57029Y152894D01*
X57044Y152872D01*
X57051Y152861D01*
X57060Y152842D01*
X57066Y152837D01*
X57148Y152426D01*
X57476Y151935D01*
X57967Y151607D01*
X58546Y151492D01*
X59125Y151607D01*
X59616Y151935D01*
X59944Y152426D01*
X60059Y153006D01*
X59944Y153585D01*
X59616Y154076D01*
X59125Y154404D01*
X58714Y154485D01*
X58709Y154491D01*
X58690Y154500D01*
X58680Y154507D01*
X58665Y154517D01*
X58436Y154717D01*
X58368Y154783D01*
X58321Y154803D01*
X57158Y155966D01*
X57158Y156580D01*
X57658Y156814D01*
X57967Y156607D01*
X58546Y156492D01*
X59125Y156607D01*
X59473Y156840D01*
X59481Y156840D01*
X59501Y156846D01*
X59513Y156849D01*
X59530Y156852D01*
X59834Y156873D01*
X59928Y156874D01*
X59975Y156894D01*
X66308Y156894D01*
X66346Y156875D01*
X66537Y156862D01*
X66707Y156830D01*
X66891Y156773D01*
X67091Y156689D01*
X67304Y156577D01*
X67531Y156434D01*
X67764Y156266D01*
X68285Y155820D01*
X68558Y155552D01*
X68586Y155541D01*
X69304Y154990D01*
X70144Y154642D01*
X71046Y154523D01*
X71947Y154642D01*
X72787Y154990D01*
X73508Y155543D01*
X74062Y156264D01*
X74410Y157104D01*
X74528Y158005D01*
X74410Y158907D01*
X74062Y159747D01*
X73508Y160468D01*
X72787Y161021D01*
X71947Y161369D01*
X71046Y161488D01*
X70144Y161369D01*
X69304Y161021D01*
X68596Y160478D01*
X68566Y160467D01*
X68015Y159949D01*
X67770Y159749D01*
X67531Y159577D01*
X67304Y159434D01*
X67090Y159322D01*
X66891Y159238D01*
X66707Y159181D01*
X66537Y159149D01*
X66346Y159136D01*
X66308Y159117D01*
X61883Y159117D01*
X61692Y159579D01*
X63332Y161219D01*
X63332Y161219D01*
X63573Y161580D01*
X63658Y162005D01*
X63658Y180167D01*
X64703Y181212D01*
X139365Y181212D01*
X139365Y181212D01*
X139790Y181297D01*
X140151Y181538D01*
X179144Y220531D01*
X182213Y220531D01*
X182405Y220070D01*
X164770Y202435D01*
X164529Y202074D01*
X164445Y201649D01*
X164445Y201649D01*
X164445Y166598D01*
X159489Y161642D01*
X159248Y161281D01*
X159226Y161173D01*
X158439Y161069D01*
X157588Y160716D01*
X156857Y160155D01*
X156296Y159424D01*
X155943Y158573D01*
X155823Y157659D01*
X155943Y156745D01*
X156296Y155894D01*
X156857Y155163D01*
X157588Y154602D01*
X158439Y154249D01*
X159353Y154129D01*
X160266Y154249D01*
X161118Y154602D01*
X161849Y155163D01*
X162410Y155894D01*
X162763Y156745D01*
X162883Y157659D01*
X162763Y158573D01*
X162410Y159424D01*
X161849Y160155D01*
X161752Y160229D01*
X161720Y160728D01*
X166343Y165351D01*
X166584Y165712D01*
X166669Y166138D01*
X166669Y166138D01*
X166669Y201188D01*
X184331Y218850D01*
X247284Y218850D01*
X247284Y218850D01*
X247709Y218935D01*
X248070Y219176D01*
X255497Y226602D01*
X269176Y226602D01*
X269214Y226584D01*
X269397Y226572D01*
X269557Y226543D01*
X269729Y226492D01*
X269914Y226417D01*
X270109Y226317D01*
X270316Y226190D01*
X270528Y226040D01*
X271000Y225639D01*
X271246Y225398D01*
X271281Y225384D01*
X271951Y224870D01*
X272743Y224542D01*
X273593Y224430D01*
X274443Y224542D01*
X275235Y224870D01*
X275915Y225392D01*
X276437Y226072D01*
X276765Y226864D01*
X276873Y227688D01*
X276890Y227724D01*
X276912Y228408D01*
X276943Y228691D01*
X276988Y228953D01*
X277044Y229189D01*
X277112Y229399D01*
X277189Y229582D01*
X277275Y229739D01*
X277367Y229873D01*
X277489Y230011D01*
X277503Y230051D01*
X280120Y232669D01*
X301307Y232669D01*
X313081Y220895D01*
X313082Y220895D01*
X313442Y220654D01*
X313868Y220569D01*
X323071Y220569D01*
X323117Y220549D01*
X323219Y220549D01*
X323387Y220542D01*
X323506Y220529D01*
X323533Y220525D01*
X323545Y220522D01*
X323565Y220515D01*
X323573Y220516D01*
X323921Y220283D01*
X324500Y220168D01*
X325079Y220283D01*
X325427Y220516D01*
X325435Y220515D01*
X325455Y220522D01*
X325467Y220525D01*
X325484Y220528D01*
X325788Y220549D01*
X325883Y220549D01*
X325929Y220569D01*
X327094Y220569D01*
X345788Y201875D01*
X345788Y201875D01*
X346149Y201634D01*
X346574Y201550D01*
X377571Y201550D01*
X377617Y201530D01*
X377719Y201529D01*
X377887Y201522D01*
X378007Y201510D01*
X378033Y201505D01*
X378045Y201502D01*
X378065Y201496D01*
X378073Y201496D01*
X378421Y201263D01*
X379000Y201148D01*
X379258Y201200D01*
X379505Y200739D01*
X378459Y199693D01*
X346361Y199693D01*
X328086Y217967D01*
X327726Y218208D01*
X327300Y218293D01*
X327300Y218293D01*
X325929Y218293D01*
X325883Y218313D01*
X325781Y218314D01*
X325613Y218321D01*
X325494Y218333D01*
X325467Y218337D01*
X325455Y218340D01*
X325435Y218347D01*
X325427Y218347D01*
X325079Y218579D01*
X324500Y218694D01*
X323921Y218579D01*
X323573Y218347D01*
X323565Y218347D01*
X323545Y218340D01*
X323533Y218337D01*
X323516Y218334D01*
X323212Y218314D01*
X323117Y218313D01*
X323071Y218293D01*
X313965Y218293D01*
X303758Y228500D01*
X303397Y228741D01*
X302971Y228826D01*
X302971Y228826D01*
X298010Y228826D01*
X297972Y228845D01*
X297788Y228856D01*
X297628Y228885D01*
X297456Y228937D01*
X297272Y229011D01*
X297077Y229112D01*
X296870Y229239D01*
X296658Y229388D01*
X296186Y229789D01*
X295939Y230030D01*
X295905Y230044D01*
X295235Y230558D01*
X294443Y230886D01*
X293593Y230998D01*
X292743Y230886D01*
X291951Y230558D01*
X291271Y230036D01*
X290749Y229356D01*
X290421Y228564D01*
X290312Y227740D01*
X290296Y227705D01*
X290273Y227020D01*
X290243Y226738D01*
X290198Y226475D01*
X290142Y226239D01*
X290074Y226030D01*
X289997Y225847D01*
X289911Y225689D01*
X289819Y225555D01*
X289697Y225417D01*
X289683Y225377D01*
X287018Y222712D01*
X253677Y222712D01*
X253251Y222627D01*
X252890Y222386D01*
X252890Y222386D01*
X248216Y217712D01*
X185263Y217712D01*
X185263Y217712D01*
X184837Y217627D01*
X184476Y217386D01*
X168133Y201042D01*
X167892Y200682D01*
X167807Y200256D01*
X167807Y200256D01*
X167807Y163380D01*
X164214Y159786D01*
X163973Y159425D01*
X163888Y159000D01*
X163888Y159000D01*
X163888Y154397D01*
X161971Y152480D01*
X161931Y152466D01*
X161785Y152338D01*
X161640Y152240D01*
X161466Y152149D01*
X161262Y152067D01*
X161026Y151994D01*
X160759Y151934D01*
X160469Y151887D01*
X159769Y151834D01*
X159378Y151830D01*
X159352Y151819D01*
X158439Y151699D01*
X157588Y151346D01*
X156857Y150785D01*
X156296Y150054D01*
X155943Y149203D01*
X155823Y148289D01*
X155943Y147375D01*
X156296Y146524D01*
X156857Y145793D01*
X157588Y145232D01*
X158439Y144879D01*
X159353Y144759D01*
X160266Y144879D01*
X161118Y145232D01*
X161849Y145793D01*
X162410Y146524D01*
X162763Y147375D01*
X162881Y148275D01*
X162894Y148303D01*
X162917Y149076D01*
X162950Y149398D01*
X162997Y149696D01*
X163058Y149963D01*
X163130Y150198D01*
X163213Y150402D01*
X163304Y150576D01*
X163402Y150721D01*
X163530Y150867D01*
X163544Y150907D01*
X165588Y152952D01*
X166088Y152745D01*
X166088Y146597D01*
X161971Y142480D01*
X161931Y142466D01*
X161785Y142338D01*
X161640Y142240D01*
X161466Y142149D01*
X161262Y142067D01*
X161026Y141994D01*
X160759Y141934D01*
X160469Y141887D01*
X159769Y141834D01*
X159378Y141830D01*
X159352Y141819D01*
X158439Y141699D01*
X157588Y141346D01*
X156857Y140785D01*
X156296Y140054D01*
X155943Y139203D01*
X155823Y138289D01*
X155943Y137375D01*
X156296Y136524D01*
X156857Y135793D01*
X157588Y135232D01*
X158439Y134879D01*
X159353Y134759D01*
X160266Y134879D01*
X161118Y135232D01*
X161849Y135793D01*
X162410Y136524D01*
X162452Y136626D01*
X162952Y136527D01*
X162952Y130990D01*
X162452Y130820D01*
X162206Y131142D01*
X161370Y131783D01*
X160397Y132186D01*
X159853Y132258D01*
X159853Y128289D01*
X159853Y124320D01*
X160397Y124392D01*
X161370Y124795D01*
X162206Y125436D01*
X162452Y125758D01*
X162952Y125588D01*
X162952Y124315D01*
X163088Y123632D01*
X163475Y123053D01*
X165943Y120585D01*
X166522Y120198D01*
X167205Y120062D01*
X167205Y120062D01*
X180440Y120062D01*
X180709Y120116D01*
X204700Y120116D01*
X205383Y120252D01*
X205962Y120638D01*
X208586Y123262D01*
X226714Y123262D01*
X231057Y118919D01*
X231636Y118533D01*
X232319Y118397D01*
X232319Y118397D01*
X318660Y118397D01*
X318835Y118362D01*
X318835Y118362D01*
X345840Y118362D01*
X346014Y118397D01*
X351000Y118397D01*
X351683Y118533D01*
X351885Y118668D01*
X363392Y118668D01*
X363800Y118587D01*
X364208Y118668D01*
X376507Y118668D01*
X376714Y118168D01*
X373961Y115414D01*
X335896Y115414D01*
X335471Y115330D01*
X335110Y115089D01*
X335110Y115089D01*
X329789Y109768D01*
X229505Y109768D01*
X223705Y115567D01*
X223344Y115808D01*
X222919Y115893D01*
X222919Y115893D01*
X206638Y115893D01*
X206541Y115989D01*
X206494Y116229D01*
X206166Y116720D01*
X205675Y117048D01*
X205096Y117163D01*
X204516Y117048D01*
X204025Y116720D01*
X203697Y116229D01*
X203582Y115650D01*
X203697Y115070D01*
X203937Y114712D01*
X203768Y114275D01*
X203715Y114212D01*
X191261Y114212D01*
X190297Y115175D01*
X190278Y115223D01*
X190206Y115296D01*
X190093Y115419D01*
X190017Y115512D01*
X190001Y115534D01*
X189995Y115544D01*
X189986Y115563D01*
X189980Y115568D01*
X189898Y115979D01*
X189570Y116470D01*
X189079Y116798D01*
X188500Y116913D01*
X187921Y116798D01*
X187430Y116470D01*
X187102Y115979D01*
X186987Y115400D01*
X187102Y114821D01*
X187430Y114330D01*
X187921Y114002D01*
X188332Y113920D01*
X188337Y113914D01*
X188356Y113905D01*
X188366Y113899D01*
X188381Y113888D01*
X188610Y113689D01*
X188678Y113622D01*
X188725Y113603D01*
X189514Y112813D01*
X189307Y112313D01*
X187300Y112313D01*
X187300Y112313D01*
X186721Y112198D01*
X186230Y111870D01*
X183035Y108676D01*
X182707Y108185D01*
X182592Y107606D01*
X182707Y107026D01*
X183035Y106535D01*
X183526Y106207D01*
X184106Y106092D01*
X184685Y106207D01*
X185176Y106535D01*
X187927Y109287D01*
X198699Y109287D01*
X198969Y109233D01*
X198969Y109233D01*
X212268Y109233D01*
X212268Y109233D01*
X212771Y109333D01*
X220578Y109333D01*
X226081Y103830D01*
X226081Y103830D01*
X226572Y103502D01*
X227151Y103387D01*
X227151Y103387D01*
X332194Y103387D01*
X332194Y103387D01*
X332773Y103502D01*
X333264Y103830D01*
X336710Y107276D01*
X338467Y109033D01*
X350853Y109033D01*
X351087Y108987D01*
X351087Y108987D01*
X381138Y108987D01*
X381138Y108987D01*
X381717Y109102D01*
X382208Y109430D01*
X412565Y139787D01*
X431500Y139787D01*
X431500Y139787D01*
X432079Y139902D01*
X432570Y140230D01*
X434527Y142187D01*
X457043Y142187D01*
X457213Y141687D01*
X457152Y141640D01*
X456613Y140937D01*
X456274Y140120D01*
X456224Y139742D01*
X459550Y139742D01*
X462875Y139742D01*
X462825Y140120D01*
X462487Y140937D01*
X461947Y141640D01*
X461886Y141687D01*
X462056Y142187D01*
X482634Y142187D01*
X482803Y141687D01*
X482742Y141640D01*
X482203Y140937D01*
X481865Y140120D01*
X481815Y139742D01*
X485140Y139742D01*
X488465Y139742D01*
X488416Y140120D01*
X488077Y140937D01*
X487538Y141640D01*
X487477Y141687D01*
X487647Y142187D01*
X489545Y142187D01*
X491502Y140230D01*
X491502Y140230D01*
X491993Y139902D01*
X492572Y139787D01*
X513500Y139787D01*
X514079Y139902D01*
X514570Y140230D01*
X514898Y140721D01*
X515013Y141300D01*
X514898Y141879D01*
X514570Y142370D01*
X514079Y142698D01*
X513500Y142813D01*
X493199Y142813D01*
X491526Y144487D01*
X491733Y144987D01*
X524300Y144987D01*
X524879Y145102D01*
X525370Y145430D01*
X525698Y145921D01*
X525813Y146500D01*
X525698Y147079D01*
X525370Y147570D01*
X524879Y147898D01*
X524300Y148013D01*
X413019Y148013D01*
X413019Y148013D01*
X412440Y147898D01*
X411949Y147570D01*
X411949Y147570D01*
X387556Y123178D01*
X387066Y123326D01*
X386979Y123516D01*
X386973Y123547D01*
X386947Y123585D01*
X386854Y123791D01*
X387067Y124306D01*
X387296Y124352D01*
X387786Y124680D01*
X388115Y125171D01*
X388230Y125750D01*
X388115Y126329D01*
X387786Y126820D01*
X387296Y127148D01*
X387236Y127160D01*
X387045Y127622D01*
X387098Y127702D01*
X387213Y128281D01*
X387098Y128860D01*
X386863Y129212D01*
X386792Y129409D01*
X386955Y129829D01*
X387193Y129988D01*
X387521Y130479D01*
X387636Y131058D01*
X387521Y131637D01*
X387193Y132128D01*
X386702Y132456D01*
X386123Y132571D01*
X385544Y132456D01*
X385195Y132224D01*
X385188Y132224D01*
X385039Y132315D01*
X384956Y132598D01*
X384965Y132928D01*
X387206Y135169D01*
X387771Y135169D01*
X387817Y135149D01*
X387919Y135149D01*
X388087Y135142D01*
X388207Y135129D01*
X388233Y135125D01*
X388245Y135122D01*
X388265Y135115D01*
X388273Y135116D01*
X388621Y134883D01*
X389200Y134768D01*
X389779Y134883D01*
X390270Y135211D01*
X390598Y135702D01*
X390713Y136281D01*
X390598Y136860D01*
X390270Y137351D01*
X389779Y137679D01*
X389200Y137794D01*
X388621Y137679D01*
X388273Y137446D01*
X388265Y137447D01*
X388245Y137440D01*
X388233Y137437D01*
X388215Y137434D01*
X387912Y137414D01*
X387817Y137413D01*
X387771Y137393D01*
X386746Y137393D01*
X386746Y137393D01*
X386320Y137308D01*
X385959Y137067D01*
X385959Y137067D01*
X384986Y136094D01*
X384974Y136094D01*
X384475Y136291D01*
X384398Y136679D01*
X384070Y137170D01*
X383579Y137498D01*
X383000Y137613D01*
X382421Y137498D01*
X382073Y137265D01*
X382065Y137266D01*
X382045Y137259D01*
X382033Y137256D01*
X382015Y137253D01*
X381712Y137233D01*
X381617Y137232D01*
X381571Y137212D01*
X380482Y137212D01*
X380056Y137127D01*
X379695Y136886D01*
X379695Y136886D01*
X379208Y136399D01*
X368478Y136399D01*
X368411Y136598D01*
X368353Y136899D01*
X368844Y137539D01*
X369172Y138331D01*
X369284Y139181D01*
X369172Y140031D01*
X368844Y140823D01*
X368322Y141503D01*
X367642Y142025D01*
X366850Y142353D01*
X366000Y142465D01*
X365150Y142353D01*
X364358Y142025D01*
X363923Y141691D01*
X363826Y141660D01*
X363554Y141429D01*
X363038Y141042D01*
X362809Y140896D01*
X362588Y140772D01*
X362381Y140674D01*
X362188Y140601D01*
X362012Y140551D01*
X361852Y140523D01*
X361673Y140512D01*
X361635Y140493D01*
X334581Y140493D01*
X334581Y140493D01*
X334156Y140408D01*
X333795Y140167D01*
X333795Y140167D01*
X333584Y139957D01*
X333435Y139857D01*
X327796Y134218D01*
X310973Y134218D01*
X310697Y134718D01*
X310789Y135181D01*
X310674Y135760D01*
X310346Y136251D01*
X309855Y136579D01*
X309276Y136694D01*
X308697Y136579D01*
X308348Y136346D01*
X308341Y136347D01*
X308320Y136340D01*
X308309Y136337D01*
X308291Y136334D01*
X307988Y136314D01*
X307893Y136313D01*
X307846Y136293D01*
X285066Y136293D01*
X284640Y136208D01*
X284279Y135967D01*
X284279Y135967D01*
X282899Y134587D01*
X272429Y134587D01*
X272383Y134607D01*
X272281Y134607D01*
X272113Y134614D01*
X271993Y134626D01*
X271967Y134631D01*
X271955Y134634D01*
X271935Y134641D01*
X271927Y134640D01*
X271579Y134873D01*
X271000Y134988D01*
X270421Y134873D01*
X269930Y134545D01*
X269602Y134054D01*
X269487Y133475D01*
X269602Y132896D01*
X269770Y132643D01*
X269503Y132143D01*
X258988Y132143D01*
X256812Y134319D01*
X256812Y136571D01*
X256832Y136617D01*
X256833Y136720D01*
X256839Y136887D01*
X256852Y137006D01*
X256856Y137033D01*
X256859Y137045D01*
X256866Y137065D01*
X256865Y137073D01*
X257098Y137421D01*
X257213Y138000D01*
X257098Y138579D01*
X256770Y139070D01*
X256279Y139398D01*
X255700Y139513D01*
X255121Y139398D01*
X254630Y139070D01*
X254302Y138579D01*
X254187Y138000D01*
X254302Y137421D01*
X254535Y137073D01*
X254534Y137065D01*
X254541Y137045D01*
X254544Y137033D01*
X254547Y137015D01*
X254567Y136712D01*
X254568Y136617D01*
X254588Y136571D01*
X254588Y134819D01*
X254126Y134627D01*
X252797Y135957D01*
X252778Y136004D01*
X252706Y136077D01*
X252593Y136200D01*
X252517Y136293D01*
X252501Y136315D01*
X252495Y136325D01*
X252486Y136344D01*
X252480Y136349D01*
X252398Y136760D01*
X252070Y137251D01*
X251579Y137579D01*
X251000Y137694D01*
X250421Y137579D01*
X249930Y137251D01*
X249602Y136760D01*
X249568Y136591D01*
X249014Y136192D01*
X249000Y136194D01*
X248421Y136079D01*
X247930Y135751D01*
X247602Y135260D01*
X247487Y134681D01*
X247602Y134102D01*
X247930Y133611D01*
X248421Y133283D01*
X248832Y133201D01*
X248837Y133195D01*
X248856Y133186D01*
X248866Y133180D01*
X248881Y133169D01*
X249110Y132970D01*
X249178Y132903D01*
X249224Y132884D01*
X254578Y127531D01*
X254387Y127069D01*
X238685Y127069D01*
X235537Y130217D01*
X235176Y130458D01*
X234750Y130543D01*
X234750Y130543D01*
X214459Y130543D01*
X214426Y130560D01*
X214406Y130554D01*
X214387Y130562D01*
X214191Y130567D01*
X214051Y130578D01*
X214011Y130584D01*
X214000Y130586D01*
X213525Y130904D01*
X212946Y131019D01*
X212367Y130904D01*
X211876Y130576D01*
X211547Y130085D01*
X211432Y129506D01*
X211524Y129043D01*
X211248Y128543D01*
X208330Y128543D01*
X203612Y133261D01*
X203612Y138674D01*
X203898Y139102D01*
X204013Y139681D01*
X203898Y140260D01*
X203570Y140751D01*
X203079Y141079D01*
X202500Y141194D01*
X201921Y141079D01*
X201430Y140751D01*
X201102Y140260D01*
X200987Y139681D01*
X201102Y139102D01*
X201388Y138674D01*
X201388Y132800D01*
X201388Y132800D01*
X201424Y132621D01*
X201057Y132165D01*
X200900Y132186D01*
X200050Y132074D01*
X199258Y131746D01*
X198578Y131224D01*
X198056Y130544D01*
X197728Y129752D01*
X197616Y128902D01*
X197728Y128052D01*
X198056Y127260D01*
X198578Y126579D01*
X199258Y126058D01*
X200050Y125730D01*
X200900Y125618D01*
X201750Y125730D01*
X202542Y126058D01*
X203222Y126579D01*
X203744Y127260D01*
X204072Y128052D01*
X204176Y128844D01*
X204499Y129057D01*
X204614Y129114D01*
X206725Y127003D01*
X206661Y126359D01*
X206585Y126308D01*
X203961Y123684D01*
X180494Y123684D01*
X180494Y123684D01*
X180224Y123631D01*
X167944Y123631D01*
X166521Y125054D01*
X166521Y138957D01*
X171132Y143568D01*
X171519Y144147D01*
X171654Y144830D01*
X171654Y144830D01*
X171654Y156431D01*
X174262Y159038D01*
X174262Y159038D01*
X174648Y159617D01*
X174784Y160300D01*
X174784Y160300D01*
X174784Y178969D01*
X175067Y179120D01*
X175284Y179189D01*
X175800Y179087D01*
X176379Y179202D01*
X176870Y179530D01*
X177198Y180021D01*
X177313Y180600D01*
X177198Y181179D01*
X176965Y181527D01*
X176966Y181535D01*
X176959Y181555D01*
X176956Y181567D01*
X176953Y181585D01*
X176933Y181888D01*
X176932Y181983D01*
X176912Y182029D01*
X176912Y188571D01*
X176932Y188617D01*
X176933Y188719D01*
X176939Y188887D01*
X176952Y189006D01*
X176956Y189033D01*
X176959Y189045D01*
X176966Y189065D01*
X176965Y189073D01*
X177198Y189421D01*
X177313Y190000D01*
X177198Y190579D01*
X176870Y191070D01*
X176379Y191398D01*
X175800Y191513D01*
X175284Y191411D01*
X175067Y191481D01*
X174784Y191631D01*
X174784Y193221D01*
X182185Y200621D01*
X188246Y200621D01*
X188928Y200757D01*
X189507Y201144D01*
X189894Y201723D01*
X190030Y202406D01*
X189894Y203088D01*
X189507Y203667D01*
X188928Y204054D01*
X188246Y204190D01*
X181446Y204190D01*
X180763Y204054D01*
X180184Y203667D01*
X172212Y195695D01*
X171712Y195902D01*
X171712Y199099D01*
X186420Y213807D01*
X249373Y213807D01*
X249373Y213807D01*
X249798Y213892D01*
X250159Y214133D01*
X254834Y218807D01*
X293751Y218807D01*
X293751Y218807D01*
X294177Y218892D01*
X294537Y219133D01*
X298789Y223384D01*
X298836Y223403D01*
X298909Y223475D01*
X299032Y223588D01*
X299125Y223664D01*
X299147Y223680D01*
X299158Y223686D01*
X299177Y223695D01*
X299182Y223701D01*
X299592Y223783D01*
X300083Y224111D01*
X300412Y224602D01*
X300527Y225181D01*
X300412Y225760D01*
X300183Y226102D01*
X300377Y226572D01*
X300404Y226602D01*
X302511Y226602D01*
X312718Y216395D01*
X313079Y216154D01*
X313504Y216069D01*
X313504Y216069D01*
X323071Y216069D01*
X323117Y216049D01*
X323212Y216049D01*
X323516Y216028D01*
X323533Y216025D01*
X323545Y216022D01*
X323565Y216015D01*
X323573Y216016D01*
X323921Y215783D01*
X324500Y215668D01*
X325079Y215783D01*
X325427Y216016D01*
X325435Y216015D01*
X325455Y216022D01*
X325467Y216025D01*
X325484Y216028D01*
X325788Y216049D01*
X325883Y216049D01*
X325929Y216069D01*
X326839Y216069D01*
X345114Y197795D01*
X345114Y197795D01*
X345475Y197554D01*
X345900Y197469D01*
X378920Y197469D01*
X378920Y197469D01*
X379345Y197554D01*
X379706Y197795D01*
X382775Y200864D01*
X382822Y200883D01*
X382895Y200955D01*
X383019Y201069D01*
X383112Y201145D01*
X383134Y201160D01*
X383144Y201167D01*
X383163Y201176D01*
X383168Y201182D01*
X383579Y201263D01*
X384070Y201591D01*
X384398Y202082D01*
X384513Y202661D01*
X384398Y203240D01*
X384366Y203288D01*
X384634Y203788D01*
X415171Y203788D01*
X415217Y203768D01*
X415319Y203767D01*
X415487Y203761D01*
X415606Y203748D01*
X415633Y203744D01*
X415645Y203741D01*
X415665Y203734D01*
X415673Y203735D01*
X416021Y203502D01*
X416600Y203387D01*
X417179Y203502D01*
X417670Y203830D01*
X417998Y204321D01*
X418113Y204900D01*
X417998Y205479D01*
X417670Y205970D01*
X417179Y206298D01*
X416600Y206413D01*
X416021Y206298D01*
X415673Y206065D01*
X415665Y206066D01*
X415645Y206059D01*
X415633Y206056D01*
X415616Y206053D01*
X415312Y206033D01*
X415217Y206032D01*
X415171Y206012D01*
X411491Y206012D01*
X411284Y206512D01*
X414386Y209614D01*
X414386Y209614D01*
X414627Y209975D01*
X414712Y210400D01*
X414712Y210400D01*
X414712Y212271D01*
X414732Y212317D01*
X414733Y212420D01*
X414740Y212587D01*
X414752Y212706D01*
X414756Y212733D01*
X414759Y212745D01*
X414766Y212765D01*
X414765Y212773D01*
X414998Y213121D01*
X415113Y213700D01*
X414998Y214279D01*
X414670Y214770D01*
X414179Y215098D01*
X413600Y215213D01*
X413021Y215098D01*
X412530Y214770D01*
X412202Y214279D01*
X412087Y213700D01*
X412202Y213121D01*
X412435Y212773D01*
X412434Y212765D01*
X412441Y212745D01*
X412444Y212733D01*
X412447Y212716D01*
X412467Y212412D01*
X412468Y212317D01*
X412488Y212271D01*
X412488Y210861D01*
X409621Y207993D01*
X382661Y207993D01*
X378802Y211851D01*
X378788Y211892D01*
X378667Y212030D01*
X378574Y212163D01*
X378489Y212321D01*
X378412Y212504D01*
X378345Y212713D01*
X378290Y212948D01*
X378247Y213203D01*
X378199Y213819D01*
X378197Y214162D01*
X378183Y214194D01*
X378184Y214200D01*
X378072Y215050D01*
X377744Y215842D01*
X377222Y216522D01*
X376542Y217044D01*
X375750Y217372D01*
X374900Y217484D01*
X374050Y217372D01*
X373258Y217044D01*
X372578Y216522D01*
X372056Y215842D01*
X371728Y215050D01*
X371616Y214200D01*
X371728Y213350D01*
X372056Y212558D01*
X372578Y211878D01*
X373258Y211356D01*
X374050Y211028D01*
X374853Y210922D01*
X374894Y210903D01*
X375580Y210877D01*
X375863Y210845D01*
X376126Y210800D01*
X376363Y210742D01*
X376573Y210674D01*
X376756Y210597D01*
X376914Y210511D01*
X377048Y210418D01*
X377185Y210297D01*
X377226Y210283D01*
X380997Y206512D01*
X380790Y206012D01*
X378304Y206012D01*
X377879Y205927D01*
X377753Y205843D01*
X374997Y205843D01*
X374721Y206343D01*
X374813Y206806D01*
X374698Y207385D01*
X374370Y207876D01*
X373879Y208204D01*
X373300Y208320D01*
X372721Y208204D01*
X372563Y208099D01*
X372339Y208149D01*
X371898Y208302D01*
X372013Y208881D01*
X371898Y209460D01*
X371570Y209951D01*
X371079Y210279D01*
X370500Y210394D01*
X369921Y210279D01*
X369430Y209951D01*
X369390Y209892D01*
X369381Y209890D01*
X369351Y209885D01*
X369119Y209868D01*
X369025Y209867D01*
X368979Y209847D01*
X368930Y209857D01*
X368914Y209847D01*
X348094Y209847D01*
X331032Y226908D01*
X331212Y227436D01*
X331707Y227502D01*
X332525Y227840D01*
X333227Y228379D01*
X333766Y229082D01*
X334105Y229899D01*
X334155Y230277D01*
X330829Y230277D01*
X327504Y230277D01*
X327554Y229899D01*
X327892Y229082D01*
X328162Y228730D01*
X327915Y228230D01*
X316024Y228230D01*
X304643Y239611D01*
X304282Y239852D01*
X303857Y239936D01*
X303857Y239936D02*
G37*
G36*
X450871Y234214D02*
X448443Y234214D01*
X448443Y231786D01*
X448717Y231822D01*
X449440Y232121D01*
X450060Y232597D01*
X450535Y233217D01*
X450835Y233939D01*
X450871Y234214D01*
X450871Y234214D02*
G37*
G36*
X232687Y234103D02*
X232687Y231277D01*
X235513Y231277D01*
X235463Y231655D01*
X235124Y232473D01*
X234585Y233175D01*
X233883Y233714D01*
X233065Y234053D01*
X232687Y234103D01*
X232687Y234103D02*
G37*
G36*
X331329Y234103D02*
X331329Y231277D01*
X334155Y231277D01*
X334105Y231655D01*
X333766Y232473D01*
X333227Y233175D01*
X332525Y233714D01*
X331707Y234053D01*
X331329Y234103D01*
X331329Y234103D02*
G37*
G36*
X330329Y234103D02*
X329951Y234053D01*
X329134Y233714D01*
X328431Y233175D01*
X327892Y232473D01*
X327554Y231655D01*
X327504Y231277D01*
X330329Y231277D01*
X330329Y234103D01*
X330329Y234103D02*
G37*
G36*
X231687Y234103D02*
X231310Y234053D01*
X230492Y233714D01*
X229789Y233175D01*
X229251Y232473D01*
X228912Y231655D01*
X228862Y231277D01*
X231687Y231277D01*
X231687Y234103D01*
X231687Y234103D02*
G37*
G36*
X442443Y231714D02*
X440094Y231714D01*
X440127Y231460D01*
X440418Y230757D01*
X440881Y230153D01*
X441485Y229690D01*
X442188Y229399D01*
X442443Y229365D01*
X442443Y231714D01*
X442443Y231714D02*
G37*
G36*
X435791Y231714D02*
X433442Y231714D01*
X433442Y229365D01*
X433697Y229399D01*
X434400Y229690D01*
X435004Y230153D01*
X435467Y230757D01*
X435758Y231460D01*
X435791Y231714D01*
X435791Y231714D02*
G37*
G36*
X360357Y233664D02*
X359610Y233566D01*
X358913Y233277D01*
X358315Y232819D01*
X357857Y232221D01*
X357568Y231524D01*
X357470Y230777D01*
X357568Y230030D01*
X357857Y229334D01*
X358315Y228736D01*
X358913Y228277D01*
X359610Y227989D01*
X360357Y227890D01*
X361104Y227989D01*
X361800Y228277D01*
X362398Y228736D01*
X362857Y229334D01*
X363145Y230030D01*
X363244Y230777D01*
X363145Y231524D01*
X362857Y232221D01*
X362398Y232819D01*
X361800Y233277D01*
X361104Y233566D01*
X360357Y233664D01*
X360357Y233664D02*
G37*
G36*
X350514Y233664D02*
X349767Y233566D01*
X349071Y233277D01*
X348473Y232819D01*
X348014Y232221D01*
X347726Y231524D01*
X347627Y230777D01*
X347726Y230030D01*
X348014Y229334D01*
X348473Y228736D01*
X349071Y228277D01*
X349767Y227989D01*
X350514Y227890D01*
X351261Y227989D01*
X351958Y228277D01*
X352555Y228736D01*
X353014Y229334D01*
X353303Y230030D01*
X353401Y230777D01*
X353303Y231524D01*
X353014Y232221D01*
X352555Y232819D01*
X351958Y233277D01*
X351261Y233566D01*
X350514Y233664D01*
X350514Y233664D02*
G37*
G36*
X340672Y233664D02*
X339925Y233566D01*
X339228Y233277D01*
X338630Y232819D01*
X338172Y232221D01*
X337883Y231524D01*
X337785Y230777D01*
X337883Y230030D01*
X338172Y229334D01*
X338630Y228736D01*
X339228Y228277D01*
X339925Y227989D01*
X340672Y227890D01*
X341419Y227989D01*
X342115Y228277D01*
X342713Y228736D01*
X343172Y229334D01*
X343460Y230030D01*
X343559Y230777D01*
X343460Y231524D01*
X343172Y232221D01*
X342713Y232819D01*
X342115Y233277D01*
X341419Y233566D01*
X340672Y233664D01*
X340672Y233664D02*
G37*
G36*
X242030Y233664D02*
X241283Y233566D01*
X240586Y233277D01*
X239989Y232819D01*
X239530Y232221D01*
X239241Y231524D01*
X239143Y230777D01*
X239241Y230030D01*
X239530Y229334D01*
X239989Y228736D01*
X240586Y228277D01*
X241283Y227989D01*
X242030Y227890D01*
X242777Y227989D01*
X243473Y228277D01*
X244071Y228736D01*
X244530Y229334D01*
X244818Y230030D01*
X244917Y230777D01*
X244818Y231524D01*
X244530Y232221D01*
X244071Y232819D01*
X243473Y233277D01*
X242777Y233566D01*
X242030Y233664D01*
X242030Y233664D02*
G37*
G36*
X222345Y233664D02*
X221598Y233566D01*
X220901Y233277D01*
X220304Y232819D01*
X219845Y232221D01*
X219556Y231524D01*
X219458Y230777D01*
X219556Y230030D01*
X219845Y229334D01*
X220304Y228736D01*
X220901Y228277D01*
X221598Y227989D01*
X222345Y227890D01*
X223092Y227989D01*
X223788Y228277D01*
X224386Y228736D01*
X224845Y229334D01*
X225133Y230030D01*
X225232Y230777D01*
X225133Y231524D01*
X224845Y232221D01*
X224386Y232819D01*
X223788Y233277D01*
X223092Y233566D01*
X222345Y233664D01*
X222345Y233664D02*
G37*
G36*
X235513Y230277D02*
X232687Y230277D01*
X232687Y227452D01*
X233065Y227502D01*
X233883Y227840D01*
X234585Y228379D01*
X235124Y229082D01*
X235463Y229899D01*
X235513Y230277D01*
X235513Y230277D02*
G37*
G36*
X231687Y230277D02*
X228862Y230277D01*
X228912Y229899D01*
X229251Y229082D01*
X229789Y228379D01*
X230492Y227840D01*
X231310Y227502D01*
X231687Y227452D01*
X231687Y230277D01*
X231687Y230277D02*
G37*
G36*
X70546Y219075D02*
X70546Y215506D01*
X74115Y215506D01*
X74040Y216076D01*
X73627Y217073D01*
X72970Y217930D01*
X72113Y218587D01*
X71116Y219000D01*
X70546Y219075D01*
X70546Y219075D02*
G37*
G36*
X69546Y219075D02*
X68975Y219000D01*
X67978Y218587D01*
X67121Y217930D01*
X66464Y217073D01*
X66051Y216076D01*
X65976Y215506D01*
X69546Y215506D01*
X69546Y219075D01*
X69546Y219075D02*
G37*
G36*
X119546Y218637D02*
X118606Y218513D01*
X117730Y218150D01*
X116978Y217573D01*
X116401Y216821D01*
X116038Y215945D01*
X115915Y215005D01*
X116038Y214066D01*
X116401Y213190D01*
X116978Y212438D01*
X117730Y211861D01*
X118606Y211498D01*
X119546Y211374D01*
X120485Y211498D01*
X121361Y211861D01*
X122113Y212438D01*
X122690Y213190D01*
X123053Y214066D01*
X123177Y215005D01*
X123053Y215945D01*
X122690Y216821D01*
X122113Y217573D01*
X121361Y218150D01*
X120485Y218513D01*
X119546Y218637D01*
X119546Y218637D02*
G37*
G36*
X69546Y214506D02*
X65976Y214506D01*
X66051Y213935D01*
X66464Y212938D01*
X67121Y212081D01*
X67978Y211424D01*
X68975Y211011D01*
X69546Y210936D01*
X69546Y214506D01*
X69546Y214506D02*
G37*
G36*
X74115Y214506D02*
X70546Y214506D01*
X70546Y210936D01*
X71116Y211011D01*
X72113Y211424D01*
X72970Y212081D01*
X73627Y212938D01*
X74040Y213935D01*
X74115Y214506D01*
X74115Y214506D02*
G37*
G36*
X214546Y210290D02*
X213696Y210178D01*
X212904Y209850D01*
X212224Y209328D01*
X211702Y208647D01*
X211374Y207856D01*
X211262Y207006D01*
X211374Y206155D01*
X211702Y205363D01*
X212224Y204683D01*
X212904Y204162D01*
X213696Y203833D01*
X214546Y203721D01*
X215396Y203833D01*
X216188Y204162D01*
X216868Y204683D01*
X217390Y205363D01*
X217718Y206155D01*
X217830Y207006D01*
X217718Y207856D01*
X217390Y208647D01*
X216868Y209328D01*
X216188Y209850D01*
X215396Y210178D01*
X214546Y210290D01*
X214546Y210290D02*
G37*
G36*
X424200Y202213D02*
X423621Y202098D01*
X423273Y201865D01*
X423265Y201866D01*
X423245Y201859D01*
X423233Y201856D01*
X423215Y201853D01*
X422912Y201833D01*
X422817Y201832D01*
X422771Y201812D01*
X386300Y201812D01*
X386300Y201812D01*
X385875Y201727D01*
X385514Y201486D01*
X385514Y201486D01*
X381214Y197186D01*
X380973Y196826D01*
X380888Y196400D01*
X380888Y196400D01*
X380888Y193629D01*
X380868Y193583D01*
X380867Y193481D01*
X380860Y193313D01*
X380848Y193193D01*
X380844Y193167D01*
X380841Y193155D01*
X380834Y193135D01*
X380835Y193127D01*
X380602Y192779D01*
X380487Y192200D01*
X380602Y191621D01*
X380742Y191412D01*
X380474Y190912D01*
X378400Y190912D01*
X378400Y190912D01*
X377975Y190827D01*
X377614Y190586D01*
X376425Y189397D01*
X376378Y189378D01*
X376305Y189306D01*
X376181Y189193D01*
X376088Y189117D01*
X376066Y189101D01*
X376056Y189095D01*
X376037Y189086D01*
X376032Y189080D01*
X375621Y188998D01*
X375130Y188670D01*
X374802Y188179D01*
X374687Y187600D01*
X374802Y187021D01*
X375130Y186530D01*
X375621Y186202D01*
X376200Y186087D01*
X376779Y186202D01*
X377270Y186530D01*
X377598Y187021D01*
X377680Y187432D01*
X377686Y187437D01*
X377695Y187456D01*
X377701Y187466D01*
X377712Y187481D01*
X377911Y187710D01*
X377978Y187777D01*
X377997Y187824D01*
X378861Y188688D01*
X383309Y188688D01*
X383516Y188188D01*
X380939Y185612D01*
X380929Y185612D01*
X380883Y185632D01*
X380781Y185633D01*
X380613Y185640D01*
X380493Y185652D01*
X380467Y185656D01*
X380455Y185659D01*
X380435Y185666D01*
X380427Y185665D01*
X380079Y185898D01*
X379500Y186013D01*
X378921Y185898D01*
X378430Y185570D01*
X378102Y185079D01*
X377987Y184500D01*
X378102Y183921D01*
X378430Y183430D01*
X378921Y183102D01*
X379500Y182987D01*
X380079Y183102D01*
X380427Y183335D01*
X380435Y183334D01*
X380455Y183341D01*
X380467Y183344D01*
X380485Y183347D01*
X380788Y183367D01*
X380883Y183368D01*
X380929Y183388D01*
X381400Y183388D01*
X381400Y183388D01*
X381825Y183473D01*
X382186Y183714D01*
X391786Y193313D01*
X407571Y193313D01*
X407617Y193293D01*
X407720Y193293D01*
X407887Y193286D01*
X408006Y193273D01*
X408033Y193269D01*
X408045Y193266D01*
X408065Y193259D01*
X408073Y193260D01*
X408421Y193027D01*
X409000Y192912D01*
X409579Y193027D01*
X410070Y193355D01*
X410398Y193846D01*
X410513Y194425D01*
X410416Y194913D01*
X410680Y195413D01*
X424643Y195413D01*
X424686Y195394D01*
X424693Y195396D01*
X424699Y195394D01*
X424800Y195393D01*
X424966Y195385D01*
X425083Y195372D01*
X425108Y195368D01*
X425117Y195365D01*
X425137Y195358D01*
X425137Y195358D01*
X425521Y195102D01*
X426100Y194987D01*
X426679Y195102D01*
X427170Y195430D01*
X427498Y195921D01*
X427613Y196500D01*
X427498Y197079D01*
X427170Y197570D01*
X426679Y197898D01*
X426100Y198013D01*
X425521Y197898D01*
X425208Y197689D01*
X425195Y197690D01*
X425174Y197683D01*
X425160Y197680D01*
X425140Y197677D01*
X424833Y197658D01*
X424737Y197657D01*
X424690Y197637D01*
X390625Y197637D01*
X390625Y197637D01*
X390200Y197553D01*
X389839Y197311D01*
X383700Y191172D01*
X383311Y191491D01*
X383398Y191621D01*
X383513Y192200D01*
X383398Y192779D01*
X383165Y193127D01*
X383166Y193135D01*
X383159Y193155D01*
X383156Y193167D01*
X383153Y193184D01*
X383133Y193488D01*
X383132Y193583D01*
X383112Y193629D01*
X383112Y195939D01*
X386761Y199588D01*
X422771Y199588D01*
X422817Y199568D01*
X422920Y199567D01*
X423087Y199560D01*
X423207Y199548D01*
X423233Y199544D01*
X423245Y199541D01*
X423265Y199534D01*
X423273Y199535D01*
X423621Y199302D01*
X424200Y199187D01*
X424779Y199302D01*
X425270Y199630D01*
X425598Y200121D01*
X425713Y200700D01*
X425598Y201279D01*
X425270Y201770D01*
X424779Y202098D01*
X424200Y202213D01*
X424200Y202213D02*
G37*
G36*
X235000Y203484D02*
X234150Y203372D01*
X233358Y203044D01*
X232678Y202522D01*
X232156Y201842D01*
X231828Y201050D01*
X231716Y200200D01*
X231828Y199350D01*
X232156Y198558D01*
X232678Y197878D01*
X233358Y197356D01*
X234150Y197028D01*
X235000Y196916D01*
X235850Y197028D01*
X236642Y197356D01*
X237322Y197878D01*
X237844Y198558D01*
X238172Y199350D01*
X238284Y200200D01*
X238172Y201050D01*
X237844Y201842D01*
X237322Y202522D01*
X236642Y203044D01*
X235850Y203372D01*
X235000Y203484D01*
X235000Y203484D02*
G37*
G36*
X120046Y199075D02*
X120046Y195505D01*
X123615Y195505D01*
X123540Y196076D01*
X123127Y197073D01*
X122470Y197930D01*
X121613Y198587D01*
X120616Y199000D01*
X120046Y199075D01*
X120046Y199075D02*
G37*
G36*
X119046Y199075D02*
X118475Y199000D01*
X117478Y198587D01*
X116621Y197930D01*
X115964Y197073D01*
X115551Y196076D01*
X115476Y195505D01*
X119046Y195505D01*
X119046Y199075D01*
X119046Y199075D02*
G37*
G36*
X432500Y206143D02*
X431921Y206028D01*
X431430Y205700D01*
X431102Y205209D01*
X430987Y204630D01*
X431102Y204051D01*
X431335Y203702D01*
X431334Y203695D01*
X431341Y203675D01*
X431344Y203663D01*
X431347Y203645D01*
X431367Y203342D01*
X431368Y203247D01*
X431388Y203201D01*
X431388Y197829D01*
X431368Y197783D01*
X431367Y197680D01*
X431360Y197513D01*
X431348Y197394D01*
X431344Y197367D01*
X431341Y197355D01*
X431334Y197335D01*
X431335Y197327D01*
X431102Y196979D01*
X430987Y196400D01*
X431102Y195821D01*
X431430Y195330D01*
X431921Y195002D01*
X432500Y194887D01*
X433079Y195002D01*
X433570Y195330D01*
X433898Y195821D01*
X434013Y196400D01*
X433898Y196979D01*
X433665Y197327D01*
X433666Y197335D01*
X433659Y197355D01*
X433656Y197367D01*
X433653Y197385D01*
X433633Y197688D01*
X433632Y197783D01*
X433612Y197829D01*
X433612Y203201D01*
X433632Y203247D01*
X433633Y203349D01*
X433639Y203517D01*
X433652Y203636D01*
X433656Y203663D01*
X433659Y203675D01*
X433666Y203695D01*
X433665Y203702D01*
X433898Y204051D01*
X434013Y204630D01*
X433898Y205209D01*
X433570Y205700D01*
X433079Y206028D01*
X432500Y206143D01*
X432500Y206143D02*
G37*
G36*
X336700Y197124D02*
X336700Y193902D01*
X339922Y193902D01*
X339859Y194382D01*
X339481Y195296D01*
X338879Y196080D01*
X338094Y196682D01*
X337180Y197061D01*
X336700Y197124D01*
X336700Y197124D02*
G37*
G36*
X335700Y197124D02*
X335220Y197061D01*
X334306Y196682D01*
X333521Y196080D01*
X332919Y195296D01*
X332541Y194382D01*
X332477Y193902D01*
X335700Y193902D01*
X335700Y197124D01*
X335700Y197124D02*
G37*
G36*
X196546Y199290D02*
X195696Y199178D01*
X194904Y198849D01*
X194223Y198328D01*
X193702Y197648D01*
X193374Y196855D01*
X193262Y196005D01*
X193374Y195156D01*
X193702Y194363D01*
X194223Y193683D01*
X194904Y193161D01*
X195696Y192833D01*
X196546Y192721D01*
X197396Y192833D01*
X198188Y193161D01*
X198868Y193683D01*
X199390Y194363D01*
X199718Y195156D01*
X199830Y196005D01*
X199718Y196855D01*
X199390Y197648D01*
X198868Y198328D01*
X198188Y198849D01*
X197396Y199178D01*
X196546Y199290D01*
X196546Y199290D02*
G37*
G36*
X70046Y198637D02*
X69106Y198513D01*
X68230Y198150D01*
X67478Y197573D01*
X66901Y196821D01*
X66538Y195945D01*
X66415Y195006D01*
X66538Y194066D01*
X66901Y193190D01*
X67478Y192438D01*
X68230Y191861D01*
X69106Y191498D01*
X70046Y191375D01*
X70986Y191498D01*
X71861Y191861D01*
X72613Y192438D01*
X73190Y193190D01*
X73553Y194066D01*
X73677Y195006D01*
X73553Y195945D01*
X73190Y196821D01*
X72613Y197573D01*
X71861Y198150D01*
X70986Y198513D01*
X70046Y198637D01*
X70046Y198637D02*
G37*
G36*
X119046Y194506D02*
X115476Y194506D01*
X115551Y193935D01*
X115964Y192938D01*
X116621Y192081D01*
X117478Y191424D01*
X118475Y191011D01*
X119046Y190936D01*
X119046Y194506D01*
X119046Y194506D02*
G37*
G36*
X123615Y194506D02*
X120046Y194506D01*
X120046Y190936D01*
X120616Y191011D01*
X121613Y191424D01*
X122470Y192081D01*
X123127Y192938D01*
X123540Y193935D01*
X123615Y194506D01*
X123615Y194506D02*
G37*
G36*
X310100Y196686D02*
X309250Y196574D01*
X308458Y196246D01*
X307778Y195724D01*
X307256Y195044D01*
X306928Y194252D01*
X306816Y193402D01*
X306928Y192552D01*
X307256Y191760D01*
X307778Y191079D01*
X308458Y190558D01*
X309250Y190229D01*
X310100Y190118D01*
X310950Y190229D01*
X311742Y190558D01*
X312422Y191079D01*
X312944Y191760D01*
X313272Y192552D01*
X313384Y193402D01*
X313272Y194252D01*
X312944Y195044D01*
X312422Y195724D01*
X311742Y196246D01*
X310950Y196574D01*
X310100Y196686D01*
X310100Y196686D02*
G37*
G36*
X335700Y192902D02*
X332477Y192902D01*
X332541Y192421D01*
X332919Y191507D01*
X333521Y190723D01*
X334306Y190121D01*
X335220Y189742D01*
X335700Y189679D01*
X335700Y192902D01*
X335700Y192902D02*
G37*
G36*
X339922Y192902D02*
X336700Y192902D01*
X336700Y189679D01*
X337180Y189742D01*
X338094Y190121D01*
X338879Y190723D01*
X339481Y191507D01*
X339859Y192421D01*
X339922Y192902D01*
X339922Y192902D02*
G37*
G36*
X362300Y195465D02*
X361450Y195353D01*
X360658Y195025D01*
X359978Y194503D01*
X359456Y193823D01*
X359128Y193031D01*
X359016Y192181D01*
X359128Y191331D01*
X359456Y190539D01*
X359978Y189859D01*
X360658Y189337D01*
X361450Y189009D01*
X362300Y188897D01*
X363150Y189009D01*
X363942Y189337D01*
X364622Y189859D01*
X365144Y190539D01*
X365472Y191331D01*
X365584Y192181D01*
X365472Y193031D01*
X365144Y193823D01*
X364622Y194503D01*
X363942Y195025D01*
X363150Y195353D01*
X362300Y195465D01*
X362300Y195465D02*
G37*
G36*
X372800Y195284D02*
X371950Y195172D01*
X371158Y194844D01*
X370478Y194322D01*
X369956Y193642D01*
X369628Y192850D01*
X369516Y192000D01*
X369628Y191150D01*
X369956Y190358D01*
X370478Y189678D01*
X371158Y189156D01*
X371950Y188828D01*
X372800Y188716D01*
X373650Y188828D01*
X374442Y189156D01*
X375122Y189678D01*
X375644Y190358D01*
X375972Y191150D01*
X376084Y192000D01*
X375972Y192850D01*
X375644Y193642D01*
X375122Y194322D01*
X374442Y194844D01*
X373650Y195172D01*
X372800Y195284D01*
X372800Y195284D02*
G37*
G36*
X432500Y186694D02*
X431921Y186579D01*
X431430Y186251D01*
X431301Y186058D01*
X430699Y186058D01*
X430570Y186251D01*
X430079Y186579D01*
X429500Y186694D01*
X428921Y186579D01*
X428430Y186251D01*
X428102Y185760D01*
X427987Y185181D01*
X428102Y184602D01*
X428335Y184254D01*
X428334Y184246D01*
X428341Y184226D01*
X428344Y184214D01*
X428347Y184197D01*
X428367Y183893D01*
X428368Y183798D01*
X428388Y183752D01*
X428388Y176600D01*
X428388Y176600D01*
X428473Y176174D01*
X428714Y175814D01*
X432703Y171825D01*
X432722Y171777D01*
X432794Y171704D01*
X432907Y171581D01*
X432983Y171488D01*
X432999Y171466D01*
X433005Y171456D01*
X433014Y171437D01*
X433020Y171432D01*
X433102Y171021D01*
X433430Y170530D01*
X433921Y170202D01*
X434500Y170087D01*
X435079Y170202D01*
X435570Y170530D01*
X435588Y170557D01*
X435845Y170491D01*
X436037Y170398D01*
X436031Y169922D01*
X435802Y169579D01*
X435687Y169000D01*
X435802Y168421D01*
X436130Y167930D01*
X436621Y167602D01*
X437200Y167487D01*
X437779Y167602D01*
X438270Y167930D01*
X438598Y168421D01*
X438713Y169000D01*
X438598Y169579D01*
X438365Y169927D01*
X438366Y169935D01*
X438359Y169955D01*
X438356Y169967D01*
X438353Y169984D01*
X438333Y170288D01*
X438332Y170383D01*
X438312Y170429D01*
X438312Y172300D01*
X438227Y172725D01*
X437986Y173086D01*
X437986Y173086D01*
X433612Y177461D01*
X433612Y183752D01*
X433632Y183798D01*
X433633Y183901D01*
X433639Y184068D01*
X433652Y184188D01*
X433656Y184214D01*
X433659Y184226D01*
X433666Y184246D01*
X433665Y184254D01*
X433898Y184602D01*
X434013Y185181D01*
X433898Y185760D01*
X433570Y186251D01*
X433079Y186579D01*
X432500Y186694D01*
X432500Y186694D02*
G37*
G36*
X219638Y195113D02*
X219059Y194998D01*
X218568Y194670D01*
X218240Y194179D01*
X218124Y193600D01*
X218240Y193021D01*
X218543Y192568D01*
X218544Y192561D01*
X218567Y192265D01*
X218568Y192173D01*
X218576Y192155D01*
X218570Y192136D01*
X218588Y192101D01*
X218588Y188929D01*
X218568Y188883D01*
X218567Y188780D01*
X218561Y188613D01*
X218548Y188494D01*
X218544Y188467D01*
X218541Y188455D01*
X218534Y188435D01*
X218535Y188427D01*
X218302Y188079D01*
X218187Y187500D01*
X218302Y186921D01*
X218630Y186430D01*
X219121Y186102D01*
X219700Y185987D01*
X220279Y186102D01*
X220770Y186430D01*
X221098Y186921D01*
X221213Y187500D01*
X221098Y188079D01*
X220865Y188427D01*
X220866Y188435D01*
X220859Y188455D01*
X220856Y188467D01*
X220853Y188485D01*
X220833Y188788D01*
X220832Y188883D01*
X220812Y188929D01*
X220812Y192216D01*
X220832Y192260D01*
X220838Y192548D01*
X220848Y192671D01*
X220853Y192702D01*
X220856Y192719D01*
X220862Y192741D01*
X220860Y192758D01*
X221036Y193021D01*
X221151Y193600D01*
X221036Y194179D01*
X220708Y194670D01*
X220217Y194998D01*
X219638Y195113D01*
X219638Y195113D02*
G37*
G36*
X409900Y227129D02*
X409315Y227013D01*
X408819Y226681D01*
X408487Y226185D01*
X408371Y225600D01*
X408487Y225015D01*
X408819Y224519D01*
X420069Y213268D01*
X420565Y212937D01*
X421150Y212820D01*
X422898Y212820D01*
X428100Y207619D01*
X428596Y207287D01*
X429181Y207171D01*
X445492Y207171D01*
X445987Y206676D01*
X445987Y195600D01*
X445987Y195600D01*
X446102Y195021D01*
X446430Y194530D01*
X448755Y192205D01*
X448755Y186576D01*
X447500Y185321D01*
X447172Y184830D01*
X447057Y184251D01*
X447172Y183672D01*
X447500Y183181D01*
X447991Y182853D01*
X448570Y182738D01*
X449149Y182853D01*
X449640Y183181D01*
X451339Y184880D01*
X451339Y184880D01*
X451667Y185371D01*
X451782Y185950D01*
X451782Y192831D01*
X451782Y192832D01*
X451667Y193411D01*
X451339Y193902D01*
X449013Y196227D01*
X449013Y207303D01*
X449013Y207303D01*
X448898Y207882D01*
X448570Y208373D01*
X448570Y208373D01*
X447173Y209770D01*
X446682Y210098D01*
X446103Y210213D01*
X446103Y210213D01*
X445781Y210213D01*
X445700Y210229D01*
X429815Y210229D01*
X424613Y215431D01*
X424117Y215763D01*
X423531Y215879D01*
X421784Y215879D01*
X410981Y226681D01*
X410485Y227013D01*
X409900Y227129D01*
X409900Y227129D02*
G37*
G36*
X367600Y183713D02*
X367021Y183598D01*
X366530Y183270D01*
X366202Y182779D01*
X366087Y182200D01*
X366202Y181621D01*
X366530Y181130D01*
X367021Y180802D01*
X367432Y180720D01*
X367437Y180714D01*
X367456Y180705D01*
X367466Y180699D01*
X367481Y180688D01*
X367710Y180489D01*
X367777Y180422D01*
X367825Y180403D01*
X369133Y179095D01*
X369493Y178854D01*
X369919Y178769D01*
X369919Y178769D01*
X396871Y178769D01*
X396917Y178749D01*
X397020Y178749D01*
X397187Y178742D01*
X397306Y178729D01*
X397333Y178725D01*
X397345Y178722D01*
X397365Y178715D01*
X397373Y178716D01*
X397721Y178483D01*
X398300Y178368D01*
X398879Y178483D01*
X399370Y178811D01*
X399698Y179302D01*
X399813Y179881D01*
X399698Y180460D01*
X399370Y180951D01*
X398879Y181279D01*
X398300Y181394D01*
X397721Y181279D01*
X397373Y181046D01*
X397365Y181047D01*
X397345Y181040D01*
X397333Y181037D01*
X397316Y181034D01*
X397012Y181014D01*
X396917Y181013D01*
X396871Y180993D01*
X370379Y180993D01*
X369397Y181975D01*
X369378Y182023D01*
X369306Y182096D01*
X369193Y182219D01*
X369117Y182312D01*
X369101Y182334D01*
X369095Y182344D01*
X369086Y182363D01*
X369080Y182368D01*
X368998Y182779D01*
X368670Y183270D01*
X368179Y183598D01*
X367600Y183713D01*
X367600Y183713D02*
G37*
G36*
X159853Y181628D02*
X159853Y178159D01*
X163321Y178159D01*
X163250Y178703D01*
X162847Y179676D01*
X162206Y180512D01*
X161370Y181153D01*
X160397Y181556D01*
X159853Y181628D01*
X159853Y181628D02*
G37*
G36*
X158853Y181628D02*
X158308Y181556D01*
X157335Y181153D01*
X156500Y180512D01*
X155859Y179676D01*
X155456Y178703D01*
X155384Y178159D01*
X158853Y178159D01*
X158853Y181628D01*
X158853Y181628D02*
G37*
G36*
X329800Y186629D02*
X329215Y186513D01*
X328719Y186181D01*
X328387Y185685D01*
X328271Y185100D01*
X328271Y180147D01*
X328387Y179562D01*
X328719Y179066D01*
X332119Y175666D01*
X332615Y175334D01*
X333200Y175218D01*
X333785Y175334D01*
X334281Y175666D01*
X334613Y176162D01*
X334729Y176747D01*
X334613Y177332D01*
X334281Y177829D01*
X331329Y180781D01*
X331329Y185100D01*
X331213Y185685D01*
X330881Y186181D01*
X330385Y186513D01*
X329800Y186629D01*
X329800Y186629D02*
G37*
G36*
X287553Y175528D02*
X286974Y175413D01*
X286605Y175166D01*
X286601Y175166D01*
X286582Y175160D01*
X286571Y175157D01*
X286555Y175154D01*
X286253Y175133D01*
X286159Y175132D01*
X286157Y175131D01*
X286154Y175132D01*
X286109Y175112D01*
X283429Y175112D01*
X283383Y175132D01*
X283280Y175133D01*
X283113Y175139D01*
X282994Y175152D01*
X282967Y175156D01*
X282955Y175159D01*
X282935Y175166D01*
X282927Y175165D01*
X282579Y175398D01*
X282000Y175513D01*
X281421Y175398D01*
X280930Y175070D01*
X280602Y174579D01*
X280487Y174000D01*
X280602Y173421D01*
X280930Y172930D01*
X281421Y172602D01*
X282000Y172487D01*
X282579Y172602D01*
X282927Y172835D01*
X282935Y172834D01*
X282955Y172841D01*
X282967Y172844D01*
X282984Y172847D01*
X283288Y172867D01*
X283383Y172868D01*
X283429Y172888D01*
X286135Y172888D01*
X286182Y172868D01*
X286284Y172867D01*
X286453Y172861D01*
X286574Y172849D01*
X286601Y172844D01*
X286614Y172841D01*
X286635Y172835D01*
X286646Y172836D01*
X286974Y172617D01*
X287553Y172501D01*
X288132Y172617D01*
X288623Y172945D01*
X288951Y173435D01*
X289066Y174015D01*
X288951Y174594D01*
X288623Y175085D01*
X288132Y175413D01*
X287553Y175528D01*
X287553Y175528D02*
G37*
G36*
X163321Y177159D02*
X159853Y177159D01*
X159853Y173690D01*
X160397Y173762D01*
X161370Y174165D01*
X162206Y174806D01*
X162847Y175642D01*
X163250Y176615D01*
X163321Y177159D01*
X163321Y177159D02*
G37*
G36*
X158853Y177159D02*
X155384Y177159D01*
X155456Y176615D01*
X155859Y175642D01*
X156500Y174806D01*
X157335Y174165D01*
X158308Y173762D01*
X158853Y173690D01*
X158853Y177159D01*
X158853Y177159D02*
G37*
G36*
X320400Y180184D02*
X319550Y180072D01*
X318758Y179744D01*
X318078Y179222D01*
X317556Y178542D01*
X317228Y177750D01*
X317116Y176900D01*
X317228Y176050D01*
X317556Y175258D01*
X318078Y174578D01*
X318758Y174056D01*
X319550Y173728D01*
X320400Y173616D01*
X321250Y173728D01*
X322042Y174056D01*
X322722Y174578D01*
X323244Y175258D01*
X323572Y176050D01*
X323684Y176900D01*
X323572Y177750D01*
X323244Y178542D01*
X322722Y179222D01*
X322042Y179744D01*
X321250Y180072D01*
X320400Y180184D01*
X320400Y180184D02*
G37*
G36*
X430500Y171194D02*
X429921Y171079D01*
X429430Y170751D01*
X429301Y170558D01*
X428699Y170558D01*
X428570Y170751D01*
X428079Y171079D01*
X427500Y171194D01*
X426921Y171079D01*
X426430Y170751D01*
X426301Y170558D01*
X425699Y170558D01*
X425570Y170751D01*
X425079Y171079D01*
X424500Y171194D01*
X423921Y171079D01*
X423430Y170751D01*
X423301Y170558D01*
X422699Y170558D01*
X422570Y170751D01*
X422079Y171079D01*
X421500Y171194D01*
X420921Y171079D01*
X420430Y170751D01*
X420301Y170558D01*
X419699Y170558D01*
X419570Y170751D01*
X419079Y171079D01*
X418500Y171194D01*
X417921Y171079D01*
X417430Y170751D01*
X417102Y170260D01*
X416987Y169681D01*
X417102Y169102D01*
X417335Y168754D01*
X417334Y168746D01*
X417341Y168726D01*
X417344Y168714D01*
X417347Y168697D01*
X417367Y168393D01*
X417368Y168298D01*
X417388Y168252D01*
X417388Y164036D01*
X417368Y163989D01*
X417367Y163887D01*
X417360Y163719D01*
X417348Y163600D01*
X417344Y163573D01*
X417341Y163561D01*
X417334Y163541D01*
X417335Y163534D01*
X417102Y163185D01*
X416987Y162606D01*
X417102Y162027D01*
X417240Y161821D01*
X416851Y161503D01*
X409630Y168724D01*
X409611Y168771D01*
X409539Y168844D01*
X409425Y168967D01*
X409350Y169060D01*
X409334Y169082D01*
X409328Y169093D01*
X409318Y169111D01*
X409313Y169116D01*
X409231Y169527D01*
X408903Y170018D01*
X408412Y170346D01*
X407833Y170461D01*
X407254Y170346D01*
X406763Y170018D01*
X406435Y169527D01*
X406320Y168948D01*
X406435Y168369D01*
X406763Y167878D01*
X407254Y167550D01*
X407665Y167468D01*
X407670Y167463D01*
X407689Y167453D01*
X407699Y167447D01*
X407714Y167437D01*
X407943Y167237D01*
X408010Y167170D01*
X408057Y167151D01*
X417814Y157395D01*
X418175Y157154D01*
X418600Y157069D01*
X418600Y157069D01*
X422071Y157069D01*
X422117Y157049D01*
X422220Y157048D01*
X422387Y157042D01*
X422507Y157029D01*
X422533Y157025D01*
X422545Y157022D01*
X422565Y157015D01*
X422573Y157016D01*
X422921Y156783D01*
X423500Y156668D01*
X423919Y156751D01*
X424239Y156334D01*
X424002Y155979D01*
X423887Y155400D01*
X424002Y154821D01*
X424330Y154330D01*
X424821Y154002D01*
X425400Y153887D01*
X425979Y154002D01*
X426470Y154330D01*
X426798Y154821D01*
X426913Y155400D01*
X426798Y155979D01*
X426764Y156030D01*
X426745Y156963D01*
X426742Y156969D01*
X426744Y156975D01*
X426725Y157017D01*
X426725Y161887D01*
X426725Y161887D01*
X426640Y162312D01*
X426399Y162673D01*
X425612Y163461D01*
X425612Y168252D01*
X425632Y168298D01*
X425633Y168401D01*
X425635Y168461D01*
X425961Y168709D01*
X425974Y168714D01*
X426363Y168460D01*
X426367Y168393D01*
X426368Y168298D01*
X426388Y168252D01*
X426388Y167700D01*
X426388Y167700D01*
X426473Y167274D01*
X426714Y166914D01*
X436403Y157225D01*
X436422Y157177D01*
X436494Y157105D01*
X436607Y156981D01*
X436683Y156888D01*
X436699Y156866D01*
X436705Y156856D01*
X436714Y156837D01*
X436720Y156832D01*
X436784Y156512D01*
X436519Y156012D01*
X436429Y156012D01*
X436383Y156032D01*
X436280Y156033D01*
X436113Y156040D01*
X435993Y156052D01*
X435967Y156056D01*
X435955Y156059D01*
X435935Y156066D01*
X435927Y156065D01*
X435579Y156298D01*
X435000Y156413D01*
X434421Y156298D01*
X433930Y155970D01*
X433602Y155479D01*
X433487Y154900D01*
X433602Y154321D01*
X433930Y153830D01*
X434421Y153502D01*
X435000Y153387D01*
X435579Y153502D01*
X435927Y153735D01*
X435935Y153734D01*
X435955Y153741D01*
X435967Y153744D01*
X435985Y153747D01*
X436288Y153767D01*
X436383Y153768D01*
X436429Y153788D01*
X439034Y153788D01*
X439034Y153788D01*
X439460Y153873D01*
X439820Y154114D01*
X441061Y155354D01*
X441302Y155715D01*
X441387Y156141D01*
X441387Y156141D01*
X441387Y159906D01*
X441302Y160332D01*
X441061Y160693D01*
X441061Y160693D01*
X432297Y169457D01*
X432278Y169504D01*
X432206Y169577D01*
X432093Y169700D01*
X432017Y169793D01*
X432001Y169815D01*
X431995Y169825D01*
X431986Y169844D01*
X431980Y169849D01*
X431898Y170260D01*
X431570Y170751D01*
X431079Y171079D01*
X430500Y171194D01*
X430500Y171194D02*
G37*
G36*
X245300Y175513D02*
X244721Y175398D01*
X244230Y175070D01*
X243902Y174579D01*
X243787Y174000D01*
X243902Y173421D01*
X244135Y173073D01*
X244134Y173065D01*
X244141Y173045D01*
X244144Y173033D01*
X244147Y173015D01*
X244167Y172712D01*
X244168Y172617D01*
X244188Y172571D01*
X244188Y169055D01*
X244168Y169008D01*
X244167Y168906D01*
X244161Y168738D01*
X244148Y168619D01*
X244144Y168592D01*
X244141Y168580D01*
X244134Y168560D01*
X244135Y168553D01*
X243902Y168204D01*
X243787Y167625D01*
X243902Y167046D01*
X244230Y166555D01*
X244721Y166227D01*
X245300Y166112D01*
X245879Y166227D01*
X246370Y166555D01*
X246698Y167046D01*
X246813Y167625D01*
X246698Y168204D01*
X246465Y168553D01*
X246466Y168560D01*
X246459Y168580D01*
X246456Y168592D01*
X246453Y168610D01*
X246433Y168913D01*
X246432Y169008D01*
X246412Y169055D01*
X246412Y172571D01*
X246432Y172617D01*
X246433Y172720D01*
X246440Y172887D01*
X246452Y173006D01*
X246456Y173033D01*
X246459Y173045D01*
X246466Y173065D01*
X246465Y173073D01*
X246698Y173421D01*
X246813Y174000D01*
X246698Y174579D01*
X246370Y175070D01*
X245879Y175398D01*
X245300Y175513D01*
X245300Y175513D02*
G37*
G36*
X71046Y171488D02*
X70144Y171369D01*
X69304Y171021D01*
X68583Y170468D01*
X68030Y169747D01*
X67682Y168907D01*
X67563Y168006D01*
X67682Y167104D01*
X68030Y166264D01*
X68583Y165543D01*
X69304Y164989D01*
X70144Y164642D01*
X71046Y164523D01*
X71947Y164642D01*
X72787Y164989D01*
X73508Y165543D01*
X74062Y166264D01*
X74410Y167104D01*
X74528Y168006D01*
X74410Y168907D01*
X74062Y169747D01*
X73508Y170468D01*
X72787Y171021D01*
X71947Y171369D01*
X71046Y171488D01*
X71046Y171488D02*
G37*
G36*
X159353Y171189D02*
X158439Y171069D01*
X157588Y170716D01*
X156857Y170155D01*
X156296Y169424D01*
X155943Y168573D01*
X155823Y167659D01*
X155943Y166745D01*
X156296Y165894D01*
X156857Y165163D01*
X157588Y164602D01*
X158439Y164249D01*
X159353Y164129D01*
X160266Y164249D01*
X161118Y164602D01*
X161849Y165163D01*
X162410Y165894D01*
X162763Y166745D01*
X162883Y167659D01*
X162763Y168573D01*
X162410Y169424D01*
X161849Y170155D01*
X161118Y170716D01*
X160266Y171069D01*
X159353Y171189D01*
X159353Y171189D02*
G37*
G36*
X250400Y170413D02*
X249821Y170298D01*
X249330Y169970D01*
X249002Y169479D01*
X248887Y168900D01*
X249002Y168321D01*
X249235Y167973D01*
X249234Y167965D01*
X249241Y167945D01*
X249244Y167933D01*
X249247Y167915D01*
X249267Y167612D01*
X249268Y167517D01*
X249288Y167471D01*
X249288Y167361D01*
X245261Y163334D01*
X245215Y163315D01*
X245145Y163247D01*
X245024Y163140D01*
X244985Y163109D01*
X244954Y163088D01*
X244947Y163084D01*
X244800Y163113D01*
X244221Y162998D01*
X243730Y162670D01*
X243402Y162179D01*
X243287Y161600D01*
X243402Y161021D01*
X243730Y160530D01*
X244221Y160202D01*
X244800Y160087D01*
X245379Y160202D01*
X245870Y160530D01*
X246198Y161021D01*
X246210Y161082D01*
X246855Y161755D01*
X246858Y161761D01*
X246864Y161764D01*
X246880Y161807D01*
X251186Y166114D01*
X251186Y166114D01*
X251427Y166474D01*
X251512Y166900D01*
X251512Y166900D01*
X251512Y167471D01*
X251532Y167517D01*
X251533Y167620D01*
X251539Y167787D01*
X251552Y167906D01*
X251556Y167933D01*
X251559Y167945D01*
X251566Y167965D01*
X251565Y167973D01*
X251798Y168321D01*
X251913Y168900D01*
X251798Y169479D01*
X251470Y169970D01*
X250979Y170298D01*
X250400Y170413D01*
X250400Y170413D02*
G37*
G36*
X443325Y166313D02*
X442746Y166198D01*
X442255Y165870D01*
X441927Y165379D01*
X441812Y164800D01*
X441927Y164221D01*
X442255Y163730D01*
X442746Y163402D01*
X442865Y163378D01*
X443534Y162766D01*
X443542Y162763D01*
X443546Y162756D01*
X443584Y162743D01*
X445606Y160722D01*
X445606Y160722D01*
X445966Y160481D01*
X446392Y160396D01*
X446392Y160396D01*
X448052Y160396D01*
X448077Y160382D01*
X448109Y160390D01*
X448139Y160377D01*
X448333Y160372D01*
X448471Y160360D01*
X448508Y160354D01*
X448515Y160353D01*
X448530Y160330D01*
X449021Y160002D01*
X449600Y159887D01*
X450179Y160002D01*
X450670Y160330D01*
X450998Y160821D01*
X451113Y161400D01*
X450998Y161979D01*
X450670Y162470D01*
X450179Y162798D01*
X449600Y162913D01*
X449021Y162798D01*
X448827Y162668D01*
X448408Y162640D01*
X448313Y162640D01*
X448266Y162620D01*
X446852Y162620D01*
X445079Y164393D01*
X445061Y164440D01*
X444989Y164513D01*
X444936Y164571D01*
X444847Y164678D01*
X444827Y164706D01*
X444822Y164715D01*
X444838Y164800D01*
X444723Y165379D01*
X444395Y165870D01*
X443904Y166198D01*
X443325Y166313D01*
X443325Y166313D02*
G37*
G36*
X485140Y159845D02*
X484393Y159747D01*
X483697Y159458D01*
X483099Y159000D01*
X482640Y158402D01*
X482352Y157705D01*
X482253Y156958D01*
X482352Y156211D01*
X482640Y155515D01*
X483099Y154917D01*
X483697Y154458D01*
X484393Y154170D01*
X485140Y154071D01*
X485887Y154170D01*
X486584Y154458D01*
X487182Y154917D01*
X487640Y155515D01*
X487929Y156211D01*
X488027Y156958D01*
X487929Y157705D01*
X487640Y158402D01*
X487182Y159000D01*
X486584Y159458D01*
X485887Y159747D01*
X485140Y159845D01*
X485140Y159845D02*
G37*
G36*
X459550Y159845D02*
X458802Y159747D01*
X458106Y159458D01*
X457508Y159000D01*
X457050Y158402D01*
X456761Y157705D01*
X456663Y156958D01*
X456761Y156211D01*
X457050Y155515D01*
X457508Y154917D01*
X458106Y154458D01*
X458802Y154170D01*
X459550Y154071D01*
X460297Y154170D01*
X460993Y154458D01*
X461591Y154917D01*
X462050Y155515D01*
X462338Y156211D01*
X462436Y156958D01*
X462338Y157705D01*
X462050Y158402D01*
X461591Y159000D01*
X460993Y159458D01*
X460297Y159747D01*
X459550Y159845D01*
X459550Y159845D02*
G37*
G36*
X217900Y148413D02*
X217321Y148298D01*
X216973Y148065D01*
X216965Y148066D01*
X216945Y148059D01*
X216933Y148056D01*
X216915Y148053D01*
X216612Y148033D01*
X216517Y148032D01*
X216471Y148012D01*
X212529Y148012D01*
X212483Y148032D01*
X212381Y148033D01*
X212213Y148039D01*
X212093Y148052D01*
X212067Y148056D01*
X212055Y148059D01*
X212035Y148066D01*
X212027Y148065D01*
X211679Y148298D01*
X211100Y148413D01*
X210521Y148298D01*
X210030Y147970D01*
X209702Y147479D01*
X209587Y146900D01*
X209702Y146321D01*
X210030Y145830D01*
X210521Y145502D01*
X211100Y145387D01*
X211679Y145502D01*
X212027Y145735D01*
X212035Y145734D01*
X212055Y145741D01*
X212067Y145744D01*
X212085Y145747D01*
X212388Y145767D01*
X212483Y145768D01*
X212529Y145788D01*
X216471Y145788D01*
X216517Y145768D01*
X216619Y145767D01*
X216787Y145761D01*
X216906Y145748D01*
X216933Y145744D01*
X216945Y145741D01*
X216965Y145734D01*
X216973Y145735D01*
X217321Y145502D01*
X217900Y145387D01*
X218479Y145502D01*
X218970Y145830D01*
X219298Y146321D01*
X219413Y146900D01*
X219298Y147479D01*
X218970Y147970D01*
X218479Y148298D01*
X217900Y148413D01*
X217900Y148413D02*
G37*
G36*
X71046Y151488D02*
X70144Y151369D01*
X69304Y151022D01*
X68583Y150468D01*
X68030Y149747D01*
X67682Y148907D01*
X67563Y148005D01*
X67682Y147104D01*
X68030Y146264D01*
X68583Y145543D01*
X69304Y144990D01*
X70144Y144642D01*
X71046Y144523D01*
X71947Y144642D01*
X72787Y144990D01*
X73508Y145543D01*
X74062Y146264D01*
X74410Y147104D01*
X74528Y148005D01*
X74410Y148907D01*
X74062Y149747D01*
X73508Y150468D01*
X72787Y151022D01*
X71947Y151369D01*
X71046Y151488D01*
X71046Y151488D02*
G37*
G36*
X308505Y144616D02*
X308324Y144592D01*
X307601Y144293D01*
X306981Y143817D01*
X306505Y143197D01*
X306206Y142475D01*
X306183Y142295D01*
X306242Y142297D01*
X306432Y142314D01*
X306610Y142344D01*
X306777Y142385D01*
X306931Y142438D01*
X307074Y142503D01*
X307204Y142580D01*
X307323Y142668D01*
X307429Y142769D01*
X307524Y142881D01*
X307524Y142399D01*
X307531Y142401D01*
X307646Y142450D01*
X307755Y142508D01*
X307858Y142574D01*
X307954Y142649D01*
X308044Y142734D01*
X308044Y140666D01*
X307954Y140751D01*
X307858Y140826D01*
X307755Y140892D01*
X307646Y140950D01*
X307531Y140999D01*
X307524Y141001D01*
X307524Y140519D01*
X307429Y140631D01*
X307323Y140732D01*
X307204Y140820D01*
X307074Y140897D01*
X306931Y140962D01*
X306777Y141015D01*
X306610Y141056D01*
X306432Y141086D01*
X306242Y141103D01*
X306183Y141105D01*
X306206Y140925D01*
X306505Y140203D01*
X306981Y139583D01*
X307601Y139107D01*
X308324Y138808D01*
X309098Y138706D01*
X309873Y138808D01*
X310595Y139107D01*
X311216Y139583D01*
X311691Y140203D01*
X311990Y140925D01*
X312014Y141105D01*
X311955Y141103D01*
X311765Y141086D01*
X311586Y141056D01*
X311420Y141015D01*
X311266Y140962D01*
X311123Y140897D01*
X310993Y140820D01*
X310874Y140732D01*
X310768Y140631D01*
X310673Y140519D01*
X310673Y141001D01*
X310666Y140999D01*
X310551Y140950D01*
X310442Y140892D01*
X310339Y140826D01*
X310243Y140751D01*
X310153Y140666D01*
X310153Y142734D01*
X310243Y142649D01*
X310339Y142574D01*
X310442Y142508D01*
X310551Y142450D01*
X310666Y142401D01*
X310673Y142399D01*
X310673Y142881D01*
X310768Y142769D01*
X310874Y142668D01*
X310993Y142580D01*
X311123Y142503D01*
X311266Y142438D01*
X311420Y142385D01*
X311586Y142344D01*
X311765Y142314D01*
X311955Y142297D01*
X312014Y142295D01*
X311990Y142475D01*
X311691Y143197D01*
X311216Y143817D01*
X310595Y144293D01*
X309873Y144592D01*
X309695Y144616D01*
X309697Y144556D01*
X309714Y144366D01*
X309744Y144187D01*
X309785Y144021D01*
X309838Y143867D01*
X309903Y143724D01*
X309980Y143594D01*
X310068Y143475D01*
X310169Y143368D01*
X310281Y143274D01*
X309799Y143274D01*
X309801Y143267D01*
X309850Y143151D01*
X309907Y143042D01*
X309974Y142940D01*
X310049Y142843D01*
X310133Y142753D01*
X308066Y142755D01*
X308150Y142845D01*
X308226Y142942D01*
X308292Y143044D01*
X308350Y143153D01*
X308399Y143268D01*
X308401Y143275D01*
X307919Y143276D01*
X308031Y143370D01*
X308131Y143477D01*
X308220Y143595D01*
X308297Y143726D01*
X308362Y143868D01*
X308415Y144022D01*
X308456Y144189D01*
X308486Y144367D01*
X308504Y144557D01*
X308505Y144616D01*
X308505Y144616D02*
G37*
G36*
X217600Y141513D02*
X217021Y141398D01*
X216673Y141165D01*
X216665Y141166D01*
X216645Y141159D01*
X216633Y141156D01*
X216616Y141153D01*
X216312Y141133D01*
X216217Y141132D01*
X216171Y141112D01*
X214672Y141112D01*
X214625Y141132D01*
X214523Y141133D01*
X214355Y141139D01*
X214236Y141152D01*
X214210Y141156D01*
X214198Y141159D01*
X214178Y141166D01*
X214170Y141165D01*
X213822Y141398D01*
X213243Y141513D01*
X212663Y141398D01*
X212173Y141070D01*
X211844Y140579D01*
X211729Y140000D01*
X211844Y139421D01*
X212173Y138930D01*
X212663Y138602D01*
X213243Y138487D01*
X213822Y138602D01*
X214170Y138835D01*
X214178Y138834D01*
X214198Y138841D01*
X214209Y138844D01*
X214227Y138847D01*
X214530Y138867D01*
X214625Y138868D01*
X214672Y138888D01*
X216171Y138888D01*
X216217Y138868D01*
X216319Y138867D01*
X216487Y138860D01*
X216606Y138848D01*
X216633Y138844D01*
X216645Y138841D01*
X216665Y138834D01*
X216673Y138835D01*
X217021Y138602D01*
X217600Y138487D01*
X218179Y138602D01*
X218670Y138930D01*
X218998Y139421D01*
X219113Y140000D01*
X218998Y140579D01*
X218670Y141070D01*
X218179Y141398D01*
X217600Y141513D01*
X217600Y141513D02*
G37*
G36*
X71546Y141927D02*
X71546Y138505D01*
X74967Y138505D01*
X74897Y139037D01*
X74498Y139999D01*
X73865Y140825D01*
X73039Y141458D01*
X72078Y141857D01*
X71546Y141927D01*
X71546Y141927D02*
G37*
G36*
X70546Y141927D02*
X70014Y141857D01*
X69052Y141458D01*
X68226Y140825D01*
X67593Y139999D01*
X67195Y139037D01*
X67125Y138505D01*
X70546Y138505D01*
X70546Y141927D01*
X70546Y141927D02*
G37*
G36*
X488465Y138742D02*
X485640Y138742D01*
X485640Y135916D01*
X486018Y135966D01*
X486836Y136305D01*
X487538Y136844D01*
X488077Y137546D01*
X488416Y138364D01*
X488465Y138742D01*
X488465Y138742D02*
G37*
G36*
X462875Y138742D02*
X460050Y138742D01*
X460050Y135916D01*
X460427Y135966D01*
X461245Y136305D01*
X461947Y136844D01*
X462487Y137546D01*
X462825Y138364D01*
X462875Y138742D01*
X462875Y138742D02*
G37*
G36*
X484640Y138742D02*
X481815Y138742D01*
X481865Y138364D01*
X482203Y137546D01*
X482742Y136844D01*
X483445Y136305D01*
X484262Y135966D01*
X484640Y135916D01*
X484640Y138742D01*
X484640Y138742D02*
G37*
G36*
X459050Y138742D02*
X456224Y138742D01*
X456274Y138364D01*
X456613Y137546D01*
X457152Y136844D01*
X457854Y136305D01*
X458672Y135966D01*
X459050Y135916D01*
X459050Y138742D01*
X459050Y138742D02*
G37*
G36*
X74967Y137505D02*
X71546Y137505D01*
X71546Y134084D01*
X72078Y134154D01*
X73039Y134553D01*
X73865Y135186D01*
X74498Y136012D01*
X74897Y136974D01*
X74967Y137505D01*
X74967Y137505D02*
G37*
G36*
X70546Y137505D02*
X67125Y137505D01*
X67195Y136974D01*
X67593Y136012D01*
X68226Y135186D01*
X69052Y134553D01*
X70014Y134154D01*
X70546Y134084D01*
X70546Y137505D01*
X70546Y137505D02*
G37*
G36*
X209093Y136661D02*
X208514Y136545D01*
X208023Y136217D01*
X207695Y135726D01*
X207580Y135147D01*
X207695Y134568D01*
X208023Y134077D01*
X208514Y133749D01*
X209093Y133634D01*
X209672Y133749D01*
X209988Y133960D01*
X210000Y133959D01*
X210021Y133966D01*
X210035Y133968D01*
X210055Y133972D01*
X210361Y133991D01*
X210457Y133992D01*
X210504Y134012D01*
X216145Y134012D01*
X216189Y133992D01*
X216194Y133994D01*
X216200Y133992D01*
X216301Y133991D01*
X216467Y133984D01*
X216584Y133971D01*
X216609Y133966D01*
X216619Y133964D01*
X216638Y133957D01*
X216639Y133957D01*
X217021Y133702D01*
X217600Y133587D01*
X218179Y133702D01*
X218670Y134030D01*
X218998Y134521D01*
X219113Y135100D01*
X218998Y135679D01*
X218670Y136170D01*
X218179Y136498D01*
X217600Y136613D01*
X217021Y136498D01*
X216705Y136287D01*
X216693Y136288D01*
X216672Y136282D01*
X216658Y136279D01*
X216638Y136275D01*
X216332Y136256D01*
X216236Y136255D01*
X216189Y136235D01*
X210548Y136235D01*
X210504Y136255D01*
X210499Y136253D01*
X210493Y136255D01*
X210392Y136256D01*
X210226Y136264D01*
X210109Y136276D01*
X210084Y136281D01*
X210074Y136283D01*
X210054Y136290D01*
X210054Y136290D01*
X209672Y136545D01*
X209093Y136661D01*
X209093Y136661D02*
G37*
G36*
X158853Y132258D02*
X158308Y132186D01*
X157335Y131783D01*
X156500Y131142D01*
X155859Y130306D01*
X155456Y129333D01*
X155384Y128789D01*
X158853Y128789D01*
X158853Y132258D01*
X158853Y132258D02*
G37*
G36*
X187100Y132184D02*
X186250Y132072D01*
X185458Y131744D01*
X184778Y131222D01*
X184256Y130542D01*
X183928Y129750D01*
X183816Y128900D01*
X183928Y128050D01*
X184256Y127258D01*
X184778Y126578D01*
X185458Y126056D01*
X186250Y125728D01*
X187100Y125616D01*
X187950Y125728D01*
X188742Y126056D01*
X189422Y126578D01*
X189944Y127258D01*
X190272Y128050D01*
X190384Y128900D01*
X190272Y129750D01*
X189944Y130542D01*
X189422Y131222D01*
X188742Y131744D01*
X187950Y132072D01*
X187100Y132184D01*
X187100Y132184D02*
G37*
G36*
X158853Y127789D02*
X155384Y127789D01*
X155456Y127245D01*
X155859Y126272D01*
X156500Y125436D01*
X157335Y124795D01*
X158308Y124392D01*
X158853Y124320D01*
X158853Y127789D01*
X158853Y127789D02*
G37*
G36*
X159853Y122258D02*
X159853Y118789D01*
X163321Y118789D01*
X163250Y119333D01*
X162847Y120306D01*
X162206Y121142D01*
X161370Y121783D01*
X160397Y122186D01*
X159853Y122258D01*
X159853Y122258D02*
G37*
G36*
X158853Y122258D02*
X158308Y122186D01*
X157335Y121783D01*
X156500Y121142D01*
X155859Y120306D01*
X155456Y119333D01*
X155384Y118789D01*
X158853Y118789D01*
X158853Y122258D01*
X158853Y122258D02*
G37*
G36*
X141546Y179917D02*
X76546Y179917D01*
X76197Y179847D01*
X75901Y179650D01*
X75704Y179354D01*
X75634Y179006D01*
X75634Y117006D01*
X75704Y116657D01*
X75901Y116361D01*
X76197Y116164D01*
X76546Y116094D01*
X141546Y116094D01*
X141894Y116164D01*
X142190Y116361D01*
X142387Y116657D01*
X142457Y117006D01*
X142457Y179006D01*
X142387Y179354D01*
X142190Y179650D01*
X141894Y179847D01*
X141546Y179917D01*
X141546Y179917D02*
G37*
G36*
X163321Y117789D02*
X159853Y117789D01*
X159853Y114320D01*
X160397Y114392D01*
X161370Y114795D01*
X162206Y115436D01*
X162847Y116272D01*
X163250Y117245D01*
X163321Y117789D01*
X163321Y117789D02*
G37*
G36*
X158853Y117789D02*
X155384Y117789D01*
X155456Y117245D01*
X155859Y116272D01*
X156500Y115436D01*
X157335Y114795D01*
X158308Y114392D01*
X158853Y114320D01*
X158853Y117789D01*
X158853Y117789D02*
G37*
G36*
X394000Y118865D02*
X393150Y118753D01*
X392358Y118425D01*
X391678Y117903D01*
X391156Y117223D01*
X390828Y116431D01*
X390716Y115581D01*
X390828Y114731D01*
X391156Y113939D01*
X391678Y113259D01*
X392358Y112737D01*
X393150Y112409D01*
X394000Y112297D01*
X394850Y112409D01*
X395642Y112737D01*
X396322Y113259D01*
X396844Y113939D01*
X397172Y114731D01*
X397284Y115581D01*
X397172Y116431D01*
X396844Y117223D01*
X396322Y117903D01*
X395642Y118425D01*
X394850Y118753D01*
X394000Y118865D01*
X394000Y118865D02*
G37*
G36*
X511000Y103194D02*
X510421Y103079D01*
X510073Y102847D01*
X510065Y102847D01*
X510045Y102840D01*
X510033Y102837D01*
X510015Y102834D01*
X509712Y102814D01*
X509617Y102813D01*
X509571Y102793D01*
X506477Y102793D01*
X506430Y102813D01*
X506328Y102814D01*
X506160Y102821D01*
X506041Y102833D01*
X506014Y102837D01*
X506002Y102840D01*
X505982Y102847D01*
X505975Y102847D01*
X505626Y103079D01*
X505047Y103194D01*
X504468Y103079D01*
X503977Y102751D01*
X503649Y102260D01*
X503534Y101681D01*
X503649Y101102D01*
X503977Y100611D01*
X504468Y100283D01*
X505047Y100168D01*
X505626Y100283D01*
X505975Y100516D01*
X505982Y100515D01*
X506002Y100522D01*
X506014Y100525D01*
X506032Y100528D01*
X506335Y100549D01*
X506430Y100549D01*
X506477Y100569D01*
X509571Y100569D01*
X509617Y100549D01*
X509720Y100549D01*
X509887Y100542D01*
X510007Y100529D01*
X510033Y100525D01*
X510045Y100522D01*
X510065Y100515D01*
X510073Y100516D01*
X510421Y100283D01*
X511000Y100168D01*
X511579Y100283D01*
X512070Y100611D01*
X512398Y101102D01*
X512513Y101681D01*
X512398Y102260D01*
X512070Y102751D01*
X511579Y103079D01*
X511000Y103194D01*
X511000Y103194D02*
G37*
G36*
X320746Y98290D02*
X319896Y98178D01*
X319104Y97850D01*
X318424Y97328D01*
X317902Y96648D01*
X317574Y95855D01*
X317462Y95006D01*
X317574Y94156D01*
X317902Y93363D01*
X318424Y92683D01*
X319104Y92162D01*
X319896Y91833D01*
X320746Y91721D01*
X321596Y91833D01*
X322388Y92162D01*
X323068Y92683D01*
X323590Y93363D01*
X323918Y94156D01*
X324030Y95006D01*
X323918Y95855D01*
X323590Y96648D01*
X323068Y97328D01*
X322388Y97850D01*
X321596Y98178D01*
X320746Y98290D01*
X320746Y98290D02*
G37*
G36*
X169546Y98290D02*
X168696Y98178D01*
X167904Y97850D01*
X167224Y97328D01*
X166702Y96648D01*
X166374Y95855D01*
X166262Y95006D01*
X166374Y94156D01*
X166702Y93363D01*
X167224Y92683D01*
X167904Y92162D01*
X168696Y91833D01*
X169546Y91721D01*
X170396Y91833D01*
X171188Y92162D01*
X171868Y92683D01*
X172390Y93363D01*
X172718Y94156D01*
X172830Y95006D01*
X172718Y95855D01*
X172390Y96648D01*
X171868Y97328D01*
X171188Y97850D01*
X170396Y98178D01*
X169546Y98290D01*
X169546Y98290D02*
G37*
G36*
X480100Y110656D02*
X412500Y110656D01*
X411342Y110504D01*
X410262Y110057D01*
X409336Y109346D01*
X391146Y91156D01*
X382284Y91156D01*
X382284Y97714D01*
X382125Y98097D01*
X381743Y98255D01*
X326242Y98255D01*
X325860Y98097D01*
X325701Y97714D01*
X325701Y73481D01*
X325209Y72981D01*
X278426Y72981D01*
X278305Y73445D01*
X279145Y73793D01*
X279867Y74346D01*
X280420Y75067D01*
X280768Y75907D01*
X280887Y76809D01*
X280768Y77710D01*
X280420Y78550D01*
X279867Y79271D01*
X279145Y79825D01*
X278305Y80172D01*
X277404Y80291D01*
X276503Y80172D01*
X275663Y79825D01*
X274941Y79271D01*
X274388Y78550D01*
X274040Y77710D01*
X273921Y76809D01*
X274040Y75907D01*
X274388Y75067D01*
X274941Y74346D01*
X275663Y73793D01*
X276503Y73445D01*
X276382Y72981D01*
X266615Y72981D01*
X266494Y73445D01*
X267334Y73793D01*
X268055Y74346D01*
X268609Y75067D01*
X268957Y75907D01*
X269075Y76809D01*
X268957Y77710D01*
X268609Y78550D01*
X268055Y79271D01*
X267334Y79825D01*
X266494Y80172D01*
X265593Y80291D01*
X264692Y80172D01*
X263852Y79825D01*
X263130Y79271D01*
X262577Y78550D01*
X262229Y77710D01*
X262110Y76809D01*
X262229Y75907D01*
X262577Y75067D01*
X263130Y74346D01*
X263852Y73793D01*
X264692Y73445D01*
X264571Y72981D01*
X254803Y72981D01*
X254683Y73445D01*
X255523Y73793D01*
X256244Y74346D01*
X256798Y75067D01*
X257146Y75907D01*
X257264Y76809D01*
X257146Y77710D01*
X256798Y78550D01*
X256244Y79271D01*
X255523Y79825D01*
X254683Y80172D01*
X253782Y80291D01*
X252881Y80172D01*
X252041Y79825D01*
X251319Y79271D01*
X250766Y78550D01*
X250418Y77710D01*
X250299Y76809D01*
X250418Y75907D01*
X250766Y75067D01*
X251319Y74346D01*
X252041Y73793D01*
X252881Y73445D01*
X252760Y72981D01*
X224587Y72981D01*
X224587Y98405D01*
X224428Y98788D01*
X224046Y98947D01*
X174046Y98947D01*
X173663Y98788D01*
X173504Y98405D01*
X173504Y65206D01*
X173663Y64823D01*
X174046Y64664D01*
X217717Y64664D01*
X217762Y64630D01*
X218842Y64183D01*
X220000Y64030D01*
X375505Y64030D01*
X375942Y64088D01*
X387882Y64088D01*
X389040Y64240D01*
X390120Y64687D01*
X391046Y65399D01*
X417854Y92206D01*
X475500Y92206D01*
X479500Y92206D01*
X479956Y92266D01*
X492500Y92266D01*
X492883Y92424D01*
X493041Y92807D01*
X493041Y100681D01*
X492883Y101064D01*
X492607Y101178D01*
X492607Y101684D01*
X492883Y101798D01*
X493041Y102181D01*
X493041Y110055D01*
X492883Y110438D01*
X492500Y110596D01*
X480556Y110596D01*
X480100Y110656D01*
X480100Y110656D02*
G37*
G36*
X289215Y94877D02*
X288236Y94683D01*
X287407Y94129D01*
X286853Y93299D01*
X286658Y92321D01*
X286853Y91342D01*
X287407Y90512D01*
X288236Y89958D01*
X289215Y89763D01*
X290194Y89958D01*
X291023Y90512D01*
X291577Y91342D01*
X291772Y92321D01*
X291577Y93299D01*
X291023Y94129D01*
X290194Y94683D01*
X289215Y94877D01*
X289215Y94877D02*
G37*
G36*
X241971Y94877D02*
X240992Y94683D01*
X240163Y94129D01*
X239609Y93299D01*
X239414Y92321D01*
X239609Y91342D01*
X240163Y90512D01*
X240992Y89958D01*
X241971Y89763D01*
X242949Y89958D01*
X243779Y90512D01*
X244333Y91342D01*
X244528Y92321D01*
X244333Y93299D01*
X243779Y94129D01*
X242949Y94683D01*
X241971Y94877D01*
X241971Y94877D02*
G37*
G36*
X131715Y94877D02*
X130736Y94683D01*
X129907Y94129D01*
X129353Y93299D01*
X129158Y92321D01*
X129353Y91342D01*
X129907Y90512D01*
X130736Y89958D01*
X131715Y89763D01*
X132694Y89958D01*
X133523Y90512D01*
X134077Y91342D01*
X134272Y92321D01*
X134077Y93299D01*
X133523Y94129D01*
X132694Y94683D01*
X131715Y94877D01*
X131715Y94877D02*
G37*
G36*
X84471Y94877D02*
X83492Y94683D01*
X82663Y94129D01*
X82108Y93299D01*
X81914Y92321D01*
X82108Y91342D01*
X82663Y90512D01*
X83492Y89958D01*
X84471Y89763D01*
X85449Y89958D01*
X86279Y90512D01*
X86833Y91342D01*
X87028Y92321D01*
X86833Y93299D01*
X86279Y94129D01*
X85449Y94683D01*
X84471Y94877D01*
X84471Y94877D02*
G37*
G36*
X277404Y92102D02*
X276503Y91984D01*
X275663Y91636D01*
X274941Y91082D01*
X274388Y90361D01*
X274040Y89521D01*
X273921Y88620D01*
X274040Y87718D01*
X274388Y86878D01*
X274941Y86157D01*
X275663Y85604D01*
X276503Y85256D01*
X277404Y85137D01*
X278305Y85256D01*
X279145Y85604D01*
X279867Y86157D01*
X280420Y86878D01*
X280768Y87718D01*
X280887Y88620D01*
X280768Y89521D01*
X280420Y90361D01*
X279867Y91082D01*
X279145Y91636D01*
X278305Y91984D01*
X277404Y92102D01*
X277404Y92102D02*
G37*
G36*
X265593Y92102D02*
X264692Y91984D01*
X263852Y91636D01*
X263130Y91082D01*
X262577Y90361D01*
X262229Y89521D01*
X262110Y88620D01*
X262229Y87718D01*
X262577Y86878D01*
X263130Y86157D01*
X263852Y85604D01*
X264692Y85256D01*
X265593Y85137D01*
X266494Y85256D01*
X267334Y85604D01*
X268055Y86157D01*
X268609Y86878D01*
X268957Y87718D01*
X269075Y88620D01*
X268957Y89521D01*
X268609Y90361D01*
X268055Y91082D01*
X267334Y91636D01*
X266494Y91984D01*
X265593Y92102D01*
X265593Y92102D02*
G37*
G36*
X253782Y92102D02*
X252881Y91984D01*
X252041Y91636D01*
X251319Y91082D01*
X250766Y90361D01*
X250418Y89521D01*
X250299Y88620D01*
X250418Y87718D01*
X250766Y86878D01*
X251319Y86157D01*
X252041Y85604D01*
X252881Y85256D01*
X253782Y85137D01*
X254683Y85256D01*
X255523Y85604D01*
X256244Y86157D01*
X256798Y86878D01*
X257146Y87718D01*
X257264Y88620D01*
X257146Y89521D01*
X256798Y90361D01*
X256244Y91082D01*
X255523Y91636D01*
X254683Y91984D01*
X253782Y92102D01*
X253782Y92102D02*
G37*
G36*
X119904Y92102D02*
X119003Y91984D01*
X118163Y91636D01*
X117441Y91082D01*
X116888Y90361D01*
X116540Y89521D01*
X116421Y88620D01*
X116540Y87718D01*
X116888Y86878D01*
X117441Y86157D01*
X118163Y85604D01*
X119003Y85256D01*
X119904Y85137D01*
X120805Y85256D01*
X121645Y85604D01*
X122366Y86157D01*
X122920Y86878D01*
X123268Y87718D01*
X123387Y88620D01*
X123268Y89521D01*
X122920Y90361D01*
X122366Y91082D01*
X121645Y91636D01*
X120805Y91984D01*
X119904Y92102D01*
X119904Y92102D02*
G37*
G36*
X108093Y92102D02*
X107192Y91984D01*
X106352Y91636D01*
X105630Y91082D01*
X105077Y90361D01*
X104729Y89521D01*
X104610Y88620D01*
X104729Y87718D01*
X105077Y86878D01*
X105630Y86157D01*
X106352Y85604D01*
X107192Y85256D01*
X108093Y85137D01*
X108994Y85256D01*
X109834Y85604D01*
X110555Y86157D01*
X111109Y86878D01*
X111457Y87718D01*
X111575Y88620D01*
X111457Y89521D01*
X111109Y90361D01*
X110555Y91082D01*
X109834Y91636D01*
X108994Y91984D01*
X108093Y92102D01*
X108093Y92102D02*
G37*
G36*
X96282Y92102D02*
X95381Y91984D01*
X94541Y91636D01*
X93819Y91082D01*
X93266Y90361D01*
X92918Y89521D01*
X92799Y88620D01*
X92918Y87718D01*
X93266Y86878D01*
X93819Y86157D01*
X94541Y85604D01*
X95381Y85256D01*
X96282Y85137D01*
X97183Y85256D01*
X98023Y85604D01*
X98744Y86157D01*
X99298Y86878D01*
X99646Y87718D01*
X99764Y88620D01*
X99646Y89521D01*
X99298Y90361D01*
X98744Y91082D01*
X98023Y91636D01*
X97183Y91984D01*
X96282Y92102D01*
X96282Y92102D02*
G37*
G36*
X320746Y80589D02*
X319896Y80478D01*
X319104Y80150D01*
X318424Y79628D01*
X317902Y78948D01*
X317574Y78155D01*
X317462Y77306D01*
X317574Y76456D01*
X317902Y75664D01*
X318424Y74983D01*
X319104Y74462D01*
X319896Y74133D01*
X320746Y74022D01*
X321596Y74133D01*
X322388Y74462D01*
X323068Y74983D01*
X323590Y75664D01*
X323918Y76456D01*
X324030Y77306D01*
X323918Y78155D01*
X323590Y78948D01*
X323068Y79628D01*
X322388Y80150D01*
X321596Y80478D01*
X320746Y80589D01*
X320746Y80589D02*
G37*
G36*
X119904Y80291D02*
X119003Y80172D01*
X118163Y79825D01*
X117441Y79271D01*
X116888Y78550D01*
X116540Y77710D01*
X116421Y76809D01*
X116540Y75907D01*
X116888Y75067D01*
X117441Y74346D01*
X118163Y73793D01*
X119003Y73445D01*
X119904Y73326D01*
X120805Y73445D01*
X121645Y73793D01*
X122366Y74346D01*
X122920Y75067D01*
X123268Y75907D01*
X123387Y76809D01*
X123268Y77710D01*
X122920Y78550D01*
X122366Y79271D01*
X121645Y79825D01*
X120805Y80172D01*
X119904Y80291D01*
X119904Y80291D02*
G37*
G36*
X96282Y80291D02*
X95381Y80172D01*
X94541Y79825D01*
X93819Y79271D01*
X93266Y78550D01*
X92918Y77710D01*
X92799Y76809D01*
X92918Y75907D01*
X93266Y75067D01*
X93819Y74346D01*
X94541Y73793D01*
X95381Y73445D01*
X96282Y73326D01*
X97183Y73445D01*
X98023Y73793D01*
X98744Y74346D01*
X99298Y75067D01*
X99646Y75907D01*
X99764Y76809D01*
X99646Y77710D01*
X99298Y78550D01*
X98744Y79271D01*
X98023Y79825D01*
X97183Y80172D01*
X96282Y80291D01*
X96282Y80291D02*
G37*
G36*
X169546Y79089D02*
X168696Y78977D01*
X167904Y78649D01*
X167224Y78127D01*
X166702Y77447D01*
X166374Y76655D01*
X166262Y75805D01*
X166374Y74955D01*
X166702Y74163D01*
X167224Y73483D01*
X167904Y72961D01*
X168696Y72633D01*
X169546Y72521D01*
X170396Y72633D01*
X171188Y72961D01*
X171868Y73483D01*
X172390Y74163D01*
X172718Y74955D01*
X172830Y75805D01*
X172718Y76655D01*
X172390Y77447D01*
X171868Y78127D01*
X171188Y78649D01*
X170396Y78977D01*
X169546Y79089D01*
X169546Y79089D02*
G37*
G36*
X352750Y61858D02*
X352373Y61809D01*
X351555Y61470D01*
X350852Y60931D01*
X350313Y60229D01*
X349975Y59411D01*
X349925Y59033D01*
X352750Y59033D01*
X352750Y61858D01*
X352750Y61858D02*
G37*
G36*
X328160Y61858D02*
X328160Y59033D01*
X330985Y59033D01*
X330936Y59411D01*
X330597Y60229D01*
X330058Y60931D01*
X329355Y61470D01*
X328538Y61809D01*
X328160Y61858D01*
X328160Y61858D02*
G37*
G36*
X327160Y61858D02*
X326782Y61809D01*
X325964Y61470D01*
X325262Y60931D01*
X324723Y60229D01*
X324384Y59411D01*
X324335Y59033D01*
X327160Y59033D01*
X327160Y61858D01*
X327160Y61858D02*
G37*
G36*
X196270Y61858D02*
X196270Y59033D01*
X199095Y59033D01*
X199046Y59411D01*
X198707Y60229D01*
X198168Y60931D01*
X197466Y61470D01*
X196648Y61809D01*
X196270Y61858D01*
X196270Y61858D02*
G37*
G36*
X195270Y61858D02*
X194892Y61809D01*
X194074Y61470D01*
X193372Y60931D01*
X192833Y60229D01*
X192494Y59411D01*
X192445Y59033D01*
X195270Y59033D01*
X195270Y61858D01*
X195270Y61858D02*
G37*
G36*
X170679Y61858D02*
X170679Y59033D01*
X173505Y59033D01*
X173455Y59411D01*
X173116Y60229D01*
X172578Y60931D01*
X171875Y61470D01*
X171057Y61809D01*
X170679Y61858D01*
X170679Y61858D02*
G37*
G36*
X169679Y61858D02*
X169302Y61809D01*
X168484Y61470D01*
X167782Y60931D01*
X167243Y60229D01*
X166904Y59411D01*
X166854Y59033D01*
X169679Y59033D01*
X169679Y61858D01*
X169679Y61858D02*
G37*
G36*
X352750Y58033D02*
X349925Y58033D01*
X349975Y57655D01*
X350313Y56837D01*
X350852Y56135D01*
X351555Y55596D01*
X352373Y55257D01*
X352750Y55208D01*
X352750Y58033D01*
X352750Y58033D02*
G37*
G36*
X330985Y58033D02*
X328160Y58033D01*
X328160Y55208D01*
X328538Y55257D01*
X329355Y55596D01*
X330058Y56135D01*
X330597Y56837D01*
X330936Y57655D01*
X330985Y58033D01*
X330985Y58033D02*
G37*
G36*
X327160Y58033D02*
X324335Y58033D01*
X324384Y57655D01*
X324723Y56837D01*
X325262Y56135D01*
X325964Y55596D01*
X326782Y55257D01*
X327160Y55208D01*
X327160Y58033D01*
X327160Y58033D02*
G37*
G36*
X199095Y58033D02*
X196270Y58033D01*
X196270Y55208D01*
X196648Y55257D01*
X197466Y55596D01*
X198168Y56135D01*
X198707Y56837D01*
X199046Y57655D01*
X199095Y58033D01*
X199095Y58033D02*
G37*
G36*
X195270Y58033D02*
X192445Y58033D01*
X192494Y57655D01*
X192833Y56837D01*
X193372Y56135D01*
X194074Y55596D01*
X194892Y55257D01*
X195270Y55208D01*
X195270Y58033D01*
X195270Y58033D02*
G37*
G36*
X173505Y58033D02*
X170679Y58033D01*
X170679Y55208D01*
X171057Y55257D01*
X171875Y55596D01*
X172578Y56135D01*
X173116Y56837D01*
X173455Y57655D01*
X173505Y58033D01*
X173505Y58033D02*
G37*
G36*
X169679Y58033D02*
X166854Y58033D01*
X166904Y57655D01*
X167243Y56837D01*
X167782Y56135D01*
X168484Y55596D01*
X169302Y55257D01*
X169679Y55208D01*
X169679Y58033D01*
X169679Y58033D02*
G37*
G36*
X74498Y131458D02*
X67593Y131458D01*
X67593Y124553D01*
X69760Y124553D01*
X69808Y124527D01*
X69823Y124525D01*
X69823Y124524D01*
X69847Y124466D01*
X69872Y124371D01*
X69894Y124241D01*
X69909Y124077D01*
X69914Y123869D01*
X69934Y123825D01*
X69934Y115506D01*
X69934Y115506D01*
X70018Y115080D01*
X70259Y114719D01*
X77434Y107545D01*
X77434Y59762D01*
X77434Y59761D01*
X77518Y59336D01*
X77693Y59075D01*
X77726Y58982D01*
X77862Y58830D01*
X77966Y58687D01*
X78057Y58530D01*
X78135Y58358D01*
X78200Y58168D01*
X78251Y57960D01*
X78288Y57733D01*
X78309Y57487D01*
X78315Y57222D01*
X78303Y56922D01*
X78307Y56911D01*
X78302Y56901D01*
X78326Y56843D01*
X78309Y56714D01*
X78421Y55864D01*
X78749Y55072D01*
X79271Y54392D01*
X79951Y53870D01*
X80743Y53542D01*
X81593Y53430D01*
X82443Y53542D01*
X83235Y53870D01*
X83915Y54392D01*
X84437Y55072D01*
X84765Y55864D01*
X84877Y56714D01*
X84765Y57564D01*
X84437Y58356D01*
X83915Y59036D01*
X83235Y59558D01*
X82443Y59886D01*
X81593Y59998D01*
X81464Y59981D01*
X81406Y60005D01*
X81396Y60000D01*
X81385Y60005D01*
X81085Y59993D01*
X80820Y59998D01*
X80574Y60019D01*
X80347Y60056D01*
X80139Y60107D01*
X79949Y60172D01*
X79777Y60250D01*
X79658Y60319D01*
X79658Y108005D01*
X79573Y108431D01*
X79332Y108792D01*
X79332Y108792D01*
X72158Y115966D01*
X72158Y123825D01*
X72177Y123869D01*
X72183Y124077D01*
X72197Y124241D01*
X72219Y124371D01*
X72245Y124466D01*
X72268Y124524D01*
X72269Y124525D01*
X72283Y124527D01*
X72332Y124553D01*
X74498Y124553D01*
X74498Y131458D01*
X74498Y131458D02*
G37*
G36*
X108093Y80784D02*
X106935Y80632D01*
X105855Y80184D01*
X104928Y79473D01*
X104217Y78546D01*
X103770Y77467D01*
X103618Y76309D01*
X103618Y66769D01*
X103770Y65611D01*
X104217Y64532D01*
X104928Y63605D01*
X122692Y45841D01*
X123619Y45130D01*
X124698Y44683D01*
X125857Y44530D01*
X245046Y44530D01*
X246204Y44683D01*
X247283Y45130D01*
X248210Y45841D01*
X251394Y49025D01*
X300000Y49025D01*
X301158Y49177D01*
X302238Y49624D01*
X303165Y50336D01*
X303876Y51262D01*
X304323Y52342D01*
X304475Y53500D01*
X304323Y54658D01*
X303876Y55738D01*
X303165Y56665D01*
X302238Y57376D01*
X301158Y57823D01*
X300000Y57975D01*
X249540Y57975D01*
X248382Y57823D01*
X247303Y57376D01*
X246376Y56665D01*
X243192Y53481D01*
X127710Y53481D01*
X112568Y68623D01*
X112568Y76309D01*
X112416Y77467D01*
X111969Y78546D01*
X111257Y79473D01*
X110331Y80184D01*
X109251Y80632D01*
X108093Y80784D01*
X108093Y80784D02*
G37*
G36*
X319746Y50119D02*
X319166Y50004D01*
X318676Y49676D01*
X318348Y49185D01*
X318232Y48605D01*
X318348Y48026D01*
X318580Y47678D01*
X318580Y47671D01*
X318587Y47650D01*
X318589Y47639D01*
X318593Y47621D01*
X318613Y47318D01*
X318614Y47223D01*
X318634Y47176D01*
X318634Y43892D01*
X318614Y43847D01*
X318607Y43560D01*
X318597Y43438D01*
X318592Y43407D01*
X318589Y43391D01*
X318583Y43370D01*
X318585Y43353D01*
X318402Y43079D01*
X318287Y42500D01*
X318402Y41921D01*
X318730Y41430D01*
X319221Y41102D01*
X319800Y40987D01*
X320379Y41102D01*
X320870Y41430D01*
X321198Y41921D01*
X321313Y42500D01*
X321198Y43079D01*
X320904Y43519D01*
X320904Y43520D01*
X320901Y43532D01*
X320878Y43829D01*
X320877Y43921D01*
X320871Y43937D01*
X320876Y43953D01*
X320858Y43991D01*
X320858Y47176D01*
X320877Y47223D01*
X320878Y47325D01*
X320885Y47493D01*
X320897Y47612D01*
X320902Y47639D01*
X320905Y47650D01*
X320912Y47671D01*
X320911Y47678D01*
X321144Y48026D01*
X321259Y48605D01*
X321144Y49185D01*
X320816Y49676D01*
X320325Y50004D01*
X319746Y50119D01*
X319746Y50119D02*
G37*
G36*
X345500Y55713D02*
X344921Y55598D01*
X344430Y55270D01*
X344102Y54779D01*
X343987Y54200D01*
X344102Y53621D01*
X344385Y53197D01*
X344385Y53196D01*
X344388Y53188D01*
X344390Y53175D01*
X344413Y52877D01*
X344414Y52784D01*
X344419Y52772D01*
X344415Y52758D01*
X344434Y52719D01*
X344434Y43435D01*
X344414Y43388D01*
X344413Y43286D01*
X344406Y43118D01*
X344394Y42999D01*
X344389Y42972D01*
X344387Y42961D01*
X344380Y42941D01*
X344380Y42933D01*
X344147Y42585D01*
X344032Y42006D01*
X344147Y41426D01*
X344476Y40935D01*
X344967Y40607D01*
X345546Y40492D01*
X346125Y40607D01*
X346616Y40935D01*
X346944Y41426D01*
X347059Y42006D01*
X346944Y42585D01*
X346711Y42933D01*
X346712Y42941D01*
X346705Y42961D01*
X346702Y42972D01*
X346699Y42990D01*
X346678Y43293D01*
X346677Y43388D01*
X346658Y43435D01*
X346658Y52807D01*
X346677Y52854D01*
X346678Y52958D01*
X346684Y53129D01*
X346695Y53253D01*
X346700Y53283D01*
X346703Y53298D01*
X346709Y53320D01*
X346708Y53335D01*
X346898Y53621D01*
X347013Y54200D01*
X346898Y54779D01*
X346570Y55270D01*
X346079Y55598D01*
X345500Y55713D01*
X345500Y55713D02*
G37*
G36*
X421200Y51447D02*
X419764Y51258D01*
X418426Y50704D01*
X417277Y49823D01*
X416396Y48674D01*
X415842Y47336D01*
X415653Y45900D01*
X415842Y44464D01*
X416396Y43126D01*
X417277Y41977D01*
X418426Y41096D01*
X419764Y40542D01*
X421200Y40352D01*
X422636Y40542D01*
X423974Y41096D01*
X425123Y41977D01*
X426004Y43126D01*
X426558Y44464D01*
X426748Y45900D01*
X426558Y47336D01*
X426004Y48674D01*
X425123Y49823D01*
X423974Y50704D01*
X422636Y51258D01*
X421200Y51447D01*
X421200Y51447D02*
G37*
G36*
X401200Y51447D02*
X399764Y51258D01*
X398426Y50704D01*
X397277Y49823D01*
X396396Y48674D01*
X395842Y47336D01*
X395653Y45900D01*
X395842Y44464D01*
X396396Y43126D01*
X397277Y41977D01*
X398426Y41096D01*
X399764Y40542D01*
X401200Y40352D01*
X402636Y40542D01*
X403974Y41096D01*
X405123Y41977D01*
X406004Y43126D01*
X406558Y44464D01*
X406747Y45900D01*
X406558Y47336D01*
X406004Y48674D01*
X405123Y49823D01*
X403974Y50704D01*
X402636Y51258D01*
X401200Y51447D01*
X401200Y51447D02*
G37*
G36*
X353750Y61858D02*
X353750Y58533D01*
X353750Y55051D01*
X353984Y54734D01*
X353687Y53756D01*
X353563Y52500D01*
X353687Y51244D01*
X354053Y50037D01*
X354648Y48924D01*
X355449Y47949D01*
X362049Y41349D01*
X363024Y40548D01*
X364137Y39953D01*
X365344Y39587D01*
X366600Y39463D01*
X383300Y39463D01*
X384556Y39587D01*
X385763Y39953D01*
X386599Y40400D01*
X386700Y40400D01*
X386700Y40454D01*
X386876Y40548D01*
X387851Y41349D01*
X388652Y42324D01*
X389247Y43437D01*
X389613Y44644D01*
X389737Y45900D01*
X389613Y47156D01*
X389247Y48363D01*
X388652Y49476D01*
X387851Y50451D01*
X386876Y51252D01*
X386700Y51346D01*
X386700Y51400D01*
X386599Y51400D01*
X385763Y51847D01*
X384556Y52213D01*
X383300Y52337D01*
X369266Y52337D01*
X364551Y57051D01*
X363576Y57852D01*
X362463Y58447D01*
X361256Y58813D01*
X360000Y58937D01*
X358744Y58813D01*
X357537Y58447D01*
X357044Y58183D01*
X356633Y58468D01*
X356642Y58533D01*
X356526Y59411D01*
X356187Y60229D01*
X355648Y60931D01*
X354946Y61470D01*
X354128Y61809D01*
X353750Y61858D01*
X353750Y61858D02*
G37*
G36*
X353250Y43703D02*
X352503Y43605D01*
X351807Y43317D01*
X351209Y42858D01*
X350750Y42260D01*
X350462Y41564D01*
X350363Y40817D01*
X350462Y40069D01*
X350750Y39373D01*
X351209Y38775D01*
X351807Y38316D01*
X352503Y38028D01*
X353250Y37930D01*
X353998Y38028D01*
X354694Y38316D01*
X355292Y38775D01*
X355750Y39373D01*
X356039Y40069D01*
X356137Y40817D01*
X356039Y41564D01*
X355750Y42260D01*
X355292Y42858D01*
X354694Y43317D01*
X353998Y43605D01*
X353250Y43703D01*
X353250Y43703D02*
G37*
G36*
X327660Y43703D02*
X326913Y43605D01*
X326216Y43317D01*
X325619Y42858D01*
X325160Y42260D01*
X324871Y41564D01*
X324773Y40817D01*
X324871Y40069D01*
X325160Y39373D01*
X325619Y38775D01*
X326216Y38316D01*
X326913Y38028D01*
X327660Y37930D01*
X328407Y38028D01*
X329103Y38316D01*
X329701Y38775D01*
X330160Y39373D01*
X330448Y40069D01*
X330547Y40817D01*
X330448Y41564D01*
X330160Y42260D01*
X329701Y42858D01*
X329103Y43317D01*
X328407Y43605D01*
X327660Y43703D01*
X327660Y43703D02*
G37*
G36*
X195770Y43703D02*
X195023Y43605D01*
X194327Y43317D01*
X193729Y42858D01*
X193270Y42260D01*
X192982Y41564D01*
X192883Y40817D01*
X192982Y40069D01*
X193270Y39373D01*
X193729Y38775D01*
X194327Y38316D01*
X195023Y38028D01*
X195770Y37930D01*
X196517Y38028D01*
X197213Y38316D01*
X197811Y38775D01*
X198270Y39373D01*
X198559Y40069D01*
X198657Y40817D01*
X198559Y41564D01*
X198270Y42260D01*
X197811Y42858D01*
X197213Y43317D01*
X196517Y43605D01*
X195770Y43703D01*
X195770Y43703D02*
G37*
G36*
X170179Y43703D02*
X169432Y43605D01*
X168736Y43317D01*
X168138Y42858D01*
X167679Y42260D01*
X167391Y41564D01*
X167293Y40817D01*
X167391Y40069D01*
X167679Y39373D01*
X168138Y38775D01*
X168736Y38316D01*
X169432Y38028D01*
X170179Y37930D01*
X170927Y38028D01*
X171623Y38316D01*
X172221Y38775D01*
X172680Y39373D01*
X172968Y40069D01*
X173066Y40817D01*
X172968Y41564D01*
X172680Y42260D01*
X172221Y42858D01*
X171623Y43317D01*
X170927Y43605D01*
X170179Y43703D01*
X170179Y43703D02*
G37*
G36*
X355798Y20280D02*
X355798Y16710D01*
X359367Y16710D01*
X359292Y17281D01*
X358879Y18278D01*
X358222Y19134D01*
X357365Y19792D01*
X356368Y20205D01*
X355798Y20280D01*
X355798Y20280D02*
G37*
G36*
X354798Y20280D02*
X354227Y20205D01*
X353230Y19792D01*
X352374Y19134D01*
X351716Y18278D01*
X351303Y17281D01*
X351228Y16710D01*
X354798Y16710D01*
X354798Y20280D01*
X354798Y20280D02*
G37*
G36*
X336113Y20280D02*
X336113Y16710D01*
X339682Y16710D01*
X339607Y17281D01*
X339194Y18278D01*
X338537Y19134D01*
X337680Y19792D01*
X336683Y20205D01*
X336113Y20280D01*
X336113Y20280D02*
G37*
G36*
X335113Y20280D02*
X334542Y20205D01*
X333545Y19792D01*
X332688Y19134D01*
X332031Y18278D01*
X331618Y17281D01*
X331543Y16710D01*
X335113Y16710D01*
X335113Y20280D01*
X335113Y20280D02*
G37*
G36*
X198317Y20280D02*
X198317Y16710D01*
X201887Y16710D01*
X201812Y17281D01*
X201399Y18278D01*
X200742Y19134D01*
X199885Y19792D01*
X198888Y20205D01*
X198317Y20280D01*
X198317Y20280D02*
G37*
G36*
X197317Y20280D02*
X196747Y20205D01*
X195750Y19792D01*
X194893Y19134D01*
X194236Y18278D01*
X193823Y17281D01*
X193748Y16710D01*
X197317Y16710D01*
X197317Y20280D01*
X197317Y20280D02*
G37*
G36*
X178632Y20280D02*
X178632Y16710D01*
X182202Y16710D01*
X182127Y17281D01*
X181714Y18278D01*
X181056Y19134D01*
X180200Y19792D01*
X179203Y20205D01*
X178632Y20280D01*
X178632Y20280D02*
G37*
G36*
X177632Y20280D02*
X177062Y20205D01*
X176065Y19792D01*
X175208Y19134D01*
X174551Y18278D01*
X174138Y17281D01*
X174063Y16710D01*
X177632Y16710D01*
X177632Y20280D01*
X177632Y20280D02*
G37*
G36*
X345298Y19841D02*
X344358Y19718D01*
X343482Y19355D01*
X342730Y18778D01*
X342153Y18026D01*
X341790Y17150D01*
X341667Y16210D01*
X341790Y15270D01*
X342153Y14395D01*
X342730Y13643D01*
X343482Y13066D01*
X344358Y12703D01*
X345298Y12579D01*
X346237Y12703D01*
X347113Y13066D01*
X347865Y13643D01*
X348442Y14395D01*
X348805Y15270D01*
X348929Y16210D01*
X348805Y17150D01*
X348442Y18026D01*
X347865Y18778D01*
X347113Y19355D01*
X346237Y19718D01*
X345298Y19841D01*
X345298Y19841D02*
G37*
G36*
X325613Y19841D02*
X324673Y19718D01*
X323797Y19355D01*
X323045Y18778D01*
X322468Y18026D01*
X322105Y17150D01*
X321982Y16210D01*
X322105Y15270D01*
X322468Y14395D01*
X323045Y13643D01*
X323797Y13066D01*
X324673Y12703D01*
X325613Y12579D01*
X326552Y12703D01*
X327428Y13066D01*
X328180Y13643D01*
X328757Y14395D01*
X329120Y15270D01*
X329244Y16210D01*
X329120Y17150D01*
X328757Y18026D01*
X328180Y18778D01*
X327428Y19355D01*
X326552Y19718D01*
X325613Y19841D01*
X325613Y19841D02*
G37*
G36*
X187817Y19841D02*
X186878Y19718D01*
X186002Y19355D01*
X185250Y18778D01*
X184673Y18026D01*
X184310Y17150D01*
X184186Y16210D01*
X184310Y15270D01*
X184673Y14395D01*
X185250Y13643D01*
X186002Y13066D01*
X186878Y12703D01*
X187817Y12579D01*
X188757Y12703D01*
X189633Y13066D01*
X190385Y13643D01*
X190962Y14395D01*
X191325Y15270D01*
X191448Y16210D01*
X191325Y17150D01*
X190962Y18026D01*
X190385Y18778D01*
X189633Y19355D01*
X188757Y19718D01*
X187817Y19841D01*
X187817Y19841D02*
G37*
G36*
X168132Y19841D02*
X167192Y19718D01*
X166317Y19355D01*
X165565Y18778D01*
X164988Y18026D01*
X164625Y17150D01*
X164501Y16210D01*
X164625Y15270D01*
X164988Y14395D01*
X165565Y13643D01*
X166317Y13066D01*
X167192Y12703D01*
X168132Y12579D01*
X169072Y12703D01*
X169948Y13066D01*
X170700Y13643D01*
X171277Y14395D01*
X171640Y15270D01*
X171763Y16210D01*
X171640Y17150D01*
X171277Y18026D01*
X170700Y18778D01*
X169948Y19355D01*
X169072Y19718D01*
X168132Y19841D01*
X168132Y19841D02*
G37*
G36*
X359367Y15710D02*
X355798Y15710D01*
X355798Y12141D01*
X356368Y12216D01*
X357365Y12629D01*
X358222Y13286D01*
X358879Y14142D01*
X359292Y15140D01*
X359367Y15710D01*
X359367Y15710D02*
G37*
G36*
X354798Y15710D02*
X351228Y15710D01*
X351303Y15140D01*
X351716Y14142D01*
X352374Y13286D01*
X353230Y12629D01*
X354227Y12216D01*
X354798Y12141D01*
X354798Y15710D01*
X354798Y15710D02*
G37*
G36*
X339682Y15710D02*
X336113Y15710D01*
X336113Y12141D01*
X336683Y12216D01*
X337680Y12629D01*
X338537Y13286D01*
X339194Y14142D01*
X339607Y15140D01*
X339682Y15710D01*
X339682Y15710D02*
G37*
G36*
X335113Y15710D02*
X331543Y15710D01*
X331618Y15140D01*
X332031Y14142D01*
X332688Y13286D01*
X333545Y12629D01*
X334542Y12216D01*
X335113Y12141D01*
X335113Y15710D01*
X335113Y15710D02*
G37*
G36*
X201887Y15710D02*
X198317Y15710D01*
X198317Y12141D01*
X198888Y12216D01*
X199885Y12629D01*
X200742Y13286D01*
X201399Y14142D01*
X201812Y15140D01*
X201887Y15710D01*
X201887Y15710D02*
G37*
G36*
X197317Y15710D02*
X193748Y15710D01*
X193823Y15140D01*
X194236Y14142D01*
X194893Y13286D01*
X195750Y12629D01*
X196747Y12216D01*
X197317Y12141D01*
X197317Y15710D01*
X197317Y15710D02*
G37*
G36*
X182202Y15710D02*
X178632Y15710D01*
X178632Y12141D01*
X179203Y12216D01*
X180200Y12629D01*
X181056Y13286D01*
X181714Y14142D01*
X182127Y15140D01*
X182202Y15710D01*
X182202Y15710D02*
G37*
G36*
X177632Y15710D02*
X174063Y15710D01*
X174138Y15140D01*
X174551Y14142D01*
X175208Y13286D01*
X176065Y12629D01*
X177062Y12216D01*
X177632Y12141D01*
X177632Y15710D01*
X177632Y15710D02*
G37*
%LPD*%
G36*
X385779Y242868D02*
X385811Y242855D01*
X385853Y242843D01*
X385905Y242833D01*
X385967Y242824D01*
X386121Y242812D01*
X386425Y242805D01*
X386523Y241624D01*
X386412Y241622D01*
X386138Y241605D01*
X386065Y241595D01*
X386002Y241582D01*
X385949Y241567D01*
X385905Y241550D01*
X385871Y241530D01*
X385847Y241508D01*
X385756Y242883D01*
X385779Y242868D01*
X385779Y242868D02*
G37*
G36*
X385714Y241380D02*
X385690Y241356D01*
X385670Y241322D01*
X385651Y241278D01*
X385635Y241225D01*
X385621Y241162D01*
X385610Y241090D01*
X385595Y240917D01*
X385591Y240706D01*
X384409Y240858D01*
X384409Y240969D01*
X384377Y241427D01*
X384367Y241468D01*
X384356Y241499D01*
X384343Y241520D01*
X385714Y241380D01*
X385714Y241380D02*
G37*
G36*
X441415Y239587D02*
X441549Y239484D01*
X441692Y239393D01*
X441843Y239315D01*
X442002Y239248D01*
X442170Y239195D01*
X442346Y239153D01*
X442530Y239124D01*
X442723Y239108D01*
X442924Y239104D01*
X441053Y237233D01*
X441049Y237434D01*
X441032Y237627D01*
X441003Y237811D01*
X440962Y237987D01*
X440908Y238154D01*
X440842Y238314D01*
X440764Y238465D01*
X440673Y238607D01*
X440569Y238742D01*
X440454Y238868D01*
X441289Y239703D01*
X441415Y239587D01*
X441415Y239587D02*
G37*
G36*
X426415Y239587D02*
X426549Y239484D01*
X426692Y239393D01*
X426843Y239315D01*
X427002Y239248D01*
X427170Y239195D01*
X427346Y239153D01*
X427530Y239124D01*
X427723Y239108D01*
X427924Y239104D01*
X426053Y237233D01*
X426049Y237434D01*
X426032Y237627D01*
X426003Y237811D01*
X425962Y237987D01*
X425908Y238154D01*
X425842Y238314D01*
X425764Y238465D01*
X425673Y238607D01*
X425569Y238742D01*
X425454Y238868D01*
X426289Y239703D01*
X426415Y239587D01*
X426415Y239587D02*
G37*
G36*
X412870Y237873D02*
X412853Y237839D01*
X412839Y237796D01*
X412826Y237743D01*
X412815Y237680D01*
X412799Y237526D01*
X412791Y237333D01*
X412790Y237222D01*
X411610Y237222D01*
X411609Y237333D01*
X411585Y237680D01*
X411574Y237743D01*
X411561Y237796D01*
X411547Y237839D01*
X411530Y237873D01*
X411511Y237897D01*
X412889Y237897D01*
X412870Y237873D01*
X412870Y237873D02*
G37*
G36*
X385592Y236948D02*
X385615Y236601D01*
X385626Y236538D01*
X385639Y236485D01*
X385653Y236442D01*
X385670Y236408D01*
X385689Y236384D01*
X384311Y236384D01*
X384330Y236408D01*
X384347Y236442D01*
X384361Y236485D01*
X384374Y236538D01*
X384385Y236601D01*
X384401Y236755D01*
X384408Y236948D01*
X384409Y237059D01*
X385591Y237059D01*
X385592Y236948D01*
X385592Y236948D02*
G37*
G36*
X431593Y230891D02*
X431448Y231031D01*
X431300Y231155D01*
X431149Y231265D01*
X430996Y231360D01*
X430839Y231440D01*
X430680Y231506D01*
X430518Y231558D01*
X430442Y231574D01*
X430368Y231558D01*
X430205Y231506D01*
X430046Y231440D01*
X429889Y231360D01*
X429736Y231265D01*
X429585Y231155D01*
X429437Y231031D01*
X429292Y230891D01*
X429292Y233537D01*
X429437Y233398D01*
X429585Y233273D01*
X429736Y233163D01*
X429889Y233068D01*
X430046Y232988D01*
X430205Y232922D01*
X430368Y232871D01*
X430442Y232854D01*
X430518Y232871D01*
X430680Y232922D01*
X430839Y232988D01*
X430996Y233068D01*
X431149Y233163D01*
X431300Y233273D01*
X431448Y233398D01*
X431593Y233537D01*
X431593Y230891D01*
X431593Y230891D02*
G37*
G36*
X414222Y230114D02*
X414485Y229885D01*
X414537Y229849D01*
X414583Y229820D01*
X414624Y229800D01*
X414660Y229788D01*
X414690Y229784D01*
X413716Y228810D01*
X413712Y228840D01*
X413700Y228876D01*
X413680Y228917D01*
X413651Y228963D01*
X413615Y229015D01*
X413517Y229136D01*
X413386Y229278D01*
X413308Y229357D01*
X414143Y230192D01*
X414222Y230114D01*
X414222Y230114D02*
G37*
G36*
X422091Y226523D02*
X422432Y226220D01*
X422466Y226198D01*
X422494Y226184D01*
X422516Y226177D01*
X421425Y225335D01*
X421425Y225370D01*
X421417Y225409D01*
X421400Y225453D01*
X421374Y225503D01*
X421340Y225557D01*
X421297Y225616D01*
X421186Y225749D01*
X421040Y225902D01*
X422011Y226601D01*
X422091Y226523D01*
X422091Y226523D02*
G37*
G36*
X277083Y230369D02*
X276940Y230207D01*
X276813Y230023D01*
X276701Y229816D01*
X276604Y229587D01*
X276523Y229336D01*
X276457Y229062D01*
X276407Y228765D01*
X276372Y228447D01*
X276349Y227742D01*
X273621Y230470D01*
X273984Y230474D01*
X274644Y230528D01*
X274940Y230578D01*
X275215Y230644D01*
X275466Y230725D01*
X275695Y230822D01*
X275902Y230934D01*
X276086Y231062D01*
X276248Y231204D01*
X277083Y230369D01*
X277083Y230369D02*
G37*
G36*
X295821Y229389D02*
X296326Y228961D01*
X296571Y228787D01*
X296811Y228639D01*
X297047Y228519D01*
X297277Y228425D01*
X297502Y228358D01*
X297723Y228318D01*
X297938Y228305D01*
X297938Y227124D01*
X297723Y227110D01*
X297502Y227070D01*
X297277Y227003D01*
X297047Y226909D01*
X296811Y226789D01*
X296571Y226642D01*
X296326Y226468D01*
X296076Y226267D01*
X295561Y225785D01*
X295561Y229643D01*
X295821Y229389D01*
X295821Y229389D02*
G37*
G36*
X271625Y225785D02*
X271365Y226039D01*
X270860Y226468D01*
X270615Y226642D01*
X270374Y226789D01*
X270139Y226909D01*
X269909Y227003D01*
X269683Y227070D01*
X269463Y227110D01*
X269248Y227124D01*
X269248Y228305D01*
X269463Y228318D01*
X269683Y228358D01*
X269909Y228425D01*
X270139Y228519D01*
X270374Y228639D01*
X270615Y228787D01*
X270860Y228961D01*
X271110Y229161D01*
X271625Y229643D01*
X271625Y225785D01*
X271625Y225785D02*
G37*
G36*
X293565Y224958D02*
X293202Y224954D01*
X292542Y224900D01*
X292245Y224850D01*
X291971Y224784D01*
X291720Y224703D01*
X291491Y224606D01*
X291284Y224494D01*
X291100Y224367D01*
X290938Y224224D01*
X290103Y225059D01*
X290246Y225221D01*
X290373Y225405D01*
X290485Y225612D01*
X290582Y225841D01*
X290663Y226093D01*
X290729Y226366D01*
X290779Y226663D01*
X290814Y226982D01*
X290837Y227687D01*
X293565Y224958D01*
X293565Y224958D02*
G37*
G36*
X299004Y224197D02*
X298973Y224193D01*
X298938Y224181D01*
X298896Y224161D01*
X298850Y224132D01*
X298798Y224096D01*
X298678Y223998D01*
X298536Y223867D01*
X298457Y223789D01*
X297621Y224624D01*
X297699Y224703D01*
X297928Y224966D01*
X297965Y225018D01*
X297993Y225064D01*
X298013Y225105D01*
X298025Y225141D01*
X298029Y225171D01*
X299004Y224197D01*
X299004Y224197D02*
G37*
G36*
X325227Y222351D02*
X325261Y222335D01*
X325304Y222320D01*
X325357Y222307D01*
X325420Y222296D01*
X325574Y222281D01*
X325767Y222273D01*
X325878Y222272D01*
X325878Y221091D01*
X325767Y221090D01*
X325420Y221066D01*
X325357Y221055D01*
X325304Y221042D01*
X325261Y221028D01*
X325227Y221011D01*
X325203Y220992D01*
X325203Y222370D01*
X325227Y222351D01*
X325227Y222351D02*
G37*
G36*
X323797Y220992D02*
X323773Y221011D01*
X323739Y221028D01*
X323696Y221042D01*
X323643Y221055D01*
X323580Y221066D01*
X323426Y221082D01*
X323233Y221090D01*
X323122Y221091D01*
X323122Y222272D01*
X323233Y222273D01*
X323580Y222296D01*
X323643Y222307D01*
X323696Y222320D01*
X323739Y222335D01*
X323773Y222351D01*
X323797Y222370D01*
X323797Y220992D01*
X323797Y220992D02*
G37*
G36*
X325227Y217851D02*
X325261Y217835D01*
X325304Y217820D01*
X325357Y217807D01*
X325420Y217796D01*
X325574Y217780D01*
X325767Y217773D01*
X325878Y217772D01*
X325878Y216590D01*
X325767Y216590D01*
X325420Y216566D01*
X325357Y216555D01*
X325304Y216542D01*
X325261Y216528D01*
X325227Y216511D01*
X325203Y216492D01*
X324500Y217181D01*
X325203Y217870D01*
X325227Y217851D01*
X325227Y217851D02*
G37*
G36*
X324500Y217181D02*
X323797Y216492D01*
X323773Y216511D01*
X323739Y216528D01*
X323696Y216542D01*
X323643Y216555D01*
X323580Y216566D01*
X323233Y216590D01*
X323122Y216590D01*
X323122Y217772D01*
X323233Y217773D01*
X323580Y217796D01*
X323643Y217807D01*
X323696Y217820D01*
X323739Y217835D01*
X323773Y217851D01*
X323797Y217870D01*
X324500Y217181D01*
X324500Y217181D02*
G37*
G36*
X414270Y212973D02*
X414254Y212939D01*
X414239Y212896D01*
X414226Y212843D01*
X414215Y212780D01*
X414199Y212626D01*
X414191Y212433D01*
X414190Y212322D01*
X413010Y212322D01*
X413008Y212433D01*
X412985Y212780D01*
X412974Y212843D01*
X412961Y212896D01*
X412947Y212939D01*
X412930Y212973D01*
X412911Y212997D01*
X414289Y212997D01*
X414270Y212973D01*
X414270Y212973D02*
G37*
G36*
X377658Y213796D02*
X377709Y213137D01*
X377759Y212841D01*
X377823Y212567D01*
X377904Y212316D01*
X378000Y212087D01*
X378112Y211880D01*
X378240Y211696D01*
X378383Y211533D01*
X377544Y210702D01*
X377382Y210845D01*
X377198Y210972D01*
X376991Y211085D01*
X376762Y211182D01*
X376511Y211263D01*
X376236Y211330D01*
X375940Y211381D01*
X375620Y211418D01*
X374914Y211444D01*
X377656Y214159D01*
X377658Y213796D01*
X377658Y213796D02*
G37*
G36*
X369907Y208096D02*
X369889Y208105D01*
X369860Y208113D01*
X369821Y208121D01*
X369772Y208127D01*
X369642Y208137D01*
X369256Y208145D01*
X369031Y209326D01*
X369142Y209327D01*
X369415Y209347D01*
X369487Y209359D01*
X369549Y209373D01*
X369602Y209391D01*
X369645Y209411D01*
X369679Y209433D01*
X369703Y209458D01*
X369907Y208096D01*
X369907Y208096D02*
G37*
G36*
X372707Y206021D02*
X372689Y206030D01*
X372660Y206038D01*
X372621Y206046D01*
X372572Y206052D01*
X372442Y206062D01*
X372057Y206070D01*
X371831Y207251D01*
X371942Y207252D01*
X372215Y207272D01*
X372287Y207284D01*
X372349Y207299D01*
X372402Y207316D01*
X372445Y207336D01*
X372479Y207358D01*
X372503Y207383D01*
X372707Y206021D01*
X372707Y206021D02*
G37*
G36*
X415897Y204211D02*
X415873Y204230D01*
X415839Y204246D01*
X415796Y204261D01*
X415743Y204274D01*
X415680Y204285D01*
X415526Y204301D01*
X415333Y204309D01*
X415222Y204309D01*
X415222Y205490D01*
X415333Y205491D01*
X415680Y205515D01*
X415743Y205526D01*
X415796Y205539D01*
X415839Y205554D01*
X415873Y205570D01*
X415897Y205589D01*
X415897Y204211D01*
X415897Y204211D02*
G37*
G36*
X378297Y201972D02*
X378273Y201991D01*
X378239Y202008D01*
X378196Y202023D01*
X378143Y202035D01*
X378080Y202046D01*
X377926Y202062D01*
X377733Y202070D01*
X377622Y202071D01*
X377622Y203252D01*
X377733Y203253D01*
X378080Y203277D01*
X378143Y203287D01*
X378196Y203300D01*
X378239Y203315D01*
X378273Y203332D01*
X378297Y203350D01*
X378297Y201972D01*
X378297Y201972D02*
G37*
G36*
X382990Y201677D02*
X382960Y201673D01*
X382924Y201661D01*
X382883Y201641D01*
X382837Y201613D01*
X382785Y201576D01*
X382664Y201478D01*
X382522Y201347D01*
X382443Y201270D01*
X381608Y202105D01*
X381686Y202184D01*
X381915Y202446D01*
X381951Y202498D01*
X381980Y202544D01*
X382000Y202586D01*
X382012Y202621D01*
X382016Y202652D01*
X382990Y201677D01*
X382990Y201677D02*
G37*
G36*
X176470Y189273D02*
X176453Y189239D01*
X176439Y189196D01*
X176426Y189143D01*
X176415Y189080D01*
X176399Y188926D01*
X176391Y188733D01*
X176391Y188622D01*
X175209Y188622D01*
X175208Y188733D01*
X175185Y189080D01*
X175174Y189143D01*
X175161Y189196D01*
X175146Y189239D01*
X175130Y189273D01*
X175111Y189297D01*
X176489Y189297D01*
X176470Y189273D01*
X176470Y189273D02*
G37*
G36*
X143536Y189021D02*
X143506Y189017D01*
X143470Y189005D01*
X143429Y188985D01*
X143382Y188957D01*
X143330Y188920D01*
X143210Y188822D01*
X143068Y188691D01*
X142989Y188614D01*
X142154Y189449D01*
X142231Y189528D01*
X142460Y189790D01*
X142497Y189842D01*
X142525Y189889D01*
X142546Y189930D01*
X142558Y189965D01*
X142561Y189996D01*
X143536Y189021D01*
X143536Y189021D02*
G37*
G36*
X176391Y181867D02*
X176415Y181520D01*
X176426Y181457D01*
X176439Y181404D01*
X176453Y181361D01*
X176470Y181327D01*
X176489Y181303D01*
X175111Y181303D01*
X175130Y181327D01*
X175146Y181361D01*
X175161Y181404D01*
X175174Y181457D01*
X175185Y181520D01*
X175201Y181674D01*
X175208Y181867D01*
X175209Y181978D01*
X176391Y181978D01*
X176391Y181867D01*
X176391Y181867D02*
G37*
G36*
X55438Y180562D02*
X55360Y180483D01*
X55131Y180221D01*
X55094Y180169D01*
X55066Y180122D01*
X55046Y180081D01*
X55034Y180046D01*
X55030Y180015D01*
X54056Y180990D01*
X54086Y180993D01*
X54122Y181006D01*
X54163Y181026D01*
X54209Y181054D01*
X54261Y181091D01*
X54381Y181189D01*
X54523Y181320D01*
X54602Y181397D01*
X55438Y180562D01*
X55438Y180562D02*
G37*
G36*
X59938Y163562D02*
X59860Y163483D01*
X59631Y163221D01*
X59594Y163169D01*
X59566Y163122D01*
X59546Y163081D01*
X59534Y163046D01*
X59530Y163015D01*
X58556Y163990D01*
X58586Y163994D01*
X58622Y164006D01*
X58663Y164026D01*
X58709Y164054D01*
X58761Y164091D01*
X58881Y164189D01*
X59023Y164320D01*
X59102Y164398D01*
X59938Y163562D01*
X59938Y163562D02*
G37*
G36*
X59904Y158596D02*
X59924Y158596D01*
X59924Y158576D01*
X59938Y158562D01*
X59924Y158548D01*
X59924Y157415D01*
X59813Y157414D01*
X59466Y157390D01*
X59403Y157379D01*
X59350Y157367D01*
X59306Y157352D01*
X59273Y157335D01*
X59249Y157317D01*
X59249Y158297D01*
X58556Y158990D01*
X58586Y158993D01*
X58622Y159006D01*
X58663Y159026D01*
X58709Y159054D01*
X58761Y159091D01*
X58881Y159189D01*
X59023Y159320D01*
X59102Y159397D01*
X59904Y158596D01*
X59904Y158596D02*
G37*
G36*
X68937Y155939D02*
X68651Y156219D01*
X68099Y156692D01*
X67833Y156884D01*
X67574Y157046D01*
X67322Y157179D01*
X67077Y157282D01*
X66838Y157356D01*
X66606Y157400D01*
X66381Y157415D01*
X66381Y158596D01*
X66606Y158611D01*
X66838Y158655D01*
X67077Y158729D01*
X67322Y158832D01*
X67574Y158965D01*
X67833Y159128D01*
X68099Y159319D01*
X68372Y159541D01*
X68937Y160072D01*
X68937Y155939D01*
X68937Y155939D02*
G37*
G36*
X58068Y154320D02*
X58330Y154091D01*
X58382Y154054D01*
X58429Y154026D01*
X58470Y154006D01*
X58506Y153993D01*
X58536Y153990D01*
X57561Y153015D01*
X57558Y153046D01*
X57546Y153081D01*
X57525Y153122D01*
X57497Y153169D01*
X57460Y153221D01*
X57362Y153341D01*
X57231Y153483D01*
X57154Y153562D01*
X57989Y154397D01*
X58068Y154320D01*
X58068Y154320D02*
G37*
G36*
X163123Y151224D02*
X162973Y151052D01*
X162839Y150855D01*
X162721Y150630D01*
X162620Y150379D01*
X162535Y150102D01*
X162466Y149798D01*
X162413Y149468D01*
X162377Y149111D01*
X162353Y148319D01*
X159383Y151289D01*
X159792Y151293D01*
X160532Y151349D01*
X160862Y151402D01*
X161166Y151471D01*
X161443Y151556D01*
X161694Y151657D01*
X161918Y151775D01*
X162116Y151909D01*
X162288Y152059D01*
X163123Y151224D01*
X163123Y151224D02*
G37*
G36*
X163123Y141224D02*
X162973Y141052D01*
X162839Y140855D01*
X162721Y140630D01*
X162620Y140379D01*
X162535Y140102D01*
X162466Y139798D01*
X162413Y139468D01*
X162377Y139111D01*
X162353Y138319D01*
X159383Y141289D01*
X159792Y141293D01*
X160532Y141349D01*
X160862Y141402D01*
X161166Y141471D01*
X161443Y141556D01*
X161694Y141657D01*
X161918Y141775D01*
X162116Y141909D01*
X162288Y142059D01*
X163123Y141224D01*
X163123Y141224D02*
G37*
G36*
X363897Y137400D02*
X363662Y137664D01*
X363197Y138109D01*
X362967Y138290D01*
X362738Y138443D01*
X362511Y138568D01*
X362286Y138665D01*
X362062Y138735D01*
X361839Y138777D01*
X361618Y138791D01*
X361706Y139972D01*
X361915Y139984D01*
X362133Y140023D01*
X362359Y140086D01*
X362593Y140176D01*
X362836Y140291D01*
X363087Y140431D01*
X363347Y140597D01*
X363892Y141006D01*
X364177Y141248D01*
X363897Y137400D01*
X363897Y137400D02*
G37*
G36*
X256370Y137273D02*
X256353Y137239D01*
X256339Y137196D01*
X256326Y137143D01*
X256315Y137080D01*
X256299Y136926D01*
X256292Y136733D01*
X256291Y136622D01*
X255110Y136622D01*
X255108Y136733D01*
X255085Y137080D01*
X255074Y137143D01*
X255061Y137196D01*
X255047Y137239D01*
X255030Y137273D01*
X255011Y137297D01*
X256389Y137297D01*
X256370Y137273D01*
X256370Y137273D02*
G37*
G36*
X388497Y135592D02*
X388473Y135611D01*
X388439Y135628D01*
X388396Y135642D01*
X388343Y135655D01*
X388280Y135666D01*
X388126Y135682D01*
X387933Y135690D01*
X387822Y135691D01*
X387822Y136872D01*
X387933Y136873D01*
X388280Y136896D01*
X388343Y136907D01*
X388396Y136920D01*
X388439Y136935D01*
X388473Y136951D01*
X388497Y136970D01*
X388497Y135592D01*
X388497Y135592D02*
G37*
G36*
X382297Y135411D02*
X382273Y135430D01*
X382239Y135447D01*
X382196Y135461D01*
X382143Y135474D01*
X382080Y135485D01*
X381926Y135501D01*
X381733Y135509D01*
X381622Y135509D01*
X381622Y136691D01*
X381733Y136691D01*
X382080Y136715D01*
X382143Y136726D01*
X382196Y136739D01*
X382239Y136753D01*
X382273Y136770D01*
X382297Y136789D01*
X382297Y135411D01*
X382297Y135411D02*
G37*
G36*
X251988Y136141D02*
X252000Y136105D01*
X252020Y136064D01*
X252049Y136018D01*
X252085Y135966D01*
X252183Y135845D01*
X252314Y135703D01*
X252392Y135624D01*
X251557Y134789D01*
X251478Y134867D01*
X251216Y135096D01*
X251164Y135132D01*
X251117Y135161D01*
X251076Y135181D01*
X251040Y135193D01*
X251010Y135197D01*
X251984Y136171D01*
X251988Y136141D01*
X251988Y136141D02*
G37*
G36*
X308573Y134492D02*
X308549Y134511D01*
X308515Y134528D01*
X308471Y134542D01*
X308418Y134555D01*
X308356Y134566D01*
X308201Y134582D01*
X308009Y134590D01*
X307898Y134591D01*
X307898Y135772D01*
X308009Y135773D01*
X308356Y135796D01*
X308418Y135807D01*
X308471Y135820D01*
X308515Y135835D01*
X308549Y135851D01*
X308573Y135870D01*
X308573Y134492D01*
X308573Y134492D02*
G37*
G36*
X249988Y134641D02*
X250000Y134605D01*
X250020Y134564D01*
X250049Y134518D01*
X250085Y134466D01*
X250183Y134345D01*
X250314Y134203D01*
X250392Y134124D01*
X249557Y133289D01*
X249478Y133367D01*
X249216Y133596D01*
X249164Y133632D01*
X249117Y133661D01*
X249076Y133681D01*
X249040Y133693D01*
X249010Y133697D01*
X249984Y134671D01*
X249988Y134641D01*
X249988Y134641D02*
G37*
G36*
X271727Y134145D02*
X271761Y134128D01*
X271804Y134114D01*
X271857Y134101D01*
X271920Y134090D01*
X272074Y134074D01*
X272267Y134066D01*
X272378Y134065D01*
X272378Y132884D01*
X272267Y132883D01*
X271920Y132860D01*
X271857Y132849D01*
X271804Y132836D01*
X271761Y132821D01*
X271727Y132805D01*
X271703Y132786D01*
X271703Y134164D01*
X271727Y134145D01*
X271727Y134145D02*
G37*
G36*
X287227Y133777D02*
X287261Y133760D01*
X287304Y133745D01*
X287357Y133732D01*
X287420Y133721D01*
X287574Y133706D01*
X287767Y133698D01*
X287878Y133697D01*
X287878Y132516D01*
X287767Y132515D01*
X287420Y132491D01*
X287357Y132480D01*
X287304Y132467D01*
X287261Y132453D01*
X287227Y132436D01*
X287203Y132417D01*
X287203Y133795D01*
X287227Y133777D01*
X287227Y133777D02*
G37*
G36*
X379397Y132111D02*
X379373Y132130D01*
X379339Y132147D01*
X379296Y132161D01*
X379243Y132174D01*
X379180Y132185D01*
X379026Y132201D01*
X378833Y132209D01*
X378722Y132209D01*
X378722Y133391D01*
X378833Y133391D01*
X379180Y133415D01*
X379243Y133426D01*
X379296Y133439D01*
X379339Y133454D01*
X379373Y133470D01*
X379397Y133489D01*
X379397Y132111D01*
X379397Y132111D02*
G37*
G36*
X367027Y133470D02*
X367061Y133454D01*
X367104Y133439D01*
X367157Y133426D01*
X367220Y133415D01*
X367374Y133399D01*
X367567Y133391D01*
X367678Y133391D01*
X367678Y132209D01*
X367567Y132209D01*
X367220Y132185D01*
X367157Y132174D01*
X367104Y132161D01*
X367061Y132147D01*
X367027Y132130D01*
X367003Y132111D01*
X367003Y133489D01*
X367027Y133470D01*
X367027Y133470D02*
G37*
G36*
X385420Y130369D02*
X385396Y130388D01*
X385362Y130405D01*
X385319Y130419D01*
X385266Y130432D01*
X385203Y130443D01*
X385049Y130459D01*
X384856Y130467D01*
X384745Y130468D01*
X384745Y131649D01*
X384856Y131650D01*
X385203Y131673D01*
X385266Y131684D01*
X385319Y131697D01*
X385362Y131712D01*
X385396Y131728D01*
X385420Y131747D01*
X385420Y130369D01*
X385420Y130369D02*
G37*
G36*
X213723Y130117D02*
X213758Y130097D01*
X213801Y130079D01*
X213855Y130064D01*
X213917Y130051D01*
X213990Y130040D01*
X214163Y130026D01*
X214374Y130021D01*
X214262Y128840D01*
X214150Y128839D01*
X213742Y128813D01*
X213690Y128803D01*
X213648Y128792D01*
X213616Y128779D01*
X213594Y128765D01*
X213699Y130139D01*
X213723Y130117D01*
X213723Y130117D02*
G37*
G36*
X384949Y127645D02*
X384938Y127650D01*
X384917Y127655D01*
X384884Y127659D01*
X384784Y127666D01*
X384336Y127673D01*
X384309Y128854D01*
X384421Y128854D01*
X384915Y128883D01*
X384927Y128890D01*
X384949Y127645D01*
X384949Y127645D02*
G37*
G36*
X233988Y127141D02*
X234000Y127105D01*
X234020Y127064D01*
X234049Y127018D01*
X234085Y126966D01*
X234183Y126845D01*
X234314Y126703D01*
X234392Y126624D01*
X233557Y125789D01*
X233478Y125867D01*
X233215Y126096D01*
X233163Y126132D01*
X233117Y126161D01*
X233076Y126181D01*
X233040Y126193D01*
X233010Y126197D01*
X233984Y127171D01*
X233988Y127141D01*
X233988Y127141D02*
G37*
G36*
X386014Y125061D02*
X385989Y125080D01*
X385956Y125096D01*
X385912Y125111D01*
X385859Y125124D01*
X385796Y125135D01*
X385642Y125150D01*
X385449Y125158D01*
X385338Y125159D01*
X385338Y126340D01*
X385449Y126341D01*
X385796Y126365D01*
X385859Y126376D01*
X385912Y126389D01*
X385956Y126403D01*
X385989Y126420D01*
X386014Y126439D01*
X386014Y125061D01*
X386014Y125061D02*
G37*
G36*
X384983Y122182D02*
X384965Y122190D01*
X384938Y122198D01*
X384899Y122205D01*
X384851Y122211D01*
X384641Y122223D01*
X384337Y122227D01*
X384104Y123408D01*
X384214Y123409D01*
X384487Y123429D01*
X384559Y123441D01*
X384621Y123455D01*
X384674Y123472D01*
X384716Y123492D01*
X384749Y123514D01*
X384773Y123538D01*
X384983Y122182D01*
X384983Y122182D02*
G37*
G36*
X378831Y117067D02*
X378807Y117090D01*
X378772Y117111D01*
X378729Y117130D01*
X378676Y117146D01*
X378613Y117159D01*
X378541Y117170D01*
X378368Y117185D01*
X378156Y117190D01*
X378308Y118371D01*
X378419Y118372D01*
X378877Y118404D01*
X378918Y118414D01*
X378949Y118425D01*
X378970Y118438D01*
X378831Y117067D01*
X378831Y117067D02*
G37*
G36*
X189488Y115360D02*
X189500Y115324D01*
X189520Y115283D01*
X189549Y115236D01*
X189585Y115184D01*
X189683Y115064D01*
X189814Y114922D01*
X189892Y114843D01*
X189057Y114008D01*
X188978Y114086D01*
X188716Y114315D01*
X188663Y114351D01*
X188617Y114380D01*
X188576Y114400D01*
X188540Y114412D01*
X188510Y114416D01*
X189484Y115390D01*
X189488Y115360D01*
X189488Y115360D02*
G37*
G36*
X379590Y113997D02*
X379560Y113993D01*
X379524Y113981D01*
X379483Y113961D01*
X379436Y113932D01*
X379384Y113896D01*
X379264Y113798D01*
X379122Y113667D01*
X379043Y113589D01*
X378208Y114424D01*
X378286Y114503D01*
X378515Y114766D01*
X378551Y114818D01*
X378580Y114864D01*
X378600Y114905D01*
X378612Y114941D01*
X378616Y114971D01*
X379590Y113997D01*
X379590Y113997D02*
G37*
G36*
X423497Y200011D02*
X423473Y200030D01*
X423439Y200046D01*
X423396Y200061D01*
X423343Y200074D01*
X423280Y200085D01*
X423126Y200101D01*
X422933Y200109D01*
X422822Y200109D01*
X422822Y201291D01*
X422933Y201291D01*
X423280Y201315D01*
X423343Y201326D01*
X423396Y201339D01*
X423439Y201354D01*
X423473Y201370D01*
X423497Y201389D01*
X423497Y200011D01*
X423497Y200011D02*
G37*
G36*
X425380Y195829D02*
X425355Y195849D01*
X425321Y195867D01*
X425278Y195883D01*
X425224Y195897D01*
X425162Y195908D01*
X425007Y195925D01*
X424815Y195934D01*
X424704Y195935D01*
X424742Y197116D01*
X424853Y197117D01*
X425200Y197139D01*
X425262Y197149D01*
X425315Y197160D01*
X425358Y197174D01*
X425391Y197189D01*
X425415Y197207D01*
X425380Y195829D01*
X425380Y195829D02*
G37*
G36*
X408297Y193736D02*
X408273Y193755D01*
X408239Y193772D01*
X408196Y193786D01*
X408143Y193799D01*
X408080Y193810D01*
X407926Y193826D01*
X407733Y193834D01*
X407622Y193835D01*
X407622Y195016D01*
X407733Y195017D01*
X408080Y195040D01*
X408143Y195051D01*
X408196Y195064D01*
X408239Y195079D01*
X408273Y195096D01*
X408297Y195114D01*
X408297Y193736D01*
X408297Y193736D02*
G37*
G36*
X382592Y193467D02*
X382615Y193120D01*
X382626Y193057D01*
X382639Y193004D01*
X382653Y192961D01*
X382670Y192927D01*
X382689Y192903D01*
X381311Y192903D01*
X381330Y192927D01*
X381347Y192961D01*
X381361Y193004D01*
X381374Y193057D01*
X381385Y193120D01*
X381401Y193274D01*
X381409Y193467D01*
X381410Y193578D01*
X382591Y193578D01*
X382592Y193467D01*
X382592Y193467D02*
G37*
G36*
X377592Y188157D02*
X377514Y188078D01*
X377285Y187815D01*
X377249Y187764D01*
X377220Y187717D01*
X377200Y187676D01*
X377188Y187640D01*
X377184Y187610D01*
X376210Y188584D01*
X376240Y188588D01*
X376276Y188600D01*
X376317Y188620D01*
X376363Y188649D01*
X376415Y188685D01*
X376536Y188783D01*
X376678Y188914D01*
X376757Y188992D01*
X377592Y188157D01*
X377592Y188157D02*
G37*
G36*
X380227Y185170D02*
X380261Y185153D01*
X380304Y185139D01*
X380357Y185126D01*
X380420Y185115D01*
X380574Y185099D01*
X380767Y185091D01*
X380878Y185091D01*
X380878Y183909D01*
X380767Y183908D01*
X380420Y183885D01*
X380357Y183874D01*
X380304Y183861D01*
X380261Y183846D01*
X380227Y183830D01*
X380203Y183811D01*
X380203Y185189D01*
X380227Y185170D01*
X380227Y185170D02*
G37*
G36*
X433170Y203903D02*
X433153Y203869D01*
X433139Y203826D01*
X433126Y203773D01*
X433115Y203710D01*
X433099Y203556D01*
X433091Y203363D01*
X433090Y203252D01*
X431910Y203252D01*
X431909Y203363D01*
X431885Y203710D01*
X431874Y203773D01*
X431861Y203826D01*
X431847Y203869D01*
X431830Y203903D01*
X431811Y203927D01*
X433189Y203927D01*
X433170Y203903D01*
X433170Y203903D02*
G37*
G36*
X433091Y197667D02*
X433115Y197320D01*
X433126Y197257D01*
X433139Y197204D01*
X433153Y197161D01*
X433170Y197127D01*
X433189Y197103D01*
X431811Y197103D01*
X431830Y197127D01*
X431847Y197161D01*
X431861Y197204D01*
X431874Y197257D01*
X431885Y197320D01*
X431901Y197474D01*
X431909Y197667D01*
X431910Y197778D01*
X433090Y197778D01*
X433091Y197667D01*
X433091Y197667D02*
G37*
G36*
X433170Y184454D02*
X433153Y184420D01*
X433139Y184377D01*
X433126Y184324D01*
X433115Y184261D01*
X433099Y184107D01*
X433091Y183914D01*
X433090Y183803D01*
X431910Y183803D01*
X431909Y183914D01*
X431885Y184261D01*
X431874Y184324D01*
X431861Y184377D01*
X431847Y184420D01*
X431830Y184454D01*
X431811Y184478D01*
X433189Y184478D01*
X433170Y184454D01*
X433170Y184454D02*
G37*
G36*
X430170Y184454D02*
X430154Y184420D01*
X430139Y184377D01*
X430126Y184324D01*
X430115Y184261D01*
X430099Y184107D01*
X430091Y183914D01*
X430091Y183803D01*
X428909Y183803D01*
X428908Y183914D01*
X428885Y184261D01*
X428874Y184324D01*
X428861Y184377D01*
X428847Y184420D01*
X428830Y184454D01*
X428811Y184478D01*
X430189Y184478D01*
X430170Y184454D01*
X430170Y184454D02*
G37*
G36*
X434022Y172914D02*
X434284Y172685D01*
X434337Y172649D01*
X434383Y172620D01*
X434424Y172600D01*
X434460Y172588D01*
X434490Y172584D01*
X433516Y171610D01*
X433512Y171640D01*
X433500Y171676D01*
X433480Y171717D01*
X433451Y171764D01*
X433415Y171816D01*
X433317Y171936D01*
X433186Y172078D01*
X433108Y172157D01*
X433943Y172992D01*
X434022Y172914D01*
X434022Y172914D02*
G37*
G36*
X437791Y170267D02*
X437815Y169920D01*
X437826Y169857D01*
X437839Y169804D01*
X437853Y169761D01*
X437870Y169727D01*
X437889Y169703D01*
X436511Y169703D01*
X436530Y169727D01*
X436547Y169761D01*
X436561Y169804D01*
X436574Y169857D01*
X436585Y169920D01*
X436601Y170074D01*
X436609Y170267D01*
X436610Y170378D01*
X437790Y170378D01*
X437791Y170267D01*
X437791Y170267D02*
G37*
G36*
X220355Y192920D02*
X220341Y192887D01*
X220329Y192845D01*
X220319Y192793D01*
X220310Y192731D01*
X220298Y192577D01*
X220290Y192273D01*
X219110Y192179D01*
X219108Y192290D01*
X219081Y192636D01*
X219068Y192699D01*
X219053Y192753D01*
X219036Y192796D01*
X219016Y192830D01*
X218995Y192855D01*
X220370Y192942D01*
X220355Y192920D01*
X220355Y192920D02*
G37*
G36*
X220291Y188767D02*
X220315Y188420D01*
X220326Y188357D01*
X220339Y188304D01*
X220354Y188261D01*
X220370Y188227D01*
X220389Y188203D01*
X219011Y188203D01*
X219030Y188227D01*
X219046Y188261D01*
X219061Y188304D01*
X219074Y188357D01*
X219085Y188420D01*
X219101Y188574D01*
X219109Y188767D01*
X219110Y188878D01*
X220290Y188878D01*
X220291Y188767D01*
X220291Y188767D02*
G37*
G36*
X368588Y182160D02*
X368600Y182124D01*
X368620Y182083D01*
X368649Y182036D01*
X368685Y181984D01*
X368783Y181864D01*
X368914Y181722D01*
X368992Y181643D01*
X368157Y180808D01*
X368078Y180886D01*
X367815Y181115D01*
X367763Y181151D01*
X367717Y181180D01*
X367676Y181200D01*
X367640Y181212D01*
X367610Y181216D01*
X368584Y182190D01*
X368588Y182160D01*
X368588Y182160D02*
G37*
G36*
X397597Y179192D02*
X397573Y179211D01*
X397539Y179228D01*
X397496Y179242D01*
X397443Y179255D01*
X397380Y179266D01*
X397226Y179282D01*
X397033Y179290D01*
X396922Y179291D01*
X396922Y180472D01*
X397033Y180473D01*
X397380Y180496D01*
X397443Y180507D01*
X397496Y180520D01*
X397539Y180535D01*
X397573Y180551D01*
X397597Y180570D01*
X397597Y179192D01*
X397597Y179192D02*
G37*
G36*
X286860Y173315D02*
X286837Y173333D01*
X286803Y173349D01*
X286760Y173363D01*
X286707Y173375D01*
X286644Y173386D01*
X286490Y173401D01*
X286297Y173408D01*
X286186Y173409D01*
X286164Y174591D01*
X286275Y174592D01*
X286622Y174616D01*
X286685Y174627D01*
X286738Y174641D01*
X286782Y174656D01*
X286816Y174674D01*
X286840Y174693D01*
X286860Y173315D01*
X286860Y173315D02*
G37*
G36*
X282727Y174670D02*
X282761Y174653D01*
X282804Y174639D01*
X282857Y174626D01*
X282920Y174615D01*
X283074Y174599D01*
X283267Y174592D01*
X283378Y174591D01*
X283378Y173409D01*
X283267Y173408D01*
X282920Y173385D01*
X282857Y173374D01*
X282804Y173361D01*
X282761Y173346D01*
X282727Y173330D01*
X282703Y173311D01*
X282703Y174689D01*
X282727Y174670D01*
X282727Y174670D02*
G37*
G36*
X428170Y168954D02*
X428154Y168920D01*
X428139Y168877D01*
X428126Y168824D01*
X428115Y168761D01*
X428099Y168607D01*
X428091Y168414D01*
X428090Y168303D01*
X426909Y168303D01*
X426908Y168414D01*
X426885Y168761D01*
X426874Y168824D01*
X426861Y168877D01*
X426847Y168920D01*
X426830Y168954D01*
X426811Y168978D01*
X428189Y168978D01*
X428170Y168954D01*
X428170Y168954D02*
G37*
G36*
X425170Y168954D02*
X425153Y168920D01*
X425139Y168877D01*
X425126Y168824D01*
X425115Y168761D01*
X425099Y168607D01*
X425092Y168414D01*
X425091Y168303D01*
X423910Y168303D01*
X423909Y168414D01*
X423885Y168761D01*
X423874Y168824D01*
X423861Y168877D01*
X423846Y168920D01*
X423830Y168954D01*
X423811Y168978D01*
X425189Y168978D01*
X425170Y168954D01*
X425170Y168954D02*
G37*
G36*
X422170Y168954D02*
X422154Y168920D01*
X422139Y168877D01*
X422126Y168824D01*
X422115Y168761D01*
X422099Y168607D01*
X422091Y168414D01*
X422090Y168303D01*
X420910Y168303D01*
X420908Y168414D01*
X420885Y168761D01*
X420874Y168824D01*
X420861Y168877D01*
X420847Y168920D01*
X420830Y168954D01*
X420811Y168978D01*
X422189Y168978D01*
X422170Y168954D01*
X422170Y168954D02*
G37*
G36*
X419170Y168954D02*
X419153Y168920D01*
X419139Y168877D01*
X419126Y168824D01*
X419115Y168761D01*
X419099Y168607D01*
X419092Y168414D01*
X419091Y168303D01*
X417909Y168303D01*
X417908Y168414D01*
X417885Y168761D01*
X417874Y168824D01*
X417861Y168877D01*
X417846Y168920D01*
X417830Y168954D01*
X417811Y168978D01*
X419189Y168978D01*
X419170Y168954D01*
X419170Y168954D02*
G37*
G36*
X431488Y169641D02*
X431500Y169605D01*
X431520Y169564D01*
X431549Y169518D01*
X431586Y169466D01*
X431683Y169345D01*
X431814Y169203D01*
X431892Y169124D01*
X431057Y168289D01*
X430978Y168367D01*
X430716Y168596D01*
X430663Y168632D01*
X430617Y168661D01*
X430576Y168681D01*
X430540Y168693D01*
X430510Y168697D01*
X431484Y169671D01*
X431488Y169641D01*
X431488Y169641D02*
G37*
G36*
X408821Y168908D02*
X408833Y168872D01*
X408853Y168831D01*
X408882Y168785D01*
X408918Y168733D01*
X409016Y168613D01*
X409147Y168471D01*
X409225Y168391D01*
X408390Y167556D01*
X408311Y167634D01*
X408048Y167863D01*
X407996Y167899D01*
X407950Y167928D01*
X407909Y167948D01*
X407873Y167960D01*
X407843Y167964D01*
X408817Y168938D01*
X408821Y168908D01*
X408821Y168908D02*
G37*
G36*
X419092Y163873D02*
X419115Y163526D01*
X419126Y163463D01*
X419139Y163410D01*
X419153Y163367D01*
X419170Y163333D01*
X419189Y163309D01*
X417811Y163309D01*
X417830Y163333D01*
X417846Y163367D01*
X417861Y163410D01*
X417874Y163463D01*
X417885Y163526D01*
X417901Y163681D01*
X417908Y163873D01*
X417909Y163984D01*
X419091Y163984D01*
X419092Y163873D01*
X419092Y163873D02*
G37*
G36*
X422092Y161574D02*
X422109Y161300D01*
X422120Y161228D01*
X422133Y161165D01*
X422148Y161112D01*
X422166Y161068D01*
X422186Y161034D01*
X422208Y161009D01*
X420834Y160904D01*
X420849Y160926D01*
X420861Y160959D01*
X420873Y161001D01*
X420882Y161052D01*
X420891Y161114D01*
X420903Y161267D01*
X420910Y161572D01*
X422090Y161685D01*
X422092Y161574D01*
X422092Y161574D02*
G37*
G36*
X422797Y157492D02*
X422773Y157511D01*
X422739Y157528D01*
X422696Y157542D01*
X422643Y157555D01*
X422580Y157566D01*
X422426Y157582D01*
X422233Y157590D01*
X422122Y157591D01*
X422122Y158772D01*
X422233Y158773D01*
X422580Y158796D01*
X422643Y158807D01*
X422696Y158820D01*
X422739Y158835D01*
X422773Y158851D01*
X422797Y158870D01*
X422797Y157492D01*
X422797Y157492D02*
G37*
G36*
X437722Y158314D02*
X437985Y158085D01*
X438036Y158049D01*
X438083Y158020D01*
X438124Y158000D01*
X438160Y157988D01*
X438190Y157984D01*
X437216Y157010D01*
X437212Y157040D01*
X437200Y157076D01*
X437180Y157117D01*
X437151Y157164D01*
X437114Y157215D01*
X437017Y157336D01*
X436886Y157478D01*
X436808Y157557D01*
X437643Y158392D01*
X437722Y158314D01*
X437722Y158314D02*
G37*
G36*
X426225Y155937D02*
X424880Y156235D01*
X424907Y156258D01*
X424931Y156290D01*
X424953Y156333D01*
X424971Y156384D01*
X424987Y156446D01*
X425000Y156517D01*
X425010Y156598D01*
X425021Y156789D01*
X425023Y156899D01*
X426204Y156951D01*
X426225Y155937D01*
X426225Y155937D02*
G37*
G36*
X435727Y155570D02*
X435761Y155553D01*
X435804Y155539D01*
X435857Y155526D01*
X435920Y155515D01*
X436074Y155499D01*
X436267Y155491D01*
X436378Y155491D01*
X436378Y154309D01*
X436267Y154308D01*
X435920Y154285D01*
X435857Y154274D01*
X435804Y154261D01*
X435761Y154246D01*
X435727Y154230D01*
X435703Y154211D01*
X435703Y155589D01*
X435727Y155570D01*
X435727Y155570D02*
G37*
G36*
X245970Y173273D02*
X245953Y173239D01*
X245939Y173196D01*
X245926Y173143D01*
X245915Y173080D01*
X245899Y172926D01*
X245891Y172733D01*
X245890Y172622D01*
X244709Y172622D01*
X244708Y172733D01*
X244685Y173080D01*
X244674Y173143D01*
X244661Y173196D01*
X244647Y173239D01*
X244630Y173273D01*
X244611Y173297D01*
X245989Y173297D01*
X245970Y173273D01*
X245970Y173273D02*
G37*
G36*
X245891Y168892D02*
X245915Y168545D01*
X245926Y168482D01*
X245939Y168429D01*
X245953Y168386D01*
X245970Y168352D01*
X245989Y168328D01*
X244611Y168328D01*
X244630Y168352D01*
X244647Y168386D01*
X244661Y168429D01*
X244674Y168482D01*
X244685Y168545D01*
X244701Y168699D01*
X244708Y168892D01*
X244709Y169003D01*
X245890Y169003D01*
X245891Y168892D01*
X245891Y168892D02*
G37*
G36*
X251070Y168173D02*
X251054Y168139D01*
X251039Y168096D01*
X251026Y168043D01*
X251015Y167980D01*
X250999Y167826D01*
X250992Y167633D01*
X250991Y167522D01*
X249810Y167522D01*
X249809Y167633D01*
X249785Y167980D01*
X249774Y168043D01*
X249761Y168096D01*
X249746Y168139D01*
X249730Y168173D01*
X249711Y168197D01*
X251089Y168197D01*
X251070Y168173D01*
X251070Y168173D02*
G37*
G36*
X246465Y162130D02*
X245763Y161398D01*
X245022Y162559D01*
X245057Y162556D01*
X245097Y162562D01*
X245142Y162576D01*
X245192Y162600D01*
X245247Y162632D01*
X245306Y162673D01*
X245370Y162724D01*
X245514Y162851D01*
X245592Y162928D01*
X246465Y162130D01*
X246465Y162130D02*
G37*
G36*
X444293Y164596D02*
X444301Y164556D01*
X444317Y164512D01*
X444342Y164462D01*
X444375Y164408D01*
X444417Y164348D01*
X444528Y164215D01*
X444596Y164141D01*
X444673Y164062D01*
X443899Y163165D01*
X443176Y163827D01*
X444295Y164631D01*
X444293Y164596D01*
X444293Y164596D02*
G37*
G36*
X448826Y160792D02*
X448801Y160816D01*
X448767Y160837D01*
X448724Y160856D01*
X448671Y160873D01*
X448608Y160886D01*
X448536Y160898D01*
X448363Y160913D01*
X448151Y160918D01*
X448316Y162099D01*
X448428Y162099D01*
X448885Y162130D01*
X448926Y162139D01*
X448956Y162150D01*
X448977Y162162D01*
X448826Y160792D01*
X448826Y160792D02*
G37*
G36*
X217197Y146211D02*
X217173Y146230D01*
X217139Y146247D01*
X217096Y146261D01*
X217043Y146274D01*
X216980Y146285D01*
X216826Y146301D01*
X216633Y146309D01*
X216522Y146309D01*
X216522Y147491D01*
X216633Y147492D01*
X216980Y147515D01*
X217043Y147526D01*
X217096Y147539D01*
X217139Y147554D01*
X217173Y147570D01*
X217197Y147589D01*
X217197Y146211D01*
X217197Y146211D02*
G37*
G36*
X211827Y147570D02*
X211861Y147554D01*
X211904Y147539D01*
X211957Y147526D01*
X212020Y147515D01*
X212174Y147499D01*
X212367Y147492D01*
X212478Y147491D01*
X212478Y146309D01*
X212367Y146309D01*
X212020Y146285D01*
X211957Y146274D01*
X211904Y146261D01*
X211861Y146247D01*
X211827Y146230D01*
X211803Y146211D01*
X211803Y147589D01*
X211827Y147570D01*
X211827Y147570D02*
G37*
G36*
X216897Y139311D02*
X216873Y139330D01*
X216839Y139347D01*
X216796Y139361D01*
X216743Y139374D01*
X216680Y139385D01*
X216526Y139401D01*
X216333Y139409D01*
X216222Y139409D01*
X216222Y140591D01*
X216333Y140592D01*
X216680Y140615D01*
X216743Y140626D01*
X216796Y140639D01*
X216839Y140654D01*
X216873Y140670D01*
X216897Y140689D01*
X216897Y139311D01*
X216897Y139311D02*
G37*
G36*
X213970Y140670D02*
X214003Y140654D01*
X214047Y140639D01*
X214100Y140626D01*
X214162Y140615D01*
X214317Y140599D01*
X214510Y140592D01*
X214620Y140591D01*
X214620Y139409D01*
X214510Y139409D01*
X214162Y139385D01*
X214100Y139374D01*
X214047Y139361D01*
X214003Y139347D01*
X213970Y139330D01*
X213946Y139311D01*
X213946Y140689D01*
X213970Y140670D01*
X213970Y140670D02*
G37*
G36*
X209837Y135799D02*
X209871Y135781D01*
X209914Y135766D01*
X209967Y135752D01*
X210030Y135740D01*
X210185Y135724D01*
X210377Y135715D01*
X210488Y135714D01*
X210453Y134533D01*
X210342Y134532D01*
X209995Y134510D01*
X209932Y134500D01*
X209879Y134488D01*
X209836Y134475D01*
X209803Y134459D01*
X209779Y134442D01*
X209812Y135819D01*
X209837Y135799D01*
X209837Y135799D02*
G37*
G36*
X216881Y134428D02*
X216856Y134448D01*
X216822Y134466D01*
X216779Y134482D01*
X216726Y134495D01*
X216663Y134507D01*
X216508Y134524D01*
X216316Y134532D01*
X216205Y134533D01*
X216240Y135714D01*
X216351Y135715D01*
X216698Y135737D01*
X216761Y135747D01*
X216814Y135759D01*
X216857Y135773D01*
X216890Y135788D01*
X216914Y135806D01*
X216881Y134428D01*
X216881Y134428D02*
G37*
G36*
X510297Y100992D02*
X510273Y101011D01*
X510239Y101028D01*
X510196Y101042D01*
X510143Y101055D01*
X510080Y101066D01*
X509926Y101082D01*
X509733Y101090D01*
X509622Y101091D01*
X509622Y102272D01*
X509733Y102273D01*
X510080Y102296D01*
X510143Y102307D01*
X510196Y102320D01*
X510239Y102335D01*
X510273Y102351D01*
X510297Y102370D01*
X510297Y100992D01*
X510297Y100992D02*
G37*
G36*
X505774Y102351D02*
X505808Y102335D01*
X505851Y102320D01*
X505904Y102307D01*
X505967Y102296D01*
X506121Y102280D01*
X506314Y102273D01*
X506425Y102272D01*
X506425Y101091D01*
X506314Y101090D01*
X505967Y101066D01*
X505904Y101055D01*
X505851Y101042D01*
X505808Y101028D01*
X505774Y101011D01*
X505750Y100992D01*
X505750Y102370D01*
X505774Y102351D01*
X505774Y102351D02*
G37*
G36*
X72115Y125053D02*
X72014Y125017D01*
X71926Y124959D01*
X71849Y124876D01*
X71784Y124769D01*
X71731Y124640D01*
X71689Y124486D01*
X71660Y124309D01*
X71642Y124108D01*
X71636Y123884D01*
X70455Y123884D01*
X70449Y124108D01*
X70432Y124309D01*
X70402Y124486D01*
X70361Y124640D01*
X70307Y124769D01*
X70243Y124876D01*
X70166Y124959D01*
X70077Y125017D01*
X69977Y125053D01*
X69865Y125065D01*
X72227Y125065D01*
X72115Y125053D01*
X72115Y125053D02*
G37*
G36*
X79136Y60023D02*
X79325Y59886D01*
X79530Y59768D01*
X79750Y59669D01*
X79987Y59588D01*
X80239Y59526D01*
X80507Y59482D01*
X80791Y59457D01*
X81091Y59451D01*
X81406Y59464D01*
X78843Y56901D01*
X78856Y57216D01*
X78850Y57516D01*
X78825Y57800D01*
X78781Y58068D01*
X78719Y58321D01*
X78638Y58557D01*
X78539Y58777D01*
X78421Y58982D01*
X78284Y59171D01*
X78128Y59344D01*
X78963Y60179D01*
X79136Y60023D01*
X79136Y60023D02*
G37*
G36*
X320416Y47879D02*
X320399Y47845D01*
X320385Y47801D01*
X320372Y47748D01*
X320361Y47686D01*
X320345Y47531D01*
X320337Y47339D01*
X320336Y47228D01*
X319155Y47228D01*
X319154Y47339D01*
X319130Y47686D01*
X319120Y47748D01*
X319107Y47801D01*
X319092Y47845D01*
X319075Y47879D01*
X319057Y47903D01*
X320435Y47903D01*
X320416Y47879D01*
X320416Y47879D02*
G37*
G36*
X320337Y43805D02*
X320364Y43458D01*
X320377Y43396D01*
X320392Y43342D01*
X320409Y43299D01*
X320428Y43264D01*
X320449Y43240D01*
X319073Y43164D01*
X319089Y43187D01*
X319103Y43219D01*
X319115Y43262D01*
X319126Y43314D01*
X319135Y43376D01*
X319148Y43530D01*
X319155Y43834D01*
X320336Y43916D01*
X320337Y43805D01*
X320337Y43805D02*
G37*
G36*
X346205Y53507D02*
X346190Y53474D01*
X346178Y53431D01*
X346167Y53379D01*
X346157Y53316D01*
X346144Y53163D01*
X346137Y52970D01*
X346136Y52859D01*
X344955Y52790D01*
X344954Y52900D01*
X344927Y53247D01*
X344915Y53310D01*
X344901Y53364D01*
X344884Y53407D01*
X344865Y53441D01*
X344844Y53466D01*
X346221Y53530D01*
X346205Y53507D01*
X346205Y53507D02*
G37*
G36*
X346137Y43273D02*
X346161Y42925D01*
X346172Y42863D01*
X346184Y42810D01*
X346199Y42766D01*
X346216Y42733D01*
X346235Y42708D01*
X344857Y42708D01*
X344875Y42733D01*
X344892Y42766D01*
X344907Y42810D01*
X344920Y42863D01*
X344931Y42925D01*
X344946Y43080D01*
X344954Y43273D01*
X344955Y43383D01*
X346136Y43383D01*
X346137Y43273D01*
X346137Y43273D02*
G37*
%LPC*%
G36*
X548526Y212217D02*
X546073Y212217D01*
X546073Y209722D01*
X551454Y209722D01*
X551418Y209997D01*
X551119Y210719D01*
X550643Y211340D01*
X550023Y211816D01*
X549301Y212115D01*
X548526Y212217D01*
X548526Y212217D02*
G37*
G36*
X558380Y212217D02*
X557305Y212217D01*
X556530Y212115D01*
X555808Y211816D01*
X555188Y211340D01*
X554712Y210719D01*
X554413Y209997D01*
X554377Y209722D01*
X558380Y209722D01*
X558380Y212217D01*
X558380Y212217D02*
G37*
G36*
X545073Y212217D02*
X542620Y212217D01*
X541845Y212115D01*
X541123Y211816D01*
X540503Y211340D01*
X540027Y210719D01*
X539728Y209997D01*
X539692Y209722D01*
X545073Y209722D01*
X545073Y212217D01*
X545073Y212217D02*
G37*
G36*
X558380Y208722D02*
X554377Y208722D01*
X554413Y208448D01*
X554712Y207725D01*
X555188Y207105D01*
X555808Y206629D01*
X556530Y206330D01*
X557305Y206228D01*
X558380Y206228D01*
X558380Y208722D01*
X558380Y208722D02*
G37*
G36*
X551454Y208722D02*
X545573Y208722D01*
X539692Y208722D01*
X539728Y208448D01*
X540027Y207725D01*
X540503Y207105D01*
X541118Y206633D01*
X541121Y206612D01*
X541065Y206113D01*
X540494Y205999D01*
X539760Y205508D01*
X539269Y204774D01*
X539196Y204408D01*
X541715Y204408D01*
X541715Y203408D01*
X539196Y203408D01*
X539269Y203041D01*
X539760Y202307D01*
X539903Y202211D01*
X539965Y201568D01*
X539740Y201232D01*
X539607Y200560D01*
X539740Y199889D01*
X540120Y199320D01*
X540318Y199188D01*
X540318Y198587D01*
X540120Y198455D01*
X539740Y197886D01*
X539607Y197214D01*
X539740Y196543D01*
X540120Y195974D01*
X540319Y195842D01*
X540319Y195240D01*
X540120Y195108D01*
X539740Y194539D01*
X539607Y193868D01*
X539740Y193196D01*
X540120Y192627D01*
X540318Y192495D01*
X540318Y191894D01*
X540120Y191762D01*
X539740Y191193D01*
X539607Y190522D01*
X539740Y189850D01*
X540120Y189281D01*
X540319Y189149D01*
X540319Y188547D01*
X540120Y188415D01*
X539740Y187846D01*
X539607Y187174D01*
X539740Y186503D01*
X540120Y185934D01*
X539973Y185431D01*
X539033Y185371D01*
X538676Y185370D01*
X538648Y185358D01*
X528547Y185358D01*
X528547Y192214D01*
X528431Y192799D01*
X528099Y193296D01*
X527603Y193627D01*
X527018Y193744D01*
X526433Y193627D01*
X525937Y193296D01*
X525605Y192799D01*
X525489Y192214D01*
X525489Y183139D01*
X525516Y183001D01*
X525516Y170505D01*
X525633Y169920D01*
X525964Y169424D01*
X526460Y169093D01*
X527046Y168976D01*
X527631Y169093D01*
X528127Y169424D01*
X528459Y169920D01*
X528575Y170505D01*
X528575Y182299D01*
X538646Y182299D01*
X538673Y182287D01*
X539291Y182281D01*
X539439Y182105D01*
X539553Y181772D01*
X539269Y181348D01*
X539196Y180982D01*
X541715Y180982D01*
X541715Y179982D01*
X539196Y179982D01*
X539269Y179615D01*
X539760Y178881D01*
X540494Y178390D01*
X541065Y178276D01*
X541121Y177777D01*
X541118Y177756D01*
X540503Y177284D01*
X540027Y176663D01*
X539728Y175941D01*
X539692Y175666D01*
X545573Y175666D01*
X551454Y175666D01*
X551418Y175941D01*
X551119Y176663D01*
X550643Y177284D01*
X550023Y177760D01*
X549301Y178059D01*
X548761Y178130D01*
X548639Y178650D01*
X548984Y178881D01*
X549475Y179615D01*
X549548Y179982D01*
X547029Y179982D01*
X547029Y180982D01*
X549548Y180982D01*
X549475Y181348D01*
X549146Y181841D01*
X549402Y182357D01*
X549621Y182370D01*
X549943Y182372D01*
X549945Y182372D01*
X549946Y182372D01*
X550002Y182396D01*
X550527Y182500D01*
X551023Y182831D01*
X552824Y184633D01*
X553156Y185129D01*
X553272Y185714D01*
X553272Y198714D01*
X553156Y199299D01*
X552824Y199796D01*
X550893Y201726D01*
X550397Y202058D01*
X549867Y202163D01*
X549812Y202186D01*
X549810Y202185D01*
X549808Y202186D01*
X549504Y202184D01*
X549235Y202682D01*
X549475Y203041D01*
X549548Y203408D01*
X547029Y203408D01*
X547029Y204408D01*
X549548Y204408D01*
X549475Y204774D01*
X548984Y205508D01*
X548639Y205739D01*
X548761Y206259D01*
X549301Y206330D01*
X550023Y206629D01*
X550643Y207105D01*
X551119Y207725D01*
X551418Y208448D01*
X551454Y208722D01*
X551454Y208722D02*
G37*
G36*
X558380Y178161D02*
X557305Y178161D01*
X556530Y178059D01*
X555808Y177760D01*
X555188Y177284D01*
X554712Y176663D01*
X554413Y175941D01*
X554377Y175666D01*
X558380Y175666D01*
X558380Y178161D01*
X558380Y178161D02*
G37*
G36*
X558380Y174667D02*
X554377Y174667D01*
X554413Y174391D01*
X554712Y173669D01*
X555188Y173049D01*
X555808Y172573D01*
X556530Y172274D01*
X557305Y172172D01*
X558380Y172172D01*
X558380Y174667D01*
X558380Y174667D02*
G37*
G36*
X551454Y174667D02*
X546073Y174667D01*
X546073Y172172D01*
X548526Y172172D01*
X549301Y172274D01*
X550023Y172573D01*
X550643Y173049D01*
X551119Y173669D01*
X551418Y174391D01*
X551454Y174667D01*
X551454Y174667D02*
G37*
G36*
X545073Y174667D02*
X539692Y174667D01*
X539728Y174391D01*
X540027Y173669D01*
X540503Y173049D01*
X541123Y172573D01*
X541845Y172274D01*
X542620Y172172D01*
X545073Y172172D01*
X545073Y174667D01*
X545073Y174667D02*
G37*
%LPD*%
G36*
X546359Y199383D02*
X546259Y199417D01*
X546128Y199447D01*
X545966Y199474D01*
X545554Y199516D01*
X544708Y199553D01*
X544351Y199557D01*
X542617Y199447D01*
X542486Y199417D01*
X542385Y199383D01*
X542385Y201738D01*
X542486Y201704D01*
X542617Y201674D01*
X542778Y201647D01*
X543191Y201605D01*
X544036Y201568D01*
X544393Y201564D01*
X546128Y201674D01*
X546259Y201704D01*
X546359Y201738D01*
X546359Y199383D01*
X546359Y199383D02*
G37*
G36*
X549812Y199645D02*
X549499Y199643D01*
X548124Y199555D01*
X548044Y199531D01*
X547993Y199505D01*
X547993Y201616D01*
X548004Y201622D01*
X548054Y201626D01*
X548266Y201635D01*
X549812Y201645D01*
X549812Y199645D01*
X549812Y199645D02*
G37*
G36*
X547310Y192661D02*
X547213Y192729D01*
X547092Y192770D01*
X546949Y192783D01*
X546783Y192767D01*
X546594Y192724D01*
X546382Y192652D01*
X546147Y192552D01*
X545889Y192424D01*
X545304Y192084D01*
X544492Y192968D01*
X544775Y193153D01*
X545224Y193491D01*
X545391Y193644D01*
X545518Y193786D01*
X545607Y193917D01*
X545657Y194038D01*
X545668Y194148D01*
X545640Y194247D01*
X545573Y194335D01*
X547310Y192661D01*
X547310Y192661D02*
G37*
G36*
X544252Y191421D02*
X543969Y191236D01*
X543520Y190898D01*
X543354Y190745D01*
X543226Y190603D01*
X543137Y190472D01*
X543087Y190351D01*
X543076Y190242D01*
X543104Y190142D01*
X543171Y190054D01*
X541434Y191728D01*
X541532Y191659D01*
X541652Y191619D01*
X541795Y191606D01*
X541962Y191621D01*
X542151Y191665D01*
X542363Y191737D01*
X542598Y191837D01*
X542856Y191965D01*
X543440Y192305D01*
X544252Y191421D01*
X544252Y191421D02*
G37*
G36*
X546359Y182651D02*
X546259Y182685D01*
X546128Y182715D01*
X545966Y182742D01*
X545554Y182784D01*
X544708Y182821D01*
X544351Y182825D01*
X542617Y182715D01*
X542486Y182685D01*
X542385Y182651D01*
X542385Y185006D01*
X542486Y184972D01*
X542617Y184942D01*
X542778Y184915D01*
X543191Y184873D01*
X544036Y184836D01*
X544393Y184832D01*
X546128Y184942D01*
X546259Y184972D01*
X546359Y185006D01*
X546359Y182651D01*
X546359Y182651D02*
G37*
G36*
X549941Y182913D02*
X549604Y182911D01*
X548129Y182823D01*
X548045Y182799D01*
X547993Y182773D01*
X547993Y184884D01*
X548005Y184889D01*
X548058Y184894D01*
X548284Y184903D01*
X549924Y184913D01*
X549941Y182913D01*
X549941Y182913D02*
G37*
G36*
X541045Y182651D02*
X540945Y182685D01*
X540814Y182715D01*
X540653Y182742D01*
X540240Y182784D01*
X539394Y182821D01*
X538679Y182828D01*
X538679Y184828D01*
X539051Y184830D01*
X540814Y184942D01*
X540945Y184972D01*
X541045Y185006D01*
X541045Y182651D01*
X541045Y182651D02*
G37*
D16*
X448570Y184251D02*
X450269Y185950D01*
X450269Y192832D01*
X447500Y195600D02*
X450269Y192832D01*
X447500Y195600D02*
X447500Y207303D01*
X446103Y208700D02*
X447500Y207303D01*
X445700Y208700D02*
X446103Y208700D01*
X431500Y141300D02*
X431500Y141300D01*
X433900Y143700D01*
X490172Y143700D02*
X492572Y141300D01*
X433900Y143700D02*
X490172Y143700D01*
X415800Y141300D02*
X431500Y141300D01*
X508300Y146500D02*
X524300Y146500D01*
X442200Y146500D02*
X508300Y146500D01*
X426200Y146500D02*
X442200Y146500D01*
X497300Y141300D02*
X513500Y141300D01*
X492572Y141300D02*
X497300Y141300D01*
X413019Y146500D02*
X426200Y146500D01*
X351000Y120181D02*
X386700Y120181D01*
X413019Y146500D01*
X411938Y141300D02*
X415800Y141300D01*
X381138Y110500D02*
X411938Y141300D01*
X351087Y110500D02*
X364200Y110500D01*
X381138Y110500D01*
X351040Y110546D02*
X351087Y110500D01*
X337840Y110546D02*
X351040Y110546D01*
X198969Y110746D02*
X212268Y110746D01*
X187300Y110800D02*
X198915Y110800D01*
X198969Y110746D01*
X212268Y110746D02*
X212368Y110846D01*
X221205Y110846D02*
X227151Y104900D01*
X212368Y110846D02*
X221205Y110846D01*
X286500Y104900D02*
X332194Y104900D01*
X337840Y110546D01*
X184106Y107606D02*
X187300Y110800D01*
X227151Y104900D02*
X286500Y104900D01*
D22*
X244800Y161600D02*
X245013Y161600D01*
X245407Y161994D02*
X245494Y161994D01*
X245013Y161600D02*
X245407Y161994D01*
X245494Y161994D02*
X250400Y166900D01*
X245300Y167625D02*
X245300Y174000D01*
X250400Y166900D02*
X250400Y168900D01*
X416236Y204900D02*
X416306Y204831D01*
X378136Y204731D02*
X378304Y204900D01*
X327857Y223756D02*
X346882Y204731D01*
X386300Y200700D02*
X424200Y200700D01*
X378304Y204900D02*
X416236Y204900D01*
X382000Y196400D02*
X386300Y200700D01*
X416306Y204831D02*
X416531Y204831D01*
X390625Y196525D02*
X426075Y196525D01*
X426100Y196500D01*
X391325Y194425D02*
X409000Y194425D01*
X381400Y184500D02*
X391325Y194425D01*
X410081Y206881D02*
X413600Y210400D01*
X375900Y213181D02*
X382200Y206881D01*
X383900Y189800D02*
X390625Y196525D01*
X382200Y206881D02*
X410081Y206881D01*
X376200Y187600D02*
X378400Y189800D01*
X383900Y189800D01*
X379500Y184500D02*
X381400Y184500D01*
X382000Y192200D02*
X382000Y196400D01*
X432500Y196400D02*
X432500Y204630D01*
X367600Y182200D02*
X369919Y179881D01*
X398300Y179881D01*
X346882Y204731D02*
X378136Y204731D01*
X429500Y176600D02*
X434500Y171600D01*
X429500Y176600D02*
X429500Y185181D01*
X432500Y177000D02*
X437200Y172300D01*
X437200Y169000D02*
X437200Y172300D01*
X432500Y177000D02*
X432500Y185181D01*
X412200Y231300D02*
X412200Y238600D01*
X412200Y231300D02*
X414700Y228800D01*
X414500Y233277D02*
X414500Y236900D01*
X417795Y240195D01*
X414500Y233277D02*
X422400Y225377D01*
X422400Y225200D02*
X422400Y225377D01*
X417795Y240195D02*
X424962Y240195D01*
X385233Y242214D02*
X437943Y242214D01*
X442942Y237214D01*
X385100Y242081D02*
X385233Y242214D01*
X282000Y174000D02*
X287200Y174000D01*
X361113Y135287D02*
X379669Y135287D01*
X380482Y136100D02*
X383000Y136100D01*
X379669Y135287D02*
X380482Y136100D01*
X386746Y136281D02*
X389200Y136281D01*
X380008Y129543D02*
X386746Y136281D01*
X358700Y137700D02*
X361113Y135287D01*
X366300Y132800D02*
X380100Y132800D01*
X335277Y137700D02*
X358700Y137700D01*
X286500Y133106D02*
X328257Y133106D01*
X334967Y137390D02*
X335277Y137700D01*
X328559Y131032D02*
X334918Y137390D01*
X334271Y139071D02*
X334581Y139381D01*
X336310Y134028D02*
X357072Y134028D01*
X329952Y127669D02*
X336310Y134028D01*
X334221Y139071D02*
X334271Y139071D01*
X334918Y137390D02*
X334967Y137390D01*
X337007Y132346D02*
X356353Y132346D01*
X328257Y133106D02*
X334221Y139071D01*
X334581Y139381D02*
X365800Y139381D01*
X330617Y125957D02*
X337007Y132346D01*
X329256Y129350D02*
X335614Y135709D01*
X357791Y135709D01*
X258527Y131032D02*
X328559Y131032D01*
X271000Y133475D02*
X283360Y133475D01*
X285066Y135181D01*
X255700Y133859D02*
X258527Y131032D01*
X357791Y135709D02*
X363957Y129543D01*
X256012Y127669D02*
X329952Y127669D01*
X257831Y129350D02*
X329256Y129350D01*
X238224Y125957D02*
X330617Y125957D01*
X357072Y134028D02*
X363238Y127862D01*
X365800Y139381D02*
X366000Y139181D01*
X356353Y132346D02*
X362519Y126181D01*
X251000Y136181D02*
X257831Y129350D01*
X249000Y134681D02*
X256012Y127669D01*
X285066Y135181D02*
X309276Y135181D01*
X384569Y125750D02*
X386716Y125750D01*
X383095Y124276D02*
X384569Y125750D01*
X235906Y124276D02*
X383095Y124276D01*
X233229Y122594D02*
X383791Y122594D01*
X384014Y122818D01*
X385424Y122818D01*
X234750Y129431D02*
X238224Y125957D01*
X233000Y127181D02*
X235906Y124276D01*
X232135Y123689D02*
X233229Y122594D01*
X255700Y133859D02*
X255700Y138000D01*
X363957Y129543D02*
X380008Y129543D01*
X383900Y131058D02*
X386123Y131058D01*
X380704Y127862D02*
X383900Y131058D01*
X385682Y128263D02*
X385700Y128281D01*
X382100Y126181D02*
X384182Y128263D01*
X385682Y128263D01*
X362519Y126181D02*
X382100Y126181D01*
X363238Y127862D02*
X380704Y127862D01*
X254450Y229505D02*
X266506Y229505D01*
X272462Y235462D01*
X302464Y235462D01*
X245891Y223324D02*
X253754Y231187D01*
X265487Y231187D01*
X271443Y237143D01*
X245195Y225006D02*
X253095Y232906D01*
X271443Y237143D02*
X303160Y237143D01*
X264506Y232906D02*
X270424Y238824D01*
X253095Y232906D02*
X264506Y232906D01*
X270424Y238824D02*
X303857Y238824D01*
X301071Y232100D02*
X313565Y219606D01*
X273593Y227714D02*
X279660Y233781D01*
X301768Y233781D02*
X313868Y221681D01*
X303857Y238824D02*
X315563Y227118D01*
X289440Y232100D02*
X301071Y232100D01*
X279660Y233781D02*
X301768Y233781D01*
X302464Y235462D02*
X314170Y223756D01*
X280740Y223400D02*
X284446Y227105D01*
X303160Y237143D02*
X314867Y225437D01*
X284446Y227105D02*
X289440Y232100D01*
X267026Y225214D02*
X268840Y223400D01*
X280740Y223400D01*
X287479Y221600D02*
X293593Y227714D01*
X253677Y221600D02*
X287479Y221600D01*
X249373Y214919D02*
X254373Y219919D01*
X248677Y216600D02*
X253677Y221600D01*
X293751Y219919D02*
X299013Y225181D01*
X254373Y219919D02*
X293751Y219919D01*
X207869Y127431D02*
X228379Y127431D01*
X202500Y132800D02*
X202500Y138681D01*
X202500Y132800D02*
X207869Y127431D01*
X427500Y167700D02*
X438200Y157000D01*
X427500Y167700D02*
X427500Y169681D01*
X425551Y155551D02*
X425551Y156107D01*
X425400Y155400D02*
X425551Y155551D01*
X425551Y156107D02*
X425613Y156170D01*
X425613Y161887D01*
X424500Y163000D02*
X425613Y161887D01*
X430500Y169681D02*
X440275Y159906D01*
X440275Y156141D02*
X440275Y159906D01*
X439034Y154900D02*
X440275Y156141D01*
X435000Y154900D02*
X439034Y154900D01*
X335896Y114302D02*
X374421Y114302D01*
X229044Y108656D02*
X330250Y108656D01*
X336592Y112621D02*
X377240Y112621D01*
X228011Y106975D02*
X330946Y106975D01*
X330250Y108656D02*
X335896Y114302D01*
X330946Y106975D02*
X336592Y112621D01*
X377240Y112621D02*
X379600Y114981D01*
X374421Y114302D02*
X377900Y117781D01*
X190800Y113100D02*
X221885Y113100D01*
X188500Y115400D02*
X190800Y113100D01*
X205096Y115650D02*
X205309Y115650D01*
X206177Y114781D01*
X222919Y114781D01*
X319746Y42554D02*
X319800Y42500D01*
X319746Y42554D02*
X319746Y48605D01*
X424500Y163000D02*
X424500Y169681D01*
X345546Y42006D02*
X345546Y54154D01*
X345500Y54200D02*
X345546Y54154D01*
X413600Y210400D02*
X413600Y213700D01*
X443719Y164181D02*
X446392Y161508D01*
X443719Y164181D02*
X443719Y164193D01*
X443325Y164587D02*
X443719Y164193D01*
X443325Y164587D02*
X443325Y164800D01*
X446392Y161508D02*
X449492Y161508D01*
X449600Y161400D01*
X505047Y101681D02*
X511000Y101681D01*
X511000Y101681D01*
X324500Y217181D02*
X327300Y217181D01*
X313504Y217181D02*
X324500Y217181D01*
X385424Y122818D02*
X385575Y122968D01*
X159353Y157659D02*
X160275Y158581D01*
X167238Y165442D02*
X167238Y200953D01*
X165557Y166138D02*
X165557Y201649D01*
X160275Y160856D02*
X165557Y166138D01*
X160275Y158581D02*
X160275Y160856D01*
X164148Y162352D02*
X167238Y165442D01*
X165000Y159000D02*
X168919Y162919D01*
X165000Y153936D02*
X165000Y159000D01*
X168919Y162919D02*
X168919Y200256D01*
X418600Y158181D02*
X423500Y158181D01*
X407833Y168948D02*
X418600Y158181D01*
X315563Y227118D02*
X329250Y227118D01*
X347330Y206660D02*
X373154Y206660D01*
X347633Y208735D02*
X370354Y208735D01*
X314170Y223756D02*
X327857Y223756D01*
X324575Y221681D02*
X327555Y221681D01*
X345900Y198581D02*
X378920Y198581D01*
X327252Y219606D02*
X346077Y200781D01*
X329250Y227118D02*
X347633Y208735D01*
X327555Y221681D02*
X346574Y202661D01*
X314867Y225437D02*
X328554Y225437D01*
X327300Y217181D02*
X345900Y198581D01*
X328554Y225437D02*
X347330Y206660D01*
X324537Y221719D02*
X324575Y221681D01*
X346574Y202661D02*
X379000Y202661D01*
X346077Y200781D02*
X377625Y200781D01*
X313565Y219606D02*
X327252Y219606D01*
X378920Y198581D02*
X383000Y202661D01*
X373154Y206660D02*
X373300Y206806D01*
X370354Y208735D02*
X370500Y208881D01*
X309100Y141700D02*
X309100Y145100D01*
X309098Y141700D02*
X309100Y141700D01*
X304700Y141700D02*
X309098Y141700D01*
X309100Y140900D02*
X309100Y141700D01*
X385000Y242050D02*
X385100Y242150D01*
X385000Y235681D02*
X385000Y242050D01*
X377900Y117781D02*
X379501Y117781D01*
X379600Y117681D01*
X232121Y123689D02*
X232135Y123689D01*
X418500Y162606D02*
X418500Y169596D01*
X421500Y160331D02*
X421575Y160256D01*
X421500Y160331D02*
X421500Y169681D01*
X213121Y129431D02*
X234750Y129431D01*
X228379Y127431D02*
X232121Y123689D01*
X212996Y129555D02*
X213121Y129431D01*
X313868Y221681D02*
X324500Y221681D01*
X293593Y227714D02*
X302971Y227714D01*
X313504Y217181D01*
X148668Y194006D02*
X177987Y223324D01*
X424962Y240195D02*
X427943Y237214D01*
X422243Y237214D02*
X422942Y237214D01*
X222919Y114781D02*
X229044Y108656D01*
X221885Y113100D02*
X228011Y106975D01*
X175800Y180600D02*
X175800Y190000D01*
X211100Y146900D02*
X217900Y146900D01*
X219700Y187500D02*
X219700Y193538D01*
X219638Y193600D02*
X219700Y193538D01*
X167200Y146136D02*
X167200Y157900D01*
X170600Y161300D01*
X159353Y138289D02*
X167200Y146136D01*
X159353Y148289D02*
X165000Y153936D01*
X170600Y161300D02*
X170600Y199560D01*
X185959Y214919D01*
X168919Y200256D02*
X185263Y216600D01*
X167238Y200953D02*
X184566Y218281D01*
X165557Y201649D02*
X183870Y219962D01*
X209093Y135147D02*
X209117Y135124D01*
X217576Y135124D01*
X217600Y135100D01*
X213243Y140000D02*
X217600Y140000D01*
X309100Y141700D02*
X314200Y141700D01*
X427943Y232214D02*
X432942Y232214D01*
X541020Y193868D02*
X541715Y193868D01*
X442942Y232214D02*
X443037Y232214D01*
X541715Y190522D02*
X547029Y193868D01*
X541474Y190762D02*
X541715Y190522D01*
X148541Y196256D02*
X177291Y225006D01*
X139365Y182324D02*
X178683Y221643D01*
X143546Y194006D02*
X148668Y194006D01*
X143418Y196256D02*
X148541Y196256D01*
X135227Y185687D02*
X143546Y194006D01*
X134668Y187505D02*
X143418Y196256D01*
X62546Y180628D02*
X64242Y182324D01*
X60046Y180506D02*
X63546Y184005D01*
X58046Y180883D02*
X62849Y185687D01*
X54046Y180006D02*
X61546Y187505D01*
X137546Y184005D02*
X143546Y190006D01*
X64242Y182324D02*
X139365Y182324D01*
X63546Y184005D02*
X137546Y184005D01*
X62849Y185687D02*
X135227Y185687D01*
X61546Y187505D02*
X134668Y187505D01*
X58546Y158005D02*
X71046Y158005D01*
X62546Y162005D02*
X62546Y180628D01*
X58546Y158005D02*
X62546Y162005D01*
X60046Y164506D02*
X60046Y180506D01*
X58546Y163005D02*
X60046Y164506D01*
X71046Y115506D02*
X78546Y108005D01*
X71046Y115506D02*
X71046Y128006D01*
X78546Y59761D02*
X81593Y56714D01*
X78546Y59761D02*
X78546Y108005D01*
X58046Y167006D02*
X58046Y180883D01*
X56046Y155506D02*
X58546Y153006D01*
X56046Y165006D02*
X58046Y167006D01*
X56046Y155506D02*
X56046Y165006D01*
X254913Y225214D02*
X259593Y225214D01*
X247980Y218281D02*
X254913Y225214D01*
X247284Y219962D02*
X255036Y227714D01*
X246588Y221643D02*
X254450Y229505D01*
X259593Y225214D02*
X267026Y225214D01*
X255036Y227714D02*
X273593Y227714D01*
X185263Y216600D02*
X248677Y216600D01*
X184566Y218281D02*
X247980Y218281D01*
X183870Y219962D02*
X247284Y219962D01*
X178683Y221643D02*
X246588Y221643D01*
X177987Y223324D02*
X245891Y223324D01*
X177291Y225006D02*
X245195Y225006D01*
X185959Y214919D02*
X249373Y214919D01*
D23*
X423531Y214350D02*
X429181Y208700D01*
X445700Y208700D01*
X329800Y180147D02*
X333200Y176747D01*
X329800Y180147D02*
X329800Y185100D01*
X409900Y225600D02*
X421150Y214350D01*
X423531Y214350D01*
X547114Y200645D02*
X549812Y200645D01*
X541715Y200560D02*
X547029Y200560D01*
X549812Y200645D02*
X551743Y198714D01*
X551743Y185714D02*
X551743Y198714D01*
X527018Y183139D02*
X527018Y192214D01*
X549941Y183913D02*
X551743Y185714D01*
X547114Y183913D02*
X549941Y183913D01*
X541715Y183828D02*
X547029Y183828D01*
X527707Y183828D02*
X541715Y183828D01*
X527018Y183139D02*
X527707Y183828D01*
X527018Y183139D02*
X527046Y183112D01*
X527046Y170505D02*
X527046Y183112D01*
D46*
X309098Y141700D02*
D03*
X417942Y234714D02*
D03*
X447942Y234714D02*
D03*
D104*
X125857Y49005D02*
X245046Y49005D01*
X249540Y53500D02*
X300000Y53500D01*
X245046Y49005D02*
X249540Y53500D01*
X220000Y68506D02*
X375505Y68506D01*
X375563Y68563D02*
X387882Y68563D01*
X375505Y68506D02*
X375563Y68563D01*
X412500Y106181D02*
X475500Y106181D01*
X480100Y106181D01*
X475500Y96681D02*
X479500Y96681D01*
X416000Y96681D02*
X475500Y96681D01*
X376093Y78214D02*
X376093Y84000D01*
X199046Y81805D02*
X209851Y71000D01*
X387882Y68563D02*
X416000Y96681D01*
X393000Y86681D02*
X412500Y106181D01*
X378176Y86681D02*
X393000Y86681D01*
X108093Y66769D02*
X125857Y49005D01*
X108093Y66769D02*
X108093Y76309D01*
D107*
X320400Y176900D02*
D03*
X214546Y207006D02*
D03*
X310100Y193402D02*
D03*
X336200Y193402D02*
D03*
X293593Y227714D02*
D03*
X273593Y227714D02*
D03*
X196546Y196005D02*
D03*
X394000Y115581D02*
D03*
X169546Y95006D02*
D03*
X320746Y95006D02*
D03*
X187100Y128900D02*
D03*
X235000Y200200D02*
D03*
X81593Y56714D02*
D03*
X366000Y139181D02*
D03*
X200900Y128902D02*
D03*
X169546Y75805D02*
D03*
X320746Y77306D02*
D03*
X374900Y214200D02*
D03*
X352900Y128400D02*
D03*
X338600Y128500D02*
D03*
X362300Y192181D02*
D03*
X372800Y192000D02*
D03*
X489500Y106000D02*
D03*
X489500Y97000D02*
D03*
D108*
X159353Y177659D02*
D03*
X159353Y167659D02*
D03*
X159353Y157659D02*
D03*
X159353Y118289D02*
D03*
X159353Y128289D02*
D03*
X159353Y138289D02*
D03*
X159353Y148289D02*
D03*
D109*
X197817Y16210D02*
D03*
X187817Y16210D02*
D03*
X355298Y16210D02*
D03*
X345298Y16210D02*
D03*
X325613Y16210D02*
D03*
X335613Y16210D02*
D03*
X168132Y16210D02*
D03*
X178132Y16210D02*
D03*
X70046Y215005D02*
D03*
X70046Y195006D02*
D03*
X119546Y215005D02*
D03*
X119546Y195006D02*
D03*
D110*
X488093Y234714D02*
D03*
X551085Y148100D02*
D03*
X31400Y148100D02*
D03*
X94392Y234714D02*
D03*
D111*
X422942Y237214D02*
D03*
X427943Y237214D02*
D03*
X432942Y237214D02*
D03*
X437943Y237214D02*
D03*
X442942Y237214D02*
D03*
X442942Y232214D02*
D03*
X432942Y232214D02*
D03*
X427943Y232214D02*
D03*
D112*
X422942Y232214D02*
D03*
D113*
X327660Y58533D02*
D03*
X327660Y40817D02*
D03*
X353250Y40817D02*
D03*
X353250Y58533D02*
D03*
X485140Y139242D02*
D03*
X485140Y156958D02*
D03*
X459550Y156958D02*
D03*
X459550Y139242D02*
D03*
X170179Y58533D02*
D03*
X170179Y40817D02*
D03*
X195770Y40817D02*
D03*
X195770Y58533D02*
D03*
X330829Y230777D02*
D03*
X340672Y230777D02*
D03*
X350514Y230777D02*
D03*
X360357Y230777D02*
D03*
X222345Y230777D02*
D03*
X232187Y230777D02*
D03*
X242030Y230777D02*
D03*
D114*
X119904Y76809D02*
D03*
X108093Y76809D02*
D03*
X96282Y76809D02*
D03*
X119904Y88620D02*
D03*
X108093Y88620D02*
D03*
X96282Y88620D02*
D03*
X277404Y76809D02*
D03*
X265593Y76809D02*
D03*
X253782Y76809D02*
D03*
X277404Y88620D02*
D03*
X265593Y88620D02*
D03*
X253782Y88620D02*
D03*
X71046Y138005D02*
D03*
X71046Y148005D02*
D03*
X71046Y158005D02*
D03*
X71046Y168006D02*
D03*
D115*
X84471Y92321D02*
D03*
X131715Y92321D02*
D03*
X241971Y92321D02*
D03*
X289215Y92321D02*
D03*
X475500Y108224D02*
D03*
X475500Y104681D02*
D03*
X483500Y108224D02*
D03*
X479500Y108224D02*
D03*
X479500Y104681D02*
D03*
X483500Y104681D02*
D03*
X475500Y95138D02*
D03*
X479500Y95138D02*
D03*
X483500Y98681D02*
D03*
X479500Y98681D02*
D03*
X475500Y98681D02*
D03*
X483500Y95138D02*
D03*
D116*
X381200Y45900D02*
D03*
D117*
X401200Y45900D02*
D03*
X421200Y45900D02*
D03*
D118*
X541715Y180482D02*
D03*
X541715Y183828D02*
D03*
X541715Y187174D02*
D03*
X541715Y190522D02*
D03*
X541715Y193868D02*
D03*
X541715Y197214D02*
D03*
X541715Y200560D02*
D03*
X541715Y203907D02*
D03*
X547029Y203907D02*
D03*
X547029Y200560D02*
D03*
X547029Y197214D02*
D03*
X547029Y193868D02*
D03*
X547029Y190522D02*
D03*
X547029Y187174D02*
D03*
X547029Y183828D02*
D03*
X547029Y180482D02*
D03*
D119*
X545573Y175166D02*
D03*
X545573Y209223D02*
D03*
D120*
X558880Y209223D02*
D03*
X558880Y175166D02*
D03*
D121*
X300000Y53500D02*
D03*
X360000Y53500D02*
D03*
D122*
X71046Y128006D02*
D03*
D123*
X327700Y175900D02*
D03*
X333200Y176747D02*
D03*
X338900Y177200D02*
D03*
X244800Y161600D02*
D03*
X245300Y167625D02*
D03*
X245300Y174000D02*
D03*
X250400Y168900D02*
D03*
X367600Y182200D02*
D03*
X245900Y153700D02*
D03*
X233700Y178013D02*
D03*
X222900Y166900D02*
D03*
X240200Y142000D02*
D03*
X232400Y135700D02*
D03*
X242100Y159500D02*
D03*
X435300Y225200D02*
D03*
X461300Y224600D02*
D03*
X451600Y224100D02*
D03*
X456000Y241000D02*
D03*
X412000Y202775D02*
D03*
X424200Y200700D02*
D03*
X401800Y202775D02*
D03*
X426100Y196500D02*
D03*
X423200Y194400D02*
D03*
X416600Y204900D02*
D03*
X412100Y198600D02*
D03*
X401600Y198606D02*
D03*
X419800Y203400D02*
D03*
X376200Y187600D02*
D03*
X379500Y184500D02*
D03*
X409000Y194425D02*
D03*
X408244Y192075D02*
D03*
X382000Y192200D02*
D03*
X432500Y204630D02*
D03*
X444700Y204200D02*
D03*
X432500Y196400D02*
D03*
X371800Y183700D02*
D03*
X422800Y189000D02*
D03*
X413400Y194425D02*
D03*
X401700Y191900D02*
D03*
X419600Y194200D02*
D03*
X388875Y184700D02*
D03*
X447300Y188500D02*
D03*
X448570Y184251D02*
D03*
X452000Y183200D02*
D03*
X315900Y173000D02*
D03*
X329800Y185100D02*
D03*
X347900Y177100D02*
D03*
X302100Y189200D02*
D03*
X288500Y189200D02*
D03*
X295800Y189084D02*
D03*
X344469Y187744D02*
D03*
X367500Y187700D02*
D03*
X369200Y177100D02*
D03*
X426200Y207000D02*
D03*
X236100Y160900D02*
D03*
X236000Y151000D02*
D03*
X412200Y238600D02*
D03*
X414700Y228800D02*
D03*
X422400Y225200D02*
D03*
X409900Y225600D02*
D03*
X429100Y214000D02*
D03*
X447500Y195600D02*
D03*
X445700Y208700D02*
D03*
X414100Y207400D02*
D03*
X377200Y182300D02*
D03*
X388800Y177400D02*
D03*
X458000Y202400D02*
D03*
X450900Y202200D02*
D03*
X410500Y211100D02*
D03*
X457500Y178800D02*
D03*
X444500Y199200D02*
D03*
X473200Y212300D02*
D03*
X422800Y210500D02*
D03*
X466400Y202000D02*
D03*
X459300Y170500D02*
D03*
X462200Y198500D02*
D03*
X489300Y215400D02*
D03*
X437200Y169000D02*
D03*
X434500Y171600D02*
D03*
X279600Y186100D02*
D03*
X356100Y151700D02*
D03*
X355200Y159400D02*
D03*
X287553Y174015D02*
D03*
X302700Y173600D02*
D03*
X383000Y136100D02*
D03*
X380100Y132800D02*
D03*
X366300Y132800D02*
D03*
X329200Y138100D02*
D03*
X271000Y133475D02*
D03*
X309276Y135181D02*
D03*
X286500Y133106D02*
D03*
X261000Y116681D02*
D03*
X251000Y136181D02*
D03*
X249000Y134681D02*
D03*
X255700Y138000D02*
D03*
X385700Y128281D02*
D03*
X386716Y125750D02*
D03*
X267200Y169700D02*
D03*
X259800Y144700D02*
D03*
X355300Y143200D02*
D03*
X209093Y135147D02*
D03*
X445000Y154700D02*
D03*
X476000Y153200D02*
D03*
X452700Y149700D02*
D03*
X429700Y138100D02*
D03*
X429600Y156300D02*
D03*
X524300Y146500D02*
D03*
X508300Y146500D02*
D03*
X513500Y141300D02*
D03*
X497300Y141300D02*
D03*
X425400Y155400D02*
D03*
X442200Y146500D02*
D03*
X426200Y146500D02*
D03*
X431500Y141300D02*
D03*
X415800Y141300D02*
D03*
X467700Y140400D02*
D03*
X477100Y140400D02*
D03*
X438200Y157000D02*
D03*
X435000Y154900D02*
D03*
X517300Y157400D02*
D03*
X412200Y152400D02*
D03*
X364200Y110500D02*
D03*
X198969Y110746D02*
D03*
X212368Y110846D02*
D03*
X180440Y121846D02*
D03*
X351040Y110546D02*
D03*
X335640Y108346D02*
D03*
X348500Y116400D02*
D03*
X345840Y120146D02*
D03*
X209440Y125046D02*
D03*
X332240Y120146D02*
D03*
X194400Y121900D02*
D03*
X184106Y107606D02*
D03*
X172600Y114200D02*
D03*
X197000Y115200D02*
D03*
X363800Y120100D02*
D03*
X94046Y203331D02*
D03*
X91046Y211405D02*
D03*
X101046Y211405D02*
D03*
X111046Y211405D02*
D03*
X142546Y203006D02*
D03*
X148700Y154200D02*
D03*
X323000Y116800D02*
D03*
X188500Y115400D02*
D03*
X415900Y135100D02*
D03*
X319800Y42500D02*
D03*
X282000Y174000D02*
D03*
X336000Y42000D02*
D03*
X308000Y52000D02*
D03*
X336000Y54000D02*
D03*
X206000Y42000D02*
D03*
X178000Y56000D02*
D03*
X186000Y56000D02*
D03*
X345500Y54200D02*
D03*
X382400Y57600D02*
D03*
X413600Y213700D02*
D03*
X423531Y214350D02*
D03*
X443325Y164800D02*
D03*
X449600Y161400D02*
D03*
X448500Y138800D02*
D03*
X466800Y153000D02*
D03*
X364000Y62000D02*
D03*
X364000Y34000D02*
D03*
X302500Y61000D02*
D03*
X511000Y101681D02*
D03*
X209046Y58005D02*
D03*
X314500Y142000D02*
D03*
X463300Y162000D02*
D03*
X316500Y231000D02*
D03*
X299013Y225181D02*
D03*
X534200Y144000D02*
D03*
X532700Y157800D02*
D03*
X464200Y176300D02*
D03*
X401700Y232181D02*
D03*
X398300Y179881D02*
D03*
X401000Y185881D02*
D03*
X357600Y187900D02*
D03*
X389200Y136281D02*
D03*
X385575Y122968D02*
D03*
X410700Y135800D02*
D03*
X408100Y147800D02*
D03*
X403500Y127681D02*
D03*
X494900Y161981D02*
D03*
X339600Y222781D02*
D03*
X373300Y206806D02*
D03*
X370500Y208881D02*
D03*
X385100Y242150D02*
D03*
X407833Y168948D02*
D03*
X379400Y103081D02*
D03*
X390500Y112000D02*
D03*
X394000Y98000D02*
D03*
X397500Y63681D02*
D03*
X386123Y131058D02*
D03*
X379600Y117681D02*
D03*
X379600Y114981D02*
D03*
X371900Y116781D02*
D03*
X360940Y116846D02*
D03*
X318800Y120181D02*
D03*
X373000Y153500D02*
D03*
X373200Y147581D02*
D03*
X299300Y140000D02*
D03*
X373000Y161000D02*
D03*
X398000Y171000D02*
D03*
X452500Y164181D02*
D03*
X398400Y121581D02*
D03*
X493700Y152300D02*
D03*
X423500Y158181D02*
D03*
X418500Y162606D02*
D03*
X421575Y160256D02*
D03*
X430500Y169681D02*
D03*
X427500Y169681D02*
D03*
X424500Y169681D02*
D03*
X421500Y169681D02*
D03*
X418500Y169681D02*
D03*
X429500Y185181D02*
D03*
X432500Y185181D02*
D03*
X426000Y185000D02*
D03*
X245600Y139000D02*
D03*
X233000Y127181D02*
D03*
X202500Y139681D02*
D03*
X235500Y116447D02*
D03*
X283700Y116447D02*
D03*
X252800Y141300D02*
D03*
X410000Y185000D02*
D03*
X385000Y235681D02*
D03*
X392600Y166281D02*
D03*
X401600Y210500D02*
D03*
X383000Y202661D02*
D03*
X379000Y202661D02*
D03*
X324500Y221681D02*
D03*
X324500Y217181D02*
D03*
X305500Y214500D02*
D03*
X505047Y101681D02*
D03*
X328500Y188600D02*
D03*
X317800Y188700D02*
D03*
X353131Y187744D02*
D03*
X396800Y228781D02*
D03*
X377000Y176000D02*
D03*
X373000Y168000D02*
D03*
X177000Y109500D02*
D03*
X211000Y116900D02*
D03*
X315700Y101700D02*
D03*
X181200Y103000D02*
D03*
X235600Y111600D02*
D03*
X283800Y112000D02*
D03*
X286500Y104900D02*
D03*
X276500Y100400D02*
D03*
X259300Y100400D02*
D03*
X239300Y100200D02*
D03*
X261000Y111681D02*
D03*
X205096Y115650D02*
D03*
X226546Y100505D02*
D03*
X219600Y118800D02*
D03*
X287000Y139000D02*
D03*
X230000Y122500D02*
D03*
X178900Y165200D02*
D03*
X176400Y173000D02*
D03*
X175800Y190000D02*
D03*
X175800Y180600D02*
D03*
X211100Y146900D02*
D03*
X187400Y155500D02*
D03*
X217900Y146900D02*
D03*
X177900Y159400D02*
D03*
X210400Y171000D02*
D03*
X219638Y193600D02*
D03*
X204533Y192700D02*
D03*
X212800Y192700D02*
D03*
X219700Y187500D02*
D03*
X213100Y175500D02*
D03*
X173700Y151500D02*
D03*
X180200Y148600D02*
D03*
X181600Y179600D02*
D03*
X209300Y183800D02*
D03*
X195700Y176300D02*
D03*
X294700Y149900D02*
D03*
X217600Y135100D02*
D03*
X213243Y140000D02*
D03*
X217600Y140000D02*
D03*
X328000Y170700D02*
D03*
X364500Y146681D02*
D03*
X196500Y183600D02*
D03*
X240600Y188800D02*
D03*
X250100Y188600D02*
D03*
X230600Y188800D02*
D03*
X245500Y181000D02*
D03*
X290000Y157700D02*
D03*
X272500Y186100D02*
D03*
X206800Y200100D02*
D03*
X212400Y211900D02*
D03*
X295200Y172300D02*
D03*
X304200Y153000D02*
D03*
X269700Y177800D02*
D03*
X226600Y199500D02*
D03*
X306400Y173400D02*
D03*
X257100Y186100D02*
D03*
X358000Y211981D02*
D03*
X299300Y173600D02*
D03*
X361900Y177000D02*
D03*
X190800Y139000D02*
D03*
X195600Y146300D02*
D03*
X217546Y198505D02*
D03*
X243546Y203006D02*
D03*
X188246Y202406D02*
D03*
X259593Y225214D02*
D03*
X260846Y177805D02*
D03*
X281000Y170500D02*
D03*
X279569Y217556D02*
D03*
X275046Y210506D02*
D03*
X275046Y204505D02*
D03*
X275046Y198005D02*
D03*
X284446Y227105D02*
D03*
X286069Y217556D02*
D03*
X281600Y152700D02*
D03*
X273500Y163000D02*
D03*
X253100Y152100D02*
D03*
X304000Y166900D02*
D03*
X236100Y145300D02*
D03*
X230046Y145006D02*
D03*
X231000Y153600D02*
D03*
X225700Y155500D02*
D03*
X236100Y156100D02*
D03*
X189100Y146400D02*
D03*
X207900Y161900D02*
D03*
X249100Y176800D02*
D03*
X272500Y142400D02*
D03*
X264400Y152300D02*
D03*
X293100Y217600D02*
D03*
X265500Y186000D02*
D03*
X262300Y166300D02*
D03*
X217200Y161700D02*
D03*
X193046Y231505D02*
D03*
X240546Y207006D02*
D03*
X233046Y207006D02*
D03*
X222800Y207300D02*
D03*
X249046Y208005D02*
D03*
X213546Y231006D02*
D03*
X304100Y101500D02*
D03*
X242546Y78005D02*
D03*
X230546Y84505D02*
D03*
X239046Y58005D02*
D03*
X229046Y58005D02*
D03*
X219046Y58005D02*
D03*
X325100Y113200D02*
D03*
X267046Y82506D02*
D03*
X294000Y61181D02*
D03*
X284500Y61181D02*
D03*
X317700Y113900D02*
D03*
X302900Y113400D02*
D03*
X345546Y42006D02*
D03*
X336000Y62000D02*
D03*
X316500Y57000D02*
D03*
X319746Y48605D02*
D03*
X212946Y129506D02*
D03*
X202093Y28214D02*
D03*
X178000Y42000D02*
D03*
X186000Y42000D02*
D03*
X194400Y132900D02*
D03*
X207900Y132200D02*
D03*
X182400Y132500D02*
D03*
X174546Y141506D02*
D03*
X174000Y133000D02*
D03*
X376900Y232781D02*
D03*
X361800Y222481D02*
D03*
X377100Y221400D02*
D03*
X417400Y210400D02*
D03*
X420800Y182500D02*
D03*
X328546Y242005D02*
D03*
X367546Y242005D02*
D03*
X246046Y238005D02*
D03*
X385500Y216181D02*
D03*
X477700Y209600D02*
D03*
X470593Y205714D02*
D03*
X462200Y205100D02*
D03*
X527018Y192214D02*
D03*
X486093Y205714D02*
D03*
X537093Y200214D02*
D03*
X536593Y192214D02*
D03*
X490500Y175681D02*
D03*
X527046Y170643D02*
D03*
X478800Y163800D02*
D03*
X54046Y180006D02*
D03*
X48830Y171505D02*
D03*
X39546Y128506D02*
D03*
X117546Y68006D02*
D03*
X116046Y101005D02*
D03*
X159046Y102506D02*
D03*
X147791Y102955D02*
D03*
X137546Y103006D02*
D03*
X153046Y56006D02*
D03*
X142500Y56000D02*
D03*
X92546Y109505D02*
D03*
X81046Y109505D02*
D03*
X103546Y109505D02*
D03*
X143546Y190006D02*
D03*
X158046Y195006D02*
D03*
X79846Y192806D02*
D03*
X89846Y192806D02*
D03*
X99846Y192806D02*
D03*
X109846Y192806D02*
D03*
X148546Y119006D02*
D03*
X148546Y139005D02*
D03*
X148546Y149005D02*
D03*
X148546Y129006D02*
D03*
X94046Y220005D02*
D03*
X126046Y225505D02*
D03*
X81046Y211405D02*
D03*
X118546Y237506D02*
D03*
X167046Y103905D02*
D03*
X180046Y231006D02*
D03*
X165691Y218461D02*
D03*
X162000Y42000D02*
D03*
X39546Y88506D02*
D03*
X49546Y128506D02*
D03*
X59546Y88506D02*
D03*
X59546Y98506D02*
D03*
X39546Y98506D02*
D03*
X39546Y108505D02*
D03*
X59546Y108505D02*
D03*
X39546Y118506D02*
D03*
X39546Y68506D02*
D03*
X94546Y48006D02*
D03*
X104546Y48006D02*
D03*
X102046Y68006D02*
D03*
X59546Y68506D02*
D03*
X49546Y68506D02*
D03*
X59546Y78505D02*
D03*
X39546Y78505D02*
D03*
X70593Y45714D02*
D03*
X59546Y128506D02*
D03*
X58546Y158005D02*
D03*
X58546Y163005D02*
D03*
X65546Y175505D02*
D03*
X58546Y153006D02*
D03*
X59546Y118506D02*
D03*
X352000Y34000D02*
D03*
X329000Y144400D02*
D03*
X324000Y166500D02*
D03*
X356800Y195300D02*
D03*
X323400Y188400D02*
D03*
X313500Y209500D02*
D03*
D124*
X309098Y141700D02*
D03*
D125*
X263500Y52100D02*
D03*
X263500Y55000D02*
D03*
X268500Y55000D02*
D03*
X268500Y52100D02*
D03*
X258500Y55000D02*
D03*
X258500Y52100D02*
D03*
X218300Y80300D02*
D03*
X218300Y76300D02*
D03*
X218300Y84300D02*
D03*
X221800Y80300D02*
D03*
X221800Y76300D02*
D03*
X221800Y84300D02*
D03*
X376500Y84000D02*
D03*
X376500Y76000D02*
D03*
X376500Y80000D02*
D03*
X373000Y84000D02*
D03*
X373000Y76000D02*
D03*
X373000Y80000D02*
D03*
X221642Y96313D02*
D03*
X221642Y92314D02*
D03*
X218144Y96313D02*
D03*
X218143Y88314D02*
D03*
X221642Y88314D02*
D03*
X218144Y92314D02*
D03*
X372843Y92014D02*
D03*
X372843Y88014D02*
D03*
X372843Y96014D02*
D03*
X376343Y92014D02*
D03*
X376343Y88014D02*
D03*
X376343Y96014D02*
D03*
D126*
X227454Y125046D02*
X232319Y120181D01*
X318800Y120181D01*
X167205Y121846D02*
X180440Y121846D01*
X164737Y124315D02*
X167205Y121846D01*
X180494Y121900D02*
X204700Y121900D01*
X180440Y121846D02*
X180494Y121900D01*
X332240Y120146D02*
X345840Y120146D01*
X318835Y120146D02*
X332240Y120146D01*
X345840Y120146D02*
X345875Y120181D01*
X351000Y120181D01*
X207846Y125046D02*
X227454Y125046D01*
X204700Y121900D02*
X207846Y125046D01*
X318800Y120181D02*
X318835Y120146D01*
X164737Y139697D02*
X169870Y144830D01*
X173000Y160300D02*
X173000Y193960D01*
X169870Y144830D02*
X169870Y157170D01*
X173000Y160300D01*
X173000Y193960D02*
X181446Y202406D01*
X164737Y124315D02*
X164737Y139697D01*
X181446Y202406D02*
X188246Y202406D01*
D127*
X381200Y45900D02*
X383300Y45900D01*
X366600Y45900D02*
X381200Y45900D01*
X360000Y52500D02*
X366600Y45900D01*
D128*
X483095Y96744D02*
D03*
X483095Y106118D02*
D03*
D129*
X353993Y85357D02*
D03*
D130*
X199046Y81805D02*
D03*
M02*
