G04*
G04 #@! TF.GenerationSoftware,Altium Limited,Altium Designer,21.6.1 (37)*
G04*
G04 Layer_Color=16711935*
%FSLAX25Y25*%
%MOIN*%
G70*
G04*
G04 #@! TF.SameCoordinates,7BDA6066-75DE-4F1A-8C0A-B5BF4F492E69*
G04*
G04*
G04 #@! TF.FilePolarity,Positive*
G04*
G01*
G75*
%ADD17C,0.00787*%
%ADD22C,0.01181*%
%ADD23C,0.02000*%
D17*
X94683Y245734D02*
X93705Y245716D01*
X92733Y245612D01*
X91774Y245422D01*
X90835Y245148D01*
X89925Y244792D01*
X89049Y244356D01*
X88216Y243845D01*
X87431Y243262D01*
X86701Y242611D01*
X86031Y241898D01*
X85427Y241129D01*
X84894Y240310D01*
X84436Y239446D01*
X84056Y238545D01*
X83757Y237614D01*
X83542Y236660D01*
X83412Y235691D01*
X83368Y234714D01*
X564193Y218914D02*
X564153Y219889D01*
X564032Y220858D01*
X563832Y221814D01*
X563553Y222749D01*
X563198Y223659D01*
X562769Y224536D01*
X562270Y225374D01*
X561702Y226169D01*
X561071Y226914D01*
X560381Y227604D01*
X559636Y228235D01*
X558842Y228802D01*
X558003Y229302D01*
X557126Y229730D01*
X556217Y230085D01*
X555281Y230364D01*
X554326Y230564D01*
X553357Y230685D01*
X552382Y230725D01*
X94202Y42736D02*
X93238Y42627D01*
X92323Y42307D01*
X91502Y41791D01*
X90816Y41105D01*
X90300Y40284D01*
X89980Y39369D01*
X89871Y38405D01*
X47148Y230777D02*
X46173Y230737D01*
X45204Y230616D01*
X44249Y230416D01*
X43313Y230137D01*
X42404Y229782D01*
X41527Y229354D01*
X40688Y228854D01*
X39894Y228287D01*
X39149Y227656D01*
X38458Y226965D01*
X37828Y226221D01*
X37260Y225426D01*
X36761Y224588D01*
X36332Y223711D01*
X35977Y222801D01*
X35698Y221866D01*
X35498Y220910D01*
X35377Y219941D01*
X35337Y218966D01*
X551085Y137076D02*
X552102Y137123D01*
X553111Y137264D01*
X554102Y137497D01*
X555067Y137821D01*
X555999Y138232D01*
X556888Y138727D01*
X557728Y139303D01*
X558512Y139953D01*
X559232Y140673D01*
X559882Y141457D01*
X560458Y142297D01*
X560953Y143186D01*
X561364Y144118D01*
X561688Y145083D01*
X561921Y146074D01*
X562062Y147083D01*
X562109Y148100D01*
X535337Y33927D02*
X536312Y33967D01*
X537281Y34088D01*
X538236Y34288D01*
X539172Y34567D01*
X540082Y34922D01*
X540958Y35350D01*
X541797Y35850D01*
X542591Y36417D01*
X543336Y37048D01*
X544027Y37738D01*
X544658Y38483D01*
X545225Y39278D01*
X545724Y40116D01*
X546153Y40993D01*
X546508Y41903D01*
X546787Y42838D01*
X546987Y43794D01*
X547108Y44763D01*
X547148Y45738D01*
X35337Y45738D02*
X35377Y44762D01*
X35498Y43794D01*
X35698Y42838D01*
X35977Y41903D01*
X36332Y40993D01*
X36761Y40116D01*
X37260Y39278D01*
X37828Y38483D01*
X38458Y37738D01*
X39149Y37048D01*
X39894Y36417D01*
X40688Y35850D01*
X41527Y35350D01*
X42404Y34922D01*
X43313Y34567D01*
X44249Y34288D01*
X45204Y34088D01*
X46173Y33967D01*
X47148Y33927D01*
X314865Y18179D02*
X314905Y17203D01*
X315026Y16235D01*
X315226Y15279D01*
X315505Y14344D01*
X315859Y13434D01*
X316288Y12557D01*
X316788Y11719D01*
X317355Y10924D01*
X317986Y10179D01*
X318676Y9489D01*
X319421Y8858D01*
X320216Y8291D01*
X321054Y7791D01*
X321931Y7362D01*
X322841Y7008D01*
X323776Y6729D01*
X324732Y6529D01*
X325700Y6408D01*
X326676Y6368D01*
X354235Y6368D02*
X355210Y6408D01*
X356179Y6529D01*
X357134Y6729D01*
X358070Y7008D01*
X358979Y7362D01*
X359856Y7791D01*
X360695Y8291D01*
X361489Y8858D01*
X362234Y9489D01*
X362924Y10179D01*
X363555Y10924D01*
X364122Y11719D01*
X364622Y12557D01*
X365051Y13434D01*
X365406Y14344D01*
X365684Y15279D01*
X365885Y16235D01*
X366005Y17203D01*
X366046Y18179D01*
X377857Y33927D02*
X376881Y33886D01*
X375913Y33766D01*
X374957Y33565D01*
X374022Y33287D01*
X373112Y32932D01*
X372235Y32503D01*
X371397Y32004D01*
X370602Y31436D01*
X369857Y30805D01*
X369167Y30115D01*
X368536Y29370D01*
X367969Y28576D01*
X367469Y27737D01*
X367040Y26860D01*
X366686Y25951D01*
X366407Y25015D01*
X366207Y24060D01*
X366086Y23091D01*
X366046Y22116D01*
X196754Y6368D02*
X197730Y6408D01*
X198698Y6529D01*
X199654Y6729D01*
X200589Y7008D01*
X201499Y7362D01*
X202376Y7791D01*
X203214Y8291D01*
X204009Y8858D01*
X204754Y9489D01*
X205444Y10179D01*
X206075Y10924D01*
X206642Y11719D01*
X207142Y12557D01*
X207571Y13434D01*
X207925Y14344D01*
X208204Y15279D01*
X208404Y16235D01*
X208525Y17203D01*
X208565Y18179D01*
X314865Y30914D02*
X314824Y31890D01*
X314703Y32858D01*
X314503Y33814D01*
X314225Y34749D01*
X313870Y35659D01*
X313441Y36536D01*
X312941Y37374D01*
X312374Y38169D01*
X311743Y38914D01*
X311053Y39604D01*
X310308Y40235D01*
X309514Y40802D01*
X308675Y41302D01*
X307798Y41730D01*
X306889Y42085D01*
X305953Y42364D01*
X304998Y42564D01*
X304029Y42685D01*
X303053Y42725D01*
X220376Y42725D02*
X219401Y42685D01*
X218432Y42564D01*
X217477Y42364D01*
X216541Y42085D01*
X215632Y41730D01*
X214755Y41302D01*
X213916Y40802D01*
X213122Y40235D01*
X212377Y39604D01*
X211687Y38914D01*
X211056Y38169D01*
X210489Y37374D01*
X209989Y36536D01*
X209560Y35659D01*
X209205Y34749D01*
X208927Y33814D01*
X208726Y32858D01*
X208606Y31890D01*
X208565Y30914D01*
X499117Y234714D02*
X499069Y235731D01*
X498929Y236740D01*
X498696Y237731D01*
X498372Y238696D01*
X497961Y239628D01*
X497465Y240517D01*
X496890Y241357D01*
X496240Y242141D01*
X495519Y242861D01*
X494736Y243511D01*
X493896Y244087D01*
X493007Y244582D01*
X492075Y244993D01*
X491110Y245317D01*
X490119Y245550D01*
X489110Y245691D01*
X488093Y245738D01*
X31400Y159124D02*
X30412Y159079D01*
X29432Y158947D01*
X28467Y158726D01*
X27527Y158421D01*
X26617Y158032D01*
X25746Y157563D01*
X24920Y157018D01*
X24147Y156402D01*
X23432Y155718D01*
X22781Y154973D01*
X22200Y154173D01*
X21693Y153324D01*
X21263Y152433D01*
X20916Y151506D01*
X20653Y150553D01*
X20476Y149580D01*
X20388Y148595D01*
X20388Y147605D01*
X20476Y146620D01*
X20653Y145647D01*
X20916Y144694D01*
X21263Y143767D01*
X21693Y142876D01*
X22200Y142027D01*
X22781Y141227D01*
X23432Y140482D01*
X24147Y139798D01*
X24920Y139182D01*
X25746Y138637D01*
X26617Y138168D01*
X27527Y137779D01*
X28467Y137474D01*
X29432Y137253D01*
X30412Y137121D01*
X31400Y137076D01*
X157384Y18179D02*
X157425Y17203D01*
X157545Y16235D01*
X157746Y15279D01*
X158024Y14344D01*
X158379Y13434D01*
X158808Y12557D01*
X159308Y11719D01*
X159875Y10924D01*
X160506Y10179D01*
X161196Y9489D01*
X161941Y8858D01*
X162735Y8291D01*
X163574Y7791D01*
X164451Y7362D01*
X165360Y7008D01*
X166296Y6729D01*
X167251Y6529D01*
X168220Y6408D01*
X169195Y6368D01*
X157384Y30914D02*
X157344Y31890D01*
X157223Y32858D01*
X157023Y33814D01*
X156744Y34749D01*
X156389Y35659D01*
X155961Y36536D01*
X155461Y37374D01*
X154894Y38169D01*
X154263Y38914D01*
X153573Y39604D01*
X152828Y40235D01*
X152033Y40802D01*
X151195Y41302D01*
X150318Y41730D01*
X149408Y42085D01*
X148473Y42364D01*
X147517Y42564D01*
X146549Y42685D01*
X145573Y42725D01*
X85393Y33927D02*
X86389Y34039D01*
X87336Y34370D01*
X88185Y34904D01*
X88894Y35613D01*
X89428Y36462D01*
X89759Y37409D01*
X89871Y38405D01*
X169195Y6368D02*
X196754Y6368D01*
X208565Y18179D02*
X208565Y30914D01*
X366046Y18179D02*
X366046Y22116D01*
X326676Y6368D02*
X354235Y6368D01*
X314865Y18179D02*
X314865Y18179D01*
X47148Y33927D02*
X85393Y33927D01*
X377857Y33927D02*
X535337Y33927D01*
X564233Y150284D02*
X564233Y218914D01*
X35337Y163061D02*
X35337Y218966D01*
X35337Y45738D02*
X35337Y133139D01*
X547148Y45738D02*
X547148Y133139D01*
X562109Y148100D02*
X564293Y150284D01*
X79431Y230777D02*
X83368Y234714D01*
X47293Y230777D02*
X79431Y230777D01*
X503054Y230777D02*
X552382Y230777D01*
X499117Y234714D02*
X503054Y230777D01*
X157384Y18179D02*
X157384Y30914D01*
X94202Y42725D02*
X145573Y42725D01*
X220376Y42725D02*
X303053Y42725D01*
X314865Y18179D02*
X314865Y30914D01*
X94683Y245734D02*
X488093Y245795D01*
X157384Y18179D02*
X157384Y18179D01*
X76546Y117006D02*
X76546Y179006D01*
X76546Y117006D02*
X141546Y117006D01*
X141546Y179006D01*
X76546Y179006D02*
X141546Y179006D01*
D22*
X547148Y133139D02*
X551085Y137076D01*
X31400Y137076D02*
X35337Y133139D01*
X31400Y159124D02*
X35337Y163061D01*
D23*
X80046Y175005D02*
X134046Y121005D01*
X83046Y121505D02*
X136046Y174505D01*
M02*
