M48
;Layer_Color=9474304
;FILE_FORMAT=2:5
INCH,TZ
;TYPE=PLATED
T1F00S00C0.01181
T2F00S00C0.01575
T3F00S00C0.01968
T4F00S00C0.02362
T6F00S00C0.02756
T7F00S00C0.02800
T8F00S00C0.03150
T9F00S00C0.03543
T10F00S00C0.03937
T11F00S00C0.04016
T12F00S00C0.04724
T13F00S00C0.05906
T14F00S00C0.08071
%
T01
X39546Y68506
X49546
X59546
Y78505
Y88506
Y98506
Y108505
Y118506
Y128506
X49546
X39546
Y118506
Y108505
Y98506
Y88506
Y78505
X70593Y45714
X94546Y48006
X104546
X102046Y68006
X117546
X116046Y101005
X103546Y109505
X92546
X81046
X137546Y103006
X147791Y102955
X148546Y119006
Y129006
Y139005
Y149005
X148700Y154200
X58546Y153006
X142500Y56000
X153046Y56006
X162000Y42000
X178000
X186000
Y56000
X178000
X209046Y58005
X219046
X229046
X239046
X242546Y78005
X230546Y84505
X226546Y100505
X239300Y100200
X235600Y111600
X235500Y116447
X230000Y122500
X233000Y127181
X232400Y135700
X230046Y145006
X236100Y145300
X236000Y151000
X236100Y156100
X231000Y153600
X225700Y155500
X217900Y146900
X211100
X213243Y140000
X217600
Y135100
X209093Y135147
X207900Y132200
X212946Y129506
X209440Y125046
X211000Y116900
X205096Y115650
X197000Y115200
X198969Y110746
X212368Y110846
X219600Y118800
X194400Y121900
Y132900
X190800Y139000
X189100Y146400
X195600Y146300
X202500Y139681
X182400Y132500
X174000Y133000
X174546Y141506
X173700Y151500
X180200Y148600
X187400Y155500
X180440Y121846
X188500Y115400
X184106Y107606
X181200Y103000
X177000Y109500
X172600Y114200
X167046Y103905
X159046Y102506
X259300Y100400
X261000Y111681
Y116681
X283700Y116447
X283800Y112000
X286500Y104900
X276500Y100400
X267046Y82506
X284500Y61181
X294000
X302500Y61000
X308000Y52000
X304100Y101500
X302900Y113400
X309276Y135181
X309098Y141700
X299300Y140000
X287000Y139000
X286500Y133106
X271000Y133475
X272500Y142400
X259800Y144700
X252800Y141300
X255700Y138000
X251000Y136181
X249000Y134681
X245600Y139000
X240200Y142000
X245900Y153700
X253100Y152100
X264400Y152300
X281600Y152700
X294700Y149900
X304200Y153000
X206000Y42000
X202093Y28214
X319800Y42500
X319746Y48605
X316500Y57000
X336000Y54000
Y62000
X345500Y54200
X345546Y42006
X336000Y42000
X352000Y34000
X364000
Y62000
X382400Y57600
X397500Y63681
X394000Y98000
X390500Y112000
X379600Y114981
Y117681
X371900Y116781
X360940Y116846
X363800Y120100
X364200Y110500
X351040Y110546
X348500Y116400
X345840Y120146
X332240
X323000Y116800
X325100Y113200
X317700Y113900
X318800Y120181
X315700Y101700
X335640Y108346
X329200Y138100
X329000Y144400
X314500Y142000
X355300Y143200
X356100Y151700
X364500Y146681
X373200Y147581
X373000Y153500
X383000Y136100
X380100Y132800
X386123Y131058
X385700Y128281
X386716Y125750
X385575Y122968
X398400Y121581
X403500Y127681
X410700Y135800
X415900Y135100
X415800Y141300
X408100Y147800
X412200Y152400
X425400Y155400
X426200Y146500
X431500Y141300
X429700Y138100
X448500Y138800
X442200Y146500
X445000Y154700
X435000Y154900
X452700Y149700
X466800Y153000
X467700Y140400
X389200Y136281
X366300Y132800
X379400Y103081
X505047Y101681
X511000Y101681
X513500Y141300
X508300Y146500
X524300
X534200Y144000
X497300Y141300
X493700Y152300
X476000Y153200
X477100Y140400
X478800Y163800
X494900Y161981
X490500Y175681
X486093Y205714
X477700Y209600
X473200Y212300
X470593Y205714
X489300Y215400
X527018Y192214
X536593
X537093Y200214
X527046Y170643
X532700Y157800
X517300Y157400
X463300Y162000
X459300Y170500
X457500Y178800
X464200Y176300
X452000Y183200
X448570Y184251
X447300Y188500
X447500Y195600
X444500Y199200
X444700Y204200
X445700Y208700
X450900Y202200
X458000Y202400
X462200Y205100
Y198500
X466400Y202000
X461300Y224600
X451600Y224100
X435300Y225200
X422400
X414700Y228800
X409900Y225600
X401700Y232181
X396800Y228781
X385000Y235681
X385100Y242150
X376900Y232781
X377100Y221400
X385500Y216181
X383000Y202661
X379000
X373300Y206806
X370500Y208881
X358000Y211981
X361800Y222481
X339600Y222781
X324500Y221681
Y217181
X313500Y209500
X316500Y231000
X328546Y242005
X367546
X412200Y238600
X413600Y213700
X410500Y211100
X414100Y207400
X416600Y204900
X419800Y203400
X424200Y200700
X426100Y196500
X423200Y194400
X419600Y194200
X413400Y194425
X409000
X408244Y192075
X401700Y191900
X401000Y185881
X398300Y179881
X398000Y171000
X392600Y166281
X388800Y177400
X388875Y184700
X379500Y184500
X377200Y182300
X376200Y187600
X371800Y183700
X367600Y182200
X367500Y187700
X357600Y187900
X353131Y187744
X344469
X347900Y177100
X338900Y177200
X333200Y176747
X327700Y175900
X328000Y170700
X324000Y166500
X315900Y173000
X317800Y188700
X323400Y188400
X328500Y188600
X329800Y185100
X356800Y195300
X361900Y177000
X369200Y177100
X377000Y176000
X373000Y168000
Y161000
X355200Y159400
X382000Y192200
X401600Y198606
X401800Y202775
X401600Y210500
X417400Y210400
X422800Y210500
X423531Y214350
X429100Y214000
X426200Y207000
X432500Y204630
Y196400
Y185181
X429500
X426000Y185000
X422800Y189000
X420800Y182500
X410000Y185000
X412100Y198600
X412000Y202775
X407833Y168948
X418500Y169681
X421500
X424500
X427500
X430500
X434500Y171600
X437200Y169000
X443325Y164800
X449600Y161400
X452500Y164181
X438200Y157000
X429600Y156300
X423500Y158181
X421575Y160256
X418500Y162606
X456000Y241000
X299013Y225181
X293100Y217600
X286069Y217556
X279569
X275046Y210506
Y204505
Y198005
X272500Y186100
X279600
X288500Y189200
X295800Y189084
X302100Y189200
X302700Y173600
X299300
X295200Y172300
X287553Y174015
X282000Y174000
X281000Y170500
X267200Y169700
X262300Y166300
X260846Y177805
X269700Y177800
X265500Y186000
X257100Y186100
X250100Y188600
X240600Y188800
X230600
X219700Y187500
X219638Y193600
X217546Y198505
X226600Y199500
X222800Y207300
X233046Y207006
X240546
X243546Y203006
X249046Y208005
X259593Y225214
X246046Y238005
X213546Y231006
X212400Y211900
X206800Y200100
X204533Y192700
X212800
X209300Y183800
X213100Y175500
X210400Y171000
X207900Y161900
X217200Y161700
X222900Y166900
X236100Y160900
X242100Y159500
X244800Y161600
X245300Y167625
Y174000
X249100Y176800
X245500Y181000
X233700Y178013
X250400Y168900
X273500Y163000
X290000Y157700
X304000Y166900
X306400Y173400
X305500Y214500
X284446Y227105
X193046Y231505
X180046Y231006
X165691Y218461
X158046Y195006
X175800Y190000
Y180600
X181600Y179600
X176400Y173000
X178900Y165200
X177900Y159400
X195700Y176300
X196500Y183600
X188246Y202406
X142546Y203006
X143546Y190006
X109846Y192806
X99846
X89846
X79846
X81046Y211405
X91046
X101046
X111046
X94046Y203331
Y220005
X126046Y225505
X118546Y237506
X65546Y175505
X54046Y180006
X48830Y171505
X58546Y163005
Y158005
T02
X218300Y76300
X221800
Y80300
X218300
Y84300
X221800
X221642Y88314
X218143
X218144Y92314
X221642
Y96313
X218144
X258500Y55000
Y52100
X263500
Y55000
X268500
Y52100
X373000Y76000
X376500
Y80000
X373000
Y84000
X376500
X376343Y88014
X372843
Y92014
X376343
Y96014
X372843
X541715Y180482
Y183828
Y187174
Y190522
Y193868
Y197214
Y200560
Y203907
X547029
Y200560
Y197214
Y193868
Y190522
Y187174
Y183828
Y180482
T03
X475500Y95138
Y98681
X479500
Y95138
X483500
Y98681
Y104681
Y108224
X479500
Y104681
X475500
Y108224
T04
X422942Y232214
Y237214
X427943
X432942
X437943
X442942
Y232214
X432942
X427943
T06
X417942Y234714
X447942
T07
X70046Y195006
Y215005
X119546
Y195006
T08
X168132Y16210
X178132
X187817
X197817
X325613
X335613
X345298
X355298
T09
X81593Y56714
X71046Y128006
Y138005
Y148005
X159353Y148289
Y138289
Y128289
Y118289
X169546Y95006
Y75805
X187100Y128900
X200900Y128902
X338600Y128500
X352900Y128400
X366000Y139181
X394000Y115581
X320746Y95006
Y77306
X489500Y97000
Y106000
X372800Y192000
X362300Y192181
X336200Y193402
X320400Y176900
X330829Y230777
X340672
X350514
X360357
X374900Y214200
X310100Y193402
X293593Y227714
X273593
X242030Y230777
X232187
X222345
X214546Y207006
X235000Y200200
X196546Y196005
X159353Y177659
Y167659
Y157659
X71046Y158005
Y168006
T10
X170179Y40817
Y58533
X195770
Y40817
X327660
Y58533
X353250
Y40817
X459550Y139242
X485140
Y156958
X459550
T11
X96282Y76809
X108093
Y88620
X96282
X84471Y92321
X119904Y88620
Y76809
X131715Y92321
X241971
X253782Y88620
Y76809
X265593
Y88620
X277404
Y76809
X289215Y92321
T12
X300000Y53500
X360000
T13
X381200Y45900
X401200
X421200
T14
X31400Y148100
X551085
X488093Y234714
X94392
M30
