G04*
G04 #@! TF.GenerationSoftware,Altium Limited,Altium Designer,21.6.1 (37)*
G04*
G04 Layer_Color=8421504*
%FSLAX25Y25*%
%MOIN*%
G70*
G04*
G04 #@! TF.SameCoordinates,E8E7377F-12F3-41F2-B4DA-774CBFF52AF4*
G04*
G04*
G04 #@! TF.FilePolarity,Positive*
G04*
G01*
G75*
%ADD26R,0.05709X0.02362*%
%ADD27R,0.03543X0.02756*%
%ADD28R,0.03543X0.03150*%
%ADD29R,0.03150X0.03543*%
%ADD30O,0.08268X0.01181*%
%ADD31R,0.02756X0.03543*%
G04:AMPARAMS|DCode=32|XSize=17.72mil|YSize=62.99mil|CornerRadius=1.95mil|HoleSize=0mil|Usage=FLASHONLY|Rotation=90.000|XOffset=0mil|YOffset=0mil|HoleType=Round|Shape=RoundedRectangle|*
%AMROUNDEDRECTD32*
21,1,0.01772,0.05909,0,0,90.0*
21,1,0.01382,0.06299,0,0,90.0*
1,1,0.00390,0.02955,0.00691*
1,1,0.00390,0.02955,-0.00691*
1,1,0.00390,-0.02955,-0.00691*
1,1,0.00390,-0.02955,0.00691*
%
%ADD32ROUNDEDRECTD32*%
%ADD33R,0.02362X0.04528*%
%ADD34R,0.03543X0.03543*%
%ADD35O,0.01181X0.03937*%
%ADD36R,0.05906X0.05118*%
%ADD37R,0.03937X0.04331*%
%ADD38R,0.04331X0.03937*%
%ADD39O,0.01181X0.08268*%
%ADD40R,0.04724X0.05512*%
%ADD41R,0.02756X0.05118*%
%ADD42O,0.10236X0.02756*%
%ADD43R,0.05118X0.02756*%
%ADD44O,0.08661X0.02362*%
%ADD45R,0.05118X0.05906*%
%ADD46R,0.04800X0.03600*%
%ADD47C,0.03937*%
%ADD48R,0.04528X0.02362*%
%ADD49R,0.02362X0.05709*%
%ADD50R,0.03543X0.03543*%
%ADD51R,0.24410X0.22835*%
%ADD52R,0.11811X0.06299*%
%ADD53O,0.09843X0.02756*%
%ADD54R,0.05906X0.02362*%
D26*
X188672Y172246D02*
D03*
X202672Y172246D02*
D03*
X188672Y159246D02*
D03*
X202672Y159246D02*
D03*
X480926Y215800D02*
D03*
X471674Y212060D02*
D03*
X471674Y219540D02*
D03*
X255025Y112500D02*
D03*
X245773Y108760D02*
D03*
X245773Y116240D02*
D03*
X255025Y126100D02*
D03*
X245773Y122360D02*
D03*
X245773Y129840D02*
D03*
X193420Y155506D02*
D03*
X202672Y151765D02*
D03*
X179420Y155506D02*
D03*
X188672Y151765D02*
D03*
X193420Y168506D02*
D03*
X202672Y164765D02*
D03*
X179420Y168506D02*
D03*
X188672Y164765D02*
D03*
D27*
X172900Y170347D02*
D03*
X202500Y182953D02*
D03*
X188500Y183153D02*
D03*
X343093Y215167D02*
D03*
X343093Y209261D02*
D03*
X348093Y215167D02*
D03*
X348093Y209261D02*
D03*
X304400Y163051D02*
D03*
X304400Y157146D02*
D03*
X366546Y84053D02*
D03*
X366546Y89958D02*
D03*
X465300Y219553D02*
D03*
X465300Y213647D02*
D03*
X214046Y84553D02*
D03*
X214046Y90458D02*
D03*
X188093Y30667D02*
D03*
X188093Y24761D02*
D03*
X345593Y30667D02*
D03*
X345593Y24761D02*
D03*
X325593Y24761D02*
D03*
X325593Y30667D02*
D03*
X168093Y30667D02*
D03*
X168093Y24761D02*
D03*
X449495Y174053D02*
D03*
X449495Y168147D02*
D03*
X454600Y174034D02*
D03*
X454600Y168128D02*
D03*
X444500Y174053D02*
D03*
X444500Y168147D02*
D03*
X309293Y152667D02*
D03*
X309293Y146761D02*
D03*
X523593Y209167D02*
D03*
X523593Y203261D02*
D03*
X528093Y209167D02*
D03*
X528093Y203261D02*
D03*
X188500Y177247D02*
D03*
X394000Y108134D02*
D03*
X394000Y102228D02*
D03*
X239400Y109747D02*
D03*
X239400Y115653D02*
D03*
X239300Y123047D02*
D03*
X239300Y128953D02*
D03*
X214046Y74553D02*
D03*
X214046Y80458D02*
D03*
X366546Y74553D02*
D03*
X366546Y80458D02*
D03*
X202500Y177047D02*
D03*
X299900Y157146D02*
D03*
X299900Y163051D02*
D03*
X293700Y163051D02*
D03*
X293700Y157146D02*
D03*
X172900Y176253D02*
D03*
D28*
X172700Y160856D02*
D03*
X342900Y173044D02*
D03*
X342900Y178556D02*
D03*
X392800Y176737D02*
D03*
X392800Y171225D02*
D03*
X468546Y181761D02*
D03*
X468546Y176250D02*
D03*
X523593Y182970D02*
D03*
X523593Y177458D02*
D03*
X530093Y170958D02*
D03*
X530093Y176470D02*
D03*
X529400Y144344D02*
D03*
X529400Y149856D02*
D03*
X493700Y147356D02*
D03*
X493700Y141844D02*
D03*
X448600Y144244D02*
D03*
X448600Y149756D02*
D03*
X412600Y146956D02*
D03*
X412600Y141444D02*
D03*
X451400Y207044D02*
D03*
X451400Y212556D02*
D03*
X172700Y155344D02*
D03*
X309200Y163556D02*
D03*
X309200Y158044D02*
D03*
X328740Y114844D02*
D03*
X328740Y120356D02*
D03*
X176969Y114844D02*
D03*
X176969Y120356D02*
D03*
X367323Y117702D02*
D03*
X367323Y112190D02*
D03*
X215551Y117797D02*
D03*
X215551Y112285D02*
D03*
D29*
X451839Y198214D02*
D03*
X441344Y222400D02*
D03*
X446856Y222400D02*
D03*
X457350Y198214D02*
D03*
X407256Y228181D02*
D03*
X401744Y228181D02*
D03*
X441244Y217300D02*
D03*
X446756Y217300D02*
D03*
X447544Y178700D02*
D03*
X453056Y178700D02*
D03*
X289944Y183000D02*
D03*
X295456Y183000D02*
D03*
X54943Y175505D02*
D03*
X60455Y175505D02*
D03*
X55290Y140006D02*
D03*
X60802Y140006D02*
D03*
X229302Y149505D02*
D03*
X223790Y149505D02*
D03*
X249244Y181000D02*
D03*
X254756Y181000D02*
D03*
X261544Y138700D02*
D03*
X267056Y138700D02*
D03*
X324879Y138214D02*
D03*
X319367Y138214D02*
D03*
X327944Y166500D02*
D03*
X333456Y166500D02*
D03*
X279144Y162800D02*
D03*
X284656Y162800D02*
D03*
X283156Y143100D02*
D03*
X277644Y143100D02*
D03*
X261544Y132900D02*
D03*
X267056Y132900D02*
D03*
D30*
X438689Y194681D02*
D03*
X438689Y196650D02*
D03*
X438689Y204524D02*
D03*
X438689Y202555D02*
D03*
X438689Y198618D02*
D03*
X394595Y182870D02*
D03*
X394595Y184839D02*
D03*
X394595Y186807D02*
D03*
X394595Y188776D02*
D03*
X394595Y190744D02*
D03*
X394595Y192713D02*
D03*
X394595Y194681D02*
D03*
X394595Y196650D02*
D03*
X394595Y198618D02*
D03*
X394595Y200587D02*
D03*
X394595Y202555D02*
D03*
X394595Y204524D02*
D03*
X394595Y206492D02*
D03*
X394595Y208461D02*
D03*
X394595Y210429D02*
D03*
X394595Y212398D02*
D03*
X438689Y212398D02*
D03*
X438689Y210429D02*
D03*
X438689Y208461D02*
D03*
X438689Y206492D02*
D03*
X438689Y200587D02*
D03*
X438689Y192713D02*
D03*
X438689Y190744D02*
D03*
X438689Y188776D02*
D03*
X438689Y186807D02*
D03*
X438689Y184839D02*
D03*
X438689Y182870D02*
D03*
D31*
X216595Y180006D02*
D03*
X216595Y184505D02*
D03*
X222500Y180006D02*
D03*
X222500Y184505D02*
D03*
X216253Y150400D02*
D03*
X220146Y143300D02*
D03*
X310653Y181200D02*
D03*
X319753Y166500D02*
D03*
X304747Y181200D02*
D03*
X283553Y134100D02*
D03*
X277647Y134100D02*
D03*
X264547Y148400D02*
D03*
X270453Y148400D02*
D03*
X313847Y166500D02*
D03*
X397953Y235181D02*
D03*
X392047Y235181D02*
D03*
X399047Y108000D02*
D03*
X404953Y108000D02*
D03*
X61498Y163005D02*
D03*
X55593Y163005D02*
D03*
X61498Y153006D02*
D03*
X55593Y153006D02*
D03*
X198031Y104529D02*
D03*
X192126Y104529D02*
D03*
X310493Y222006D02*
D03*
X316398Y222006D02*
D03*
X310493Y217506D02*
D03*
X316398Y217506D02*
D03*
X453540Y187214D02*
D03*
X459446Y187214D02*
D03*
X453540Y191714D02*
D03*
X459446Y191714D02*
D03*
X541790Y218714D02*
D03*
X547695Y218714D02*
D03*
X547695Y166714D02*
D03*
X541790Y166714D02*
D03*
X61498Y158005D02*
D03*
X55593Y158005D02*
D03*
X205753Y143200D02*
D03*
X199847Y143200D02*
D03*
X55593Y168006D02*
D03*
X61498Y168006D02*
D03*
X55593Y148005D02*
D03*
X61498Y148005D02*
D03*
X276969Y111900D02*
D03*
X271063Y111900D02*
D03*
X276969Y122800D02*
D03*
X271063Y122800D02*
D03*
X264547Y156500D02*
D03*
X270453Y156500D02*
D03*
X198031Y98506D02*
D03*
X192126Y98506D02*
D03*
X226051Y143300D02*
D03*
X210347Y150400D02*
D03*
X306323Y135181D02*
D03*
X312228Y135181D02*
D03*
X210393Y156506D02*
D03*
X216298Y156506D02*
D03*
X220146Y138800D02*
D03*
X226051Y138800D02*
D03*
X185998Y141506D02*
D03*
X180093Y141506D02*
D03*
X226051Y134005D02*
D03*
X220146Y134005D02*
D03*
X185998Y136505D02*
D03*
X180093Y136505D02*
D03*
X199593Y136505D02*
D03*
X205498Y136505D02*
D03*
X222500Y175500D02*
D03*
X216595Y175500D02*
D03*
X216595Y193700D02*
D03*
X222500Y193700D02*
D03*
X349803Y98506D02*
D03*
X343898Y98506D02*
D03*
X349803Y104529D02*
D03*
X343898Y104529D02*
D03*
X454547Y102500D02*
D03*
X460453Y102500D02*
D03*
X505047Y105618D02*
D03*
X510953Y105618D02*
D03*
X436347Y134700D02*
D03*
X442253Y134700D02*
D03*
X518347Y134700D02*
D03*
X524253Y134700D02*
D03*
X505047Y97744D02*
D03*
X510953Y97744D02*
D03*
X444453Y101500D02*
D03*
X438547Y101500D02*
D03*
X432153Y134700D02*
D03*
X426247Y134700D02*
D03*
X514053Y134700D02*
D03*
X508147Y134700D02*
D03*
X289347Y177000D02*
D03*
X295253Y177000D02*
D03*
D32*
X231038Y173962D02*
D03*
X255053Y163726D02*
D03*
X231038Y171403D02*
D03*
X255053Y171403D02*
D03*
X255053Y156049D02*
D03*
X255053Y158608D02*
D03*
X255053Y161167D02*
D03*
X255053Y166285D02*
D03*
X255053Y168844D02*
D03*
X255053Y173962D02*
D03*
X231038Y156049D02*
D03*
X231038Y158608D02*
D03*
X231038Y161167D02*
D03*
X231038Y163726D02*
D03*
X231038Y166285D02*
D03*
X231038Y168844D02*
D03*
D33*
X348800Y186071D02*
D03*
X345060Y194929D02*
D03*
X352540Y194929D02*
D03*
X299400Y148429D02*
D03*
X303140Y139571D02*
D03*
X295660Y139571D02*
D03*
X299400Y132829D02*
D03*
X303140Y123971D02*
D03*
X295660Y123971D02*
D03*
D34*
X353215Y178525D02*
D03*
X353215Y167895D02*
D03*
D35*
X441400Y179098D02*
D03*
X444100Y179098D02*
D03*
D36*
X163700Y205160D02*
D03*
X163700Y212640D02*
D03*
X249046Y195265D02*
D03*
X249046Y202746D02*
D03*
X206046Y205265D02*
D03*
X206046Y212746D02*
D03*
X308400Y202260D02*
D03*
X308400Y209740D02*
D03*
X150300Y166921D02*
D03*
X150300Y159441D02*
D03*
X150200Y190321D02*
D03*
X150200Y182841D02*
D03*
X291100Y112840D02*
D03*
X291100Y105360D02*
D03*
X153046Y94965D02*
D03*
X153046Y102446D02*
D03*
X309046Y95465D02*
D03*
X309046Y102946D02*
D03*
X153046Y69246D02*
D03*
X153046Y61765D02*
D03*
X316246Y69346D02*
D03*
X316246Y61865D02*
D03*
D37*
X457700Y213146D02*
D03*
X457700Y206453D02*
D03*
D38*
X452654Y219900D02*
D03*
X459346Y219900D02*
D03*
D39*
X431405Y175587D02*
D03*
X429437Y175587D02*
D03*
X427468Y175587D02*
D03*
X425500Y175587D02*
D03*
X423531Y175587D02*
D03*
X421563Y175587D02*
D03*
X419594Y175587D02*
D03*
X417626Y175587D02*
D03*
X415658Y175587D02*
D03*
X413689Y175587D02*
D03*
X411721Y175587D02*
D03*
X409752Y175587D02*
D03*
X407784Y175587D02*
D03*
X405815Y175587D02*
D03*
X403847Y175587D02*
D03*
X401878Y175587D02*
D03*
X401878Y219681D02*
D03*
X403847Y219681D02*
D03*
X405815Y219681D02*
D03*
X407784Y219681D02*
D03*
X409752Y219681D02*
D03*
X411721Y219681D02*
D03*
X413689Y219681D02*
D03*
X415658Y219681D02*
D03*
X417626Y219681D02*
D03*
X419594Y219681D02*
D03*
X421563Y219681D02*
D03*
X423531Y219681D02*
D03*
X425500Y219681D02*
D03*
X427468Y219681D02*
D03*
X429437Y219681D02*
D03*
X431405Y219681D02*
D03*
D40*
X391855Y220623D02*
D03*
X385556Y220623D02*
D03*
X385556Y229284D02*
D03*
X391855Y229284D02*
D03*
D41*
X183858Y121024D02*
D03*
X187598Y121024D02*
D03*
X191339Y121024D02*
D03*
X191339Y111575D02*
D03*
X187598Y111575D02*
D03*
X183858Y111575D02*
D03*
X201969Y121024D02*
D03*
X205709Y121024D02*
D03*
X209449Y121024D02*
D03*
X209449Y111575D02*
D03*
X205709Y111575D02*
D03*
X201969Y111575D02*
D03*
X353740Y121024D02*
D03*
X357480Y121024D02*
D03*
X361221Y121024D02*
D03*
X361221Y111575D02*
D03*
X357480Y111575D02*
D03*
X353740Y111575D02*
D03*
X335630Y121024D02*
D03*
X339370Y121024D02*
D03*
X343110Y121024D02*
D03*
X343110Y111575D02*
D03*
X339370Y111575D02*
D03*
X335630Y111575D02*
D03*
X516760Y150406D02*
D03*
X520500Y150406D02*
D03*
X524240Y150406D02*
D03*
X524240Y140957D02*
D03*
X520500Y140957D02*
D03*
X516760Y140957D02*
D03*
X418760Y150406D02*
D03*
X422500Y150406D02*
D03*
X426240Y150406D02*
D03*
X426240Y140957D02*
D03*
X422500Y140957D02*
D03*
X418760Y140957D02*
D03*
X500760Y150406D02*
D03*
X504500Y150406D02*
D03*
X508240Y150406D02*
D03*
X508240Y140957D02*
D03*
X504500Y140957D02*
D03*
X500760Y140957D02*
D03*
X434760Y150406D02*
D03*
X438500Y150406D02*
D03*
X442240Y150406D02*
D03*
X442240Y140957D02*
D03*
X438500Y140957D02*
D03*
X434760Y140957D02*
D03*
D42*
X477983Y205714D02*
D03*
X477983Y200714D02*
D03*
X477983Y195714D02*
D03*
X477983Y190714D02*
D03*
X477983Y185714D02*
D03*
X477983Y180714D02*
D03*
X477983Y175714D02*
D03*
X477983Y170714D02*
D03*
X514203Y205714D02*
D03*
X514203Y200714D02*
D03*
X514203Y195714D02*
D03*
X514203Y190714D02*
D03*
X514203Y185714D02*
D03*
X514203Y180714D02*
D03*
X514203Y175714D02*
D03*
X514203Y170714D02*
D03*
D43*
X523518Y188474D02*
D03*
X523518Y192214D02*
D03*
X523518Y195954D02*
D03*
X532967Y195954D02*
D03*
X532967Y192214D02*
D03*
X532967Y188474D02*
D03*
X276121Y156546D02*
D03*
X276121Y152805D02*
D03*
X276121Y149065D02*
D03*
X285570Y149065D02*
D03*
X285570Y156546D02*
D03*
D44*
X321574Y159714D02*
D03*
X321574Y154714D02*
D03*
X321574Y149714D02*
D03*
X321574Y144714D02*
D03*
X340472Y159714D02*
D03*
X340472Y154714D02*
D03*
X340472Y149714D02*
D03*
X340472Y144714D02*
D03*
X194043Y202406D02*
D03*
X194043Y207405D02*
D03*
X194043Y212405D02*
D03*
X194043Y217406D02*
D03*
X175146Y202406D02*
D03*
X175146Y207405D02*
D03*
X175146Y212405D02*
D03*
X175146Y217406D02*
D03*
D45*
X99805Y57006D02*
D03*
X107286Y57006D02*
D03*
D46*
X143046Y90056D02*
D03*
X143046Y102955D02*
D03*
X299546Y91056D02*
D03*
X299546Y103955D02*
D03*
X142546Y73655D02*
D03*
X142546Y60755D02*
D03*
X308500Y73450D02*
D03*
X308500Y60550D02*
D03*
D47*
X309098Y141700D02*
D03*
D48*
X214071Y166400D02*
D03*
X222929Y170140D02*
D03*
X222929Y162660D02*
D03*
X266042Y173960D02*
D03*
X274900Y177700D02*
D03*
X274900Y170220D02*
D03*
D49*
X333593Y205588D02*
D03*
X329853Y214840D02*
D03*
X337333Y214840D02*
D03*
X357593Y205588D02*
D03*
X353853Y214840D02*
D03*
X361333Y214840D02*
D03*
X472000Y154374D02*
D03*
X468260Y163626D02*
D03*
X475740Y163626D02*
D03*
D50*
X213790Y104514D02*
D03*
X203160Y104514D02*
D03*
X213790Y98490D02*
D03*
X203160Y98490D02*
D03*
X365561Y98490D02*
D03*
X354931Y98490D02*
D03*
X365561Y104514D02*
D03*
X354931Y104514D02*
D03*
X526825Y104985D02*
D03*
X516195Y104985D02*
D03*
X462525Y107785D02*
D03*
X451895Y107785D02*
D03*
X446625Y96385D02*
D03*
X435995Y96385D02*
D03*
X526825Y98485D02*
D03*
X516195Y98485D02*
D03*
D51*
X289876Y204006D02*
D03*
D52*
X261215Y213502D02*
D03*
X261215Y195509D02*
D03*
D53*
X204947Y75214D02*
D03*
X204947Y80214D02*
D03*
X204947Y85214D02*
D03*
X204947Y90214D02*
D03*
X185656Y75214D02*
D03*
X185656Y80214D02*
D03*
X185656Y85214D02*
D03*
X185656Y90214D02*
D03*
X357191Y75214D02*
D03*
X357191Y80214D02*
D03*
X357191Y85214D02*
D03*
X357191Y90214D02*
D03*
X337900Y75214D02*
D03*
X337900Y80214D02*
D03*
X337900Y85214D02*
D03*
X337900Y90214D02*
D03*
X459500Y129244D02*
D03*
X459500Y124244D02*
D03*
X459500Y119244D02*
D03*
X459500Y114244D02*
D03*
X478791Y129244D02*
D03*
X478791Y124244D02*
D03*
X478791Y119244D02*
D03*
X478791Y114244D02*
D03*
X521146Y114244D02*
D03*
X521146Y119244D02*
D03*
X521146Y124244D02*
D03*
X521146Y129244D02*
D03*
X501854Y114244D02*
D03*
X501854Y119244D02*
D03*
X501854Y124244D02*
D03*
X501854Y129244D02*
D03*
X459500Y89244D02*
D03*
X459500Y84244D02*
D03*
X459500Y79244D02*
D03*
X459500Y74244D02*
D03*
X478791Y89244D02*
D03*
X478791Y84244D02*
D03*
X478791Y79244D02*
D03*
X478791Y74244D02*
D03*
X521146Y74244D02*
D03*
X521146Y79244D02*
D03*
X521146Y84244D02*
D03*
X521146Y89244D02*
D03*
X501854Y74244D02*
D03*
X501854Y79244D02*
D03*
X501854Y84244D02*
D03*
X501854Y89244D02*
D03*
X438646Y114244D02*
D03*
X438646Y119244D02*
D03*
X438646Y124244D02*
D03*
X438646Y129244D02*
D03*
X419354Y114244D02*
D03*
X419354Y119244D02*
D03*
X419354Y124244D02*
D03*
X419354Y129244D02*
D03*
X438646Y74244D02*
D03*
X438646Y79244D02*
D03*
X438646Y84244D02*
D03*
X438646Y89244D02*
D03*
X419354Y74244D02*
D03*
X419354Y79244D02*
D03*
X419354Y84244D02*
D03*
X419354Y89244D02*
D03*
D54*
X165144Y225084D02*
D03*
X165144Y234927D02*
D03*
X139947Y234927D02*
D03*
X139947Y225084D02*
D03*
M02*
