G04*
G04 #@! TF.GenerationSoftware,Altium Limited,Altium Designer,21.6.1 (37)*
G04*
G04 Layer_Color=16711935*
%FSLAX25Y25*%
%MOIN*%
G70*
G04*
G04 #@! TF.SameCoordinates,E8E7377F-12F3-41F2-B4DA-774CBFF52AF4*
G04*
G04*
G04 #@! TF.FilePolarity,Negative*
G04*
G01*
G75*
%ADD79C,0.04737*%
%ADD87C,0.06312*%
%ADD88C,0.06800*%
%ADD89C,0.07000*%
%ADD90C,0.08674*%
%ADD91C,0.04580*%
%ADD92R,0.04580X0.04580*%
%ADD93C,0.05524*%
%ADD94C,0.06706*%
%ADD95C,0.03950*%
%ADD96R,0.10800X0.10800*%
%ADD97C,0.10800*%
%ADD98O,0.03950X0.03241*%
%ADD99O,0.10642X0.04737*%
%ADD100O,0.07887X0.04737*%
%ADD101C,0.07887*%
%ADD102R,0.06706X0.06706*%
%ADD131R,0.26524X0.68000*%
D79*
X309098Y141700D02*
D03*
X417942Y234714D02*
D03*
X447942Y234714D02*
D03*
D87*
X320400Y176900D02*
D03*
X214546Y207006D02*
D03*
X310100Y193402D02*
D03*
X336200Y193402D02*
D03*
X293593Y227714D02*
D03*
X273593Y227714D02*
D03*
X196546Y196005D02*
D03*
X394000Y115581D02*
D03*
X169546Y95006D02*
D03*
X320746Y95006D02*
D03*
X187100Y128900D02*
D03*
X235000Y200200D02*
D03*
X81593Y56714D02*
D03*
X366000Y139181D02*
D03*
X200900Y128902D02*
D03*
X169546Y75805D02*
D03*
X320746Y77306D02*
D03*
X374900Y214200D02*
D03*
X352900Y128400D02*
D03*
X338600Y128500D02*
D03*
X362300Y192181D02*
D03*
X372800Y192000D02*
D03*
X489500Y106000D02*
D03*
X489500Y97000D02*
D03*
D88*
X159353Y177659D02*
D03*
X159353Y167659D02*
D03*
X159353Y157659D02*
D03*
X159353Y118289D02*
D03*
X159353Y128289D02*
D03*
X159353Y138289D02*
D03*
X159353Y148289D02*
D03*
D89*
X197817Y16210D02*
D03*
X187817Y16210D02*
D03*
X355298Y16210D02*
D03*
X345298Y16210D02*
D03*
X325613Y16210D02*
D03*
X335613Y16210D02*
D03*
X168132Y16210D02*
D03*
X178132Y16210D02*
D03*
X70046Y215005D02*
D03*
X70046Y195006D02*
D03*
X119546Y215005D02*
D03*
X119546Y195006D02*
D03*
D90*
X488093Y234714D02*
D03*
X551085Y148100D02*
D03*
X31400Y148100D02*
D03*
X94392Y234714D02*
D03*
D91*
X422942Y237214D02*
D03*
X427943Y237214D02*
D03*
X432942Y237214D02*
D03*
X437943Y237214D02*
D03*
X442942Y237214D02*
D03*
X442942Y232214D02*
D03*
X432942Y232214D02*
D03*
X427943Y232214D02*
D03*
D92*
X422942Y232214D02*
D03*
D93*
X327660Y58533D02*
D03*
X327660Y40817D02*
D03*
X353250Y40817D02*
D03*
X353250Y58533D02*
D03*
X485140Y139242D02*
D03*
X485140Y156958D02*
D03*
X459550Y156958D02*
D03*
X459550Y139242D02*
D03*
X170179Y58533D02*
D03*
X170179Y40817D02*
D03*
X195770Y40817D02*
D03*
X195770Y58533D02*
D03*
X330829Y230777D02*
D03*
X340672Y230777D02*
D03*
X350514Y230777D02*
D03*
X360357Y230777D02*
D03*
X222345Y230777D02*
D03*
X232187Y230777D02*
D03*
X242030Y230777D02*
D03*
D94*
X119904Y76809D02*
D03*
X108093Y76809D02*
D03*
X96282Y76809D02*
D03*
X119904Y88620D02*
D03*
X108093Y88620D02*
D03*
X96282Y88620D02*
D03*
X277404Y76809D02*
D03*
X265593Y76809D02*
D03*
X253782Y76809D02*
D03*
X277404Y88620D02*
D03*
X265593Y88620D02*
D03*
X253782Y88620D02*
D03*
X71046Y138005D02*
D03*
X71046Y148005D02*
D03*
X71046Y158005D02*
D03*
X71046Y168006D02*
D03*
D95*
X84471Y92321D02*
D03*
X131715Y92321D02*
D03*
X241971Y92321D02*
D03*
X289215Y92321D02*
D03*
D96*
X381200Y45900D02*
D03*
D97*
X401200Y45900D02*
D03*
X421200Y45900D02*
D03*
D98*
X541715Y180482D02*
D03*
X541715Y183828D02*
D03*
X541715Y187174D02*
D03*
X541715Y190522D02*
D03*
X541715Y193868D02*
D03*
X541715Y197214D02*
D03*
X541715Y200560D02*
D03*
X541715Y203907D02*
D03*
X547029Y203907D02*
D03*
X547029Y200560D02*
D03*
X547029Y197214D02*
D03*
X547029Y193868D02*
D03*
X547029Y190522D02*
D03*
X547029Y187174D02*
D03*
X547029Y183828D02*
D03*
X547029Y180482D02*
D03*
D99*
X545573Y175166D02*
D03*
X545573Y209223D02*
D03*
D100*
X558880Y209223D02*
D03*
X558880Y175166D02*
D03*
D101*
X300000Y53500D02*
D03*
X360000Y53500D02*
D03*
D102*
X71046Y128006D02*
D03*
D131*
X48807Y98005D02*
D03*
M02*
