G04*
G04 #@! TF.GenerationSoftware,Altium Limited,Altium Designer,21.6.1 (37)*
G04*
G04 Layer_Color=65535*
%FSLAX25Y25*%
%MOIN*%
G70*
G04*
G04 #@! TF.SameCoordinates,6932302D-1246-4337-B808-B0F653D0E11F*
G04*
G04*
G04 #@! TF.FilePolarity,Positive*
G04*
G01*
G75*
%ADD10C,0.02000*%
%ADD11C,0.01000*%
%ADD12C,0.00500*%
%ADD13C,0.00984*%
%ADD14C,0.01200*%
%ADD15C,0.00787*%
%ADD16C,0.00394*%
%ADD17R,0.21654X0.15748*%
D10*
X196806Y181024D02*
X196306Y181890D01*
X195306Y181890D01*
X194806Y181024D01*
X195306Y180158D01*
X196306Y180158D01*
X196806Y181024D01*
X156288Y181024D02*
X155788Y181890D01*
X154788Y181890D01*
X154288Y181024D01*
X154788Y180158D01*
X155788Y180158D01*
X156288Y181024D01*
D11*
X133886Y174813D02*
X134554Y175525D01*
X135030Y176378D01*
X135285Y177320D01*
X135304Y178296D01*
X135086Y179248D01*
X134644Y180119D01*
X134004Y180856D01*
X133205Y181417D01*
X132294Y181767D01*
X131325Y181886D01*
X136312Y181886D02*
X135340Y181772D01*
X134425Y181426D01*
X133621Y180868D01*
X132977Y180131D01*
X132531Y179260D01*
X132310Y178306D01*
X132327Y177328D01*
X132581Y176382D01*
X133057Y175527D01*
X133727Y174813D01*
X141325Y181886D02*
X140353Y181772D01*
X139437Y181426D01*
X138634Y180868D01*
X137989Y180131D01*
X137543Y179260D01*
X137322Y178306D01*
X137339Y177328D01*
X137593Y176382D01*
X138070Y175527D01*
X138739Y174813D01*
X138892Y174813D02*
X139560Y175525D01*
X140036Y176378D01*
X140291Y177320D01*
X140310Y178296D01*
X140092Y179248D01*
X139650Y180118D01*
X139011Y180856D01*
X138212Y181417D01*
X137300Y181767D01*
X136331Y181886D01*
X146319Y181886D02*
X145350Y181767D01*
X144439Y181417D01*
X143639Y180856D01*
X143000Y180118D01*
X142558Y179248D01*
X142340Y178296D01*
X142359Y177320D01*
X142614Y176378D01*
X143090Y175525D01*
X143758Y174813D01*
X143911Y174813D02*
X144580Y175527D01*
X145056Y176382D01*
X145311Y177328D01*
X145328Y178306D01*
X145107Y179260D01*
X144661Y180131D01*
X144017Y180868D01*
X143213Y181426D01*
X142297Y181772D01*
X141325Y181886D01*
X148923Y174813D02*
X149593Y175527D01*
X150069Y176382D01*
X150323Y177328D01*
X150340Y178306D01*
X150119Y179260D01*
X149673Y180131D01*
X149029Y180868D01*
X148225Y181426D01*
X147310Y181772D01*
X146337Y181886D01*
X151325Y181886D02*
X150356Y181767D01*
X149445Y181417D01*
X148645Y180856D01*
X148006Y180119D01*
X147564Y179248D01*
X147346Y178296D01*
X147365Y177320D01*
X147620Y176378D01*
X148096Y175525D01*
X148764Y174813D01*
X192325Y181886D02*
X191356Y181767D01*
X190445Y181417D01*
X189646Y180856D01*
X189006Y180119D01*
X188564Y179248D01*
X188346Y178296D01*
X188365Y177320D01*
X188620Y176378D01*
X189096Y175525D01*
X189764Y174813D01*
X189923Y174813D02*
X190593Y175527D01*
X191069Y176382D01*
X191323Y177328D01*
X191340Y178306D01*
X191119Y179260D01*
X190673Y180131D01*
X190029Y180868D01*
X189225Y181426D01*
X188310Y181772D01*
X187338Y181886D01*
X184911Y174813D02*
X185580Y175527D01*
X186056Y176382D01*
X186311Y177328D01*
X186328Y178306D01*
X186107Y179260D01*
X185661Y180131D01*
X185017Y180868D01*
X184213Y181426D01*
X183297Y181772D01*
X182325Y181886D01*
X187319Y181886D02*
X186350Y181767D01*
X185439Y181417D01*
X184639Y180856D01*
X184000Y180118D01*
X183558Y179248D01*
X183340Y178296D01*
X183359Y177320D01*
X183614Y176378D01*
X184090Y175525D01*
X184758Y174813D01*
X179892Y174813D02*
X180560Y175525D01*
X181036Y176378D01*
X181291Y177320D01*
X181310Y178296D01*
X181092Y179248D01*
X180650Y180118D01*
X180011Y180856D01*
X179211Y181417D01*
X178300Y181767D01*
X177331Y181886D01*
X182325Y181886D02*
X181353Y181772D01*
X180437Y181426D01*
X179633Y180868D01*
X178989Y180131D01*
X178543Y179260D01*
X178322Y178306D01*
X178339Y177328D01*
X178594Y176382D01*
X179070Y175527D01*
X179739Y174813D01*
X177313Y181886D02*
X176340Y181772D01*
X175425Y181426D01*
X174621Y180868D01*
X173977Y180131D01*
X173531Y179260D01*
X173310Y178306D01*
X173327Y177328D01*
X173581Y176382D01*
X174057Y175527D01*
X174727Y174813D01*
X174886Y174813D02*
X175554Y175525D01*
X176030Y176378D01*
X176285Y177320D01*
X176304Y178296D01*
X176086Y179248D01*
X175644Y180119D01*
X175004Y180856D01*
X174205Y181417D01*
X173294Y181767D01*
X172325Y181886D01*
X251706Y89124D02*
X251706Y156024D01*
X240306Y89124D02*
X251706Y89124D01*
X240306Y156024D02*
X251706Y156024D01*
X240306Y89124D02*
X240306Y156024D01*
X151806Y181886D02*
X151806Y190024D01*
X130806Y181886D02*
X130806Y190024D01*
X171806Y181886D02*
X171806Y190024D01*
X192806Y181886D02*
X192806Y190024D01*
X166806Y215764D02*
X166806Y224661D01*
X166806Y215764D02*
X167806Y214764D01*
X175806Y214764D01*
X176806Y215764D01*
X176806Y224764D01*
X196806Y215764D02*
X196806Y224764D01*
X195806Y214764D02*
X196806Y215764D01*
X187806Y214764D02*
X195806Y214764D01*
X186806Y215764D02*
X187806Y214764D01*
X186806Y215764D02*
X186806Y224661D01*
X146806Y215764D02*
X146806Y224661D01*
X146806Y215764D02*
X147806Y214764D01*
X155806Y214764D01*
X156806Y215764D01*
X156806Y224764D01*
X136806Y215764D02*
X136806Y224764D01*
X135806Y214764D02*
X136806Y215764D01*
X127806Y214764D02*
X135806Y214764D01*
X126806Y215764D02*
X127806Y214764D01*
X126806Y215764D02*
X126806Y224661D01*
X146806Y29386D02*
X146806Y38284D01*
X145806Y39283D02*
X146806Y38284D01*
X137806Y39283D02*
X145806Y39283D01*
X136806Y38284D02*
X137806Y39283D01*
X136806Y29283D02*
X136806Y38284D01*
X156806Y29283D02*
X156806Y38284D01*
X157806Y39283D01*
X165806Y39283D01*
X166806Y38284D01*
X166806Y29386D02*
X166806Y38284D01*
X176806Y29283D02*
X176806Y38284D01*
X177806Y39283D01*
X185806Y39283D01*
X186806Y38284D01*
X186806Y29386D02*
X186806Y38284D01*
X215506Y128222D02*
X216506Y129222D01*
X218505Y129222D01*
X219505Y128222D01*
X219505Y127222D01*
X218505Y126223D01*
X219505Y125223D01*
X219505Y124223D01*
X218505Y123224D01*
X216506Y123224D01*
X215506Y124223D01*
X215506Y125223D01*
X216506Y126223D01*
X215506Y127222D01*
X215506Y128222D01*
X216506Y126223D02*
X218505Y126223D01*
X221504Y123224D02*
X221504Y127222D01*
X223504Y129222D01*
X225503Y127222D01*
X225503Y123224D01*
X225503Y126223D01*
X221504Y126223D01*
X96506Y128122D02*
X97506Y129122D01*
X99505Y129122D01*
X100505Y128122D01*
X100505Y127122D01*
X99505Y126123D01*
X100505Y125123D01*
X100505Y124123D01*
X99505Y123124D01*
X97506Y123124D01*
X96506Y124123D01*
X96506Y125123D01*
X97506Y126123D01*
X96506Y127122D01*
X96506Y128122D01*
X97506Y126123D02*
X99505Y126123D01*
X102504Y123124D02*
X102504Y127122D01*
X104504Y129122D01*
X106503Y127122D01*
X106503Y123124D01*
X106503Y126123D01*
X102504Y126123D01*
X249206Y137524D02*
X249206Y139523D01*
X249206Y138523D01*
X243208Y138523D01*
X244208Y137524D01*
X249206Y142522D02*
X248207Y142522D01*
X248207Y143522D01*
X249206Y143522D01*
X249206Y142522D01*
X244208Y147520D02*
X243208Y148520D01*
X243208Y150519D01*
X244208Y151519D01*
X248207Y151519D01*
X249206Y150519D01*
X249206Y148520D01*
X248207Y147520D01*
X244208Y147520D01*
X243008Y94624D02*
X247007Y94624D01*
X249006Y96623D01*
X247007Y98622D01*
X243008Y98622D01*
X249006Y103621D02*
X249006Y101621D01*
X248007Y100622D01*
X246007Y100622D01*
X245008Y101621D01*
X245008Y103621D01*
X246007Y104620D01*
X247007Y104620D01*
X247007Y100622D01*
X245008Y106620D02*
X249006Y106620D01*
X247007Y106620D01*
X246007Y107619D01*
X245008Y108619D01*
X245008Y109619D01*
X249006Y112618D02*
X249006Y115617D01*
X248007Y116616D01*
X247007Y115617D01*
X247007Y113618D01*
X246007Y112618D01*
X245008Y113618D01*
X245008Y116616D01*
X249006Y118616D02*
X249006Y120615D01*
X249006Y119615D01*
X245008Y119615D01*
X245008Y118616D01*
X249006Y124614D02*
X249006Y126613D01*
X248007Y127613D01*
X246007Y127613D01*
X245008Y126613D01*
X245008Y124614D01*
X246007Y123614D01*
X248007Y123614D01*
X249006Y124614D01*
X249006Y129612D02*
X245008Y129612D01*
X245008Y132611D01*
X246007Y133611D01*
X249006Y133611D01*
X127373Y166213D02*
X129373Y166213D01*
X128373Y166213D01*
X128373Y172211D01*
X127373Y171211D01*
X136370Y166213D02*
X132372Y166213D01*
X136370Y170211D01*
X136370Y171211D01*
X135371Y172211D01*
X133371Y172211D01*
X132372Y171211D01*
X138370Y172211D02*
X138370Y168212D01*
X140369Y166213D01*
X142368Y168212D01*
X142368Y172211D01*
X145367Y170211D02*
X147367Y170211D01*
X148366Y169212D01*
X148366Y166213D01*
X145367Y166213D01*
X144368Y167212D01*
X145367Y168212D01*
X148366Y168212D01*
X154365Y170211D02*
X151365Y170211D01*
X150366Y169212D01*
X150366Y167212D01*
X151365Y166213D01*
X154365Y166213D01*
X170806Y166213D02*
X172806Y166213D01*
X171806Y166213D01*
X171806Y172211D01*
X170806Y171211D01*
X179803Y166213D02*
X175805Y166213D01*
X179803Y170211D01*
X179803Y171211D01*
X178804Y172211D01*
X176804Y172211D01*
X175805Y171211D01*
X181803Y172211D02*
X181803Y168212D01*
X183802Y166213D01*
X185801Y168212D01*
X185801Y172211D01*
X188801Y170211D02*
X190800Y170211D01*
X191799Y169212D01*
X191799Y166213D01*
X188801Y166213D01*
X187801Y167212D01*
X188801Y168212D01*
X191799Y168212D01*
X197798Y170211D02*
X194799Y170211D01*
X193799Y169212D01*
X193799Y167212D01*
X194799Y166213D01*
X197798Y166213D01*
X153558Y86224D02*
X153558Y82891D01*
X155224Y81225D01*
X156891Y82891D01*
X156891Y86224D01*
X158557Y81225D02*
X160223Y81225D01*
X159390Y81225D01*
X159390Y86224D01*
X158557Y85391D01*
X166054Y81225D02*
X162722Y81225D01*
X166054Y84557D01*
X166054Y85391D01*
X165221Y86224D01*
X163555Y86224D01*
X162722Y85391D01*
X133457Y86224D02*
X133457Y82891D01*
X135123Y81225D01*
X136789Y82891D01*
X136789Y86224D01*
X141787Y81225D02*
X138455Y81225D01*
X141787Y84557D01*
X141787Y85391D01*
X140954Y86224D01*
X139288Y86224D01*
X138455Y85391D01*
X145953Y81225D02*
X145953Y86224D01*
X143454Y83724D01*
X146786Y83724D01*
X172827Y86224D02*
X172827Y82891D01*
X174493Y81225D01*
X176159Y82891D01*
X176159Y86224D01*
X177825Y81225D02*
X177825Y84557D01*
X180324Y84557D01*
X181158Y83724D01*
X181158Y81225D01*
X182824Y81225D02*
X182824Y84557D01*
X185323Y84557D01*
X186156Y83724D01*
X186156Y81225D01*
D12*
X164956Y74626D02*
X164802Y75599D01*
X164354Y76477D01*
X163658Y77174D01*
X162780Y77621D01*
X161806Y77775D01*
X160833Y77621D01*
X159955Y77174D01*
X159258Y76477D01*
X158811Y75599D01*
X158657Y74626D01*
X158811Y73652D01*
X159258Y72774D01*
X159955Y72078D01*
X160833Y71630D01*
X161806Y71476D01*
X162780Y71630D01*
X163658Y72078D01*
X164354Y72774D01*
X164802Y73652D01*
X164956Y74626D01*
X144956Y74626D02*
X144802Y75599D01*
X144354Y76477D01*
X143658Y77174D01*
X142780Y77621D01*
X141806Y77775D01*
X140833Y77621D01*
X139955Y77174D01*
X139258Y76477D01*
X138811Y75599D01*
X138657Y74626D01*
X138811Y73652D01*
X139258Y72774D01*
X139955Y72078D01*
X140833Y71630D01*
X141806Y71476D01*
X142780Y71630D01*
X143658Y72078D01*
X144354Y72774D01*
X144802Y73652D01*
X144956Y74626D01*
X184956Y74626D02*
X184802Y75599D01*
X184354Y76477D01*
X183658Y77174D01*
X182780Y77621D01*
X181806Y77775D01*
X180833Y77621D01*
X179955Y77174D01*
X179258Y76477D01*
X178811Y75599D01*
X178657Y74626D01*
X178811Y73652D01*
X179258Y72774D01*
X179955Y72078D01*
X180833Y71630D01*
X181806Y71476D01*
X182780Y71630D01*
X183658Y72078D01*
X184354Y72774D01*
X184802Y73652D01*
X184956Y74626D01*
X114807Y205264D02*
X114807Y208263D01*
X116306Y208263D01*
X116806Y207764D01*
X116806Y206764D01*
X116306Y206264D01*
X114807Y206264D01*
X117806Y205264D02*
X118806Y205264D01*
X118306Y205264D01*
X118306Y208263D01*
X117806Y207764D01*
X123307Y46312D02*
X123307Y49310D01*
X124807Y49310D01*
X125306Y48811D01*
X125306Y47811D01*
X124807Y47311D01*
X123307Y47311D01*
X128305Y46312D02*
X126306Y46312D01*
X128305Y48311D01*
X128305Y48811D01*
X127806Y49310D01*
X126806Y49310D01*
X126306Y48811D01*
X205106Y127323D02*
X203107Y127323D01*
X203107Y125824D01*
X204107Y125824D01*
X203107Y125824D01*
X203107Y124324D01*
X206106Y124324D02*
X207106Y124324D01*
X206606Y124324D01*
X206606Y127323D01*
X206106Y126823D01*
X119006Y127323D02*
X117007Y127323D01*
X117007Y125824D01*
X118007Y125824D01*
X117007Y125824D01*
X117007Y124324D01*
X122005Y124324D02*
X120006Y124324D01*
X122005Y126323D01*
X122005Y126823D01*
X121506Y127323D01*
X120506Y127323D01*
X120006Y126823D01*
X143806Y126024D02*
X143806Y129023D01*
X145306Y129023D01*
X145806Y128523D01*
X145806Y127523D01*
X145306Y127023D01*
X143806Y127023D01*
X144806Y127023D02*
X145806Y126024D01*
X146805Y129023D02*
X146805Y127023D01*
X147805Y126024D01*
X148805Y127023D01*
X148805Y129023D01*
X149804Y126024D02*
X150804Y126024D01*
X150304Y126024D01*
X150304Y129023D01*
X149804Y128523D01*
X154806Y94023D02*
X156806Y94023D01*
X156806Y93523D01*
X154806Y91523D01*
X154806Y91024D01*
X156806Y91024D01*
X157805Y91024D02*
X158805Y91024D01*
X158305Y91024D01*
X158305Y94023D01*
X157805Y93523D01*
X165806Y163023D02*
X167806Y163023D01*
X167806Y162523D01*
X165806Y160523D01*
X165806Y160024D01*
X167806Y160024D01*
X170805Y160024D02*
X168805Y160024D01*
X170805Y162023D01*
X170805Y162523D01*
X170305Y163023D01*
X169305Y163023D01*
X168805Y162523D01*
X187806Y122523D02*
X187806Y124523D01*
X187306Y125023D01*
X186306Y125023D01*
X185806Y124523D01*
X185806Y122523D01*
X186306Y122024D01*
X187306Y122024D01*
X186806Y123023D02*
X187806Y122024D01*
X187306Y122024D02*
X187806Y122523D01*
X188805Y122024D02*
X189805Y122024D01*
X189305Y122024D01*
X189305Y125023D01*
X188805Y124523D01*
X134806Y122523D02*
X134806Y124523D01*
X134306Y125023D01*
X133306Y125023D01*
X132806Y124523D01*
X132806Y122523D01*
X133306Y122024D01*
X134306Y122024D01*
X133806Y123023D02*
X134806Y122024D01*
X134306Y122024D02*
X134806Y122523D01*
X137805Y122024D02*
X135805Y122024D01*
X137805Y124023D01*
X137805Y124523D01*
X137305Y125023D01*
X136305Y125023D01*
X135805Y124523D01*
X187806Y129524D02*
X187806Y131523D01*
X187306Y132023D01*
X186306Y132023D01*
X185806Y131523D01*
X185806Y129524D01*
X186306Y129024D01*
X187306Y129024D01*
X186806Y130023D02*
X187806Y129024D01*
X187306Y129024D02*
X187806Y129524D01*
X188805Y131523D02*
X189305Y132023D01*
X190305Y132023D01*
X190805Y131523D01*
X190805Y131023D01*
X190305Y130523D01*
X189805Y130523D01*
X190305Y130523D01*
X190805Y130023D01*
X190805Y129524D01*
X190305Y129024D01*
X189305Y129024D01*
X188805Y129524D01*
X134806Y129524D02*
X134806Y131523D01*
X134306Y132023D01*
X133306Y132023D01*
X132806Y131523D01*
X132806Y129524D01*
X133306Y129024D01*
X134306Y129024D01*
X133806Y130023D02*
X134806Y129024D01*
X134306Y129024D02*
X134806Y129524D01*
X137305Y129024D02*
X137305Y132023D01*
X135805Y130523D01*
X137805Y130523D01*
X154806Y133024D02*
X154806Y136023D01*
X156306Y136023D01*
X156806Y135523D01*
X156806Y134523D01*
X156306Y134023D01*
X154806Y134023D01*
X155806Y134023D02*
X156806Y133024D01*
X159305Y133024D02*
X159305Y136023D01*
X157805Y134523D01*
X159805Y134523D01*
X164806Y133024D02*
X164806Y136023D01*
X166306Y136023D01*
X166806Y135523D01*
X166806Y134523D01*
X166306Y134023D01*
X164806Y134023D01*
X165806Y134023D02*
X166806Y133024D01*
X167805Y135523D02*
X168305Y136023D01*
X169305Y136023D01*
X169805Y135523D01*
X169805Y135023D01*
X169305Y134523D01*
X168805Y134523D01*
X169305Y134523D01*
X169805Y134023D01*
X169805Y133523D01*
X169305Y133024D01*
X168305Y133024D01*
X167805Y133523D01*
X153806Y118024D02*
X153806Y121023D01*
X155306Y121023D01*
X155806Y120523D01*
X155806Y119523D01*
X155306Y119023D01*
X153806Y119023D01*
X154806Y119023D02*
X155806Y118024D01*
X158805Y118024D02*
X156805Y118024D01*
X158805Y120023D01*
X158805Y120523D01*
X158305Y121023D01*
X157305Y121023D01*
X156805Y120523D01*
X164806Y118024D02*
X164806Y121023D01*
X166306Y121023D01*
X166806Y120523D01*
X166806Y119523D01*
X166306Y119023D01*
X164806Y119023D01*
X165806Y119023D02*
X166806Y118024D01*
X167805Y118024D02*
X168805Y118024D01*
X168305Y118024D01*
X168305Y121023D01*
X167805Y120523D01*
D13*
X169298Y103624D02*
X168560Y104050D01*
X168560Y103197D01*
X169298Y103624D01*
X155298Y150424D02*
X154560Y150850D01*
X154560Y149997D01*
X155298Y150424D01*
X173755Y95378D02*
X173017Y95804D01*
X173017Y94952D01*
X173755Y95378D01*
X176798Y102530D02*
X176060Y102956D01*
X176060Y102104D01*
X176798Y102530D01*
X128755Y95378D02*
X128017Y95804D01*
X128017Y94952D01*
X128755Y95378D01*
X131798Y102530D02*
X131060Y102956D01*
X131060Y102104D01*
X131798Y102530D01*
X195842Y158669D02*
X195104Y159096D01*
X195104Y158243D01*
X195842Y158669D01*
X192798Y151517D02*
X192060Y151944D01*
X192060Y151091D01*
X192798Y151517D01*
X150842Y158669D02*
X150103Y159096D01*
X150103Y158243D01*
X150842Y158669D01*
X147798Y151517D02*
X147060Y151944D01*
X147060Y151091D01*
X147798Y151517D01*
D14*
X161806Y224661D02*
X201806Y224661D01*
X201806Y184504D02*
X201806Y224661D01*
X161806Y184504D02*
X201806Y184504D01*
X161806Y185504D02*
X201806Y185504D01*
X121806Y185504D02*
X161806Y185504D01*
X121806Y184504D02*
X161806Y184504D01*
X121806Y224661D02*
X161806Y224661D01*
X121806Y184504D02*
X121806Y224661D01*
X131806Y68543D02*
X171806Y68543D01*
X131806Y69543D02*
X171806Y69543D01*
X131806Y29386D02*
X131806Y69543D01*
X131806Y29386D02*
X171806Y29386D01*
X191806Y29386D01*
X171806Y69543D02*
X191806Y69543D01*
X171806Y68543D02*
X191806Y68543D01*
X191806Y29386D02*
X191806Y69543D01*
D15*
X209204Y172889D02*
X217204Y172889D01*
X209204Y80889D02*
X217204Y80889D01*
X209204Y80889D02*
X209204Y172889D01*
X226306Y173024D02*
X234306Y173024D01*
X226306Y81024D02*
X234306Y81024D01*
X234306Y173024D02*
X234306Y81024D01*
X210783Y166394D02*
X232436Y166394D01*
X210783Y87653D02*
X210783Y166394D01*
X210783Y87653D02*
X232436Y87653D01*
X232436Y166394D01*
X112436Y87653D02*
X112436Y166394D01*
X90783Y87653D02*
X112436Y87653D01*
X90783Y87653D02*
X90783Y166394D01*
X112436Y166394D01*
X114306Y173024D02*
X114306Y81024D01*
X106306Y81024D02*
X114306Y81024D01*
X106306Y173024D02*
X114306Y173024D01*
X89204Y80889D02*
X89204Y172889D01*
X89204Y80889D02*
X97204Y80889D01*
X89204Y172889D02*
X97204Y172889D01*
X170861Y122693D02*
X170861Y131354D01*
X152751Y122693D02*
X152751Y131354D01*
X164562Y122693D02*
X170861Y122693D01*
X152751Y122693D02*
X159050Y122693D01*
X164562Y131354D02*
X170861Y131354D01*
X152751Y131354D02*
X159050Y131354D01*
X155901Y96268D02*
X159050Y96268D01*
X155901Y96268D02*
X155901Y99417D01*
X164562Y96268D02*
X167712Y96268D01*
X167712Y99417D01*
X164562Y157780D02*
X167712Y157780D01*
X167712Y154630D02*
X167712Y157780D01*
X155901Y157780D02*
X159050Y157780D01*
X155901Y154630D02*
X155901Y157780D01*
X174464Y101874D02*
X194149Y101874D01*
X174464Y108173D02*
X194149Y108173D01*
X174464Y101874D02*
X174464Y108173D01*
X194149Y101874D02*
X194149Y108173D01*
X129464Y101874D02*
X149149Y101874D01*
X129464Y108173D02*
X149149Y108173D01*
X129464Y101874D02*
X129464Y108173D01*
X149149Y101874D02*
X149149Y108173D01*
X174464Y152173D02*
X194149Y152173D01*
X174464Y145874D02*
X194149Y145874D01*
X194149Y152173D01*
X174464Y145874D02*
X174464Y152173D01*
X129464Y152173D02*
X149149Y152173D01*
X129464Y145874D02*
X149149Y145874D01*
X149149Y152173D01*
X129464Y145874D02*
X129464Y152173D01*
D16*
X158184Y140736D02*
X158184Y142311D01*
X155428Y140736D02*
X155428Y142311D01*
X168184Y140736D02*
X168184Y142311D01*
X165428Y140736D02*
X165428Y142311D01*
X158184Y111736D02*
X158184Y113311D01*
X155428Y111736D02*
X155428Y113311D01*
X168184Y111736D02*
X168184Y113311D01*
X165428Y111736D02*
X165428Y113311D01*
D17*
X221610Y158520D02*
D03*
X221610Y95535D02*
D03*
X101608Y95524D02*
D03*
X101610Y158520D02*
D03*
M02*
