G04*
G04 #@! TF.GenerationSoftware,Altium Limited,Altium Designer,21.6.1 (37)*
G04*
G04 Layer_Physical_Order=2*
G04 Layer_Color=16711680*
%FSLAX25Y25*%
%MOIN*%
G70*
G04*
G04 #@! TF.SameCoordinates,6932302D-1246-4337-B808-B0F653D0E11F*
G04*
G04*
G04 #@! TF.FilePolarity,Positive*
G04*
G01*
G75*
%ADD31O,0.12000X0.08000*%
%ADD33C,0.15748*%
%ADD39C,0.11417*%
%ADD40C,0.10000*%
%ADD41R,0.10000X0.10000*%
%ADD42C,0.04724*%
%ADD43C,0.03150*%
%ADD44C,0.19685*%
G36*
X259212Y215176D02*
X259212Y38871D01*
X249959Y29618D01*
X73654Y29618D01*
X64401Y38871D01*
X64401Y215176D01*
X73654Y224429D01*
X249959Y224429D01*
X259212Y215176D01*
X259212Y215176D02*
G37*
%LPC*%
G36*
X197306Y211264D02*
X186306Y211264D01*
X186306Y200264D01*
X197306Y200264D01*
X197306Y211264D01*
X197306Y211264D02*
G37*
G36*
X132530Y211264D02*
X131082Y211264D01*
X129683Y210889D01*
X128429Y210165D01*
X127405Y209141D01*
X126681Y207887D01*
X126306Y206488D01*
X126306Y205040D01*
X126681Y203641D01*
X127405Y202387D01*
X128429Y201363D01*
X129683Y200639D01*
X131082Y200264D01*
X132530Y200264D01*
X133929Y200639D01*
X135183Y201363D01*
X136207Y202387D01*
X136932Y203641D01*
X137306Y205040D01*
X137306Y206488D01*
X136932Y207887D01*
X136207Y209141D01*
X135183Y210165D01*
X133929Y210889D01*
X132530Y211264D01*
X132530Y211264D02*
G37*
G36*
X240546Y221470D02*
X238089Y221276D01*
X235693Y220701D01*
X233416Y219758D01*
X231315Y218470D01*
X229441Y216869D01*
X227840Y214996D01*
X226552Y212894D01*
X225609Y210617D01*
X225034Y208221D01*
X224840Y205764D01*
X225034Y203307D01*
X225609Y200910D01*
X226552Y198633D01*
X227840Y196532D01*
X229441Y194658D01*
X231315Y193057D01*
X233416Y191770D01*
X235693Y190827D01*
X238089Y190251D01*
X240546Y190058D01*
X243003Y190251D01*
X245400Y190827D01*
X247677Y191770D01*
X249778Y193057D01*
X251652Y194658D01*
X253253Y196532D01*
X254540Y198633D01*
X255484Y200910D01*
X256059Y203307D01*
X256252Y205764D01*
X256059Y208221D01*
X255484Y210617D01*
X254540Y212894D01*
X253253Y214996D01*
X251652Y216869D01*
X249778Y218470D01*
X247677Y219758D01*
X245400Y220701D01*
X243003Y221276D01*
X240546Y221470D01*
X240546Y221470D02*
G37*
G36*
X83066Y221470D02*
X80609Y221276D01*
X78213Y220701D01*
X75936Y219758D01*
X73834Y218470D01*
X71960Y216869D01*
X70360Y214996D01*
X69072Y212894D01*
X68129Y210617D01*
X67554Y208221D01*
X67360Y205764D01*
X67554Y203307D01*
X68129Y200910D01*
X69072Y198633D01*
X70360Y196532D01*
X71960Y194658D01*
X73834Y193057D01*
X75936Y191770D01*
X78213Y190827D01*
X80609Y190251D01*
X83066Y190058D01*
X85523Y190251D01*
X87919Y190827D01*
X90197Y191770D01*
X92298Y193057D01*
X94172Y194658D01*
X95772Y196532D01*
X97060Y198633D01*
X98003Y200910D01*
X98579Y203307D01*
X98772Y205764D01*
X98579Y208221D01*
X98003Y210617D01*
X97060Y212894D01*
X95772Y214996D01*
X94172Y216869D01*
X92298Y218470D01*
X90197Y219758D01*
X87919Y220701D01*
X85523Y221276D01*
X83066Y221470D01*
X83066Y221470D02*
G37*
G36*
X223806Y176562D02*
X219806Y176562D01*
X218632Y176408D01*
X217537Y175954D01*
X216597Y175233D01*
X215876Y174293D01*
X215422Y173198D01*
X215267Y172024D01*
X215422Y170849D01*
X215876Y169754D01*
X216597Y168814D01*
X217537Y168093D01*
X218632Y167640D01*
X219806Y167485D01*
X223806Y167485D01*
X224981Y167640D01*
X226076Y168093D01*
X227016Y168814D01*
X227737Y169754D01*
X228190Y170849D01*
X228345Y172024D01*
X228190Y173198D01*
X227737Y174293D01*
X227016Y175233D01*
X226076Y175954D01*
X224981Y176408D01*
X223806Y176562D01*
X223806Y176562D02*
G37*
G36*
X103806Y176562D02*
X99806Y176562D01*
X98632Y176408D01*
X97537Y175954D01*
X96597Y175233D01*
X95876Y174293D01*
X95422Y173198D01*
X95267Y172024D01*
X95422Y170849D01*
X95876Y169754D01*
X96597Y168814D01*
X97537Y168093D01*
X98632Y167640D01*
X99806Y167485D01*
X103806Y167485D01*
X104981Y167640D01*
X106076Y168093D01*
X107016Y168814D01*
X107737Y169754D01*
X108191Y170849D01*
X108345Y172024D01*
X108191Y173198D01*
X107737Y174293D01*
X107016Y175233D01*
X106076Y175954D01*
X104981Y176408D01*
X103806Y176562D01*
X103806Y176562D02*
G37*
G36*
X223806Y150062D02*
X219806Y150062D01*
X218632Y149908D01*
X217537Y149454D01*
X216597Y148733D01*
X215876Y147793D01*
X215422Y146698D01*
X215267Y145524D01*
X215422Y144349D01*
X215876Y143254D01*
X216597Y142314D01*
X217537Y141593D01*
X218632Y141139D01*
X219806Y140985D01*
X223806Y140985D01*
X224981Y141139D01*
X226076Y141593D01*
X227016Y142314D01*
X227737Y143254D01*
X228190Y144349D01*
X228345Y145524D01*
X228190Y146698D01*
X227737Y147793D01*
X227016Y148733D01*
X226076Y149454D01*
X224981Y149908D01*
X223806Y150062D01*
X223806Y150062D02*
G37*
G36*
X103806Y150062D02*
X99806Y150062D01*
X98632Y149908D01*
X97537Y149454D01*
X96597Y148733D01*
X95876Y147793D01*
X95422Y146698D01*
X95267Y145524D01*
X95422Y144349D01*
X95876Y143254D01*
X96597Y142314D01*
X97537Y141593D01*
X98632Y141139D01*
X99806Y140985D01*
X103806Y140985D01*
X104981Y141139D01*
X106076Y141593D01*
X107016Y142314D01*
X107737Y143254D01*
X108191Y144349D01*
X108345Y145524D01*
X108191Y146698D01*
X107737Y147793D01*
X107016Y148733D01*
X106076Y149454D01*
X104981Y149908D01*
X103806Y150062D01*
X103806Y150062D02*
G37*
G36*
X223806Y113062D02*
X219806Y113062D01*
X218632Y112908D01*
X217537Y112454D01*
X216597Y111733D01*
X215876Y110793D01*
X215422Y109698D01*
X215267Y108524D01*
X215422Y107349D01*
X215876Y106254D01*
X216597Y105314D01*
X217537Y104593D01*
X218632Y104139D01*
X219806Y103985D01*
X223806Y103985D01*
X224981Y104139D01*
X226076Y104593D01*
X227016Y105314D01*
X227737Y106254D01*
X228190Y107349D01*
X228345Y108524D01*
X228190Y109698D01*
X227737Y110793D01*
X227016Y111733D01*
X226076Y112454D01*
X224981Y112908D01*
X223806Y113062D01*
X223806Y113062D02*
G37*
G36*
X103806Y113062D02*
X99806Y113062D01*
X98632Y112908D01*
X97537Y112454D01*
X96597Y111733D01*
X95876Y110793D01*
X95422Y109698D01*
X95267Y108524D01*
X95422Y107349D01*
X95876Y106254D01*
X96597Y105314D01*
X97537Y104593D01*
X98632Y104139D01*
X99806Y103985D01*
X103806Y103985D01*
X104981Y104139D01*
X106076Y104593D01*
X107016Y105314D01*
X107737Y106254D01*
X108191Y107349D01*
X108345Y108524D01*
X108191Y109698D01*
X107737Y110793D01*
X107016Y111733D01*
X106076Y112454D01*
X104981Y112908D01*
X103806Y113062D01*
X103806Y113062D02*
G37*
G36*
X223806Y86563D02*
X219806Y86563D01*
X218632Y86408D01*
X217537Y85954D01*
X216597Y85233D01*
X215876Y84293D01*
X215422Y83198D01*
X215267Y82024D01*
X215422Y80849D01*
X215876Y79754D01*
X216597Y78814D01*
X217537Y78093D01*
X218632Y77639D01*
X219806Y77485D01*
X223806Y77485D01*
X224981Y77639D01*
X226076Y78093D01*
X227016Y78814D01*
X227737Y79754D01*
X228190Y80849D01*
X228345Y82024D01*
X228190Y83198D01*
X227737Y84293D01*
X227016Y85233D01*
X226076Y85954D01*
X224981Y86408D01*
X223806Y86563D01*
X223806Y86563D02*
G37*
G36*
X103806Y86563D02*
X99806Y86563D01*
X98632Y86408D01*
X97537Y85954D01*
X96597Y85233D01*
X95876Y84293D01*
X95422Y83198D01*
X95267Y82024D01*
X95422Y80849D01*
X95876Y79754D01*
X96597Y78814D01*
X97537Y78093D01*
X98632Y77639D01*
X99806Y77485D01*
X103806Y77485D01*
X104981Y77639D01*
X106076Y78093D01*
X107016Y78814D01*
X107737Y79754D01*
X108191Y80849D01*
X108345Y82024D01*
X108191Y83198D01*
X107737Y84293D01*
X107016Y85233D01*
X106076Y85954D01*
X104981Y86408D01*
X103806Y86563D01*
X103806Y86563D02*
G37*
G36*
X182306Y77973D02*
X182306Y75126D01*
X185153Y75126D01*
X184939Y75923D01*
X184497Y76690D01*
X183871Y77316D01*
X183104Y77759D01*
X182306Y77973D01*
X182306Y77973D02*
G37*
G36*
X181306Y77973D02*
X180508Y77759D01*
X179742Y77316D01*
X179116Y76690D01*
X178673Y75923D01*
X178460Y75126D01*
X181306Y75126D01*
X181306Y77973D01*
X181306Y77973D02*
G37*
G36*
X142183Y77488D02*
X141429Y77488D01*
X140701Y77293D01*
X140049Y76916D01*
X139516Y76383D01*
X139139Y75730D01*
X138944Y75002D01*
X138944Y74249D01*
X139139Y73521D01*
X139516Y72868D01*
X140049Y72335D01*
X140701Y71959D01*
X141429Y71763D01*
X142183Y71763D01*
X142911Y71959D01*
X143564Y72335D01*
X144097Y72868D01*
X144473Y73521D01*
X144668Y74249D01*
X144668Y75002D01*
X144473Y75730D01*
X144097Y76383D01*
X143564Y76916D01*
X142911Y77293D01*
X142183Y77488D01*
X142183Y77488D02*
G37*
G36*
X181306Y74126D02*
X178460Y74126D01*
X178673Y73328D01*
X179116Y72561D01*
X179742Y71935D01*
X180508Y71493D01*
X181306Y71279D01*
X181306Y74126D01*
X181306Y74126D02*
G37*
G36*
X185153Y74126D02*
X182306Y74126D01*
X182306Y71279D01*
X183104Y71493D01*
X183871Y71935D01*
X184497Y72561D01*
X184939Y73328D01*
X185153Y74126D01*
X185153Y74126D02*
G37*
G36*
X182397Y54283D02*
X182306Y54283D01*
X182306Y48783D01*
X187806Y48783D01*
X187806Y48874D01*
X187576Y50034D01*
X187123Y51126D01*
X186467Y52108D01*
X185631Y52944D01*
X184648Y53601D01*
X183556Y54053D01*
X182397Y54283D01*
X182397Y54283D02*
G37*
G36*
X181306Y54283D02*
X181215Y54283D01*
X180056Y54053D01*
X178964Y53601D01*
X177981Y52944D01*
X177146Y52108D01*
X176489Y51126D01*
X176037Y50034D01*
X175806Y48874D01*
X175806Y48783D01*
X181306Y48783D01*
X181306Y54283D01*
X181306Y54283D02*
G37*
G36*
X147306Y53784D02*
X136306Y53784D01*
X136306Y42783D01*
X147306Y42783D01*
X147306Y53784D01*
X147306Y53784D02*
G37*
G36*
X187806Y47783D02*
X182306Y47783D01*
X182306Y42283D01*
X182397Y42283D01*
X183556Y42514D01*
X184648Y42966D01*
X185631Y43623D01*
X186467Y44459D01*
X187123Y45441D01*
X187576Y46533D01*
X187806Y47692D01*
X187806Y47783D01*
X187806Y47783D02*
G37*
G36*
X181306Y47783D02*
X175806Y47783D01*
X175806Y47692D01*
X176037Y46533D01*
X176489Y45441D01*
X177146Y44459D01*
X177981Y43623D01*
X178964Y42966D01*
X180056Y42514D01*
X181215Y42283D01*
X181306Y42283D01*
X181306Y47783D01*
X181306Y47783D02*
G37*
G36*
X171806Y214178D02*
X151806Y214178D01*
X150165Y214017D01*
X148586Y213538D01*
X147131Y212760D01*
X145856Y211714D01*
X144810Y210439D01*
X144032Y208984D01*
X143553Y207405D01*
X143392Y205764D01*
X143553Y204122D01*
X144032Y202544D01*
X144810Y201089D01*
X145856Y199814D01*
X147131Y198767D01*
X148586Y197990D01*
X150165Y197511D01*
X151432Y197386D01*
X151432Y48283D01*
X151559Y46661D01*
X151940Y45078D01*
X152562Y43573D01*
X153413Y42186D01*
X154470Y40948D01*
X155708Y39890D01*
X157096Y39040D01*
X158600Y38417D01*
X160183Y38037D01*
X161806Y37909D01*
X163429Y38037D01*
X165012Y38417D01*
X166516Y39040D01*
X167904Y39890D01*
X169142Y40948D01*
X170199Y42186D01*
X171050Y43573D01*
X171673Y45078D01*
X172053Y46661D01*
X172181Y48283D01*
X172181Y197386D01*
X173448Y197511D01*
X175026Y197990D01*
X176481Y198767D01*
X177756Y199814D01*
X178803Y201089D01*
X179580Y202544D01*
X180059Y204122D01*
X180221Y205764D01*
X180059Y207405D01*
X179580Y208984D01*
X178803Y210439D01*
X177756Y211714D01*
X176481Y212760D01*
X175026Y213538D01*
X173448Y214017D01*
X171806Y214178D01*
X171806Y214178D02*
G37*
G36*
X240546Y63989D02*
X238089Y63796D01*
X235693Y63221D01*
X233416Y62278D01*
X231315Y60990D01*
X229441Y59389D01*
X227840Y57515D01*
X226552Y55414D01*
X225609Y53137D01*
X225034Y50740D01*
X224840Y48283D01*
X225034Y45827D01*
X225609Y43430D01*
X226552Y41153D01*
X227840Y39052D01*
X229441Y37178D01*
X231315Y35577D01*
X233416Y34289D01*
X235693Y33346D01*
X238089Y32771D01*
X240546Y32578D01*
X243003Y32771D01*
X245400Y33346D01*
X247677Y34289D01*
X249778Y35577D01*
X251652Y37178D01*
X253253Y39052D01*
X254540Y41153D01*
X255484Y43430D01*
X256059Y45827D01*
X256252Y48283D01*
X256059Y50740D01*
X255484Y53137D01*
X254540Y55414D01*
X253253Y57515D01*
X251652Y59389D01*
X249778Y60990D01*
X247677Y62278D01*
X245400Y63221D01*
X243003Y63796D01*
X240546Y63989D01*
X240546Y63989D02*
G37*
G36*
X83066Y63989D02*
X80609Y63796D01*
X78213Y63221D01*
X75936Y62278D01*
X73834Y60990D01*
X71960Y59389D01*
X70360Y57515D01*
X69072Y55414D01*
X68129Y53137D01*
X67554Y50740D01*
X67360Y48283D01*
X67554Y45827D01*
X68129Y43430D01*
X69072Y41153D01*
X70360Y39052D01*
X71960Y37178D01*
X73834Y35577D01*
X75936Y34289D01*
X78213Y33346D01*
X80609Y32771D01*
X83066Y32578D01*
X85523Y32771D01*
X87919Y33346D01*
X90197Y34289D01*
X92298Y35577D01*
X94172Y37178D01*
X95772Y39052D01*
X97060Y41153D01*
X98003Y43430D01*
X98579Y45827D01*
X98772Y48283D01*
X98579Y50740D01*
X98003Y53137D01*
X97060Y55414D01*
X95772Y57515D01*
X94172Y59389D01*
X92298Y60990D01*
X90197Y62278D01*
X87919Y63221D01*
X85523Y63796D01*
X83066Y63989D01*
X83066Y63989D02*
G37*
%LPD*%
D31*
X221806Y108524D02*
D03*
X221806Y82024D02*
D03*
X221806Y145524D02*
D03*
X221806Y172024D02*
D03*
X101806Y172024D02*
D03*
X101806Y145524D02*
D03*
X101806Y82024D02*
D03*
X101806Y108524D02*
D03*
D33*
X161806Y205764D02*
X171806Y205764D01*
X151806Y205764D02*
X161806Y205764D01*
X182546Y49024D02*
X193711Y49024D01*
D39*
X240546Y48283D02*
D03*
X83066Y48283D02*
D03*
X83066Y205764D02*
D03*
X240546Y205764D02*
D03*
D40*
X171806Y205764D02*
D03*
X151806Y205764D02*
D03*
X131806Y205764D02*
D03*
X161806Y48283D02*
D03*
X181806Y48283D02*
D03*
D41*
X191806Y205764D02*
D03*
X141806Y48283D02*
D03*
D42*
X161806Y74626D02*
D03*
X141806Y74626D02*
D03*
X181806Y74626D02*
D03*
D43*
X198161Y147169D02*
D03*
X201704Y147169D02*
D03*
X198161Y155169D02*
D03*
X198161Y151169D02*
D03*
X201704Y151169D02*
D03*
X201704Y155169D02*
D03*
X125452Y147169D02*
D03*
X121909Y147169D02*
D03*
X125452Y155169D02*
D03*
X125452Y151169D02*
D03*
X121909Y151169D02*
D03*
X121909Y155169D02*
D03*
D44*
X161806Y48283D02*
X161806Y200124D01*
M02*
