M48
;Layer_Color=9474304
;FILE_FORMAT=2:5
INCH
;TYPE=PLATED
T1F00S00C0.01968
T2F00S00C0.02756
T4F00S00C0.05906
;TYPE=NON_PLATED
T5F00S00C0.12008
%
T01
X0121909Y0147169
X0125452
Y0151169
X0121909
Y0155169
X0125452
X0198161
X0201704
Y0151169
X0198161
Y0147169
X0201704
T02
X0141806Y0074626
X0161806
X0181806
T04
X0141806Y0048283
X0161806
X0181806
X0171806Y0205764
X0191806
X0151806
X0131806
T05
X0083066Y0048283
X0240546
Y0205764
X0083066
M30
