G04*
G04 #@! TF.GenerationSoftware,Altium Limited,Altium Designer,21.6.1 (37)*
G04*
G04 Layer_Color=255*
%FSLAX25Y25*%
%MOIN*%
G70*
G04*
G04 #@! TF.SameCoordinates,6932302D-1246-4337-B808-B0F653D0E11F*
G04*
G04*
G04 #@! TF.FilePolarity,Positive*
G04*
G01*
G75*
%ADD18R,0.04016X0.06496*%
%ADD19R,0.02362X0.05709*%
%ADD20O,0.02756X0.09843*%
%ADD21R,0.03543X0.02756*%
%ADD31O,0.12000X0.08000*%
%ADD39C,0.11417*%
%ADD40C,0.10000*%
%ADD41R,0.10000X0.10000*%
%ADD42C,0.04724*%
D18*
X167790Y127024D02*
D03*
X155822Y127024D02*
D03*
D19*
X161806Y94398D02*
D03*
X158066Y103650D02*
D03*
X165546Y103650D02*
D03*
X161806Y159650D02*
D03*
X165547Y150398D02*
D03*
X158066Y150398D02*
D03*
D20*
X176806Y95378D02*
D03*
X181806Y95378D02*
D03*
X186806Y95378D02*
D03*
X191806Y95378D02*
D03*
X176806Y114669D02*
D03*
X181806Y114669D02*
D03*
X186806Y114669D02*
D03*
X191806Y114669D02*
D03*
X131806Y95378D02*
D03*
X136806Y95378D02*
D03*
X141806Y95378D02*
D03*
X146806Y95378D02*
D03*
X131806Y114669D02*
D03*
X136806Y114669D02*
D03*
X141806Y114669D02*
D03*
X146806Y114669D02*
D03*
X191806Y158669D02*
D03*
X186806Y158669D02*
D03*
X181806Y158669D02*
D03*
X176806Y158669D02*
D03*
X191806Y139378D02*
D03*
X186806Y139378D02*
D03*
X181806Y139378D02*
D03*
X176806Y139378D02*
D03*
X146806Y158669D02*
D03*
X141806Y158669D02*
D03*
X136806Y158669D02*
D03*
X131806Y158669D02*
D03*
X146806Y139378D02*
D03*
X141806Y139378D02*
D03*
X136806Y139378D02*
D03*
X131806Y139378D02*
D03*
D21*
X156806Y144476D02*
D03*
X156806Y138571D02*
D03*
X166806Y144476D02*
D03*
X166806Y138571D02*
D03*
X156806Y115476D02*
D03*
X156806Y109571D02*
D03*
X166806Y115476D02*
D03*
X166806Y109571D02*
D03*
D31*
X221806Y108524D02*
D03*
X221806Y82024D02*
D03*
X221806Y145524D02*
D03*
X221806Y172024D02*
D03*
X101806Y172024D02*
D03*
X101806Y145524D02*
D03*
X101806Y82024D02*
D03*
X101806Y108524D02*
D03*
D39*
X240546Y48283D02*
D03*
X83066Y48283D02*
D03*
X83066Y205764D02*
D03*
X240546Y205764D02*
D03*
D40*
X171806Y205764D02*
D03*
X151806Y205764D02*
D03*
X131806Y205764D02*
D03*
X161806Y48283D02*
D03*
X181806Y48283D02*
D03*
D41*
X191806Y205764D02*
D03*
X141806Y48283D02*
D03*
D42*
X161806Y74626D02*
D03*
X141806Y74626D02*
D03*
X181806Y74626D02*
D03*
M02*
