G04*
G04 #@! TF.GenerationSoftware,Altium Limited,Altium Designer,21.6.1 (37)*
G04*
G04 Layer_Color=8388736*
%FSLAX25Y25*%
%MOIN*%
G70*
G04*
G04 #@! TF.SameCoordinates,6932302D-1246-4337-B808-B0F653D0E11F*
G04*
G04*
G04 #@! TF.FilePolarity,Negative*
G04*
G01*
G75*
%ADD22R,0.04816X0.07296*%
%ADD23R,0.03162X0.06509*%
%ADD24O,0.03556X0.10642*%
%ADD25R,0.04343X0.03556*%
%ADD26C,0.12217*%
%ADD27C,0.10800*%
%ADD28R,0.10800X0.10800*%
%ADD29O,0.12800X0.08800*%
%ADD30C,0.05524*%
%ADD31O,0.12000X0.08000*%
D22*
X167790Y127024D02*
D03*
X155822Y127024D02*
D03*
D23*
X161806Y94398D02*
D03*
X158066Y103650D02*
D03*
X165546Y103650D02*
D03*
X161806Y159650D02*
D03*
X165547Y150398D02*
D03*
X158066Y150398D02*
D03*
D24*
X176806Y95378D02*
D03*
X181806Y95378D02*
D03*
X186806Y95378D02*
D03*
X191806Y95378D02*
D03*
X176806Y114669D02*
D03*
X181806Y114669D02*
D03*
X186806Y114669D02*
D03*
X191806Y114669D02*
D03*
X131806Y95378D02*
D03*
X136806Y95378D02*
D03*
X141806Y95378D02*
D03*
X146806Y95378D02*
D03*
X131806Y114669D02*
D03*
X136806Y114669D02*
D03*
X141806Y114669D02*
D03*
X146806Y114669D02*
D03*
X191806Y158669D02*
D03*
X186806Y158669D02*
D03*
X181806Y158669D02*
D03*
X176806Y158669D02*
D03*
X191806Y139378D02*
D03*
X186806Y139378D02*
D03*
X181806Y139378D02*
D03*
X176806Y139378D02*
D03*
X146806Y158669D02*
D03*
X141806Y158669D02*
D03*
X136806Y158669D02*
D03*
X131806Y158669D02*
D03*
X146806Y139378D02*
D03*
X141806Y139378D02*
D03*
X136806Y139378D02*
D03*
X131806Y139378D02*
D03*
D25*
X156806Y144476D02*
D03*
X156806Y138571D02*
D03*
X166806Y144476D02*
D03*
X166806Y138571D02*
D03*
X156806Y115476D02*
D03*
X156806Y109571D02*
D03*
X166806Y115476D02*
D03*
X166806Y109571D02*
D03*
D26*
X240546Y48283D02*
D03*
X83066Y48283D02*
D03*
X83066Y205764D02*
D03*
X240546Y205764D02*
D03*
D27*
X171806Y205764D02*
D03*
X151806Y205764D02*
D03*
X131806Y205764D02*
D03*
X161806Y48283D02*
D03*
X181806Y48283D02*
D03*
D28*
X191806Y205764D02*
D03*
X141806Y48283D02*
D03*
D29*
X221806Y108524D02*
D03*
X221806Y82024D02*
D03*
X221806Y145524D02*
D03*
X221806Y172024D02*
D03*
X101806Y172024D02*
D03*
X101806Y145524D02*
D03*
D30*
X161806Y74626D02*
D03*
X141806Y74626D02*
D03*
X181806Y74626D02*
D03*
D31*
X101806Y82024D02*
D03*
X101806Y108524D02*
D03*
M02*
